<?xml version="1.0" standalone="no"?>
<!DOCTYPE svg PUBLIC "-//W3C//DTD SVG 1.1//EN" "http://www.w3.org/Graphics/SVG/1.1/DTD/svg11.dtd">
<svg xmlns="http://www.w3.org/2000/svg">
  <defs>
    <font id="Caveat" horiz-adv-x="427">
      <font-face font-family="Caveat" units-per-em="1000" panose-1="0 0 0 0 0 0 0 0 0 0" ascent="960" descent="-300" alphabetic="0"/>
      <glyph unicode=" " glyph-name="gid295" horiz-adv-x="242"/>
      <glyph unicode="!" glyph-name="gid263" horiz-adv-x="210" d="M197,170q-28-5-37,27t5,88q6,12 10,23.5t4,18.5q4,13 10.5,30.5t13.5,33T213,411q4,0 8.5,7t4.5,14q0,8 3.5,18t7.5,14q0,5 4,11t4,10t2.5,7t2.5,7q9,16 23.5,47.5t29,66.5T327,675t10,33q2,8 6,12t12,2q4,3 8,3.5t8,0.5q0,0 3.5-4T385,710q8-7 9-16t1-21q-1-19-14-43t-29-53q-10-19-19.5-36T323,520t-4-12t-9-20q-6-10-13-24t-12.5-25.5T279,424q-1-4-2.5-8t-5.5-8q-4,0-4.5-5.5T266,397q0-4-4.5-18.5T247,344q-19-53-27-84.5T210,206q-2-24-3.5-28t-9.5-8ZM143,10q-19-7-31.5-6.5T84,15Q65,33 71.5,51.5T104,88q18,11 26.5,12T157,93q30-19 26.5-42T143,10Z"/>
      <glyph unicode="&quot;" glyph-name="gid269" horiz-adv-x="237" d="M199,440q-10-1-13,0t-10,7q-1,7 2,13t8,13q12,20 27.5,47.5T234,563q2,11 6.5,28.5T245,628q0,5 0.5,12t3.5,12.5t8,2.5q9-4 19.5-9.5t17-12.5t4.5-18q-2-24-10-44.5T274,530q-6-22-20-41t-31-39q1-4-6-5t-18-5Zm120,0q-10-1-13,0t-10,7q-1,7 2,13t8,13q12,20 27.5,47.5T354,563q2,11 6.5,28.5T365,628q0,5 0.5,12t3.5,12.5t8,2.5q9-4 19.5-9.5t17-12.5t4.5-18q-2-24-10-44.5T394,530q-6-22-20-41t-31-39q1-4-6-5t-18-5Z"/>
      <glyph unicode="#" glyph-name="gid265" horiz-adv-x="559" d="M389-140q-19-5-30,8T345.5-92T351-28q5,12 8,23.5T362,14q2,8 10,35.5T391.5,113t23,71.5t20,60T445,272q4,0 7,7t3,14q0,8 3.5,18t7.5,14q0,5 2.5,11.5T471,347t2.5,8t2.5,8q6,11 18.5,41.5t29,72t33.5,86T589,647t24,66t9,30q0,8 4,12t12,4q3,3 7.5,4t8.5,1q0,0 4-4t12-12q8-7 9.5-16t1.5-21q0-13-3-23t-12-29t-28-59q-3-8-12-28t-19.5-45t-21-48.5t-17-39.5T562,421q0-4-3.5-12T551,389q-4-8-11-23.5t-14.5-33t-12.5-30T508,288q0-4-0.5-8t-4.5-8q-4,0-4.5-5.5T498,261q0-10-16-53q-7-22-17-56T443.5,79.5T422,5T405.5-58.5T399-97q0-24-1-31.5T389-140ZM146,178q-6,0-15,0.5T111,183q-15,0-20,3.5T82,197q-11,15-2,20.5t46,9.5q11,3 43,5t76.5,3.5t93,2.5t93.5,1.5t79,1t47,0.5q26,0 35-2t20-13q15-15 11-28.5T597,188q-7-1-26-2t-37-3q-4,0-31-0.5t-67.5-1t-86.5-1t-89-1t-73.5-1T146,178Zm23-318q-19-5-30.5,8T125-92t6,64q5,12 8,23.5T142,14q2,8 10,35.5T171.5,113t23,71.5t20,60T225,272q4,0 7,7t3,14q0,8 3.5,18t7.5,14q0,5 2.5,11.5T251,347t2.5,8t2.5,8q6,11 18.5,41.5t29,72t33.5,86T369,647t24,66t9,30q0,8 4,12t12,4q3,3 7.5,4t8.5,1q0,0 4-4t12-12q8-7 9.5-16t1.5-21q0-13-3-23t-12-29t-28-59q-3-8-12-28t-19.5-45t-21-48.5t-17-39.5T342,421q0-4-3.5-12T331,389q-4-8-11-23.5t-14.5-33t-12.5-30T288,288q0-4-0.5-8t-4.5-8q-4,0-4.5-5.5T278,261q0-10-16-53q-7-22-17-56T223.5,79.5T202,5T185.5-58.5T179-97q0-24-1-31.5T169-140Zm38,518q-6,0-15,0.5T172,383q-15,0-20,3.5T143,397q-11,15-2,20.5t46,9.5q11,3 43,5t76.5,3.5t93,2.5t93.5,1.5t79,1t47,0.5q26,0 35-2t20-13q15-15 11-28.5T658,388q-7-1-26-2t-37-3q-4,0-31-0.5t-67.5-1t-86.5-1t-89-1t-73.5-1T207,378Z"/>
      <glyph unicode="$" glyph-name="gid301" horiz-adv-x="450" d="M178-124q-28-6-30.5,26T161-11q9,13 12.5,25T178,33q3,8 14,34t26,60t29.5,67.5t25.5,57T286,278q2,0 3.5,1t3.5,3.5t3.5,5t3,5.5t1.5,6q3,20 11.5,32.5T328,363q7,11 22,40.5T385,473t40.5,83t38,81T492,700.5T503,730q1,3 2,5t2.5,3.5t3,2.5t3.5,1.5t4,1t5-0.5q6,6 16,2q0,0 3.5-3.5T553,731q5-9 6.5-18.5T560,692q-2-13-7-22.5T537,642t-32-56q-4-7-15-26.5t-24-43T440,470t-21-38t-8-17t-1-5t-3-6.5t-5-8.5t-7-11q-4-8-12.5-23t-17-31t-15-28T344,288t-1-5t-3-5.5t-5-5.5q-4,0-5-5.5t-1-5.5q0-2-2-9t-6.5-17T308,214q-9-22-22.5-55.5T257,88T228,16T205-45.5T194-83q-1-24-4-31.5T178-124ZM120,55q-5,2-9.5,4.5T99,67Q86,74 76.5,81.5T61.5,100T55,126q0,4 9,13t22.5,13.5T115,149q-10-23-7-35t41-18q17-2 32-1.5T218,98q23,1 40,3t24,6q28,8 51.5,20.5T364,153q12,11 13,18t1,23q-1,12-2,19t-3.5,13.5t-8,16.5T348,269q0,5-15,17.5T304,310q-7,12-17.5,26.5T263,358q-4,5-9.5,15.5T240,393q-14,23-3,54t43,59q8,10 24.5,22.5t32,22T355,560q0,0 6.5,2.5T378,569q12,2 25.5,6.5T430,580q20,5 32,6.5t40-0.5q12-3 27-9.5T555,560t11.5-21T551,516q-11-2-23.5,4T498,533t-40,5q-33-1-65.5-13T339,489q-26-16-37-33t-11-29q2-5 6-14.5T308,393q21-22 36-37t24.5-24t14-14t4.5-7q4-8 13.5-21T415,269q3-2 6-8.5t5-11.5q4-2 7-16.5t5-31t2-25.5q0-8-5.5-18T420,138.5T400,120T366.5,98t-48-24T271,59q-15-4-38-7t-47-3.5t-42.5,1T120,55Z"/>
      <glyph unicode="%" glyph-name="gid315" horiz-adv-x="600" d="M125-94q-18,3-23.5,18T104-37t29,54q9,8 16,14.5T158,45q5,7 22,27.5T220,119t45.5,51T304,213t17,21q4-1 9,4.5t7,12.5q3,8 10,14.5t14,7.5q2,5 5,8t4,7t4.5,7t4.5,7q9,8 31,29.5T461,382t60,61t58,60t44,47t19,22q7,13 19,7q7,4 16,0q0,0 1.5-4.5T684,560q5-10 4-17.5T681,525q-5-11-11.5-19t-21-21T604,445q-7-8-27.5-27.5t-43.5-42t-40-39T475,318q-4-1-9.5-5T455,298q-8-8-25.5-25t-32-31.5T382,224q-2-3-6-5t-10-4q-1,1-2.5-2t-1.5-3q0-4-8.5-15.5T328,169q-17-20-44.5-53.5t-56-70T177-20.5T149-62q-8-19-12.5-25T125-94ZM476,33q18,20 29,39t21,47q4,13 4,34t-5,24q-10,5-23.5,3.5T474,165q-25-19-42.5-49.5T397,48q-11-27-4.5-43.5T421-7.5T476,33ZM400-58q-10,0-16.5,4T369-43q-16,16-22,31t-3,28q2,7 1.5,12.5T345,34q-4,5-2,6t3,4q5,0 3,9q-1,6 7,28t20,41q5,8 14,21t20.5,26T432,190q20,17 35,25t33,12q18,5 25,4.5T544,218q18-7 26.5-18.5T581,166q2-24-3.5-54.5T540,35Q520,7 503-7T463-35q-17-11-31-16.5T400-58ZM337,402q18,20 29,39t21,47q4,13 4,34t-5,24q-10,5-23.5,3.5T335,534q-25-19-42.5-49.5T258,417q-11-27-4.5-43.5t28.5-12T337,402Zm-77-90q-10,0-16.5,4T229,327q-16,16-22,31t-3,28q2,7 1.5,12.5T205,404q-4,5-2,6t3,4q5,0 3,9q-1,6 7,28t20,41q5,8 14,21t20.5,26T292,560q20,17 35,25t33,12q18,5 25,4.5T404,588q18-7 26.5-18.5T441,536q2-24-3.5-54.5T400,405q-20-28-37-42t-40-28q-17-11-31-16.5T260,312Z"/>
      <glyph unicode="&amp;" glyph-name="gid318" horiz-adv-x="564" d="M657-54q1-12-10.5-13.5t-30,4T578-48.5T543-30q-19,5-53,37T417,85q-40-22-65-35.5t-45.5-22T258,11Q192,5 137,24q-8,3-20.5,12T92,55T75,70q-5,3-5,13.5T72,105t3,14q3,9 17.5,31.5t37,52.5t49,61T231,321q-24,35-33,66.5t0.5,68.5T236,543q10,16 25,33.5t30.5,33t27,24T331,640q4-7 8-5t8,2q4,2 15,1.5t25.5-2.5t27.5-7q36-4 50.5-8T492,603q15-11 23-22t11.5-21.5T530,540q0-13-20.5-40T455,443q-13-16-26.5-28.5T415,402q0-4-5-11t-13-10q-11-10-31-28t-36-33t-17-18q-1-2 9-17.5T348,248t32.5-41.5t29.5-34T427,159q33,32 68.5,62.5T568,286q25,26 35.5,36.5t16,9.5t12.5-8q13-2 14-12.5t-3-20T638,281q-13-17-36-39t-49-45.5T504,152t-38-36q0,0 12.5-14.5T503,76q33-34 51-47.5T595,7q31-10 46-24.5T657-54ZM166,67q30-9 59-6.5T286.5,77T357,117l19,14l-25,29q-7,8-21,27t-28,36q-15,14-23,27t-8,13q-3,0-13.5-10t-22-23.5T218,206q-23-18-35-35.5T156,130q-7-16-8-28t3.5-20T166,67ZM280,357q11,12 33.5,30.5t49,41t49.5,46t36.5,45T457,558q-2,4-16.5,11t-32,13T379,587q-20,2-45.5-21T285,510q-25-37-30-77.5T280,357Z"/>
      <glyph unicode="&apos;" glyph-name="gid270" horiz-adv-x="117" d="M189,440q-10-1-13,0t-10,7q-1,7 2,13t8,13q12,20 27.5,47.5T224,563q2,11 6.5,28.5T235,628q0,5 0.5,12t3.5,12.5t8,2.5q9-4 19.5-9.5t17-12.5t4.5-18q-2-24-10-44.5T264,530q-6-22-20-41t-31-39q1-4-6-5t-18-5Z"/>
      <glyph unicode="(" glyph-name="gid278" horiz-adv-x="330" d="M287-128q-41,8-74,38T166-17Q147,25 148,92.5T168,230q5,19 9,39t5,27q3,10 13,33t23,52.5t25.5,59T265,493q11,25 32.5,59t45,68t43,59T413,710q5,5 14,13t16,9q4,11 16,18t21,7q23,12 36.5,7T538,729q3-14 0.5-18T516,698q-10-4-25-11.5T469,671q-9-11-20-22t-17-15q-18-7-18-16q0,0-8.5-17T378,560q-12-19-28-47t-25-42q-9-16-14.5-26.5T295,423q0-3-3-14t-12-25q-6-22-24-59q-7-16-16.5-42t-16-50T217,199q-2,0-3.5-5.5t-4-24T201,110q-1-45 2.5-74T218-13.5T247-54q11-10 22-15t26-6l34-21q-6-23-15.5-28.5T287-128Z"/>
      <glyph unicode=")" glyph-name="gid279" horiz-adv-x="330" d="M72-120q-19,5-29.5,14T31-82q1,3 1,8.5T36-61q0,0 6.5-3T65-63q20-1 28,4t23,22q11,15 25.5,35T161,31q16,11 23,20.5T197,71q0,5 3,18.5T215,122q11,25 21,42.5T246,187q0,0 3,7t2,17q6,3 10.5,13.5T265,246q0,3 9,23.5T284,311q11,36 16.5,64.5T309,438t6,87q2,45 3,67.5T317.5,627T308,651q-10,32-17,32q-3,0-6.5,8.5T285,714q-1,4 3,9t13,4q7,0 15.5-5.5T328,712q4,4 12.5-9.5T359,660q6-14 9-23.5t4-21t0-32T369,527q0-35-4.5-76.5t-10.5-81T341,298q-7-26-19-62.5T295.5,162t-27-66T248,55q2,0-5.5-12t-20-30.5T197-25.5T175-59q-15-21-34-36t-37-22t-32-3Z"/>
      <glyph unicode="*" glyph-name="gid256" horiz-adv-x="363" d="M422,407q-10-7-24,6t-24,31q-3,7-7.5,20.5T356,494q-1,13-1.5,25T354,531q-1,1-29-20t-73-66q-28-26-37-31t-15-4q-7,1-9,5.5t-2,5.5q-1,3-1,13.5t3,17.5q5,6 21,23t35.5,36T282,545t19,18q8,8 8,11t-8,10q-4,5-6.5,7.5T296,594q0,0-0.5,3t-4.5,4q-3,5-4.5,10t-1.5,7q0,5 0,7.5t0,2.5q-4,3-5.5,11.5t-0.5,17t3,10.5q0,0 2.5-0.5T291,662q4,0 8.5-6.5T311,638q8-16 14.5-23.5T339,607q0,0 7.5,13.5T356,652q14,19 24,36.5T395,713q2,6 6,11t4,5t2,5t6,6q7,8 9.5,9.5T427,749q4-5 8.5-8.5T442,729l10-16l-13-17q-22-33-32.5-60.5T398,608q0,0 9.5,4t19.5,6q11,5 21,7.5t12,3.5q10,0 24,9q15,5 24,0q8-7 11-19.5t3-17.5q-1-1-18.5-9.5T460,575q-25-7-44-14t-21-12q-12,0 0-17q2-6 2-15t1-20q5-19 7.5-31.5T409,453q4,0 4,6q0,4 9,4q3,0 6.5-4.5t6-9.5t0.5-7q0,0 0-3t0-3q4-1 1.5-8t-7-14t-7.5-7Z"/>
      <glyph unicode="+" glyph-name="gid304" horiz-adv-x="446" d="M178,178q-6,0-15,0.5T143,183q-15,0-20,3.5T114,197q-11,15-2,20.5t46,9.5q17,4 50.5,6.5t72.5,4t74,2.5t55,1q26,0 35-2t20-13q15-15 11-28.5T449,188q-5,0-15.5-1t-23-2T386,183q-6,0-33-1t-62.5-2t-67-1.5T178,178ZM304,31q-15-11-20.5-2T274,75q-4,17-6.5,50.5t-4,72.5T261,272t-1,55q0,26 2.5,35T275,382q15,15 28.5,11t9.5-27q1-5 1.5-15.5t1.5-23t2-24.5q0-6 1-33t2-62.5t1.5-67T323,95q0-6-0.5-15T318,60q0-15-3.5-20T304,31Z"/>
      <glyph unicode="," glyph-name="gid261" horiz-adv-x="198" d="M52-79q-10,0-12.5,1.5T33-69q0,7 3.5,12T47-45Q57-35 70-20.5T94.5,9T111,33q4,11 7.5,26T126,92q0,8 0.5,14.5T131,117q7,7 12.5,6t10-12T160,78q4-22 0-40T145-6q-2-7-13-21T110-53T96-65q-4,0-7-2.5T82-74T70.5-78.5T52-79Z"/>
      <glyph unicode="-" glyph-name="gid282" horiz-adv-x="326" d="M178,178q-6,0-15,0.5T143,183q-15,0-20,3.5T114,197q-11,15-2,20.5t46,9.5q34,8 63,11t69,3q26,0 35-2t20-13q15-15 11-28.5T329,188q-7-1-26-2t-37-3q-11-1-35-3t-53-2Z"/>
      <glyph unicode="." glyph-name="gid266" horiz-adv-x="198" d="M153,52q-19-7-31.5-6.5T94,57Q75,75 81.5,93.5T114,130q18,11 26.5,12t26.5-7q30-19 26.5-42T153,52Z"/>
      <glyph unicode="/" glyph-name="gid272" horiz-adv-x="330" d="M67-94Q37-95 33-62T53,23q6,11 12,21.5T72,62q3,6 16.5,31.5t33,61.5t41,75T203,303.5T235,361t15,25q4-1 8.5,5.5T264,405q2,8 7.5,17t9.5,11q2,5 5.5,11t4.5,10t4,7.5t4,7.5q8,9 21,28.5T349.5,542t33,51T413,642t23,39t10,20q3,15 20,12q5,4 16,2q0,0 2.5-4.5T494,696q7-9 6.5-18T497,658q-2-13-7-22.5t-18-26T432,558q-6-9-12.5-17.5t-12-15t-8.5-11t-3-6.5q-1-4-6.5-11.5T378,478q-6-7-16-21t-20.5-29T323,401.5T315,388q-1-3-2.5-7t-6.5-7q-4,1-5.5-4.5T299,364q0-8-26-49q-11-20-32.5-60t-47-88.5T144,71.5T103.5-9T85-54q-4-23-7-30.5T67-94Z"/>
      <glyph unicode="0" glyph-name="gid233" horiz-adv-x="450" d="M280,21q-7,0-21.5,6.5T228,43.5T202,62q-22,21-37,51t-21,64.5T143,244q11,64 48,126.5T276,474q26,23 47,35.5T374,529q11,3 24,3.5t20,0.5q20,0 40-8t34-19.5T506,484q0-7-1-10.5t-9,0.5H486l10-29q4-8 7-21.5t3-24.5q0-9-3-28.5T495,329t-10-41t-9-28q-3-6-3.5-11.5T472,239q-4-7-12.5-27T447,184q-4-4-6.5-7t1.5-7q0-2-5-12.5T426.5,138t-8.5-9q0,0-2.5-0.5T413,125q0-4-13-20.5T369,70q-10-10-27.5-21.5T307,29t-27-8Zm-3,63q11,0 21,3.5T315,98q18,12 42,39.5T392,191q11,15 17.5,31.5T430,279q8,11 11,27t3,27t0.5,30t4.5,32q0,26-1,34.5T440,446q-4,3-10.5,6T416,455t-26-7.5T363,435q-7-4-15.5-1t-8.5,8q0,14-18,2.5T281,406q-18-18-30.5-36.5T238,347t-3-10t-6-14q-5-7-12-23t-13.5-31.5T195,245q0-4 0-21.5t0-32.5q0-17 1.5-29t4.5-20.5t8-18.5q4-7 12.5-16.5T233,93q11-10 18-11.5T277,84Z"/>
      <glyph unicode="1" glyph-name="gid234" horiz-adv-x="450" d="M321-10q-3-2-8-0.5t-11,6T289,6q-4,4-5,9.5T286,35t9,45q4,20 9,40t9,33.5t4,13.5q5,2 14.5,30T353,265q4,14 14,47t20,64q9,29 15,52.5t6,23.5t-14.5-8.5t-36.5-22T314,392q-17-10-40.5-28T232,335q-27-21-33-23.5T184,314q-13,11-17.5,23t1.5,22q2,1 12.5,8T204,383t24.5,17T245,411q3,0 11,7t17,13q5,6 35,27t65,47q37,23 62.5,37T465,555q3,0 9.5-4T487,541t7-12q6-7-6-32q-4-9-13-32.5t-19.5-54t-20-60T420,300q-8-31-14.5-48t-12-32.5T381,177q-7-16-14.5-40.5T353,88.5T344,50q-8-22-13-39T321-10Z"/>
      <glyph unicode="2" glyph-name="gid235" horiz-adv-x="450" d="M159,23q-4,2-11.5,7.5t-15,13T122,57q-3,5 0.5,18T130,88q3-2 10,7t14,19.5t7,12.5q1,4 5.5,6.5T175,139q5,8 13.5,16.5T202,170q8,10 29,30t41,41q21,23 37,40.5T326,306q0,0 3.5,3.5T338,316t13.5,10T366,339q2,8 11.5,22.5T397,386q8,12 15,26.5t9,21.5q3,11 0,13.5T396,457q-24,8-52.5,6.5T280,437q-14-3-25.5-8T235,425q-4,2-9,9t-11,13l-10,21l31,17q41,26 74.5,36t61.5,1q11,0 20-2.5t9-2.5q8,1 20-8.5T444.5,485T462,457q16-24 10.5-50.5T442,343q-5-6-22-25t-38.5-42.5t-39-41.5T320,211q-7-3-23.5-20.5t-35-38t-31-36T220,101q-1-4 3-3.5t13,3.5q15,5 39.5,10t50.5,8.5t45.5,4.5t22.5-2q2-5 3.5-3.5T399,120q2,7 25.5,4t42.5-9q11-3 17.5-5t6.5-6q0,0 2.5-4.5T502,88q16-13 4-17t-52,3q-26,0-43-3q-4-2-17-2t-25-1q-18,2-36-1.5T290,55q-9-3-28-9T221,34t-39.5-9T159,23Z"/>
      <glyph unicode="3" glyph-name="gid236" horiz-adv-x="450" d="M243,16q-25,0-48.5,5.5T157,36.5T144,58q1,16 7,17.5T179,74q34-7 73-1t73,21t53,34q27,26 24.5,52T371,225q-13,9-36,17t-45.5,12.5T253,258q-9-1-14.5,0T220,266q-6,7-11,15.5T202,294q-1,5 5.5,10T236,321.5T304,359q42,23 66.5,37.5t39,24T433,438q18,24 18,31t-26,12q-25,2-48,3t-23-3q0,0-0.5,0t-3.5,0q-5,2-22-1t-32.5-7T279,466q-1-2-11.5-6.5t-21-7.5T233,449q-5,2-11.5,10.5t-10.5,18T209,492q2,4 12.5,10.5t24.5,14T271,529q14,4 39.5,6t51.5,2.5t38-0.5q46-5 71-24t31-51q3-14 2-23t-9-18.5T467,393q-25-16-41-27t-48-28q-7-5-19-13t-22-14.5T327,302q0,0 4-2.5t10-6.5t11-9q29-10 53-32t34-36q14-31 11.5-60T430,101.5T377,55q-28-16-65-26.5T243,16Z"/>
      <glyph unicode="4" glyph-name="gid237" horiz-adv-x="450" d="M317,7q-7,9-7,21t9,49q5,26 12,56.5T342,182q8,19 12.5,35t4.5,16t-13-1t-31-9q-50-12-77.5-7T194,248q-5,5-8.5,17.5T182,290t5,17q6,13 12.5,26t11,23t4.5,12q0,3 2.5,6.5T220,382q4,9 19.5,33.5t35,53.5t37,53T337,553q8,4 17,6.5t12-1.5q3-5 6-15t4.5-18t-1.5-8q0,0-2.5-0.5T370,512t-10-17t-22-27q-14-19-26-36.5T289,397t-21.5-34T247,328q-11-34-12.5-43t2.5-13q6-3 25.5-1.5T317,282q19,4 35.5,7.5T376,297q8,0 14.5,3t6.5,7t6.5,17T414,348q8,15 19.5,40.5T457,433q25,56 31.5,72.5T499,522t11-3.5T521,507q7-7 9-13.5T524,473q-2-12-5.5-20.5t-10-20.5T490,397q-12-24-27.5-57T432,272t-27.5-65.5T386,158q-14-40-21-62.5t-7.5-35T362,38q2-18-8-30.5t-21.5-14T317,7Z"/>
      <glyph unicode="5" glyph-name="gid238" horiz-adv-x="450" d="M167,24q-18,13-18,22q-4,6-9,6q-3-1-5.5,6t-4,16.5T130,88q4,8 12,9.5t15.5-2T166,84q2-8 15.5-13T217,67q28,1 58.5,14t57,33T375,155q7,14 13,37t8,41t-3,18q0,0-1.5,7T387,273q-5,15-23,30.5T329,326q-7,2-25.5,3.5T270,329q-16-1-28.5,0T229,330q-5,1-14.5,8T197,353t-8,13q2,7 10,22.5t19.5,35t24.5,37T268,490q30,33 68.5,49.5T416,554q29-1 41.5-4.5T482,530q8-14 7-25t-8-15t-19,2q-14,9-38.5,7T372,489q-21-8-44.5-25.5T299,435q-4-3-5.5-6t-5.5-2q0,0-3-3.5t-3-7.5q-5-6-6.5-8.5T270,409q0,0 0-3t-1-7q-1-7 1.5-11.5T292,381q25-4 38-7.5T368,355q28-16 45-42.5T436.5,253t1.5-67q-3-22-6-34t-17-33q-23-32-56-56.5t-69-38T221.5,10T167,24Z"/>
      <glyph unicode="6" glyph-name="gid239" horiz-adv-x="450" d="M253,31q-33-9-55-6.5T155,47q-14,11-21,21T124,98q-5,15-6,24t1.5,22t7.5,40q8,36 14,56.5T165,286q8,21 18.5,42.5T199,356q5,7 15,21t21,26q10,13 18.5,24.5T262,439q5,3 9.5,6t9.5,10q8,9 22.5,21t33,23t37,19T408,528q32,11 30-1q0,0 3-3t11-5q4-1 6.5-6.5T464,502q2-8-0.5-14T447,469q-14-10-19.5-11t-9.5,3q1,4-4,5.5t-5,1.5q-6,2-26-9t-42.5-28T303,398q-9-8-16-16t-9-12q-13-13-23-25.5T245,332q3-6 14.5-3t12.5,7q0,4 22.5,10.5T340,355q9,4 24.5,1t25.5-5q22-4 30-8t20-19q20-19 27.5-37.5T474,242q0-16-3-28t-14-25q-8-13-21-30.5T410.5,127T389,107q-4-2-7.5-4.5T378,100q-1-6-14.5-15.5T330,64T289.5,44T253,31ZM186,80q18-4 28-3.5T249,87q8,2 15,4t11,1q0,0 14,9.5T322,122q53,34 82,75.5T428,266q1,8-2.5,15.5T423,293q-3,0-10,2t-18,4q-12,3-23.5,2t-34-5.5T269,280q-7-2-16-6.5T235,267q-4-3-12-7.5T208,253q-12-1-20-19t-19-68q-7-34-8-46t4-20q2-12 8-15t13-5Z"/>
      <glyph unicode="7" glyph-name="gid240" horiz-adv-x="450" d="M221-18q-12,2-21,13T185,20q-4,19 16,66.5T255,198q22,36 21,42t-19,6q-9,2-21,4.5T221,257q-16,8-18.5,17.5T209,285q4,2 3,5.5t0,6.5q3,1 7.5,0t9.5-2q14,0 21,0t18,0q5,0 12.5,0t13.5-1q14-2 19,2.5T332,319q8,14 25,37.5T387,405q48,68 53.5,91T417,517q-16-1-35.5-7T324,490q-37-16-51.5-19.5T247,473q-6,1-9.5,6.5t-4,13T234,507q2,11 41,24t90,26q23,4 44,5t36.5-2T465,549q0,0 2.5-2.5T471,548q4-1 6-7.5t8-16.5q10-17 12.5-25T497,476q-3-11-10-22t-11-14q-5-4-7.5-9t-2.5-5q-1-4-6-7.5T450,409q-1-4-4.5-9t-4.5-8q-1-1-8-12t-17-26t-18.5-27.5T386,309q-14-13-14-19t13-12q17-7 28-16.5T428,238q1-20-5-23q-5-7-15.5-6T394,214q-3,6-13.5,11.5T360,234t-13,3q-4-2-8-7.5T330,218q-7-10-18.5-32.5t-23-44T271,110q-1-5-5.5-10T259,88q-4-7-7-20.5t-3-24T252,32q8,2 11.5-1.5T269,19q5-7-3-16.5t-21-16T221-18Z"/>
      <glyph unicode="8" glyph-name="gid241" horiz-adv-x="450" d="M176-32q-7,1-14,5T148.5-17T136-6q-7,17-10,26t0,30q0,12 2.5,28t9.5,26q7,20 22.5,47t34,54t35,49.5T254,287q11,14 10.5,23.5T244,347q-4,11-9,16.5t-1,5.5q0,0-2.5,3.5T226,383q-15,14-14.5,43T226,483q16,36 35.5,54.5T311,560q11-1 37-6t54-11t45-14q12-5 27.5-16T502,491.5T515,475q0-3 3.5-6.5T523,460q6-11 6.5-26T527,404.5T518,381q-25-28-35-32q-5-4-11.5-10T457,331q-5-7-9.5-12t-8.5-5q-4,3-8,3.5t-4-3.5q0-2-13.5-9T386,293t-18-3q0,0-3,0t-9-4q-13,2 15-32q23-43 34.5-82.5T402,111q-19-43-41-70.5T326,14q0,0-4.5-3T312,5q-2-7-8.5-9.5T292-6q-9,4-31-10q-13-9-30.5-13.5t-32.5-5T176-32Zm16,51q10-1 28,6t38.5,18.5T294,65q38,31 51.5,60t1.5,60q-6,12-13,26t-12,22q-6,9-10.5,13t-9.5,7q0,0-7.5-5.5T282,231q-11-14-17.5-24T254,190q-7-7-13-13t-9-9q0-3-6-17.5T212,122q-22-38-27.5-69.5T192,19ZM347,349q21,19 36.5,21.5T405,362q2-4 23.5,9T466,401q6,11 7,17t-1,22q1,10-2,16.5T457.5,469T427,483q-62,22-102,14t-54-55q-6-19-6-34t8-32q9-4 12-10.5t3-6.5q0-9 8-9q2-5 14-11t37,10Z"/>
      <glyph unicode="9" glyph-name="gid242" horiz-adv-x="450" d="M313-27q-5,1-11,5t-10,9t-4,7q1,5-4,5q0,0-2,6.5T281,19q0,3 1,15t1,19q2,20 10,53t19,69.5T333,241q14,36 12.5,44T320,291q-31-5-56.5,8T223,337.5T210,392q1,15 6.5,27.5T235,454q21,31 46,55.5T333.5,550T387,571q16,3 38,2t34-6q15-6 28.5-22.5T509,510t5-30q-7-33-16-50t-22-31q-16-14-37.5-51t-43-84.5T358,170q-14-42-17.5-76T344,59q4,0 10.5-3T365,53q3-4 3-9t-5-16q-3-7-9.5-16.5T339-7T324-21.5T313-27ZM268,354q15-16 41-10t54.5,28T413,427q12,14 20.5,26.5T446,469q13,14 14.5,23T455,508q-7,11-20,12t-37-8q-16-3-29.5-9.5T334,482q-4-4-8-4.5t-8,0.5q0,0-2-0.5t-2-4.5q5-9-12-23q-26-28-35-56.5t1-39.5Z"/>
      <glyph unicode=":" glyph-name="gid260" horiz-adv-x="198" d="M229,262q-19-7-31.5-6.5T170,267q-19,18-12.5,36.5T190,340q18,11 26.5,12t26.5-7q30-19 26.5-42T229,262ZM159,52q-19-7-31.5-6.5T100,57Q81,75 87.5,93.5T120,130q18,11 26.5,12t26.5-7q30-19 26.5-42T159,52Z"/>
      <glyph unicode=";" glyph-name="gid271" horiz-adv-x="198" d="M59-79q-10,0-12.5,1.5T40-69q0,7 3.5,12T54-45Q64-35 77-20.5T101.5,9T118,33q4,11 7.5,26T133,92q0,8 0.5,14.5T138,117q7,7 12.5,6t10-12T167,78q4-22 0-40T152-6q-2-7-13-21T117-53T103-65q-4,0-7-2.5T89-74T77.5-78.5T59-79ZM229,262q-19-7-31.5-6.5T170,267q-19,18-12.5,36.5T190,340q18,11 26.5,12t26.5-7q30-19 26.5-42T229,262Z"/>
      <glyph unicode="&lt;" glyph-name="gid310" horiz-adv-x="446" d="M369,55q-39,11-58,16.5T273,91q-37,12-60,29.5T167,163l-37,44l-7,30q8,2 23,11.5T163,259q11,9 25,18.5T226,301t64,36q42,20 58,31t28,19q7,5 16.5,11t13.5,5q6,1 9-0.5t7-5.5q8-10 18.5-12.5T451,374q0,0-4-7.5T435,354q-15-8-32-16t-43-22t-71-41q-27-16-47.5-27t-31-20.5T202,205q9-20 56.5-45T382,112q27-6 47-16t27-20t-7-18q-5-1-15.5-3.5t-26-3T369,55Z"/>
      <glyph unicode="=" glyph-name="gid308" horiz-adv-x="446" d="M241,275q-6,0-15.5,0.5T199,280q-15,0-20,3.5T170,294q-14,15-2.5,20.5T221,324q39,8 83,11t90,3q31,0 41-2t21-13q18-15 13-28.5T440,285q-10-1-32-2t-45-3q-7,0-27.5-1.5t-46-2.5T241,275ZM186,133q-6,0-15.5,0.5T145,138q-16,0-21,3.5T115,152q-14,15-3,20.5t54,9.5q39,8 83,11t90,3q31,0 41-2t21-13q17-15 12-28.5T385,143q-10-1-37-2t-50-3q-7,0-25-1.5T232,134t-46-1Z"/>
      <glyph unicode="&gt;" glyph-name="gid309" horiz-adv-x="446" d="M186,43q-6-1-9,1.5T171,51q-9,10-19.5,13.5T144,75q0,0 4,7t11,13q17,8 34.5,14.5t45,18.5T312,163q28,15 48.5,24t32,18.5T403,228q-8,20-53,48T229,332q-25,9-45,20t-26,21.5t9,17.5q6,1 16,2.5t26.5,1T248,387q37-13 55.5-19T341,346q35-15 57-34t43-47l34-46l5-30q-8-1-24-9.5T438,170q-11-8-26-16t-39.5-20T307,102q-44-16-60-27T217,57q-7-5-16.5-10T186,43Z"/>
      <glyph unicode="?" glyph-name="gid267" horiz-adv-x="374" d="M250,191q-16,2-23,13.5T220,228q0,2 0.5,8t2.5,14q0,6 6,19t13,31q11,20 34,45t39,37q9,7 13,9.5t4,2.5q0,4 14,15.5T370,425q0,0 13,9t20,16q23,23 34,42.5T454,537t13,62q1,35 0.5,47.5T455,668q-21,11-51.5,2.5t-59-32T301,581q-6-17-6.5-23t2.5-16q0-8 2.5-15t2.5-12q-4-1-14.5-1T266,515t-18,4q0,0-4,6t-6,10q-6,8-5.5,15.5T233,573q7,20 19,43.5T283,661t44,34q21,9 35.5,16.5T377,719t7.5,0.5T410,722q6-1 13.5,0t7.5-4q3,0 12,0t17,0q12-3 25-9.5t24.5-14T528,679q7-22 6-54.5T524,556t-23.5-68.5T466,433q-6-6-22-20t-33.5-30.5T382,354q-34-19-60-57t-39-74q-11-24-15-28t-18-4ZM222,10q-19-7-31.5-6.5T163,15q-19,18-12.5,36.5T183,88q18,11 26.5,12T236,93q30-19 26.5-42T222,10Z"/>
      <glyph unicode="@" glyph-name="gid317" horiz-adv-x="643" d="M307-125q-34,0-68.5,13.5T172-73q-17,16-30,32.5T117-3q-8,11-13.5,29.5T97,64q-1,17 2,42t9,49t13,38q0,3 1.5,6.5T125,209q0,6 7.5,20.5T148,256q34,45 56.5,74.5t47,53.5T315,436q19,15 45,28t53,23t50,13q4,1 12.5,1t30.5-2q31-3 58.5-15.5T613,451q40-31 56-64.5T691,327q4-14 4-40t-3-51.5T683,197q-11-24-27-47t-34-42.5T588,75T561,59q-15,0-39.5,7T485,83q2,0-19,12q0,0-7-7.5T441,71q-14-13-31.5-23.5T376,32t-24-3q-19,5-30,9T301.5,50.5T278,78q-4,10-5.5,18.5T271,112q0,10 3,22t7,27q6,27 16.5,47T325,252q16,23 34.5,37.5T407,316q12,6 36,6q9,0 18-2t18-8q7-1 15-9t15-19t11-21q3-15 3-22t-3-24q-1-4-2-10t-3-12q-1-8-3-16.5T508,165q-3-9-5-17t1-16q-1-4 6.5-8.5t17-7.5t13.5-3q5,0 15.5,5T577,135q16,17 28,30t21,27.5T641,229q1,6 1.5,15t0.5,19q0,50-23.5,96.5T543,428q-11,5-25.5,6.5T488,436q-22,0-44-3.5T401,420q-13-4-33.5-17.5T324,371t-43-36.5T249,302q-43-51-67-103.5T151,96q-4-30 0.5-45T159,30q11-22 30-41.5T230-45q23-9 52.5-15T350-64q8-2 10.5-4.5T362-80q0-1 1.5-3T370-96q0-9-4-13t-12-8q-6-2-13.5-4t-16-3T307-125ZM372,85q10,6 22.5,16.5t23,22T431,142q0,1 8,16q8,12 15.5,29T465,221q2,3 3,7.5t5,14.5q0,6-1.5,10t-9.5,9h1q-12,3-28.5,4.5T406,262q-15-6-30.5-25t-28-43.5t-20-48.5T322,104q7-14 20.5-20T372,85Z"/>
      <glyph unicode="A" glyph-name="gid1" horiz-adv-x="502" d="M69-33Q51-23 49.5-11T63,31t47,93q24,45 36.5,70.5t17,36.5t4.5,14q-2,9 2,14.5t13,9.5q5,5 16.5,18T221,318q9,21 21,43t32,55.5T326,504q20,35 44,71.5T421,648q11,14 20,22.5t18,7.5q12,0 27.5-8T515,649t19-28q5-8 4-34t-4-63t-7-79q-3-41-9-97T506.5,231T498,113.5T498,15q1-9 0-17t-1-13q-6-6-19.5-5.5t-26,6.5T437,1q-3,3-3.5,8.5T434,33t2,57l5,162l-13-1q-9,0-34-2t-54-5.5t-53.5-7T253,230q-9,0-21.5-12T208,187q-4-14-14.5-29.5T183,137q-7-5-11.5-12t-4.5-7q0-6-9.5-29.5T134,36.5T106-13L85-45L69-33ZM276,289q0,0 10.5,2t25,4.5T338,298q42,10 61,13.5t26.5,3.5t13.5-3q4-5 7.5-6t3.5-1q1,2 3,23t5.5,52t7,64.5t5.5,62t3,43.5q1,19 2,34.5t1,15.5q-6,0-25.5-22T408,520t-45-77q-10-19-19-34t-14-15q-2-2-11.5-17.5t-20.5-35t-18-35T276,289Z"/>
      <glyph unicode="B" glyph-name="gid10" horiz-adv-x="520" d="M205-57Q162-29 147-8.5T159,29q6,4 19.5-6.5T201,3q20-18 49.5-22.5T317-14q42,13 73.5,36.5T450,80q21,27 29,58.5t6.5,58.5T474,235q-25,35-69.5,48.5T300,281q-7-1-21-4t-25-5.5T242,269q-7-2-11-4.5t-9.5-15t-16.5-44T172,113q-21-61-33.5-86.5t-22-23T93,25Q85,39 83,52.5T91,84q5,9 8,16.5t8,26.5q5,15 19.5,52.5t34.5,88T203,372t42.5,102T280,555q14,31 17,45t-2,15q0,5-3,9.5t-2,8.5q0,4 13.5,11t30,13t25.5,4q5,0 12,0.5t7,4.5q3,0 19,2t35,0q67-6 104-38.5T572,541q-1-17-17.5-46t-40-58T469,388q-13-11-27.5-22.5t-25-19T406,339t8-3t17-6q46-17 76-43t41-72q4-15 0.5-37T539,134.5T526,98q-7-7-11-14.5T511,76q0-2-8-15.5T484,31T463,3q-10-8-23.5-19t-30-21T374-54q-28-12-60.5-16.5t-61.5-1T205-57Zm49,385q0,0 18.5,3.5t40.5,8t32,8.5q5,3 14.5,8T379,371q14,13 35.5,37.5t42.5,52T489,510q23,36 25,53.5T503,594q-9,11-30.5,14.5t-45.5,2T386,604q-13-4-20-9.5T359,578q0-9-5.5-17.5T343,547q-1-7-5-12.5t-4-5.5q0-4-14-33t-28-67q-18-43-28-69.5T254,328Z"/>
      <glyph unicode="C" glyph-name="gid11" horiz-adv-x="472" d="M214-56q-15,6-30.5,13t-29,20.5T131,15q-10,29-13.5,57T115,137q0,52 7.5,90.5T146,306q2,3 7.5,17.5t13,31.5T178,381q8,17 24.5,45.5T238,482q29,43 48,68t36,42t38.5,32.5T416,663q22,16 48.5,17T514,668.5T548,632q11-21 11-50.5t-9-62T525,458t-37-48q-13-12-23.5-9T440,417q-9,17-9.5,20t3.5,4q6,7 16,24t20,36.5T484,533q8,42 11,59.5T489,619q-4,4-11.5,3T453,612q-23-10-60-44.5T325,491q-40-53-67-94t-41-84q-2-4-6.5-15T206,287q1-4-3-19.5T194,241q-11-46-13-95.5T186.5,58T209,5q13-9 35.5-6T296,13t59,24q24,10 44,22t30,21q8,6 20.5,12.5T471,99q14,5 16,4t2-9q0-14-15.5-31T434,32q-8-8-21-17T386,1q-21-16-52-31T271.5-53T214-56Z"/>
      <glyph unicode="D" glyph-name="gid13" horiz-adv-x="578" d="M225-95q-19-3-35-3.5T143-91q-16,5-22.5,12T99-53Q88-37 83.5-23.5T82-2.5T95,2q3-1 9.5-6.5T117-18q14-15 34-20t53-1q14,3 34,8.5T277-17T307-1q53,36 85,57t32,21q2,4 7.5,6.5T445,89q6,6 19.5,19t26,26T506,149q2,9 4,14.5t2,11.5q8,8 21.5,33.5t27.5,57T581,323q14,70 7,118t-28.5,82.5T506,585q-11,9-30.5,19.5T435,623t-36.5,13T380,640q-4-1-16.5-31.5T334,531T297.5,431T261,331q-6-19-13-40t-12-36.5T231,234q-11-17-17.5-45T199,96q-9-34-13-51.5T178,28q0,0-0.5-0.5T174,24q0-6-8-6t-18.5,4.5T131,33q-3,11-3.5,21T135,93q5,19 12.5,46.5t16.5,57T181,251t12,38q7,17 20,64q8,26 16.5,52T246,451.5T257,478q5,13 15,44t26,69l7,33l-11,5q-12-4-18.5-2.5T267,629q-6-2-17,3t-19.5,13T220,659q-2,4-2.5,10.5T217,676q1,6 15,11.5t36.5,9.5t49,5.5T369,702q26-2 49-11t50-19q32-12 67.5-41.5t65-69.5T640,477q3-12 6-34t3.5-42.5T645,374q-2-4-2.5-9.5T646,357q-1-3-7-22.5T628,301q-2-26-12-54t-22-52.5T572,153q-4,0-7.5-1.5T565,149q0-5-11-19q-4-3-12.5-14.5T528,100q-1-7-6-11.5T513,84q0,0-1.5,0T510,80q-8-12-25-28.5t-38.5-34T402.5-15T360-38q-10-7-21-11.5T318-59q-5-4-22-11.5T259.5-85T225-95Z"/>
      <glyph unicode="E" glyph-name="gid15" horiz-adv-x="529" d="M231-24q-31,2-54.5,19T127,30q-17,17-27,36.5T84,118q-4,19 0,48t13,58.5T114,272q12,28 30.5,60.5t37,62T211,442q7,7 6.5,7.5T217,450q0,5 10.5,25.5T246,512q15,16 17,26t-3,16q-2,4 7,14t27,23t41,26q24,19 46.5,20.5T408,628q0-3 11.5-1.5t27,5T474,637q5,6 23.5,9.5T541,653q13-1 25.5-0.5t21,1.5t8.5,1q7,2 16.5-2T630,631q7-18-4.5-27T573,590q-30-4-52-6.5t-46-6T416,566q-25-5-41-11.5t-28-19T320,500q-7-5-18-26t-22-42q-28-39-48.5-67.5T215,331q0,0 11-3t15-3q10,5 24.5,7t23.5,4q62,16 97.5,25t54,13.5T469,380q14,11 27.5,4T518,362q5-11 0.5-19t-25-16T433,308T328,279q-55-16-94-19t-37,17q-7,4-15.5-9.5T165,231t-13.5-49t-7-48.5T147,100q8-23 21-36.5T215,40q20-1 39-3t43,8q59,10 93,21t39,15q8,4 10.5,4.5T447,86q-3-5 2.5-0.5T465,100q11,10 29,19t32.5,14t15.5,0q6-10-2-27.5t-29-38T457,28Q404,0 342-11.5T231-24Z"/>
      <glyph unicode="F" glyph-name="gid20" horiz-adv-x="454" d="M511,316q-3-7-23-11t-64-9q-13-1-38.5-2t-55-2T277,291.5T244,294q0,0-4.5-5T235,276q-7-12-17.5-37t-23-55t-23-60T154,72t-7-30q-9-24-11-41t-7-20q-1-4-13-2T96-10Q84-1 82.5,6.5T88,36q3,13 10.5,38.5t17,56.5t20,60.5T156,240q11,19 14,34.5t8,28.5q-1,11 0,15t8,12q5,4 12.5,14.5T216,377q3,10 9.5,27.5t12.5,36T249,472t5,14q2,4 6,15.5t6,18.5q4,14 6.5,23t-1.5,9q-8-2-32-3q-12-2-17.5-2.5T212,545q-10-1-18,2t-8,12q2,16 11.5,26.5T222,597q7,2 15.5,3.5T261,606q19,4 29.5,6.5T307,613q5,3 9,6.5t4,7.5q0,5 4.5,7.5t10.5,3t12.5-1.5t9.5-7q2-3 9-5t25.5,0.5T444,634q18,2 45.5,4t43.5-3q17,3 30.5,2.5T582,641q21-4 30.5-5.5T628,629q4-4 2.5-7.5T629,618q-4,2 1-0.5t7-4.5q7-3 9-7.5t2-8.5t-1-7q-1-9-10-10.5T592,579q-43,6-84.5,4.5T411,574q-20-1-35.5-5.5T358,564q-4,0-14-13.5T325,511q-4-7-14-32t-21.5-54t-20-51T259,350q14-4 45.5-4t70,2.5T445,354q15,3 31.5,5.5T498,360q5-3 9-11.5t5.5-17.5T511,316Z"/>
      <glyph unicode="G" glyph-name="gid21" horiz-adv-x="487" d="M171-31q-27,17-42,48.5T115,81q-1,62 10.5,125.5T156,330q13,36 28.5,74.5T216,477t28,54q31,51 65.5,84.5T361,659q14,8 48.5,16t71.5-1q26-7 48.5-17T559,640q8-12 14.5-20.5T580,599q1-8-5.5-19.5t-16-16.5T540,568q-13,20-27,27.5T483,611q-11,7-30,7.5T414,614t-35-17q-10-9-26-26.5T321,532t-26-41q-27-47-48.5-94.5T210,293q-4-14-10.5-41T187,198t-8-44q-7-49-4.5-86T200,17t76,4q23,3 49.5,20t52,42.5T421,138q17,32 30.5,63T466,252t-19,19q-37,4-60,2.5T346,280q-7,11-6,22t12,22q11,4 37,6t56-1.5T498,314q17-8 24-23.5t7-35.5t-4-41q-5-22-21.5-52.5T464,97q-15-21-41.5-46t-54-45T322-21q-40-18-82-23.5T171-31Z"/>
      <glyph unicode="H" glyph-name="gid22" horiz-adv-x="563" d="M130-83q0,0-3,1.5T119.5-79T109-78Q93-74 86-60.5T83-31q4,4 6,17T91,7q4,8 5,11.5T101,38q3,17 10.5,47.5t17,65.5T147,218t16.5,54T174,297q0,0 0,3.5t0,7.5q0,0 1.5,9.5T185,339q4,11 7,24t3,17q4,5 11.5,24.5T221,443q6,16 13.5,34t13,31t5.5,13q0,4 0,4.5t0,0.5q4,4 19.5,40.5T315,661q4,8 10,18t6,14q5,8 14,7.5t18.5-6.5T378,677l10-16l-36-72q-16-28-26.5-51T315,511q0,0-6-16t-14-38t-14-40q-11-31-20.5-51T251,342q0,2 22,3t56,1t69.5,0.5t63,1T499,350l52,5l34,103q8,28 21,68t23,68q16,46 25,57t21,11q3,0 8.5-1.5t11-5T702,646q12-11 11.5-25T697,584q-16-27-26.5-58.5T652,474q0-12-3-19.5T642,443q-2-2-8-15t-11-26t-5-16q0-7-3-17t-7-14q-2-6-9-30t-16-56.5t-19-63T546,155q0-7-5-17.5T536,119q-4-12-10-30t-6-23q-5-23-10.5-47t-9-41.5T497-43q-4-4-12-1t-19,7q-19,11-22.5,23.5T451,22q5,8 12.5,39.5T479,124q6,15 13,40.5t14,52t12,45t7,20.5q0,4 0,7t0,3q-2,2-25,3.5t-57,1t-70.5-2T307,289q-11,0-25,0t-22,0q-11,0-18.5,0t-7.5,0q-1-3-7-21t-14-43.5t-16.5-52t-14-48T175,94q-4-18-10.5-45t-14-55.5T137.5-56T130-83Z"/>
      <glyph unicode="I" glyph-name="gid23" horiz-adv-x="400" d="M192-31q-7,11-31.5,14T101-16q-14-2-27,1.5T53.5-3.5T48,12q1,12 20.5,19T131,39l53,1l10,20q4,11 10,31t13,43q4,14 12,38t17,51t16,48.5t9,30.5q4,9 11,30.5t13.5,44T304,409q26,79 34,112.5t4,34.5q-4,0-19.5-1t-34-2.5t-33-3.5T238,545q-5-7-17-3t-15,14q-1,9-0.5,14t5.5,8q7,6 27,13.5T283.5,605t48.5,9q17,2 34,7.5T393,635q9,3 17.5,5t17.5,1q8-5 27.5-5t41.5,1q56,5 75.5,3T599,624q5-19 2-29.5T581,585q-9-2-32.5-3.5T499,579q-71-6-76-14q-4-4-6.5-8t-6.5-9q1-4-4.5-25.5T392,479q-4-13-12-37t-16.5-49.5t-15.5-46T338,319q-4-9-6.5-19.5T328,284q-14-49-24.5-83t-19-59.5T269,92.5T254,41q0,0 15.5,1.5T311,46q47,5 67.5,6T406,49.5T416,37q20-27 5-37T350-9q-52-2-79.5-3.5t-38-4.5T220-27q0-8-8-8t-20,4Z"/>
      <glyph unicode="J" glyph-name="gid28" horiz-adv-x="306" d="M89-181q-17-8-38.5-6.5T8-175.5T-29-148q-7,8-9,15.5t2,20.5q5,18 13,18q11,0 25-19q28-25 55.5-14T116-68q6,15 19,43t27.5,60T189,94.5T205,134q0,0 0.5,3.5T210,145q1,4 5,16t8,28q4,11 11.5,33t16,46T265,308q5,21 12.5,45.5T290,391q4,8 12,32.5T320,477q12,39 23,72.5t17.5,55T365,629q0,0-17.5-3T309,619q-17-7-33.5-4.5T260,621q0,4 0,4.5t0,0.5q-3-2-8,1.5t-9,10T239,649q0,8 20,14.5T310,674q20,3 39.5,5.5T382,684q4,3 14.5,0t22-8T435,665q6-8 7.5-17T440,623t-14.5-45.5T396,497q-22-62-39-112.5T326,301q-3-11-10.5-32T301,226.5T290,191q-8-19-15-41t-11-35q0-8-4-18t-9-15q0,0-7-17.5T227,23q-8-20-17.5-44.5T192-59q-5-12-12-22.5T173-96q0,0-0.5-3t-4.5-3q0,0-3-2.5t-3-7.5q-2-6-10.5-16t-20-21t-23-19.5T89-181Z"/>
      <glyph unicode="K" glyph-name="gid29" horiz-adv-x="498" d="M96-37Q83-29 82-21.5T87,7q-1,13 1.5,24T92,46q5,0 6,6t1,10q0,8 6.5,27T117,128q8,20 15.5,37.5T140,187q0,8 4,16.5t9,16.5q5,12 7.5,26.5T163,269q6,13 13,28t11,31q6,17 17.5,49.5T229,444q9,19 18,40t16,36t10,15q0,0 0,3.5t0,7.5q0,5 8,19.5T296,596q10,15 14,28.5t4,13.5t3.5,6t7.5,10q13,9 24.5,7T369,642q8-16 7-26.5T367,593q-8-18-21-45.5t-27.5-59t-27-60t-20-49T264,354L223,253q0-2-3.5-10t-9-24T197,177t-19-63q-20-64-31-99.5t-17.5-49T116-48q-4,0-8.5,3.5T96-37Zm353-8q-9-1-24.5,8.5T391.5-13t-33,29T334,42q-16,23-40,60.5T258,183q-7,32-14,50.5T235,264l1,70l51-16q5-54 15.5-89.5T328,166q12-26 27-51.5T387,72q23-25 41-37t27-12q5-1 14.5-7t18-12.5T497-9q1-3 1-9.5t-1.5-12T493-39q-3-7-10.5-12.5T449-45ZM225,326l73,53q3,3 21.5,20T381,448L504,548q25,13 51.5,33T596,610q17,12 30,21t17,8q8,4 16.5-2.5t14-17T678,601q2-10-4-17t-29-20q-19-9-33.5-18T594,531q0,0-18.5-14.5T528,482q-40-26-68.5-49T423,398q-4,0-7.5-3t-7.5-2q0,0-7.5-5T389,378q-2-5-8.5-14T364,356q-7-4-25-16.5T301.5,312T268,285t-15-14l-28,55Z"/>
      <glyph unicode="L" glyph-name="gid30" horiz-adv-x="426" d="M217-38Q177-28 145.5,2T105,64q-1,13-2.5,34t-1,39t2.5,21q3,2 3,12q-1,4 1.5,13.5T114,203q5,12 5,19.5T118,234q0,0 3,6.5t7,10.5q6,6 5.5,12t-0.5,6q-1,4 2,11t6,11q2,2 5.5,8.5T150,306q0,3 4.5,16T165,350.5T176.5,379t8.5,17v2q4,10 11,21q1,5 5,16.5t9,22.5q11,24 27.5,54.5t35.5,61t36.5,55T340,665q17,19 27,20t25-14q7-7 10-17t2.5-17.5T400,628q-7-4-21-22.5T347.5,562t-34-51.5T285,463q-13-29-24-50.5T250,391q-1-3-2-5t-2-4q-15-31-25-56.5T201,272q-6-7-7-14t-1-7q-2,1-3-4.5T186,234q-5-4-6-12.5T179,205q-7-18-13-43.5t-8.5-49T156,76q2-17 17.5-30.5T211,23q11-4 19-6.5T245,14q8-1 20.5,0.5T300,20h-1q13,2 27.5,5.5T354,32q12,2 23,4.5T394,41q22,6 32,8.5T441,48t7-9.5T447,24q-2-5-16-14.5T397.5-9T359-24q-20-9-47.5-14t-53-5T217-38Z"/>
      <glyph unicode="M" glyph-name="gid32" horiz-adv-x="720" d="M661-48q-1-6-11.5-3.5T631-37q-8,19-8,35t1,48q6,35 16.5,91.5t25,127T697,412q12,40 19.5,73.5T728,540t4,21q0,3-5.5-2.5T716,546t-4-11q0,0-7-10t-18-27q-10-10-24-40t-31-56q-16-30-34-64.5T566,280q-9-13-18-30t-11-22q-4-11-14-26.5T501,171q-6-9-12-18.5t-9.5-16T476,130q0-3-9.5-18t-23-33T418,48Q383,11 362,4.5T315,22q-13,16-19,36.5t-5,51t7,76.5q7,35 13,70.5t11.5,67t10,53.5t7.5,29q2,20-1,22t-12-12q-4-7-21-34.5T266.5,314T222,227q-41-76-67.5-125.5T112.5,23T90-20T80-39t-5-7q-9,0-18.5,7.5T37-21q-3,7-2.5,14T41,13.5T59,55q13,26 24,45.5T100,124q5,8 9,16t5,19q5,6 15.5,24.5T151,224q8,13 20.5,34T198,304.5T223,353q46,79 78,133.5T349,556q5,5 10.5,14t5.5,16q0,21 8.5,38.5T391,640q10,0 18-2t17-13q8-12 14-24t-1-48q0-14-3-31.5t-5.5-32T427,467q-13-39-24-87.5t-20-98t-15-92t-7.5-70T362,88q7-4 12-1t17,26q7,12 19.5,29.5T435,175q8,14 25,42t43.5,72t64,107.5T653,544q23,35 43.5,68.5T730,656q14,13 29,6.5T785.5,636T798,586q1-14-3.5-45T781,470.5T758,389q-3-17-9.5-42.5T734,294t-16-51q-5-33-11.5-65T702,135q-9-16-12-46t-3-62q-4-39-6-55t-7-15q-13,4-13-5Z"/>
      <glyph unicode="N" glyph-name="gid33" horiz-adv-x="599" d="M97-62Q87-51 84-43.5t-0.5,18T91,4q8,32 17.5,53.5t19,45T144,163q16,37 28.5,70T192,287t7,21q1,4 9,21t20.5,41.5T252,420q17,48 27.5,82.5T301,565t29,55q12,21 28,27t30.5-0.5T409,620q5-10 8.5-24t6.5-40.5t4-74.5q2-57 1-112.5T429.5,266T440,186q3-18 8.5-43.5t12-50.5t13-42T484,33q5,0 13.5,13t22,47T552,189.5T595,350q5,17 13.5,55T621,482q7,25 14,55t12.5,53t5.5,26q0,7 0.5,12T653,638q5,0 9,13.5t4,23.5q0,17 4.5,27.5T680,718q3,8 15,7.5t24-6.5t15-16q2-11-5.5-49.5T706,550q0-11-6-36t-12.5-53T678,413q-4-26-9-48.5T659,343q-26-113-54.5-192.5T554,21q-24-55-52.5-66.5T441-16q-19,26-30,51.5t-18,60T376,181q-15,41-16.5,83t2.5,86.5t6,92.5q-1,48-4,64t-11.5-1.5T325,435q-7-19-18.5-46T284,335.5t-19-46T255,265q-6-12-14-31.5T228,192Q192,98 174.5,42T149-36q-10-28-21-37.5T97-62Z"/>
      <glyph unicode="O" glyph-name="gid35" horiz-adv-x="496" d="M175-20Q138,8 128,23.5T116,61q-2,18 0.5,49t6.5,61t7,45q5,5 4.5,13.5T134,238q-1,5 7,26.5T156,320q20,60 38.5,100.5T231,490t36,53q41,42 66,63.5T389,642q20,12 37,19t28,2q56-12 84-45.5T579,514q7-44 8.5-79.5t-5.5-70T556.5,289T505,193q-35-69-78.5-120t-89-80.5T249.5-41T175-20ZM239,9q23,3 44,14t44,32.5T379,110q26,30 42.5,50.5t28,41.5t22,51T496,331q8,30 12,50t5,37.5t0.5,40.5T513,518q-1,17-7,35.5T492,581q-10,11-28,15.5T424,591q-12-5-31-22.5T353,528t-39.5-47t-30-42.5T272,413q0,0-0.5-5T267,398q-13-14-28.5-50T209,266.5t-23.5-90T174,99q-2-27-2-37t4-15.5T189,26q6-10 20.5-15T239,9Z"/>
      <glyph unicode="P" glyph-name="gid43" horiz-adv-x="464" d="M110-48Q98-48 90-35q-6,6-7.5,16.5t6.5,38T116,104q10,38 16,55.5t6,25.5q0,11 2.5,18.5T143,218q6,0 12,11t10,30q4,17 7.5,27.5T176,301q5,8 10.5,25T204,367q8,30 18,62.5t20.5,61T260,535q11,31 17,43.5t0,16.5q-7,5-3,17t22,27q11,13 19,18.5t20.5,5.5t36.5-2q18-1 38.5-1t25.5,0q9-4 22-8.5t23.5-8.5t10.5-7q0-6 4.5-7.5T506,626q7,0 19-10.5t25-26T570,557q8-17 12.5-32T582,482q-1-15-4.5-30T570,432q-6-4-11-10t-5-11q0-4-7-15.5T529,369t-24-30t-25-26q-13-16-30.5-30T418,260q-26-12-57.5-24t-60-20T253,209q-29-4-37.5-7.5T203,184q-5-13-9.5-26.5T189,139q-2-4-9.5-24.5T163.5,67T147,14T135-29q-4-14-10-16.5T110-48ZM234,262q4-4 31-1t58,15q20,7 40.5,17T403,315q10,7 30,25t40,43q3,5 10.5,19.5T497,430q9,14 18,41.5t4,45.5q-5,26-26,48.5T443,596q-22,4-36.5,4T375,597q-16-5-23.5-14T332,545q-7-14-20-42.5T290,449q-18-66-35.5-108.5T233,287q1-11-1-15.5t2-9.5Z"/>
      <glyph unicode="Q" glyph-name="gid45" horiz-adv-x="502" d="M231-71q-15,3-33,12T165-36.5T143-9Q118,42 115.5,99.5T130,239q5,17 13.5,46T162,343t18,49t10,20q3,3 3,17q0,5 8.5,21.5t22,37.5t28,40.5T279,559q20,26 45.5,44.5T375,635q6,4 17.5,9t25.5,9t25,5q50,3 75-12t44-54q20-22 22-42t6-49q0-27-5.5-63.5t-14.5-72t-20-59T529,283q0,0-3-0.5t-3-5.5q2-7-4-31.5T498,192q-32-90-75.5-150.5T330-48T231-71Zm206-55q-16-1-32,11.5T385-89q-7,6-7,11.5T376-70q-4,2-11,10.5T355-40q-7,14-20.5,40.5T306,55.5t-26.5,50T266,130q-8,8 2,20q5,12 11.5,14t25.5-3q23,0 42-48q1-5 9-24t18-37.5T390,28q5-11 11-25t13-23q3-11 13-24t14-27q23-36 22.5-46T437-126ZM239-13q42,5 83.5,47.5t79,112T469,301q9,25 22,55.5T514,424t10,78q6,44-3,65t-33,32q-32,12-70.5-4.5T342,535T276,422q-41-87-65-156T180,142t3-100q2-31 16.5-46.5T239-13Z"/>
      <glyph unicode="R" glyph-name="gid46" horiz-adv-x="537" d="M140-60q-4-10-14.5-11T98-59Q86-47 82.5-40.5t3.5,22T110,36q4,24 14,48.5T139,119q4,14 16.5,46.5t29,72.5T216,313.5T238,367q17,40 35,84t49,111q4,10 4.5,21T310,594q-10,11-11,22.5T309,633l52,21q47,11 96.5,6.5T551,633q48-28 68-56.5T639.5,519T629,462q-8-21-30.5-46t-52-50t-61-45.5T427,289q-25-12-52-21t-56-18q-16-4-38-4t-33,4l-17-47q-10-36-34.5-107T140-60ZM537-71q-8-3-18.5-2T485-57Q441-31 397,6T298,106q-21,25-35.5,46T232,211l-14,54l27,15l36-36q16-35 41.5-67T370,120q18-21 49-50.5T485,13t63-41q6-5 4-15t-6.5-18.5T537-71ZM279,301q23,2 54,11.5T395,335q29,14 61.5,33.5T517,412t45.5,50T578,514q0,13-10,27t-24,25t-27,15q-40,10-66,13t-40-3.5T392,564q0-3-8-20t-19.5-42T342,449q-29-59-44-89.5T279,317t0-16Z"/>
      <glyph unicode="S" glyph-name="gid47" horiz-adv-x="486" d="M254-50q-18,5-29,8.5T214-38q2,5-1.5,9T198-24q-15,9-27.5,22.5T150,25T138,47q-7,15-6.5,18.5T143,74q11,8 16.5,5T173,59q13-23 44.5-35t71-10.5T364,31q37,15 46.5,31.5T403,105q-3,8-7,13t-12.5,13T356,157q-15,7-27.5,13T302,183q-16,8-38.5,23.5T221,241t-29,35q-16,15-24,41.5T162,374t15,54q6,14 20.5,34.5T230,504t35,38t28,24q8,8 17,16.5t9,8.5q1,5 3.5,5t2.5,0q5,3 22,10t37,26q67,32 109,47t69,15q25-1 45.5-11.5t34-27.5T658,614q7-24-4-55.5t-32.5-59T575,458q-28-12-37.5-10.5T529,468q0,8 5.5,19T565,526q32,47 39,75t-13,31q-6,2-21.5,0t-34-5.5t-31.5-7T491,614q0,0 0-3t-4-2q-2,0-17-8t-36-21t-42-26t-35.5-22.5T341,520q-2-11-23-20q-20-12-36.5-35T245,408q-17-23-24-49.5t0-42.5q5-16 31-41t65-48q34-19 61-37.5T422.5,154T446,124q12-17 17.5-34.5t6-33.5T466,27q-7-16-24.5-33T412-22q-11-3-16.5-7T383-36q-7-4-29.5-8T304-49.5T254-50Z"/>
      <glyph unicode="T" glyph-name="gid48" horiz-adv-x="458" d="M215-44q-8,0-18,13T188-6q1,16 9,46t18,61t18,49q4,16 7.5,28.5T245,195q3,4 9.5,21T265,249q2,8 8.5,30.5t16,52.5t19,59T325,442t9,29q8,12 12,23t5,15q6,4 7,10.5t1,10.5q0,5 3.5,8t3.5,7q4,3 5,9.5t6,11.5l5,17l59,1q-2-12-6-29.5T416,508q-5-20-11.5-36T399,451q-2-2-8.5-20t-15-44t-17-52t-15-45.5T335,265q-8-16-18-47t-30-84q-8-16-19.5-48T249,28q-11-39-15.5-54.5t-7.5-17T215-44Zm8,596q-28-1-41.5,3T172,575q3,12 13,18t29,9q11,2 28.5,5t33.5,6q33,4 54.5,7t44.5,5t58,4q29,2 49.5,3.5T503,634q3,0 21-2t39-5t31-7q23-5 33.5-14T642,580q3-12 0-14.5T631,559q-23-7-34-7t-25,5q-5,5-11.5,9t-22,6.5T490,577q-28-3-49-3t-21-5l-59-3l-49-5q-10-1-28-2.5t-35-3T223,552Z"/>
      <glyph unicode="U" glyph-name="gid49" horiz-adv-x="482" d="M220-52Q174-35 149.5,1.5t-26,103T144,275q7,35 20,80t30.5,92.5t37,92T270,618q23,41 35.5,51.5T328,678q19-5 27.5-18.5t6-29T342,604q-11-13-28.5-47.5T278,490q-20-58-35-102.5T218,304t-18-82q-9-42-13.5-69t-6-44.5T179,78t0-27q8-13 13-23t13-12q17-8 38.5-4T286,28q5,10 13,14t8,4q2-5 4.5-2.5T315,50q-1,4 2,7.5t7,7.5q8,3 23.5,20.5t32,39.5t28,40T419,187q0,5 4,9t9,10q5,5 20.5,32.5t34,64.5T520,371q3,11 11,35.5T548.5,463T567,527.5t16.5,58T593,623q2,13 6,21.5t5,12.5q5,2 12-1t14.5-7t13.5-7q6-8 5-20t-6.5-36.5T627,515q-21-82-50.5-151T513,218q0,0 0-0.5t0-5.5q-12-7-19-21q-5-9-8.5-15.5T477,166q-3-9-6-16t-3-7q-1-5-7-9t-12-8q-5-2-6-8t-4-10q-22-33-50-65T331.5-12.5T275-46q-18-7-29.5-8T220-52Z"/>
      <glyph unicode="V" glyph-name="gid54" horiz-adv-x="490" d="M260-58q-5,2-7,6t-4,16q0,11-6,16t-23,9Q209,0 204,14t-7.5,46T190,156q2,35 3.5,59t3.5,45t4.5,45t7.5,60q-2,23 2.5,50t1.5,43q7,22 9,50.5t9,50.5q2,17 4.5,32t2.5,25q-2,20 2,37t16,22q6,2 17,3t16-3q8-4 11-13t2-20q2-11 0.5-38T297,544.5T286,481q-8-41-12.5-83.5T267,314q-4-82-8-136t-1-78q0-3 2-16t5-24.5T271,48q8,1 15.5,14t14,30.5T313,123q13,25 26.5,54.5T363,234q18,42 36,72t34,67q6,16 21.5,46.5T484,476q17,26 32.5,50T553,590q29,48 45,66t32,18q11,2 13.5,0.5T653,663q8-11 8.5-22.5t-10-31.5T615,552q-20-30-44.5-70t-45-75.5T496,354q-5-11-9-23t-12-22q-10-10-27-43t-33-65q-18-42-28.5-65.5T369.5,97T357,68T342,33q-5-17-13.5-35.5T319-27q-7-11-18.5-19.5T278-58t-18,0Z"/>
      <glyph unicode="W" glyph-name="gid55" horiz-adv-x="720" d="M498-53q-13-1-23.5,5.5T460-31q-4,5-12,17T438,10q-3,32-3.5,62t2.5,84q3,44 11.5,85.5t17,74.5T479,368.5t2,19.5q-4,0-12-14.5T451,338t-20-41.5T414,263q-14-31-32.5-65.5T344,131T311,75q-9-10-21-28.5T264,8T235-25q-22-21-43.5-23T155-37q-3,4-6.5,9.5T143-13t1,21q-1,14 0.5,43.5t5.5,65t8.5,68.5t8.5,55q9,64 24.5,131T220,506q8,20 14.5,45.5T248,599q1,22 10,29.5t20.5,5T297,621q10-10 15.5-31T304,537q-20-49-38.5-119.5T232,247q-4-24-9-57t-9-64t-5.5-52T209,52q8-2 22,12.5T256,103q41,68 81.5,142.5T415,393q17,29 34.5,63.5T483,520q17,30 31,54.5T538,615t16,18q16-1 27.5-7.5T601,599q2-5-1-17t-7-21q-1-7-8.5-29T571,483q-10-27-17.5-53.5T543,386q-8-43-20-94.5t-20.5-102T493,99q-1-28 0.5-44T499,30q2-8 12.5-10T529,27q20,25 34.5,45.5t27.5,42T618,163q25,46 51.5,102.5t51,112.5T763,476q19,54 30.5,86T814,610t19,22q5,4 14,4t18-8q4-4 7.5-12.5T875,595q-5-16-17.5-51T829,467t-31-80t-26-61q-11-21-21-36t-10-23q0-4-10-24.5T705.5,193T672,133T638,76T611,36Q586,5 562.5-15T522-44t-24-9Z"/>
      <glyph unicode="X" glyph-name="gid56" horiz-adv-x="524" d="M633,643q20-1 26-16.5T657,584t-32-61q-23-23-26-39q-7-9-21.5-25.5t-31-35t-29-32.5T501,374q-14-12-31.5-28t-31-29.5T421,298q-7-7-13-14.5T397,274q-1-4-6-9.5T384,254q-2-1-13-11t-24.5-22.5t-24-22.5T311,186q-11-10-34-34.5T226,97T172,38.5t-43.5-49T109-36q-4-8-12.5-10.5T80-47q-4-2-8.5-1.5T65-47q0,0-2,5T59-26Q53-16 56-7t7,20q7,13 14,22t24,24.5T153,108q16,16 32.5,30.5T203,156q1,4 8,11t14,17q7,5 23.5,20.5t36.5,35T324.5,278T357,309q6,8 14.5,16.5T390,346q1,2 13.5,14.5t29.5,30t32.5,34T489,450q40,47 72.5,87.5T607,606q10,21 14,28.5t12,8.5ZM492-27q-19,2-38,19.5T412,51q-37,51-65,123.5T308,331q-5,35-11,60.5T289,419q-1,4 1.5,5.5T293,426q3,3 1,6.5t-4,8.5q0,0-5,23t-8,57q-4,36-6.5,62.5T266,618q-3,2-3,6t0,4q2,6 6,10.5t7,7.5q15,11 29.5,4.5t24-25T339,582q0-26 6-32q-1-2-0.5-15t2-29.5T350,475t3-19q-4-12 0-17q1-8 3-21.5t1-18.5t2.5-17.5T366,356l26-90q8-32 15-56.5t17-48T448,109q11-24 26-44.5T501,37q2-2 10.5-2.5T522,37q11,3 16.5-3.5t8-16T549-2q2-7-6.5-13.5t-22-10T492-27Z"/>
      <glyph unicode="Y" glyph-name="gid57" horiz-adv-x="504" d="M330,267l-35,44q-20,30-32,56t-17,64q-7,24-9,45t-1.5,48.5T237,593q1,38 8.5,55T257,673q10,12 18.5,3t14-30.5T294,595q3-107 15.5-170T344,348q12-3 21.5,1.5t28,24T449,433q27,29 55.5,62t54,63t46,51.5T637,638q4,6 8.5,9t8.5,3.5t4,0.5q8-2 9-12.5t8-20.5q2-4 3-8.5t0-9.5q0-3-4-7.5t-8.5-9T656,574q-13-11-40.5-38.5t-56.5-59T510,420q-44-51-78.5-88T389,288q-1-2-14-14t-18-20l-27,13ZM259-68q-4,1-12,6.5T229-49q-7,8-8.5,15T223-14t11,40q1,23 9.5,56T264,137q0,11 5,30t12.5,39.5T295,242l18,52l40,34l28-31q-4-6-7-14t-8-27t-15-59q-8-27-17.5-58T316,81T302,37Q290-8 284-32T273.5-63.5T259-68Z"/>
      <glyph unicode="Z" glyph-name="gid59" horiz-adv-x="522" d="M122-36q-21,2-38,5.5T63-7Q61,7 66.5,21.5T82,46q17,18 37.5,40t49,50t69,66.5T336,292q40,34 64,56.5T443,390t42,43q35,36 61.5,70T578,557q6,20-2.5,28.5t-30,12T489,603q-62,5-109.5-0.5T288,589q-7-2-16.5,3.5T262,602q4,5 4,10t-8,11q-4,10 0,16t8,10q8,4 26,5.5t41,5.5q15,3 44.5,4t60,1t48.5-2q36-3 69-6.5T612,644t33-31q11-23 4.5-41T632,524q-12-22-40.5-58.5t-65-76T452,315q-56-52-100.5-92.5T263,144q-28-24-56-49.5T151,43q-10-13-3.5-19.5T195,19q23,1 36,4t28,6t42,4q52,3 98,6t74,3q8,0 13.5-2T502,24q9-3 11.5-8.5T513,4T501-9q-7,0-24.5-3.5t-38-6T402-20q-13,1-49.5-1.5T274-29q-37-6-81-7t-71,0Z"/>
      <glyph unicode="[" glyph-name="gid276" horiz-adv-x="330" d="M81-129q-17,8-21,20.5T68-79q5,3 9,11t4,15t5.5,31t14,56T118,97t16.5,53.5T145,177q0,5 7,22t24,43q16,51 37.5,110.5T258,468t42.5,99.5T332,629q3,13 5.5,22t2.5,13q0,20 10,28.5t39,8.5q29,4 49.5,5t42,5.5T536,727q15,3 30,10t19,7q12,3 18,1.5T617,731q14-16 12.5-23T606,692q-17-5-44-12t-55.5-13T455,658q-19-5-32.5-9T406,641q-2-3-9-16t-15.5-29.5t-14.5-29T361,552q-2-2-10-17.5t-18-36t-18-39T305,432q-2-6-10.5-26.5T277,363t-13-34q-4-10-9.5-27.5t-11-34T234,242q0-3-2.5-15T224,207q-4-7-9.5-20.5T206,162q-4-7-8-13.5T194,138q0-3-0.5-9T189,112q-3-4-3.5-9T185,98q-4-4-8-22T164,36q-8-25-13.5-46.5T145-40l-5-28l30,6q18,3 45.5,6.5t53.5,6T310-47q18,4 25.5,4.5T348-45t13-12q4-8 6-13.5T366-79q-2-3-21-7t-44-8.5T255-102q-16,0-26.5,0T218-102q0-9-33-9q-11-6-29-10t-25-8q-22-9-30.5-9T81-129Z"/>
      <glyph unicode="\" glyph-name="gid257" horiz-adv-x="330" d="M339-104q-4,0-8,1.5T326-98q-18,4-14,18q0,4-3.5,19T300-24T288.5,23.5t-13,50T263,118t-10,31q0,5-1,9t0,8q-1,4-3.5,10.5T247,188q-4,3-5,13t0,17q-1,8-3,16t-6,8q-1,3-5,26t-10.5,58t-13,74T192,475t-9.5,61.5T179,569q2,8-1,19t-5,23q-2,38 4,65t18.5,38.5T226,718q5-5 6-13t-3-31q-1-11 3-45t11-80t14-94t13-89t9-64q7-22 8.5-37.5T287,246q0,0-0.5-5t3.5-7q4-4 5-8t1-7q0-2 3-15t7.5-30.5t10-34T326,115q0-13 2-22.5T329,79q0-1 1.5-6.5t4.5-14T341,40t5-21q8-22 15-35t10.5-22T372-57q1-11-1.5-19.5T357-92q-10-7-14-9.5t-4-2.5Z"/>
      <glyph unicode="]" glyph-name="gid277" horiz-adv-x="330" d="M120-111q-4,0-13.5,0T87-109q-7-1-23.5-1.5T30-108q-15-1-29,2t-19,2q0,0-5,3t-10,9L-47-82l12,5q4,5 20.5,10t38,8.5t39,5.5T85-53q3,0 13-1.5T119-55l36,3l10,27q2,12 3.5,24.5T170,16q6,5 9.5,13T182,43q3,8 8.5,26.5T202,107q2,16 12,43.5T228,203q6,20 14.5,43.5T253,282q2,15 9,31t8,31q9,28 24.5,74.5t33,99.5T359,617q11,22 16.5,42.5T381,680t-19.5-1.5T313,675q-63-4-90-5.5t-32.5-1T184,671q-3,3-4,3.5t-4,0.5q-4-1-8,3.5T163,690q0,9 16.5,16t45,12.5T289,728q44,5 56.5,3.5T361,730q11,3 28.5,6t34,4t23.5-4q3,0 9.5-5.5T463,715q8-14 8-17.5T465,686q-4-6-12.5-21.5t-17-33.5t-14-32T417,582q0-3-1-5.5t-6-3.5q0,0-2.5-1t-2.5-6q2-8-3-22.5T393,529q0,0-2.5-1t-2.5-6q0-4-2.5-14T378,484q-10-35-20-58t-10-26q0,0-3-7t-5-14q-4-8-8-26.5T326,318q-9-13-16-31.5T301,262q-3-10-4.5-19t-1.5-9q0-3-4.5-21.5t-11-38.5T268,144q0-4-5-24T250,74q-4-23-9-44T234,4q0-3-4.5-6.5T225-11q0-4 0-10.5T220-32q-3-5-3-10.5t0-5.5q3,0 2-2t-1-2q-3,0-3.5-7T214-72q0-21-3.5-30t-16-10T155-111q-24,3-30,2.5t-4-2t4-2t-5,1.5Z"/>
      <glyph unicode="^" glyph-name="gid327" horiz-adv-x="446" d="M134,302q-5,4-5.5,13.5T132,340t11,34q17,34 24.5,50T186,453q9,16 25.5,34t36,34t39,26t34.5,8q9-1 21.5-19T369,490.5T396.5,432t25-58.5T440,329q5-12 1-22t-12.5-15.5t-16.5-4T401,301q-5,15-8.5,24t-12,27T353,411q-16,27-25,46.5t-15.5,29T296,493q-13-4-31-21t-38.5-47T185,349q-11-33-23.5-44T134,302Z"/>
      <glyph unicode="_" glyph-name="gid273" horiz-adv-x="446" d="M117-8q-6,0-15,0.5T82-3Q67-3 62,0.5T53,11Q42,26 51,31.5T97,41q17,4 50.5,6.5t72.5,4T294,54t55,1q26,0 35-2t20-13q15-15 11-28.5T388,2q-5,0-15.5-1t-23-2T325-3q-6,0-33-1T229.5-6t-67-1.5T117-8Z"/>
      <glyph unicode="`" glyph-name="gid346" horiz-adv-x="353" d="M347,441q-12-9-16.5-5T320,457q-6,12-17,29t-21.5,34t-15,31.5T268,575q13,11 22.5,17t19.5-5q7-4 16.5-20.5t19-37.5T361,490.5t6-23.5q1-3-2-8.5T357.5,448T347,441Z"/>
      <glyph unicode="a" glyph-name="gid112" horiz-adv-x="437" d="M107,36q-4,8-10,12.5T91,57t-0.5,8.5T86,74q-5,6 1,27.5t20,53T140,221q8,8 16,21t12,17q0,4 3,7.5t7,3.5v6q0,5 9.5,17T211,319.5t29,28T265,367q21,14 43.5,17T347,374q3-3 10-10t16.5-15.5T393,331l37-33l-18-50q-13-40-6.5-70T425,126q5-11 20.5-21T475,93q8-1 15-6t7-16q0-10-4-16t-14-8q-33-4-61.5,16T365,129q-4,6-10.5,22.5T347,173q-4-5-15-18.5T315,135Q244,63 192.5,38.5T107,36Zm36,56q0-7 21.5,0.5T211,120q34,29 68.5,64T335,249l22,36q-10,23-21.5,31.5T316,325q-13,0-38.5-24T223,237t-55-88q-10-20-17.5-38.5T143,92Z"/>
      <glyph unicode="b" glyph-name="gid120" horiz-adv-x="435" d="M211,17q-20,2-24.5,5T176,38q-8,9-9.5,14T166,61q5,0 9,0.5t5,3.5q0,3 3.5,4t7.5,0q19-1 48.5,12.5t64,38T371,174q26,34 38,53.5t14,32T420,281q-4,8-29,6.5T335,266q-43-27-69-50t-48-52q-8-10-15.5-24T190,116t-5-10q0-4-11.5-10T154,90q-4,2-10.5,7.5T135,112q-7,5-10,8t-4,7q-1,6 3,19t11,41q6,26 13.5,54T163,289t10,22q0,0 4,9t4,21q2,12 6.5,21t4.5,13q4,3 12,24t20,55q0,3 7,19.5t17,39t20.5,47T286,603q12,17 18.5,31.5T318,652q5,1 12.5-0.5t15-5.5T358,634q3-5 4-9t-3-14.5t-15.5-35T310,505q-28-60-46-107t-30-83t-22-62l-5-22l25,24q15,11 33,27t32,28q8,6 21.5,12.5T345,334t19,6q3,1 15,3t29,2q22,0 35.5-10T470,303q11-21 9-47.5T463,206q-5-4-10-10.5T448,185q-1-7-18-28.5T396,116q-18-19-44-37.5t-51.5-33T257,25q-8-1-23-3.5T211,17Z"/>
      <glyph unicode="c" glyph-name="gid121" horiz-adv-x="355" d="M209,11q-29-5-53,3.5t-38.5,29T103,96q-3,30 7,69.5T139.5,245T182,314q20,24 40,44t36,27q14,6 26.5,7.5T305,394q16-4 34.5-14.5T358,357q0,0 2.5-2.5T363,352q6,0 10.5-13t5.5-29.5T374,282q-4-19-14-33t-18-14q-4,0-7.5-0.5T331,229t-5.5-4T314,231.5T305,245q0,5 4,17t8,31q6,28-1,36.5T289,330q-25-14-47.5-39T200,226.5T166,128q-6-23-4.5-40T166,70q14-4 38-1.5T239,77q16,8 36,21.5T310,123q5,3 12,10t15,11q8,12 14,14t18,2q8-2 15-6t9.5-8t-3.5-7q-4,0-4.5-2.5T385,134q2-4-8.5-16.5T350,90T319.5,64.5T299,54q-10,0-10-6q0-2-14.5-10t-33-16T209,11Z"/>
      <glyph unicode="d" glyph-name="gid123" horiz-adv-x="393" d="M362-19q-13-3-21.5,3.5T328,3q-8,23-11.5,50.5T315,102l2,21L278,92q-34-30-65.5-43T157,36q-11,2-22,8T115.5,59T102,78q-6,14-3.5,38t12,52.5t24,56T168,273q33,50 71,61t75-11q26-11 32.5-10T358,336q4,16 8,32.5T379,413q25,76 43.5,119T456,607q11,23 18.5,28.5T490,640q11,0 20-8t14-22q4-9 3.5-15.5T521,577q-13-24-30.5-63.5t-35-86.5T423,334t-25-81q-6-22-10.5-56T380,127.5t-3.5-63T378,29q6-20 5.5-30T378-14.5T362-19ZM193,92q14,3 27.5,11T249,122q30,23 52,42t29,58q2,19-3.5,30.5T309,274q-12,8-32.5,6.5T234,259q-24-22-46.5-59T154,109q-2-10 6-16t33-1Z"/>
      <glyph unicode="e" glyph-name="gid125" horiz-adv-x="325" d="M276,35q-21-18-48.5-21T174,22.5T131,58q-17,22-22,50.5T108,183q3,39 25,78.5T186.5,332T249,375q15,10 25.5,9.5T307,382q23-3 34.5-9T360,357q15-15 20-29.5t5-28.5q-4-22-29.5-53.5T289,194q-22-7-48-6t-43,13q-19,8-25-2.5T162,148q-4-38 6-55.5T195,72q20-4 31.5-5.5T255,75q16,10 20,11.5t6.5,4T294,103q7,7 11,10.5t9,3.5t9-4.5t8-6.5q10,0 4.5-12T314,65.5T276,35Zm-1,212q11,5 23,14.5t20.5,21T327,302q0,14-13,23.5T275,328q-11-3-25-14.5T223.5,288t-20-25T198,250q3-5 17-7.5t31.5-1.5t28.5,6Z"/>
      <glyph unicode="f" glyph-name="gid130" horiz-adv-x="291" d="M123-106q-6-4-13.5,2T88-82q-7,8-9,17t1,34q4,11 4.5,21T85,4q0,6 3.5,28T96,78.5t7,37.5q0,1 1,5t2,7q2,9 5.5,24t6.5,37q8,25 13.5,49.5T137,272q0,18 14,26q1,5 6,15.5t9,17.5q20,57 33,90.5T226,480q6,17 13.5,35T255,543q5,13 23,33.5t38,40T348,646q22,11 35,15t34,4q19,0 25.5-4.5T462,644q14-15 16-20t2-19q-2-13-10.5-33.5t-18-37T436,517q-12-4-17.5,2.5T413,541q0,7-3.5,13.5T406,561q0,3 1.5,10.5T413,586q5,10 2.5,15T402,603q-3-2-16-12t-27.5-22.5T333,545t-11-14q0,0-4-8.5T303,501q-7-10-12.5-19.5T285,470q0-4-0.5-8.5T279,457q0,0-3-9t-11-23q-4-10-10-20.5T245,390h1q0,0-4.5-12.5t-9.5-26T227,336q0-4 14.5-4t34.5,3.5t36,7.5q14,4 19,4t20-4q8-5 13.5-14.5t8-18T372,298q-1-4-22-11t-42-11q-18-4-44-9t-45.5-9T199,251q-4,0-7-4.5t-3-7.5q0-14-4-21q-2-6-7-24t-10.5-40t-9-40T155,90q-6-7-7-17.5T147,54q-4-8-5-14.5T141,29q0-1 0-4t-1-6q-1-10-2.5-26.5T136-40l-3-29q-1-13-3-22.5T123-106Z"/>
      <glyph unicode="g" glyph-name="gid131" horiz-adv-x="355" d="M205-191q-28-11-58.5,3.5T94-142q-4,6-9.5,18.5T74.5-98T69-75t2,12q3,3 10,2t13.5-5T103-76q3-7 9.5-18T127-114t12-10q19-9 28-8t16,6q17,13 28,34t25,65q11,37 22.5,78.5T279,116q3,12 7.5,20.5T295,149h6q-22-14-39-32T219,88q-6-7-29.5-8.5T144,85q-14,8-20.5,12t-10,11T104,130q-7,15-2,49t18,68q12,25 35,54t49,52.5T251,383q8,4 17.5,5.5T296,385q17-2 26-7.5T351,355q13-13 21.5-26T386,302q7-15 5.5-27.5T380,249q-9-13-19-26t-15-36q-5-30-16-67.5T311,50L295-12q-25-85-47.5-126.5T205-191ZM169,129q20,1 38,8t35,23.5T276,203q17,24 24,50.5t5,51.5q-1,16-5,21t-17,3q-19-3-42-20.5T198,265q-15-20-25-48q-10-30-12-57t8-31Z"/>
      <glyph unicode="h" glyph-name="gid132" horiz-adv-x="464" d="M136,54q-7-1-14.5,0.5T107,61q-8,8-11,12.5T94.5,88t6.5,31q5,16 12,44.5T128,220q3,16 8.5,33T148,284.5t9,22.5q8,28 15.5,49T191,404.5T218,478q22,60 33.5,91.5t17,46T276,638q0,8 4.5,12t11.5,4q14,0 22.5-13.5t10.5-32T319,574q-16-36-34-85.5t-35-97T218,311q0-4-3-14t-7-18t-7.5-15t-3.5-7q0-4-3-15t-8-27q-4-12-9.5-31T169,152q5,9 21,27t30,31q16,14 36,31t32,25t21.5,14.5T319,287q0,4 3.5,4.5T330,292t4.5,1t0.5,5q0,5 11.5,9t27,6.5T399,316q12,0 19-5t18-22q12-16 15.5-38.5T447,204q0-8-2.5-22.5T442,151l-6-32h16q8,0 15-2.5t7-2.5q4-4 8-7.5t8-3.5q12,0 9-9.5T484,76q-24-16-43.5-16T405,76q-16,17-20,38t4,53q4,44 4.5,64.5T383,252q-10,0-35-13.5T292,202t-61-51T181,93q-12-15-23-26.5T136,54Z"/>
      <glyph unicode="i" glyph-name="gid133" horiz-adv-x="187" d="M111,32q-8,8-11.5,20T97,76t5,20q0,8 2.5,12.5T106,117t2,14t6,19q7,16 15,38.5T144,233t12,38t6,20q0,12 16,13q12,4 18,0.5T212,285q8-8 6-24t-13-40q-4-8-9.5-23T188,171q-4-8-9.5-22.5T169,121q-2-5-4-14.5t-5-20T152,68q-9-41-16.5-48T111,32Zm97,406q-5,5-9,14.5t-5,18t2,8.5q8,1 19,17t9,28q0,4 3,7.5t7,4.5q12,8 23.5,2.5T279,517q9-19 5-31.5T262,451q-15-20-27.5-22T208,438Z"/>
      <glyph unicode="j" glyph-name="gid139" horiz-adv-x="204" d="M60-194Q38-216 3.5-215.5T-55-190q-12,19-18.5,41t-6,38.5T-69-94q5,0 9-3t7-8.5t3-13.5q0-15 7-27t20-12q11-4 29.5,6T36-124q10,13 24.5,41t29,58.5T111,25q12,41 21.5,84T152,201q4,27 9.5,46.5T167,271t1,16.5t6,22.5q0,15 2.5,26.5T179,352q3,3 8.5,2t12-4t11.5-8q8-8 10.5-16t1-25T216,247q0-6-3-24.5T205,181t-10-44.5T187,101q-4-15-9-33t-6-25q-1-6-7-23.5T152.5-15T145-39q-1-4-5.5-19T121-104q-5-12-16.5-31T81-170.5T60-194ZM218,485q-11,13-7.5,34T230,561q13,15 28,17t28-9q11-17 11-27.5T286,515q-25-28-40-34.5T218,485Z"/>
      <glyph unicode="k" glyph-name="gid140" horiz-adv-x="365" d="M112,5q-8,3-17,12.5T80,40T74,64q5,11 13,38.5T107,166q8,11 12.5,26t8.5,27q8,16 19,41.5t21.5,52T187,357q13,27 22.5,49.5t19,45.5T249,502q12,28 24.5,57t22,52.5T307,645q0,8 3.5,12t7.5,4q4,4 8,4.5t8,0.5t15.5-15T361,624q0-16-15.5-60T302,464q-34-74-55-121.5t-29-71T212,245q0,0 14,6.5T256,270q11,6 24,15t25,17.5T325,313q12,8 25,15.5T367,340q17,8 25.5,5T410,330q11-13 4-22.5T381,282q-21-13-50.5-31t-52-32T253,202q0,0 8-15t16-27q8-16 17.5-29.5T304,112q11-31 33-45t46-3q20,8 29.5,5T426,54q4-8 2.5-11.5T415,27Q396,8 376.5,3T341,6q-15-1-37,19.5T241,99q0,4-3.5,11.5T230,125q-4,8-10,17.5t-6,9.5q0,4-3,9t-8,12q-16,5-23-6t-15-23q-5-13-12.5-36.5T140.5,62T138,32q0-16-5-21.5T112,5Z"/>
      <glyph unicode="l" glyph-name="gid141" horiz-adv-x="169" d="M130,0Q111-5 99.5,8T86,48t6,64q5,12 8,23.5t3,18.5q2,10 8,29.5T124,224t13.5,37.5T146,282q4,0 7,7t3,14q0,8 3.5,18t7.5,14q0,5 2.5,11.5T172,357t2.5,8t2.5,8q7,13 18.5,41.5t25,63.5T246,547t19.5,57.5T273,633q0,8 4,12t12,4q3,3 7.5,4t8.5,1q0,0 4-4t12-12q8-7 9.5-16t1.5-21q0-13-3-23t-12-29t-28-59q-8-20-17-37.5T263,431t-3.5-12T252,399q-4-8-11-23.5t-14.5-33t-12.5-30T209,298q0-4-0.5-8t-4.5-8q-4,0-4.5-5.5T199,271q0-10-16-53q-16-55-29.5-101T140,43q0-24-1-31.5T130,0Z"/>
      <glyph unicode="m" glyph-name="gid143" horiz-adv-x="560" d="M551,42q-5,2-15,10T519,79.5T512,134q1,30 1.5,47T506,198t-30.5-15.5T424,141T365,83q-10-11-19.5-20.5T327,50.5T306,57l-11,9q-5,5-6,10.5T290,89l23,66q16,36 22,52.5t6,21t-3,3.5q-8-1-24-9.5T293,206q-4,0-12-9t-20-17q-7-12-27.5-31T193,110q-13-11-25.5-27t-21-28T135,43q-13,0-23.5,7T96,73q-8,17 0,47.5T114,200q4,15 5,22t3.5,14.5t9,23.5T152,308q7,19 8.5,28.5T162,350q0,10 5.5,17T181,377t15,1q11-2 19.5-11t9.5-25q1-12-2-21.5T217,303l-11-27q-5-11-13-32t-14-38.5T173,185q1-3 7,1.5t15.5,13T215,216q21,20 47.5,38.5T313,286t37,17q17,0 23.5-6T396,275q7-7 8-18t-1-21q-1-4-6-19.5T387.5,187T383,173t11.5,10T420,204.5T441,222q39,30 68,38t47-21q12-11 12.5-24t0.5-45q1-13 2-31t2.5-32.5T577,89q3-4 11.5-6.5T611,78q15-2 18-13T616,44q-15-9-33-8t-32,6Z"/>
      <glyph unicode="n" glyph-name="gid144" horiz-adv-x="450" d="M454,46q-20,0-33,8.5T399,83q-4,14-6.5,31.5t-2.5,33t3,20.5q4,4 3.5,14.5T396,205q-1,20-9.5,22.5T362,221q-18-11-47-29.5T254.5,151T195,105q-22-24-26.5-36.5T156,56q-8-4-13.5-0.5T127,67q-7,8-14,15.5T104,94q0,5 3,21t7.5,32t6.5,21q5,0 8.5,10T141,200q2,12 10.5,32.5T167,269q14,24 19.5,40t7.5,40q-1,4 2,7.5t7,3.5q8,8 19,4.5T242,349q18-24 14.5-49.5T224,227q-7-16-10.5-24.5T210,189q0,0 10.5,7t24,16.5T266,227q5,5 23,18t38.5,25.5T358,285q8,4 17,7.5t13,3.5q8,0 20.5-8.5t23.5-20T445,248q0-4 0.5-8t1.5-8q4-13 4.5-35T450,157t-7-21q0,0 0.5-2.5T448,131q0-4 0-4.5t0-0.5q-5,0-4-8.5T450.5,99T462,83q12-12 10-22.5T454,46Z"/>
      <glyph unicode="o" glyph-name="gid146" horiz-adv-x="353" d="M169,15q-13,0-20.5,5T130,34q-19,20-27,38.5T98,108q3,8 2.5,15.5T100,131q-5,5-3,6.5t4,5.5q6,0 4,11q-2,8 8,35t25,51q6,10 18,26.5t26.5,33T209,326q25,21 44,31t41,15t30.5,5T348,361q23-10 33.5-24T395,296q3-30-4.5-68.5T343,132q-25-36-46-53.5T247,44q-21-14-38-20.5T169,15Zm96,106q24,27 38.5,51T331,233q4,11 5,27.5t-0.5,31T328,308q-12,7-29,4.5T262,293q-31-26-54-64.5T163,141q-15-36-6.5-57.5t37-15T265,121Z"/>
      <glyph unicode="p" glyph-name="gid154" horiz-adv-x="378" d="M61-224q-4,0-10-0.5T40-216q-4,5-4.5,15T40-165q5,17 8,33.5T51-107q0,4 2.5,15.5T56-75q5,8 8,22t3,25Q67-16 79-6q0,8 3.5,20T86,30q3,14 13.5,49.5t26,80.5T156,248t27,73q12,28 16.5,48.5T204,400q0,4 2,6.5t9,10.5q10,10 17.5,6T251,411q8-13 11.5-22T262,358q0-15-5-26t-9-16.5t-2-4.5q41,19 72.5,20.5t53-11T404,286t11-51q0-12-5-28.5t-12.5-30T384,157q-4,0-8-6.5T368,136q-8-10-25.5-22.5T308,93.5T283,89q0,0-2.5-0.5T278,83q0-2-16-8.5t-37-12T188,57q-21,0-30,8q-2-2-4.5-6T151,52q0-6-4.5-22.5T136-2T125-17q0,0-2-3t2-8q0,0-0.5-11.5T119-59q0-8-3-24t-7-24q0-12-3.5-23.5T98-142q-4-1-5-12.5T92-171q-1-25-10-39T61-224ZM182,110q8,0 33,7t51.5,17.5T306,156q26,23 40.5,52.5T344,265q-8,14-29,11.5T269,260t-47-35q-12-13-22-32t-16.5-38T176,123t6-13Z"/>
      <glyph unicode="q" glyph-name="gid156" horiz-adv-x="377" d="M246-220q-12,8-17,15.5T219-177q-5,27-0.5,71.5T236-7.5T267,99q5,8 6,16.5t0,12.5q-47-22-71-31.5T161,87q-13,0-27,11t-23,27.5T102,158t17,47t37,59q8,14 27,32t40,34t34,24q8,5 16,8.5t16,7.5q8,5 15,8t11,3q16,4 36.5,4t32.5-4q12-8 23-26t15-38q0-10-1-18.5T414.5,276T395,232q-16-24-26.5-47T358,158q-5-13-14.5-34T326,85.5T315,62q-2-10-9-35.5t-14.5-56T278-87q-8-44-8-77t8-45q4-12-6-15.5T246-220ZM163,149q33-10 66.5,10T294,209q17,16 32.5,40t24,45.5T356,324q-4,8-29-1.5T270,289q-36-28-60-55.5T174,178l-11-29Z"/>
      <glyph unicode="r" glyph-name="gid157" horiz-adv-x="360" d="M119,35q-9,7-12.5,14T106,76q3,28 8,49.5T126,175q2,12 11.5,41T161,279t28,64.5T213,389q8,6 19.5,5t19.5-9q11-9 3.5-31.5T225,283q-12-27-18-40.5t-5-16t9,2.5q6,11 22,25.5T267,283t34,25t22,14q8,5 18.5,8.5T356,336q23,11 47,8t30-18q1-8 6.5-12t5.5-4q4,0 4.5-3t0.5-3q0-7-10.5-8.5T413,293q-13-1-23-5t-24-10q-38-22-72.5-43T227,179q-7-8-14-19t-15-24q-5-5-10-22t-8.5-32.5T176,63q0,0-3-9.5T163,35q-12-16-20-16T119,35Z"/>
      <glyph unicode="s" glyph-name="gid158" horiz-adv-x="341" d="M161-4q-19,8-36,21.5T103,40q0,9 3,12.5t17.5,3T171,51q12,0 30,2t33.5,6T252,69q5,0 2,3.5T247,80q-4,0-9,3.5T229,87q0,5-9.5,11.5T200,109q-22,18-38,32.5T150,161q0,4 0,4.5t0,0.5q-7,0-15.5,20T126,222q0,12 7,30.5T152,291t25,33q18,17 45,36.5t53.5,35T320,416q18,7 33.5,7t27.5-7q10-5 18.5-14.5t15-19T423,366q0-12-2-26.5T415.5,314T405,303q0,0-2.5-0.5T400,297q0-10-15-23q-19-13-33-15.5T335,269q-3,4-4,7t-5,3q0,0-3,3t-3,10q0,4 3,7.5t3,3.5q5,0 13,11.5t14.5,25T360,358q0,6-1.5,7t-9.5,1q-14-6-34-16t-37.5-19.5T252,313q-4-7-5-8.5t-5-1.5q0,4-6.5-3.5t-16-20.5t-18-25.5T189,235q-2-2-4.5-11.5T182,206q-4-12 1-16.5T205,171q35-26 55-43t30-28t12-20q18-30 11-46T279,6q-10-5-33-8T199-5.5T161-4Z"/>
      <glyph unicode="t" glyph-name="gid160" horiz-adv-x="331" d="M179,7q-11,2-22.5,11.5t-20,22T125,63q0,2-2.5,5T120,71q-4,3-4.5,26.5T118,150t7,46q5,16 15,43.5T157,289l27,58l-40,11q-7,2-11.5,8T128,376q0,8 9,19.5T150,407q5-1 18.5-1t26.5,1t16,2q4,2 8,5.5t6,10.5q5,11 9,20.5T245,467q7,13 11.5,22T271,514q5,7 11,17t15,17q9,8 18.5,7.5T340,542q8-10 9-15t-8-19q-8-17-18.5-34T303,440q-16-22-6-25t56,4q29,5 42-2.5T410,392q3-24-5-29t-46-5q-24-4-41-4.5T293,353q-13-1-17-1t-12-2t-11.5-6.5T245,331q-4-4-12-21t-20-37q-14-42-24-83.5T173,109q-4-25 1-34.5T200,63q11-1 35.5,0.5T274,69q11,5 23,10.5T319,91q9,5 18,10.5t9,5.5q5,8 11,5t10-15q0-12-5-25T325,41Q280,13 242.5,7.5T179,7Z"/>
      <glyph unicode="u" glyph-name="gid161" horiz-adv-x="370" d="M339,2q-10,10-20,27.5T303,70q-2,8-1.5,22T301,112q-3-7-9.5-14.5T279,85q-4-4-18-15.5T233,51q-33-21-54.5-23T138,50q-16,13-22.5,29T115,123q2,35 10,68.5T158,281q21,41 32,60.5T204,365q15,5 25-0.5T241,345q6-10-1.5-34T214,252q-14-34-25.5-68T175,126t12-29q9-5 31.5,3t51,40T325,237q8,20 12,35.5t5,34.5q-2,12 1.5,21.5T359,345q4,5 11,9.5t9-0.5l16,1q4,1 5.5-4.5T407,341q11-9 6-39t-28-84q-19-41-25.5-62T352,115q0-18 7-34t22-29q11-7 12.5-16T394,15q-2-9-11.5-14.5T361-5T339,2Z"/>
      <glyph unicode="v" glyph-name="gid166" horiz-adv-x="331" d="M183,61q-7,6-17.5,36t-20,70.5T130,242q-4,20-8.5,34T114,299q-5,18-3,30t14,19q5,3 12.5,4.5T149,353q12-4 22-36.5T189,231q4-31 10-53t6-26q4-8 9.5-15.5T228,137q4,4 16.5,18T269,185q21,28 33.5,46T331,269q7,10 16,22t18.5,22.5T383,326q24,4 26-10t-18-42q-8-12-12.5-22.5T370,237q-8-16-25-40.5t-33-45T290,125q-4-4-17.5-15T247,82q-24-23-38-28t-26,7Z"/>
      <glyph unicode="w" glyph-name="gid167" horiz-adv-x="517" d="M177,45q-15,0-27.5,18.5t-18,48T128,173q0,32 3.5,51.5T139,263q3,6 3.5,10t2,13t6.5,30q4,17 8,28t8,15q5,6 13,7.5t16-1.5t13-11q6-5 6.5-22.5t-2.5-36T204,269q-2-5-4.5-26t-5-44T189,162q-3-18 3.5-29t25-0.5T267,188q21,30 32,49t17.5,35.5T330,308q5,16 9.5,26.5T348,348q7,5 16.5,4t21.5-9q12-12 12-28.5T386,274q-8-16-15.5-41t-12-50.5T354,141q0-20 5.5-23.5T373,114q12,0 29,9t38,31q9,9 22,26.5t25.5,37t21,34.5t8.5,19q0,6 9,17q6,8 9.5,12.5T549,310q8,4 14,1.5T576,301q5-4 5.5-12t0.5-20q-3-11-9.5-28.5t-14-33T546,186q-4-4-14-14.5T514,149q-25-30-36-39T459,93q-21-21-44-31.5T371.5,51T337,61q-31,16-31,54q0,8-2.5,14.5T301,136q-4,0-10.5-2T277,120q-9-17-28.5-34.5T209,56.5T177,45Z"/>
      <glyph unicode="x" glyph-name="gid168" horiz-adv-x="343" d="M391,3q-4,0-10.5,1T370,9q-4,0-14,3t-18,7q-10,4-27,16.5T277,63T248.5,91T237,110q0,5-5,5q0,0-3,3.5t-3,7.5q0,10-10,10q0,0-17-14T162,88q-28-28-41.5-40.5T99,35T81,41T63.5,55.5T56,72q0,0 20.5,23T125,142l64,63l-11,38q-7,16-14.5,33.5T152,306q-12,17-12.5,21.5T147,344q8,8 13.5,10.5T178,349q6,0 16-16.5t18.5-36T221,269q0-16 12-13t36,19q12,11 19,18.5t7,7.5q3,3 18,13.5T344,336t21,13q8,6 18,0.5t17-16t7-21.5q0-12-6-19t-26-18q-18-13-31.5-23t-28-21.5T279,200l-26-21l16-27q4-7 11.5-20T295,115q6-8 23-22t33.5-25.5T370,56q4,0 9-3t12-7q8-8 10.5-18t0-17.5T391,3Z"/>
      <glyph unicode="y" glyph-name="gid169" horiz-adv-x="341" d="M79-199q-24-7-52.5-2.5t-50,17.5T-48-155q-1,6 3.5,13t11,9.5T-22-136q8-5 29-12.5T54-151q23,5 45.5,27T136-83q8,12 27,43t39.5,68.5T237,98q3,8 7,19t10,18q6,12 10.5,22.5T270,172q1,5 9,20t15,30q5,15 15,44t20,47q12,23 19.5,37.5T365,368q9,7 12.5,7t14.5-6q12-12 15-23.5t-2.5-28T384,273q-8-24-17.5-43.5T352,204q-5-12-11.5-26.5T329,151q-18-40-31-65T275,40T254-9q-23-37-44.5-70.5T164-142q-10-9-25-21t-30.5-22T79-199ZM214,41q-15,2-29.5,18T162,93t-6,26q0,5 0,8t0,3q-6,0-10.5,15T139,184t-2.5,51t1.5,51q4,17 4,37.5t1,32.5q-1,16 3,21.5t8,8.5q28,12 37.5-14.5T196,273q-2-40 0-80t11.5-70T234,82q7-4 7-11t-4-14.5t-10.5-12T214,41Z"/>
      <glyph unicode="z" glyph-name="gid172" horiz-adv-x="315" d="M140,28q-38-5-57-6.5T54.5,24T34,38q-9,8-6.5,19T61,100q19,23 39,43.5T136,177q7,6 16,12.5T181,210t59,40q19,15 30,23t18.5,13.5T304,298q-7,1-30.5,3T230,301q-28,0-36,0.5T178,304H163q-5,0-18,4.5T121,320t-12,14q0,0 6,3.5t10,7.5q8,5 12.5,8t8.5-1q0,0 19,0.5t43,1.5q58-1 85.5-3.5t41-8.5T361,324q16-16 13-31t-14-27q-4-4-7.5-8.5T346,253q0,0-14-9t-34-22q-19-13-37.5-24T238,182q-7-4-17-10.5T207,161q-3-4-13.5-14T171,129q-9-8-21.5-20T128,88t-9-9t20,2.5t50,5T248,87q47,1 74.5,2.5t42,1T387,86q7-2 12.5-8t8-12.5T408,56q-4,0-31-2.5T315,49q-46-4-89-10T140,28Z"/>
      <glyph unicode="{" glyph-name="gid274" horiz-adv-x="330" d="M176-127q-9,14-9,8q0,0-5.5,3T151-106q-8,11-9.5,21.5T141-58q0,10 0,19t0,9q5,5 6,12t2,14q2,8 10.5,33T178,82.5T196,127q11,21 19,42.5t8,31.5q0,16-13.5,27T173,243q-30,0-20,29q4,12 16.5,19t25.5,3q15,0 34.5,15t37,40T293,404q12,32 18,62.5T321,546q3,39 10.5,65.5t22,48T392,704q14,18 29,26t26,14q20,8 40,8t27-5q5-2 10.5-11t9-18t0.5-11q-5,0-13-2.5T498,702q-19-4-35.5-13T426,663q-16-21-25-34t-11-32q-7-18-10-29t-5-26t-5-44q-3-30-5-47t-6-32t-14-38q-13-37-29.5-64T276,270q-17-10-18.5-14t7.5-15q0-4 5-13.5t5-19.5q7-16 1-39.5T246,92q-7-15-13-31t-6-24q-5-7-10-24t-9-31q-4-21-7-35t-3-17q0-19 45-12q17,5 23,4t13-10q11-10 6.5-18T259-121q-15-8-31.5-11t-30-1.5T176-127Z"/>
      <glyph unicode="|" glyph-name="gid325" horiz-adv-x="330" d="M150-140q-19-5-30.5,8T106-92t6,64q5,12 8,23.5T123,14q2,8 10,35.5T152.5,113t23,71.5t20,60T206,272q4,0 7,7t3,14q0,8 3.5,18t7.5,14q0,5 2.5,11.5T232,347t2.5,8t2.5,8q6,11 18.5,41.5t29,72t33.5,86T350,647t24,66t9,30q0,8 4,12t12,4q3,3 7.5,4t8.5,1q0,0 4-4t12-12q8-7 9.5-16t1.5-21q0-13-3-23t-12-29t-28-59q-3-8-12-28t-19.5-45t-21-48.5t-17-39.5T323,421q0-4-3.5-12T312,389q-4-8-11-23.5t-14.5-33t-12.5-30T269,288q0-4-0.5-8t-4.5-8q-4,0-4.5-5.5T259,261q0-10-16-53q-7-22-17-56T204.5,79.5T183,5T166.5-58.5T160-97q0-24-1-31.5T150-140Z"/>
      <glyph unicode="}" glyph-name="gid275" horiz-adv-x="330" d="M141-111q-27-1-45,6T78-87q0,5 3,8t3,3q5-4 6-4t1,4q0,0 10,3t27,10q29,5 43.5,12t21,21T204,9q3,12 5.5,22.5T212,46q0,3 1.5,32.5T213,147q-2,44-2.5,64.5t2,30T220,261q8,8 9.5,15.5T229,294q-8,20-6,36.5T233,353q17,19 27.5,30t19,22.5T297,435q26,41 45,81.5T368,587q0,4 0,7t0,3q4,9 0.5,23T354,649q-8,16-20,24t-38,15q-16,3-17,13.5t8,20.5q4,8 14.5,10t21-0.5T337,724q8-8 15-8q3,0 14-9.5T389,684t17-23q4-3 7.5-16.5T418,619q3-12 3.5-20.5t-2-19T410,549q-14-46-25.5-76.5T368,437q-4-3-7.5-4t-3.5-5t-9-20.5t-20.5-34T307,347q-4-4-7.5-11.5T296,328t-1-0.5t-6-3.5q-7-4-7-11.5t7-23.5q2-9 6-16t8-15q0-14-5-14q-13-7-19.5-15T271,199t0-72q1-21 0-45t-2.5-42.5T264,15q-7-30-12.5-50T241-55q0,0-2-0.5T238-59q0-14-14-25.5T188-103t-47-8Z"/>
      <glyph unicode="~" glyph-name="gid313" horiz-adv-x="446" d="M357,201q-22,0-40.5,7.5T279,229q-10,6-23.5,17.5T222,265q-16,5-27.5-3.5t-22.5-19T147,230q-1-6-8.5-13.5T127,214q-11,3-18,10.5T103,237q1,6 11,19t31.5,28T200,311q20,3 43-4t40-24q23-21 42-30.5t38-1.5q8,1 25.5,7t21.5,8l26,7q2,2 5,5t7,4q1,3 14,4q14,5 17-1.5t1-16.5q0-4-3.5-11T464,239l-20-9q-14-3-29.5-11T389,207q-18-6-32-6Z"/>
      <glyph unicode="&#xa0;" glyph-name="gid296" horiz-adv-x="242"/>
      <glyph unicode="&#xa1;" glyph-name="gid264" horiz-adv-x="210" d="M25-227q0,0-3.5,4T11-211T2.5-194.5T1-174q2,20 14.5,44T44-78Q54-59 63.5-42T73-21T77-9t9,20q6,10 13.5,24T112,61t5,14q2,4 3,8t5,8q4,0 4.5,5.5T130,102q0,4 4.5,18.5T149,155q19,53 27.5,84.5T186,293q2,24 4,28t9,8q29,5 37.5-27T231,214q-6-12-10-23t-4-19q-3-13-10-30.5T193,109T183,88q-4,0-8.5-6.5T170,67t-3-18t-8-14q0-4-4-10t-4-11q0-4-2.5-6.5T146,0q-9-16-23.5-47.5T93.5-114T69-176T59-209q-1-8-5.5-11.5T41-223q-4-3-8-3.5T25-227ZM239,406q-30,19-26.5,42T253,489q19,8 31.5,7T312,484q19-18 12.5-36.5T292,411q-18-11-26.5-11.5T239,406Z"/>
      <glyph unicode="&#xa2;" glyph-name="gid299" horiz-adv-x="450" d="M214-54q-28-6-30.5,26T197,59q9,13 12.5,25t4.5,19q3,10 16,36.5t28.5,57t28,54T302,278q4,0 9,7t6,14q0,8 3.5,18t8.5,13q0,5 4.5,11t4.5,10q1,3 3.5,5.5T344,363q7,11 20.5,37t31,60.5t35.5,71t33.5,69t25,54T499,680q6,16 20,13q6,6 16,2q0,0 3.5-3.5T549,681q5-9 6.5-18.5T556,642q-2-13-7-22.5T533,592t-32-56q-5-9-17-28t-25-40t-22.5-36T427,415q0-5-16-31q-4-8-12.5-23t-17-31t-15-28T360,288q0-7-9-16q-4,0-5-5.5t-1-5.5q0-4-5-17t-16-30q-11-28-26-61.5T268,86T242.5,27T230-13q-1-24-4-31.5T214-54ZM334,186q-13-6-30-5t-46,11q-3,0-9,4t-12.5,10.5T226,221q-16,23-13,68t28,108q7,15 21.5,38t29,42.5T312,500q0,0 11,4t28,13q5,2 11.5,4t13.5,3t12,0q20-1 41.5-14.5t35.5-31t9-30.5q0-2-5.5-7.5t-12-11T446,419q-5-6-13.5-5t-15,8.5T410,442q-2,8-14.5,15T383,464q-8,0-22.5-14.5T332,415q-18-18-31-42.5t-20.5-46T270,296q-4-10-1-28t7-22q4-2 20.5-1t39.5,4.5t45,8.5t36,11q19,12 33,14t21,0q11-4 13-11t-5-15.5T455,239q-16-8-28.5-17.5T414,207q-4,0-8.5-2.5T398,203q-2,0-16-3t-28.5-7T334,186Z"/>
      <glyph unicode="&#xa3;" glyph-name="gid302" horiz-adv-x="450" d="M439-48q-30-15-70.5-11.5T296-35q-3,3-12,7.5T267-23q-7,5-23.5,6T216-13q-22,5-31.5,5T160-13q-27-9-59-7T46.5-8.5T24,16q0,17 10.5,26T73,54q32,3 45,5t17,5.5T143,75q6,20 12.5,48.5T171,208q3,26 13,69t25.5,91.5T245,459q26,53 52,95.5T349.5,624T403,655q27,8 54,1.5T501,633q1,7 10.5-3t19-25.5T541,578q3-10 6.5-18t3.5-8q4-3 3.5-9T554,533q-1-8-6-14t-19-17q-14-7-26-6t-18.5,11T480,538q2,17-8,39.5T448,604q-11,5-27.5-5T383,572q-9-15-16-21.5t-7-6.5t-8-14t-19-34q-11-22-25.5-60t-29-79t-26-76T236,229q-1-10-5.5-38.5T221,130t-7-55l2-25l36-12q11-4 28.5-12T314,16q14-9 30.5-13T374-1q25,0 44,6.5T439,19q4,0 7.5,4.5T450,33q5,0 11,2.5T474,38q17,0 22.5-8.5t0-21.5t-20-28T439-48ZM341,283q-4,0-22,0.5t-43,1T224.5,286T176,287.5T143,288q-6,0-15,0.5T108,293q-15,0-20,3.5T79,307q-11,15-2,20.5t46,9.5q17,4 49,5t69,0.5t70.5-1T365,341q26,0 35-2t20-13q15-15 11-28.5T404,288q-7-1-26-2t-37-3Z"/>
      <glyph unicode="&#xa4;" glyph-name="gid300" horiz-adv-x="450" d="M141,26q-5-4-9.5,3t-5,17T130,60q-4,5 0,4.5t6-0.5q-5,6-2.5,14.5t8.5,17T153,108q-1,4 2.5,6.5T160,125q11,7 23,7q0,14 5,17t11,7q5,5 6,11t-4,4q-1,2-6,11t-10,12q-2,20-2.5,43.5T187,277q3,0 4.5,13t7.5,19q-1,4 3.5,9.5T210,325q1,2 3,3.5t2,6.5q0,0 3,6t10,16q6,16 8.5,23t2,11.5T235,404q-19,15-34.5,37T189,474q-1,2-3,4.5t-4,6.5q-5,7-3.5,17t6,15.5T193,518q-1,0 3-0.5t9-11.5q4-6 8.5-11t8.5-11q5,1 9.5-10.5T243,456q13-18 22.5-25.5T275,421q2-2 7.5,3T298,435q9,5 15.5,6.5t14,2.5t19.5,2l28-2l42,55q32,41 43,47.5t18-7.5q8-2 9.5-12T486,512q-1,2-4.5-6T474,493q-5-10-12.5-23T451,450q-12-3-13-9t-4-11q0,0 3.5-5T449,413q6-2 14-11.5T473,374q6-4 9.5-15.5T487,337t-1-12q-1-1-1.5-2.5T482,314q2-4-5.5-22T456,251t-30-42l-24-25l13-14q5-8 16-20.5T453.5,128t16.5-9q4,0 7-11t4-23t-2-17q-6-8-14-5T441,84q-21,16-37.5,40.5T383,156q2,9-5,7t-13-7q-27-12-57-20t-47-5q-11,5-14.5,4T233,124q-1-4-8-14T209.5,90T195,74q-7-17-15-25t-6-14q-2-2-9.5-6T150,23t-9,3ZM313,189q31,16 60.5,41T419,289q10,20 11.5,44.5T423,369q-15,19-46,23q-20,2-29-1t-25-10q-23-10-33.5-24.5T262,311q-23-34-29.5-64.5T243,206q8-10 27-14.5t43-2.5Z"/>
      <glyph unicode="&#xa5;" glyph-name="gid303" horiz-adv-x="450" d="M237,673q10,12 18.5,3t14-30.5T274,595q3-107 15.5-170T324,348q12-3 21.5,1.5t28,24T429,433q27,29 55.5,62t54,63t46,51.5T617,638q4,6 8.5,9t8.5,3.5t4,0.5q8-2 9-12.5t8-20.5q2-4 3-8.5t0-9.5q0-3-4-7.5t-8.5-9T636,574q-13-11-40.5-38.5t-56.5-59T490,420q-44-51-78.5-88T369,288q-1-2-14-14t-18-20l-27,13l-35,44q-20,30-32,56t-17,64q-7,24-9,45t-1.5,48.5T217,593q1,38 8.5,55T237,673Zm2-741q-4,1-12,6.5T209-49q-7,8-8.5,15T203-14t11,40q1,23 9.5,56T244,137q0,11 5,30t12.5,39.5T275,242l18,52l40,34l28-31q-4-6-7-14t-8-27t-15-59q-8-27-17.5-58T296,81T282,37Q270-8 264-32T253.5-63.5T239-68ZM165,116q-6,0-15,0.5T130,121q-15,0-20,3.5T101,135q-11,15-2,20.5t46,9.5q17,4 49,5t69,0.5t70.5-1T387,169q26,0 35-2t20-13q15-15 11-28.5T426,116q-4,0-26,1t-50.5,2t-53,2T263,121q-6,0-16.5-1t-24-2T194,116.5T165,116ZM490,296q15-15 11-28.5T474,258q-5,0-15.5-1t-23-2T411,253q-4,0-22,0.5t-43,1T294.5,256T246,257.5T213,258q-6,0-15,0.5T178,263q-15,0-20,3.5T149,277q-11,15-2,20.5t46,9.5q17,4 49,5t69,0.5t70.5-1T435,311q26,0 35-2t20-13Z"/>
      <glyph unicode="&#xa6;" glyph-name="gid326" horiz-adv-x="330" d="M297,356q-3-10-13-10t-21,6.5t-16.5,16T247,385q11,26 28,68t35.5,90.5t35,92.5t27,73.5T383,743q0,16 16,16q3,3 7.5,4t8.5,1q0,0 4-4t12-12q8-7 9.5-16t1.5-21q0-13-3-23t-12-29t-28-59q-3-8-12-28t-19.5-45t-21-48.5t-17-39.5T323,421q0-4-3.5-12T312,389q-3-5-6.5-13.5T297,356ZM150-140q-28-7-39,24.5T112-28q5,12 8,23.5T123,14q2,8 10,35.5T152.5,113t23,71T195,242q1,8 10,7t20-7t17.5-14.5T245,213l-2-5q-7-22-17-56T204.5,79.5T183,5T166.5-58.5T160-97q0-24-1-31.5T150-140Z"/>
      <glyph unicode="&#xa7;" glyph-name="gid320" horiz-adv-x="385" d="M331,189q-38-10-69,1t-46,34q-7,14-7,19.5t7,9.5q8,1 14.5-0.5T248,247q15-13 36.5-11.5t39.5,12T344,271q-6,2-10,11.5T326,303q-68,77-68,129q-4,12-1,26t10,28.5T283,513q26,29 58,54t59,38q11,0 29,0t25-2t15.5-10.5t15-20T493,550q0-7-2.5-18.5T484,503q-4-11-9-20.5T470,469q-1-11-10-12t-19,5.5T426,480q-4,15-5.5,24.5T423,525q11,13 11,17t-11,2q-7,0-25-10.5T361.5,507T331,474q-12-14-15.5-22.5t-3-15.5t0.5-18q0-9 5-22t11.5-22.5T341,363q0,0 8-13.5T373,321q35-58 26-88t-68-44ZM255,9q-38-9-69,0.5T140,45q-7,13-7,18.5T140,74q8,1 14.5-3.5T172,62q15-10 36.5-7T248,68t20,22q-1,4-7.5,14T250,125q-33,32-50.5,68.5T182,254q-6,18 3,38.5T209,327q17,26 38.5,44T288,405l32-56q-17-8-34-25.5T255,291q-14-18-16-26t-2-25q0-14 10.5-35T265,177q0,0 9-13t23-24q35-61 26-90.5T255,9Z"/>
      <glyph unicode="&#xa8;" glyph-name="gid345" horiz-adv-x="353" d="M262,450q-7,7-11.5,17.5T247,482q2,5 7.5,19.5T267,522q3,2 6.5,6.5T281,534q12,8 22.5,2.5T319,515q9-14 6-24.5T309,463q-15-20-27-22t-20,9Zm128,0q-7,7-11.5,17.5T375,482q2,5 7.5,19.5T395,522q3,2 6.5,6.5T409,534q12,8 22.5,2.5T447,515q9-14 6-24.5T437,463q-15-20-27-22t-20,9Z"/>
      <glyph unicode="&#xa9;" glyph-name="gid321" horiz-adv-x="496" d="M354,92q-65-1-109,24t-62,77q-11,20-13,35.5T163,260q-1,2-1,5.5t-2,4.5q-1,4-1,15t1,21.5t1,12.5q4,3 3,6.5t-1,3.5q-4,10 2,33.5T182,412t21.5,46T218,480q2,0 1.5,3t1.5,4q4,5 21.5,16.5t39,24T318,548q64,32 118,12t98-83q4-14 13-26.5t9-18.5q9-14 15-32t8-31.5T578,352q2-3 1-7t0-6q3-4 2.5-18t-2-30.5t-4-29T571,249q0,0-2.5-1t0.5-3q2-1-3.5-8t-13-13.5T539,216q0,0-0.5-1t3.5-2q2-1-7.5-13t-26-27.5T473,143t-36-20q-3-3-4.5-4.5T429,115q-7-10-31.5-17T354,92Zm-66,61q16-13 50-7.5T413,174q16,7 36.5,22t36,31T500,252q-1,5 0.5,11t5.5,7q9,8 14.5,31.5t5.5,49T519,389q-1,2-5.5,9T510,409q0,5-2,9.5T498.5,435T472,473q-32,25-58.5,30t-44,1.5T346,498q-44-13-69-37t-37-51t-18-50q-9-29-12.5-45T208,287.5T219,262q-1-13 3.5-25.5T225,221q1-5 11.5-20.5t25-30T288,153Zm66,65q-8-4-17-3.5T305,222q-2,0-8.5,6T284,241q-11,17-9,48t21,69q3,11 10,23.5T321,405t14.5,19t7.5,10q0,0 5.5,2.5T371,445q7,2 14,3.5t7,1.5q13-1 25-6.5T438.5,430t14-16.5T455,398q-1-2-6.5-8T440,378t-8.5-5.5t-10,6T416,392q-14,20-28,17.5T363.5,394T349,369q-13-15-17.5-40T325,295q-2-10-0.5-21t4.5-13q12-4 26-3.5t33,9.5t44,28q8,6 10.5,2.5t4-9T453,282q-1-18-13-31.5T415,232q-4,0-8.5-1.5T399,229q-4,0-20.5-4T354,218Z"/>
      <glyph unicode="&#xaa;" glyph-name="gid231" horiz-adv-x="350" d="M229,324q-10,0-18,2.5T197,333l-2,1l-6,12q-3,3-5,5t-2,3q0,3-0.5,7t-2.5,7h1q-5,5-0.5,24.5t16,47.5T221,499q5,5 9,12t8,14l6,10l-1-1q0,2 2.5,5t5.5,4v6q0,6 13,23t30,35t28,26q18,14 39,16.5T396,638l36-39l31-31l-13-44q-4-12-5.5-23T443,480q0-20 6.5-39T463,406q8-15 31-19q8-2 15.5-6.5T517,366q0-8-5-14.5T497,343q-27-4-52.5,17T401,417q-2,4-6,12t-6,15q-4-7-9.5-12.5T371,422q-44-49-79-73.5T229,324Zm6,59q2-2 15.5,5.5T280,410q22,23 50.5,57T377,527l17,29q-9,20-16,27.5T367,591q-10,0-29-21.5t-41-57T254,435q-5-11-11.5-30T235,383Z"/>
      <glyph unicode="&#xab;" glyph-name="gid285" horiz-adv-x="646" d="M406,2q-8-1-27-0.5T328,16q-36,19-53.5,28.5T242,72q-34,20-52.5,41.5T154,165l-24,42l-7,30q8,2 19,11t12,10q9,11 21,23t33,30.5T264,360q37,27 50.5,41T338,425q6,7 14,14.5t12,7.5q6,2 9.5,1t7.5-4q11-7 21.5-8t11.5-9q0,0-2.5-8T402,405q-13-11-28-22.5t-37.5-30T275,299q-24-21-41-37.5t-25.5-30T202,205q6-13 24-35.5T275.5,121T353,69q25-12 42.5-26t22-25.5T406,2ZM606,2q-8-1-27-0.5T528,16q-36,19-53.5,28.5T442,72q-34,20-52.5,41.5T354,165l-24,42l-7,30q8,2 19,11t12,10q9,11 21,23t33,30.5T464,360q37,27 50.5,41T538,425q6,7 14,14.5t12,7.5q6,2 9.5,1t7.5-4q11-7 21.5-8t11.5-9q0,0-2.5-8T602,405q-13-11-28-22.5t-37.5-30T475,299q-23-21-40.5-37.5t-26-30T402,205q6-13 24-35.5T475.5,121T553,69q25-12 42.5-26t22-25.5T606,2Z"/>
      <glyph unicode="&#xac;" glyph-name="gid312" horiz-adv-x="465" d="M478,137q-10-10-19.5-11.5t-15,5.5T440,153l-5,63l-3,39l-29-2q-6,0-33-1t-62.5-2t-67-1.5T195,248q-6,0-15,0.5T160,253q-15,0-20,3.5T131,267q-11,15-2,20.5t46,9.5q17,4 50.5,6.5t72.5,4t74,2.5t55,1q26,0 35-2t20-13q20-21 8-33q2-16 2.5-33t0.5-38q0-25-2-34.5T478,137Z"/>
      <glyph unicode="&#xad;" glyph-name="gid283" horiz-adv-x="326" d="M178,178q-6,0-15,0.5T143,183q-15,0-20,3.5T114,197q-11,15-2,20.5t46,9.5q34,8 63,11t69,3q26,0 35-2t20-13q15-15 11-28.5T329,188q-7-1-26-2t-37-3q-11-1-35-3t-53-2Z"/>
      <glyph unicode="&#xae;" glyph-name="gid322" horiz-adv-x="496" d="M354,92q-65-1-109,24t-62,77q-11,20-13,35.5T163,260q-1,2-1,5.5t-2,4.5q-1,4-1,15t1,21.5t1,12.5q4,3 3,6.5t-1,3.5q-4,10 2,33.5T182,412t21.5,46T218,480q2,0 1.5,3t1.5,4q4,5 21.5,16.5t39,24T318,548q64,32 118,12t98-83q4-14 13-26.5t9-18.5q9-14 15-32t8-31.5T578,352q2-3 1-7t0-6q3-4 2.5-18t-2-30.5t-4-29T571,249q0,0-2.5-1t0.5-3q2-1-3.5-8t-13-13.5T539,216q0,0-0.5-1t3.5-2q2-1-7.5-13t-26-27.5T473,143t-36-20q-3-3-4.5-4.5T429,115q-7-10-31.5-17T354,92ZM307,221q-3-9-10-11t-14.5,1.5t-11.5,11T269,239q2,11 7,25.5T287,295q0,8 1,15t3,7q2,9 7.5,30T326,398q0,12 1.5,17T323,426q-3,5-2.5,9.5T331,447q0,6 9.5,8t31.5,0q12-1 18-2t10-5q14-1 26-7t12-9q8-7 13-17.5t6-18.5q0-12-1.5-19T443,356q-7-13-20-27.5T393,302l-12-13q1-4 8-12.5T404,260t13-10q8,2 12.5,0t1.5-20q-7-14-10-15t-17,9q-12,2-17,6t-12,11q-7,6-16,12.5T335,273q0,0-1.5,0.5T321,275l-8-21q0-4-1.5-13T307,221Zm-19-68q16-13 50-7.5T413,174q16,7 36.5,22t36,31T500,252q-1,5 0.5,11t5.5,7q9,8 14.5,31.5t5.5,49T519,389q-1,2-5.5,9T510,409q0,5-2,9.5T498.5,435T472,473q-32,25-58.5,30t-44,1.5T346,498q-44-13-69-37t-37-51t-18-50q-9-29-12.5-45T208,287.5T219,262q-1-13 3.5-25.5T225,221q1-5 11.5-20.5t25-30T288,153Zm55,162q17,5 30,16t17,20q3,2 7,6t13,16q2,4 3,7.5t1,16.5q4,8-3,13q-4,4-11,6t-18,6q-1-1-3.5-3t-9.5-9q-1-4-3.5-13.5T356,384q-2-6-6.5-22.5t-7.5-31t1-15.5Z"/>
      <glyph unicode="&#xaf;" glyph-name="gid347" horiz-adv-x="353" d="M301,461q-6,0-14.5,0.5T269,465q-15,0-20,2.5t-9,9.5q-9,15-1,20.5t42,9.5q34,5 61,8t65,3q23,0 32-2t20-10q13-15 9.5-27.5T443,468q-7-1-24.5-2T383,465q-9,0-32.5-2T301,461Z"/>
      <glyph unicode="&#xb0;" glyph-name="gid324" horiz-adv-x="283" d="M333,426q-38,0-59.5,11.5t-32,27T225,491q-8,15-12,38t-6,33q0,10 3.5,26.5T221,622t15,29q13,24 27.5,35.5T292,710q15,7 24.5,10.5T335,724q36,0 67-13t49.5-40T470,602q0-34-7.5-56T442,507t-31-37q-5-6-16-16.5t-26.5-19T333,426Zm-11,52q12,0 32,14.5T390,533t15,58q-1,40-10.5,60T362,671q-52,0-69.5-33.5T275,554q0-13 3.5-31t14-31.5T322,478Z"/>
      <glyph unicode="&#xb1;" glyph-name="gid311" horiz-adv-x="446" d="M178,248q-6,0-15,0.5T143,253q-15,0-20,3.5T114,267q-11,15-2,20.5t46,9.5q17,4 50.5,6.5t72.5,4t74,2.5t55,1q26,0 35-2t20-13q15-15 11-28.5T449,258q-5,0-15.5-1t-23-2T386,253q-6,0-33-1t-62.5-2t-67-1.5T178,248Zm0-230q-6,0-15,0.5T143,23q-15,0-20,3.5T114,37q-11,15-2,20.5T158,67q17,4 50.5,6.5t72.5,4T355,80t55,1q26,0 35-2t20-13q15-15 11-28.5T449,28q-5,0-15.5-1t-23-2T386,23q-6,0-33-1t-62.5-2t-67-1.5T178,18ZM304,137q-15-9-20.5-1.5T274,172q-4,14-6.5,40.5t-4,57.5T261,329t-1,44q0,21 2.5,28T275,417q15,12 28.5,9t9.5-21q1-6 2.5-21.5T318,354q0-4 1-26t2-50.5t1.5-53.5t0.5-36q0-5-0.5-12T318,160q0-12-3.5-16T304,137Z"/>
      <glyph unicode="&#xb2;" glyph-name="gid244" horiz-adv-x="320" d="M211,345q-5,2-15,10.5T182,371q0,4 2.5,10.5t6.5,12t6,5.5q1,0 4,6.5t6.5,14T211,429l10,8l4,2h-2l11,11l10,10h-1l21,22q5,5 12,12t15,17q17,17 30,32t14,19q0,0 4,4.5t8,6.5l19,17q3,7 10,18t13,18l18,36q2,7 0,9.5T392,678h1q-13,3-27,3q-12,0-25.5-4T310,662q-4-1-8-2t-9-4q-6-3-11-4t-14,1t-6,7l-9,11l-9,17l27,16q28,17 57.5,26.5T377,732q8-1 15-2.5t7-1.5q8-1 18-8.5t19-18T449,681v1q5-7 7-14.5t2-15.5q0-13-5.5-28T434,591q-3-5-16.5-20T388,538t-29.5-32.5T340,487q-5-3-18-15.5t-27-27T271.5,419T263,408l3-2q0,0 6,2q15,6 41.5,10.5T364,425t30,0q8,2 26,0.5t31-6.5q1,0 2.5-1t2.5-1q1-1 4-1q8-3 11-8q3-6 6-9q8-7 9.5-12t-3.5-7t-16.5-1T437,383q-6,0-15-0.5T408,380q-3-1-8.5-1.5T386,378q-1,0-3-0.5t-4-0.5h-6q-12,2-26-1t-30-8q-9-3-32.5-9.5t-45.5-11T211,345Z"/>
      <glyph unicode="&#xb3;" glyph-name="gid245" horiz-adv-x="320" d="M294,310q-31,0-56.5,11T213,349q1,15 7,16.5t27-0.5q25-6 53.5-1t53,17.5T391,409q17,19 17,40q0,10-5,20t-16,17q-12,11-39,19.5T304,515q-7-2-13-1t-17,8q-4,5-7.5,10.5T261,541l-4,6q-1,8 12.5,17.5T327,601l5,2h-1l6,4q28,18 47,30t30.5,21T433,673h-1q10,14 10.5,20.5T431,704q-17,2-33,2.5T378,702q-4,2-16.5,0T338,697t-12-5t-10-5.5t-18.5-6T286,678q-4,1-9.5,8.5t-9.5,17T263,718q3,4 11,10t18.5,12T311,750q11,3 31.5,4.5T383,757t29,0h1q35-4 56-21.5T494,691q3-16-2-27.5T465,629l-4-4l-10-7q-8-6-19-13.5T409,589l-11-7l-7-5l-8-7l-7-5l-13-10l17-13q20-10 39.5-29.5T447,481q5-12 7.5-22.5T457,437q0-28-15-51t-45-44q-20-13-48.5-21.5T294,310Z"/>
      <glyph unicode="&#xb4;" glyph-name="gid342" horiz-adv-x="353" d="M347,444q-7,7-10.5,21T334,483q1,5 13.5,20T377,536t32.5,32T432,585q11,7 21-2.5T473,557q3-9-7.5-21.5T438,509t-33.5-27.5T380,457q-10-16-15.5-19T347,444Z"/>
      <glyph unicode="&#xb5;" glyph-name="gid314" horiz-adv-x="370" d="M69-173q-7,3-15,10T41-147.5T36-133q0,12 10,43.5t23.5,74t27,89T118,162q5,23 13.5,51T158,281q21,41 32,60.5T204,365q5,2 9,2.5t7-0.5q8-1 14-6.5t7-15.5q3-5 2.5-13.5t-4-20.5t-10-27T214,252q-14-34-25.5-68T175,126t12-29q5-3 14.5-2.5t22,7T251,121q17,16 36.5,44.5T325,237q8,20 12,35.5t5,34.5q-5,25 17,38q4,5 11,9.5t9-0.5q4,0 8,0.5t8,0.5q4,1 5.5-4.5T407,341q4-3 5.5-9t1.5-14q0-15-7-40t-22-60q-19-41-25.5-62T352,115q0-38 29-63q11-7 12.5-16T394,15q-2-9-11.5-14.5T361-5T339,2q-10,10-20,27.5T303,70q-2,8-1.5,22T301,112q-3-7-9.5-14.5T279,85q-4-4-18-15.5T233,51q-31-19-51.5-22.5T144,43q-3-10-5.5-20T133,3q-14-43-24-72.5T92-118T81-147.5T74-164q-1-4-2.5-5.5T69-173Z"/>
      <glyph unicode="&#xb6;" glyph-name="gid319" horiz-adv-x="424" d="M181-47q-12,11-14.5,22T173-2q0,3 3.5,12.5T184,30q6,22 15.5,47.5t19,47.5T235,158q4,10 6.5,22.5T248,200q5,11 11.5,23.5T271,243q4,19 9.5,33.5T286,291q-11,2-24.5,1T219,296q-27,10-43.5,37T166,409q10,32 22,65.5T230,530t50.5,34t42,21.5T375,607q8,0 31.5,1.5T456,614q44-3 72.5-9.5t42-16.5T581,562q-1-7-1.5-12T573,537q-3-5-9.5-18t-14-28T535,464q-4-7-14-31.5T500,379q-13-25-20-44.5T473,315t-4-7.5T460,292q-1-9-10-32t-21-46q-10-25-21-52.5T395,120q-7-13-15-35.5T361,44L349,2H330q-5,3-12,5t-12,9q-2,8-2,13t4,26q5,10 9.5,19.5T326,88q5,3 6,11t2,10q0,8 6,18.5t9,14.5q4,12 6,19t2,7q0,6 9,22q4,8 9.5,20t8.5,24q3,8 6.5,19t7.5,11q0,3 2,11t3,16q5,9 9.5,20.5T420,330q5,7 8,11.5t3,4.5q-3,0 1.5,11.5T445,385q4,5 9,23t9,31q7,14 17.5,36.5T501,515q5,17 8.5,30.5T513,562q-2,0-13.5,2t-23,1T461,553q-1-4-9.5-19T430,497q-8-22-20-46.5T394,412q-7-15-14.5-31T366,349q-4-7-11-23.5T343,292q-4-9-12-28.5T313,220t-19.5-46T275,138q-3-10-5-20.5T266,102q0-5-9-29T236.5,17.5T215-40q-7-10-12-11t-22,4Z"/>
      <glyph unicode="&#xb7;" glyph-name="gid258" horiz-adv-x="187" d="M158,248q-5,5-9,14.5t-5,18t2,8.5q5,1 12,8.5t12,18t4,18.5q0,10 10,12q12,8 23.5,2.5T229,327q9-19 5-31.5T212,261q-15-20-27.5-22T158,248Z"/>
      <glyph unicode="&#xb8;" glyph-name="gid343" horiz-adv-x="353" d="M160-178q-15-3-36-0.5t-39,7T61-165q-12,4-15.5,12T45-136.5t11,13T74-122q16-5 35.5-11t35.5-6t23,14q7,11 2.5,21.5T155-81q-7,9-17,21.5T117-37q-8,12-10.5,23.5t13.5,27T184,53l33-23Q192,18 176.5,7T161-17q14-20 31-38.5T214-94q6-24 0.5-41.5t-20-28T160-178Z"/>
      <glyph unicode="&#xb9;" glyph-name="gid243" horiz-adv-x="320" d="M359,310q-4-4-9.5-3T338,312.5T326,323q-4,5-4,15t4,29q1,5 2,10t2,9q5,28 9.5,43t4.5,15q4,2 11,25t16,55q2,8 5.5,20t6.5,22q3,13 6.5,25t6.5,25q5,14 8,27.5t7,27.5q-9-6-23.5-17T356,629q-8-5-17-12t-18-15q-7-6-14.5-12T291,579q-21-19-27.5-22T247,561q-8,7-12.5,14.5t-5,15T232,604q2,1 14.5,9.5T270,631q8,6 11.5,9.5T288,645q6,5 12,9t13,10q6,6 15.5,14T356,699q4,4 8.5,7t8.5,7q4,3 8,6.5t8,6.5q19,13 35,22.5T451,763t14,4q2-1 11.5-8T489,743q0-2 0-5.5t-0.5-7T487,723t-3-7q-3-9-9.5-29t-14-45t-15-49T433,552q-4-13-7-25t-6-20q-1-1-1.5-3.5T418,500q-4-10-7-20.5T404,449q-8-20-15-46t-10-43q-1-5-3-10t-4-10q-3-10-6-18t-7-12Z"/>
      <glyph unicode="&#xba;" glyph-name="gid232" horiz-adv-x="283" d="M250,313q-13,0-21,6t-20,18q-13,16-18,31t-2,33q2,5 1,11.5t-1,6.5l2-1q-4,4-3.5,5.5T190,427l-2-1q0,1 1,1.5t1,1.5l6,2q0,0-1,3t-2,5q1,7 4.5,20.5t10,29.5T221,518q5,9 14.5,23.5t21,29T278,594q20,19 35.5,28T348,636h-1q20,6 28,5.5T396,627q17-10 27.5-24T436,566q2-26-4-60.5T394,418q-20-31-38-46.5T315,339h1q-16-13-30.5-18.5T250,313Zm10,51q10,0 25.5,11T321,411q18,23 30,44.5T373,511q2,7 3,16t1,18q0,11-1,19.5T373,575h1q-8,5-20,3t-26-16q-22-21-40.5-56.5T252,427q-3-10-5.5-20T244,391q0-27 16-27Z"/>
      <glyph unicode="&#xbb;" glyph-name="gid286" horiz-adv-x="708" d="M436,0q-6-2-9-1t-8,4q-10,8-20.5,8.5T386,20q0,0 2.5,8T398,42q14,12 28.5,23T464,95t61,53q35,32 55.5,53.5T598,242q-9,20-45,58.5T447,378q-24,12-42,26t-22,25.5T394,445q8,1 27.5,0.5T472,431q36-19 53.5-28.5T558,375q34-19 53-41t35-52l24-42l7-30q-5-1-12-6t-12.5-9.5T646,189q-9-11-21-23t-33-30.5T536,87q-37-27-50.5-41T462,22q-6-7-13.5-14.5T436,0ZM236,0q-6-2-9-1t-8,4q-10,8-20.5,8.5T186,20q0,0 2.5,8T198,42q14,12 28.5,23T264,95t61,53q35,32 55.5,53.5T398,242q-9,20-45,58.5T247,378q-24,12-42,26t-22,25.5T194,445q8,1 27.5,0.5T272,431q36-19 53.5-28.5T358,375q34-19 53-41t35-52l24-42l7-30q-5-1-12-6t-12.5-9.5T446,189q-9-11-21-23t-33-30.5T336,87q-37-27-50.5-41T262,22q-6-7-13.5-14.5T236,0Z"/>
      <glyph unicode="&#xbc;" glyph-name="gid250" horiz-adv-x="800" d="M267-14q-18,3-23.5,18T246,43t29,54q9,8 16,14.5t9,13.5q4,7 21.5,27.5T362,199t45.5,51T446,293t17,21q4-1 9,4.5t7,12.5q3,8 10,14.5t14,7.5q2,5 5,8t4,7t4.5,7t4.5,7q9,8 31,29.5T603,462t60,61t58,60t44,47t19,22q7,13 19,7q7,4 16,0q0,0 1.5-4.5T826,640q5-10 4-17.5T823,605q-5-11-11.5-19t-21-21T746,525q-6-6-20.5-20.5t-32.5-32t-35-34T629.5,411T617,398q-4-1-9.5-5T597,378q-8-8-25.5-25t-32-31.5T524,304q-2-3-6-5t-10-4q-1,1-2.5-2t-1.5-3q0-4-8.5-15.5T470,249q-17-20-44.5-53.5t-56-70T319,59.5T291,18Q283-1 278.5-7T267-14Zm52,224q-4-4-9.5-3T298,212.5T286,223q-4,5-4,15t4,29q1,5 2,10t2,9q5,28 9.5,43t4.5,15q4,2 11,25t16,55q3,11 6,21.5t6,20.5q3,13 6.5,25t6.5,25t7,27t8,28q-9-6-23.5-17T316,529q-8-5-17-12t-18-15q-7-6-14.5-12T251,479q-21-19-27.5-22T207,461q-8,7-12.5,14.5t-5,15T192,504q2,1 14.5,9.5T230,531q8,6 14,11t9,6q1,0 2,1t2,2q15,12 28,23.5T316,599q4,4 10,9t23,18q19,13 35,22.5T411,663t14,4q2-1 11.5-8T449,643q0-2 0-5.5t-0.5-7T447,623t-3-7q-3-9-9.5-29t-14-45t-15-49T393,452q-4-13-7-25t-6-20q-1-1-1.5-3.5T378,400q-4-10-7-20.5T364,349q-8-20-15-46t-10-43q-1-5-3-10t-4-10q-3-10-6-18t-7-12ZM688-37q-4,7-3.5,19.5T690,21q3,24 10,53q2,9 4,17.5t3,15.5q7,16 10,26.5t3,10.5q-3-1-8-2.5T698,136q-13-3-24.5-4.5T651,130q-19,0-31.5,8T600,159q-4,5-7,15t-3,20t4,15v-1l6,16l7,19q2,6 4,11t2,4q0,0 0.5,2t1.5,3q2,4 2,8q3,8 15,27.5t27,43t28,43T706,410l1,1q5,3 11,5t11.5,1.5T738,412q2-6 3.5-19.5T741,376q-1-4-6.5-13T724,346l-7-6l-3-3h1q-16-25-33.5-55T650,223q-5-15-8-27.5T640,181h-1q6-1 19,0t32,8q14,3 26.5,6.5T736,203q4,0 8,1.5t4,3.5h4q0,3 0.5,8.5T753,223l7,19l12,28q4,8 8.5,18.5T792,312l17,42q8,20 11.5,26.5T829,387t12-3t8-11v1q5-7 6.5-14T853,343q-2-7-4.5-13.5T844,318l-3-9l-6-13q-4-5-4.5-8t-2.5-7q-11-27-27-65.5t-29.5-74T752,86q-15-49-19-67t2-29q1-18-9-29T704.5-50T688-36v-1Z"/>
      <glyph unicode="&#xbd;" glyph-name="gid247" horiz-adv-x="800" d="M236-14q-18,3-23.5,18T215,43t29,54q9,8 16,14.5t9,13.5q4,7 21.5,27.5T331,199t45.5,51T415,293t17,21q4-1 9,4.5t7,12.5q3,8 10,14.5t14,7.5q2,5 5,8t4,7t4.5,7t4.5,7q9,8 31,29.5T572,462t60,61t58,60t44,47t19,22q7,13 19,7q7,4 16,0q0,0 1.5-4.5T795,640q5-10 4-17.5T792,605q-5-11-11.5-19t-21-21T715,525q-6-6-20.5-20.5t-32.5-32t-35-34T598.5,411T586,398q-4-1-9.5-5T566,378q-8-8-25.5-25t-32-31.5T493,304q-2-3-6-5t-10-4q-1,1-2.5-2t-1.5-3q0-4-8.5-15.5T439,249q-17-20-44.5-53.5t-56-70T288,59.5T260,18Q252-1 247.5-7T236-14Zm83,224q-4-4-9.5-3T298,212.5T286,223q-4,5-4,15t4,29q1,5 2,10t2,9q5,28 9.5,43t4.5,15q4,2 11,25t16,55q3,11 6,21.5t6,20.5q3,13 6.5,25t6.5,25t7,27t8,28q-9-6-23.5-17T316,529q-8-5-17-12t-18-15q-7-6-14.5-12T251,479q-21-19-27.5-22T207,461q-8,7-12.5,14.5t-5,15T192,504q2,1 14.5,9.5T230,531q8,6 14,11t9,6q1,0 2,1t2,2q15,12 28,23.5T316,599q4,4 10,9t23,18q19,13 35,22.5T411,663t14,4q2-1 11.5-8T449,643q0-2 0-5.5t-0.5-7T447,623t-3-7q-3-9-9.5-29t-14-45t-15-49T393,452q-4-13-7-25t-6-20q-1-1-1.5-3.5T378,400q-4-10-7-20.5T364,349q-8-20-15-46t-10-43q-1-5-3-10t-4-10q-3-10-6-18t-7-12ZM525-5q-5,2-15,10.5T496,21q0,4 2.5,10.5t6.5,12t6,5.5q1,0 4,6t6.5,14T525,79l10,8l4,2h-2l11,11l10,10h-1l21,22q5,5 12,12t15,17q17,17 30,32t14,19q0,0 4,4.5t8,6.5l19,17q3,7 10,18t13,18l18,36q2,7 0,9.5T706,328h1q-13,3-27,3q-12,0-25.5-4T624,312q-4-1-8-2t-9-4q-6-3-11-4t-14,1t-6,7l-9,11l-9,17l27,16q28,17 57.5,26.5T691,382q8-1 15-2.5t7-1.5q8-1 18-8.5t19-18T763,331v1q5-7 7-14.5t2-15.5q0-13-5.5-28T748,241q-3-5-16.5-20T702,188t-29.5-32.5T654,137q-5-3-18-15.5t-27-27T585.5,69T577,58l3-2q0,0 6,2q15,6 41.5,10.5T678,75t30,0q8,2 26,0.5T765,69q1,0 2.5-1t2.5-1q1-1 4-1q8-3 11-8q3-6 6-9q8-7 9.5-12T797,30t-16.5-1T751,33q-6,0-15-0.5T722,30q-3-1-8.5-1.5T700,28q-1,0-3-0.5T693,27h-6q-12,2-26-1t-30-8q-9-3-32-9.5t-45.5-11T525-5Z"/>
      <glyph unicode="&#xbe;" glyph-name="gid251" horiz-adv-x="800" d="M281-14q-18,3-23.5,18T260,43t29,54q9,8 16,14.5t9,13.5q4,7 21.5,27.5T376,199t45.5,51T460,293t17,21q4-1 9,4.5t7,12.5q3,8 10,14.5t14,7.5q2,5 5,8t4,7t4.5,7t4.5,7q9,8 31,29.5T617,462t60,61t58,60t44,47t19,22q7,13 19,7q7,4 16,0q0,0 1.5-4.5T840,640q5-10 4-17.5T837,605q-5-11-11.5-19t-21-21T760,525q-6-6-20.5-20.5t-32.5-32t-35-34T643.5,411T631,398q-4-1-9.5-5T611,378q-8-8-25.5-25t-32-31.5T538,304q-2-3-6-5t-10-4q-1,1-2.5-2t-1.5-3q0-4-8.5-15.5T484,249q-17-20-44.5-53.5t-56-70T333,59.5T305,18Q297-1 292.5-7T281-14ZM254,210q-31,0-56.5,11T173,249q1,15 7,16.5t27-0.5q25-6 53.5-1t53,17.5T351,309q17,19 17,40q0,10-5,20t-16,17q-12,11-39,19.5T264,415q-7-2-13-1t-17,8q-4,5-7.5,10.5T221,441l-4,6q-1,8 12.5,17.5T287,501l5,2h-1l6,4q28,18 47,30t30.5,21T393,573h-1q10,14 10.5,20.5T391,604q-17,2-33,2.5T338,602q-4,2-16.5,0T298,597t-12-5t-10-5.5t-18.5-6T246,578q-4,1-9.5,8.5t-9.5,17T223,618q3,4 11,10t18.5,12T271,650q11,3 31.5,4.5T343,657t29,0h1q35-4 56-21.5T454,591q3-16-2-27.5T425,529l-4-4l-10-7q-8-6-19-13.5T369,489l-11-7l-7-5l-8-7l-7-5l-13-10l17-13q20-10 39.5-29.5T407,381q5-12 7.5-22.5T417,337q0-28-15-51t-45-44q-20-13-48.5-21.5T254,210ZM688-37q-4,7-3.5,19.5T690,21q3,24 10,53q2,9 4,17.5t3,15.5q7,16 10,26.5t3,10.5q-3-1-8-2.5T698,136q-13-3-24.5-4.5T651,130q-19,0-31.5,8T600,159q-4,5-7,15t-3,20t4,15v-1l6,16l7,19q2,6 4,11t2,4q0,0 0.5,2t1.5,3q2,4 2,8q3,8 15,27.5t27,43t28,43T706,410l1,1q5,3 11,5t11.5,1.5T738,412q2-6 3.5-19.5T741,376q-1-4-6.5-13T724,346l-7-6l-3-3h1q-16-25-33.5-55T650,223q-5-15-8-27.5T640,181h-1q6-1 19,0t32,8q14,3 26.5,6.5T736,203q4,0 8,1.5t4,3.5h4q0,3 0.5,8.5T753,223l7,19l12,28q4,8 8.5,18.5T792,312l17,42q8,20 11.5,26.5T829,387t12-3t8-11v1q5-7 6.5-14T853,343q-2-7-4.5-13.5T844,318l-3-9l-6-13q-4-5-4.5-8t-2.5-7q-11-27-27-65.5t-29.5-74T752,86q-15-49-19-67t2-29q1-18-9-29T704.5-50T688-36v-1Z"/>
      <glyph unicode="&#xbf;" glyph-name="gid268" horiz-adv-x="374" d="M145-217q-6,1-13.5,0.5T124-213q-3,0-12,0t-17,0q-12,4-25,10T45.5-189.5T27-174q-7,22-6,54.5T31-51T54.5,17.5T89,72q6,6 22,20.5T145,123t28,28q35,19 60.5,57T272,282q11,24 15.5,28t17.5,4q16-1 23-13t7-24q0-1-0.5-7.5T332,255q0-6-6-19t-13-31q-11-19-33.5-44.5T240,123q-9-7-13-9.5t-4-2.5q0-4-14-15T185,80q0,0-12.5-9T152,55q-22-23-33-42.5t-17-44T88-94q-1-34-0.5-47T100-163q21-11 51.5-2.5t59,32.5T254-76q6,17 6.5,23T258-37q0,8-2.5,15T253-10q5,1 15,1t21.5-1T307-14q0,0 4-5.5T317-30q6-8 5.5-15.5T322-68q-6-20-18.5-43.5t-31-44.5T228-190q-21-9-35.5-16.5T178-214t-7.5-0.5T145-217ZM319,412q-30,19-26.5,42T333,495q19,8 31.5,7T392,490q19-18 12.5-36.5T372,417q-18-11-26.5-11.5T319,412Z"/>
      <glyph unicode="&#xc0;" glyph-name="gid6" horiz-adv-x="502" d="M69-33Q51-23 49.5-11T63,31t47,93q24,45 36.5,70.5t17,36.5t4.5,14q-2,9 2,14.5t13,9.5q5,5 16.5,18T221,318q9,21 21,43t32,55.5T326,504q20,35 44,71.5T421,648q11,14 20,22.5t18,7.5q12,0 27.5-8T515,649t19-28q5-8 4-34t-4-63t-7-79q-3-41-9-97T506.5,231T498,113.5T498,15q1-9 0-17t-1-13q-6-6-19.5-5.5t-26,6.5T437,1q-3,3-3.5,8.5T434,33t2,57l5,162l-13-1q-9,0-34-2t-54-5.5t-53.5-7T253,230q-9,0-21.5-12T208,187q-4-14-14.5-29.5T183,137q-7-5-11.5-12t-4.5-7q0-6-9.5-29.5T134,36.5T106-13L85-45L69-33ZM276,289q0,0 10.5,2t25,4.5T338,298q42,10 61,13.5t26.5,3.5t13.5-3q4-5 7.5-6t3.5-1q1,2 3,23t5.5,52t7,64.5t5.5,62t3,43.5q1,19 2,34.5t1,15.5q-6,0-25.5-22T408,520t-45-77q-10-19-19-34t-14-15q-2-2-11.5-17.5t-20.5-35t-18-35T276,289ZM552,711q-8-6-12.5-6.5T532,710t-7,17q-8,17-24,40t-26,45t-2,33q13,11 22.5,17t19.5-5q7-4 16.5-20.5t19-37.5T566,760.5t6-23.5q1-4-5.5-14T552,711Z"/>
      <glyph unicode="&#xc1;" glyph-name="gid2" horiz-adv-x="502" d="M69-33Q51-23 49.5-11T63,31t47,93q24,45 36.5,70.5t17,36.5t4.5,14q-2,9 2,14.5t13,9.5q5,5 16.5,18T221,318q9,21 21,43t32,55.5T326,504q20,35 44,71.5T421,648q11,14 20,22.5t18,7.5q12,0 27.5-8T515,649t19-28q5-8 4-34t-4-63t-7-79q-3-41-9-97T506.5,231T498,113.5T498,15q1-9 0-17t-1-13q-6-6-19.5-5.5t-26,6.5T437,1q-3,3-3.5,8.5T434,33t2,57l5,162l-13-1q-9,0-34-2t-54-5.5t-53.5-7T253,230q-9,0-21.5-12T208,187q-4-14-14.5-29.5T183,137q-7-5-11.5-12t-4.5-7q0-6-9.5-29.5T134,36.5T106-13L85-45L69-33ZM276,289q0,0 10.5,2t25,4.5T338,298q42,10 61,13.5t26.5,3.5t13.5-3q4-5 7.5-6t3.5-1q1,2 3,23t5.5,52t7,64.5t5.5,62t3,43.5q1,19 2,34.5t1,15.5q-6,0-25.5-22T408,520t-45-77q-10-19-19-34t-14-15q-2-2-11.5-17.5t-20.5-35t-18-35T276,289ZM483,714q-7,7-10.5,21T470,753q1,5 13.5,20T513,806t32.5,32T568,855q11,7 21-2.5T609,827q3-9-7.5-21.5T574,779t-33.5-27.5T516,727q-10-16-15.5-19T483,714Z"/>
      <glyph unicode="&#xc2;" glyph-name="gid4" horiz-adv-x="502" d="M69-33Q51-23 49.5-11T63,31t47,93q24,45 36.5,70.5t17,36.5t4.5,14q-2,9 2,14.5t13,9.5q5,5 16.5,18T221,318q9,21 21,43t32,55.5T326,504q20,35 44,71.5T421,648q11,14 20,22.5t18,7.5q12,0 27.5-8T515,649t19-28q5-8 4-34t-4-63t-7-79q-3-41-9-97T506.5,231T498,113.5T498,15q1-9 0-17t-1-13q-6-6-19.5-5.5t-26,6.5T437,1q-3,3-3.5,8.5T434,33t2,57l5,162l-13-1q-9,0-34-2t-54-5.5t-53.5-7T253,230q-9,0-21.5-12T208,187q-4-14-14.5-29.5T183,137q-7-5-11.5-12t-4.5-7q0-6-9.5-29.5T134,36.5T106-13L85-45L69-33ZM276,289q0,0 10.5,2t25,4.5T338,298q42,10 61,13.5t26.5,3.5t13.5-3q4-5 7.5-6t3.5-1q1,2 3,23t5.5,52t7,64.5t5.5,62t3,43.5q1,19 2,34.5t1,15.5q-6,0-25.5-22T408,520t-45-77q-10-19-19-34t-14-15q-2-2-11.5-17.5t-20.5-35t-18-35T276,289ZM432,730q-17-17-29-14.5t-15,15t8,26.5q3,4 14,14t25.5,23T465,818t25,17q9,8 17,7.5t14-9.5q12-10 29.5-27.5T583,773t17-18q6-8 5.5-18.5t-7-17.5T582,714.5T558,733q-7,9-23,24.5T504,786q-12-7-26.5-18T451,746.5T432,730Z"/>
      <glyph unicode="&#xc3;" glyph-name="gid8" horiz-adv-x="502" d="M69-33Q51-23 49.5-11T63,31t47,93q24,45 36.5,70.5t17,36.5t4.5,14q-2,9 2,14.5t13,9.5q5,5 16.5,18T221,318q9,21 21,43t32,55.5T326,504q20,35 44,71.5T421,648q11,14 20,22.5t18,7.5q12,0 27.5-8T515,649t19-28q5-8 4-34t-4-63t-7-79q-3-41-9-97T506.5,231T498,113.5T498,15q1-9 0-17t-1-13q-6-6-19.5-5.5t-26,6.5T437,1q-3,3-3.5,8.5T434,33t2,57l5,162l-13-1q-9,0-34-2t-54-5.5t-53.5-7T253,230q-9,0-21.5-12T208,187q-4-14-14.5-29.5T183,137q-7-5-11.5-12t-4.5-7q0-6-9.5-29.5T134,36.5T106-13L85-45L69-33ZM276,289q0,0 10.5,2t25,4.5T338,298q42,10 61,13.5t26.5,3.5t13.5-3q4-5 7.5-6t3.5-1q1,2 3,23t5.5,52t7,64.5t5.5,62t3,43.5q1,19 2,34.5t1,15.5q-6,0-25.5-22T408,520t-45-77q-10-19-19-34t-14-15q-2-2-11.5-17.5t-20.5-35t-18-35T276,289ZM571,729q-20,0-32.5,7.5T507,757q-9,5-24,20t-27,15q-10,0-16.5-8T427,767.5T410,757q-1-5-6-12.5t-7-2.5q-10,3-15.5,10T377,764q1,9 15,32t48,40q12,5 33.5,0T511,816q23-21 35-30.5t31-1.5q15,4 32.5,15.5T648,819q7,3 13-0.5t9-10.5t2-13q0-4-6.5-14T650,766q-30-17-46-25t-22.5-10T571,729Z"/>
      <glyph unicode="&#xc4;" glyph-name="gid5" horiz-adv-x="502" d="M69-33Q51-23 49.5-11T63,31t47,93q24,45 36.5,70.5t17,36.5t4.5,14q-2,9 2,14.5t13,9.5q5,5 16.5,18T221,318q9,21 21,43t32,55.5T326,504q20,35 44,71.5T421,648q11,14 20,22.5t18,7.5q12,0 27.5-8T515,649t19-28q5-8 4-34t-4-63t-7-79q-3-41-9-97T506.5,231T498,113.5T498,15q1-9 0-17t-1-13q-6-6-19.5-5.5t-26,6.5T437,1q-3,3-3.5,8.5T434,33t2,57l5,162l-13-1q-9,0-34-2t-54-5.5t-53.5-7T253,230q-9,0-21.5-12T208,187q-4-14-14.5-29.5T183,137q-7-5-11.5-12t-4.5-7q0-6-9.5-29.5T134,36.5T106-13L85-45L69-33ZM276,289q0,0 10.5,2t25,4.5T338,298q42,10 61,13.5t26.5,3.5t13.5-3q4-5 7.5-6t3.5-1q1,2 3,23t5.5,52t7,64.5t5.5,62t3,43.5q1,19 2,34.5t1,15.5q-6,0-25.5-22T408,520t-45-77q-10-19-19-34t-14-15q-2-2-11.5-17.5t-20.5-35t-18-35T276,289ZM574,750q-7,7-11.5,17.5T559,782q2,5 7.5,19.5T579,822q3,2 7,6.5t8,5.5q12,9 22.5,3T632,815q9-14 6-24.5T622,763q-15-21-27-23t-21,10Zm-129,0q-7,7-11.5,17.5T430,782q2,5 7.5,19.5T450,822q3,2 6.5,6.5T464,834q8,6 15.5,5t14-7t9.5-17q9-14 6-24.5T493,763q-16-21-28-23t-20,10Z"/>
      <glyph unicode="&#xc5;" glyph-name="gid7" horiz-adv-x="502" d="M69-33Q51-23 49.5-11T63,31t47,93q24,45 36.5,70.5t17,36.5t4.5,14q-2,9 2,14.5t13,9.5q5,5 16.5,18T221,318q9,21 21,43t32,55.5T326,504q20,35 44,71.5T421,648q11,14 20,22.5t18,7.5q12,0 27.5-8T515,649t19-28q5-8 4-34t-4-63t-7-79q-3-41-9-97T506.5,231T498,113.5T498,15q1-9 0-17t-1-13q-6-6-19.5-5.5t-26,6.5T437,1q-3,3-3.5,8.5T434,33t2,57l5,162l-13-1q-9,0-34-2t-54-5.5t-53.5-7T253,230q-9,0-21.5-12T208,187q-4-14-14.5-29.5T183,137q-7-5-11.5-12t-4.5-7q0-6-9.5-29.5T134,36.5T106-13L85-45L69-33ZM276,289q0,0 10.5,2t25,4.5T338,298q42,10 61,13.5t26.5,3.5t13.5-3q4-5 7.5-6t3.5-1q1,2 3,23t5.5,52t7,64.5t5.5,62t3,43.5q1,19 2,34.5t1,15.5q-6,0-25.5-22T408,520t-45-77q-10-19-19-34t-14-15q-2-2-11.5-17.5t-20.5-35t-18-35T276,289ZM528,690q-34,0-49,20.5T461,760q0,19 8.5,41t24,38T530,855q32,0 54-14.5T606,797q0-24-9.5-49T570,706.5T528,690Zm-4,40q18,0 29,11.5T563,777q-1,13-5,25t-21,12q-38,0-38-50q0-10 8.5-22T524,730Z"/>
      <glyph unicode="&#xc6;" glyph-name="gid9" horiz-adv-x="784" d="M551-48q-40,0-71.5,4.5T422-19Q402-3 393,18t-6.5,53T401,150q3,17 7.5,32.5T417,206H405q-19-3-56.5-1.5T261,209l-17-21q-3-4-16-21t-24-38q-10-19-24.5-44T149,41Q128,10 118-1.5T103-13q-9,0-15.5,1T73-4Q54,5 58.5,24T88,72q6,7 10.5,14t4.5,7q1,2 11,18.5T137.5,148T163,184.5T180,203q21,20 3,38q-7,3-5,8.5t9.5,10.5t16.5,5q10,5 14.5,7t4.5,6q1,2 10,16.5t21.5,34t25,37T300,392q15,28 22,37.5T335,448q6,5 18,22t23,33q16,14 30,30.5T430,561q6,11 17.5,24T472,612q22,21 33.5,26.5T536,635q11-5 35-9t52-10q18,7 41,13t45,7q6,4 26.5,6t47.5,2t50-2q22,0 35-6t26-12q5-5 7.5-12t3.5-12.5t1-5.5q0-3-13-4.5t-33.5-2T817,587q-24,0-48.5-3T726,578t-25-3q-14-4-24.5-5T666,569q-2,0-12.5-15.5t-23-36t-22-38T599,459q0-10-8-22t-19-28q-10-13-13-23.5t6-14.5q16,3 43.5,6t55,5.5T706,385q17,5 28,2t16-6q12-2 17-7.5t4.5-10.5t-7.5-8q-6-6-30-14t-56-16t-64.5-14.5T558,300t-27-3q-6,14-8.5-0.5T500,238q-11-25-19.5-47.5t-14-47T455,88q-7-27-3.5-43.5T487,13q20-4 53.5-3T617,22q18,11 33,17.5T672,50q5,0 15.5,2.5T702,55q4,5 8.5,8T722,66q2,0 9.5-7.5T746,42t6-12q0-10-22-20T658-20q-25-11-40.5-17T588-45.5T551-48ZM298,261q0,0 24.5,2.5T375,265q19,2 34.5,1.5T435,266q2,9 4.5,15t6.5,10q3,2 7,13.5t5,13.5q0,0 1,7.5t5,17.5q8,14 11.5,21.5T479,376q2,4 8.5,12T498,409q26,47 44,81.5T567,547q-13,2-28,3t-32,1q-2,3-14.5-8t-29-28T433,482t-19-24q-4-5-18.5-26T364,387q-30-39-46-66t-20.5-42t0.5-18Z"/>
      <glyph unicode="&#xc7;" glyph-name="gid12" horiz-adv-x="482" d="M214-56q-15,6-30.5,13t-29,20.5T131,15q-10,29-13.5,57T115,137q0,52 7.5,90.5T146,306q2,3 7.5,17.5t13,31.5T178,381q8,17 24.5,45.5T238,482q29,43 48,68t36,42t38.5,32.5T416,663q22,16 48.5,17T514,668.5T548,632q11-21 11-50.5t-9-62T525,458t-37-48q-13-12-23.5-9T440,417q-9,17-9.5,20t3.5,4q6,7 16,24t20,36.5T484,533q8,42 11,59.5T489,619q-4,4-11.5,3T453,612q-23-10-60-44.5T325,491q-40-53-67-94t-41-84q-2-4-6.5-15T206,287q1-4-3-19.5T194,241q-11-46-13-95.5T186.5,58T209,5q13-9 35.5-6T296,13t59,24q24,10 44,22t30,21q8,6 20.5,12.5T471,99q14,5 16,4t2-9q0-14-15.5-31T434,32q-8-8-21-17T386,1q-21-16-52-31T271.5-53T214-56Zm23-194q-15-3-36-0.5t-39,7T138-237q-12,4-15.5,12T122-208.5t11,13t18,1.5q16-5 35.5-11t35.5-6t23,14q7,11 2.5,21.5T232-153q-7,9-17,21.5T194-109q-8,12-10.5,23.5t13.5,27T261-19l33-23q-25-12-40.5-23T238-89q14-20 31-38.5T291-166q6-24 0.5-41.5t-20-28T237-250Z"/>
      <glyph unicode="&#xc8;" glyph-name="gid19" horiz-adv-x="548" d="M231-24q-31,2-54.5,19T127,30q-17,17-27,36.5T84,118q-4,19 0,48t13,58.5T114,272q12,28 30.5,60.5t37,62T211,442q7,7 6.5,7.5T217,450q0,5 10.5,25.5T246,512q15,16 17,26t-3,16q-2,4 7,14t27,23t41,26q24,19 46.5,20.5T408,628q0-3 11.5-1.5t27,5T474,637q5,6 23.5,9.5T541,653q13-1 25.5-0.5t21,1.5t8.5,1q7,2 16.5-2T630,631q7-18-4.5-27T573,590q-30-4-52-6.5t-46-6T416,566q-25-5-41-11.5t-28-19T320,500q-7-5-18-26t-22-42q-28-39-48.5-67.5T215,331q0,0 11-3t15-3q10,5 24.5,7t23.5,4q62,16 97.5,25t54,13.5T469,380q14,11 27.5,4T518,362q5-11 0.5-19t-25-16T433,308T328,279q-55-16-94-19t-37,17q-7,4-15.5-9.5T165,231t-13.5-49t-7-48.5T147,100q8-23 21-36.5T215,40q20-1 39-3t43,8q59,10 93,21t39,15q8,4 10.5,4.5T447,86q-3-5 2.5-0.5T465,100q11,10 29,19t32.5,14t15.5,0q6-10-2-27.5t-29-38T457,28Q404,0 342-11.5T231-24ZM574,711q-8-6-12.5-6.5T554,710t-7,17q-8,17-24,40t-26,45t-2,33q13,11 22.5,17t19.5-5q7-4 16.5-20.5t19-37.5T588,760.5t6-23.5q1-4-5.5-14T574,711Z"/>
      <glyph unicode="&#xc9;" glyph-name="gid16" horiz-adv-x="548" d="M231-24q-31,2-54.5,19T127,30q-17,17-27,36.5T84,118q-4,19 0,48t13,58.5T114,272q12,28 30.5,60.5t37,62T211,442q7,7 6.5,7.5T217,450q0,5 10.5,25.5T246,512q15,16 17,26t-3,16q-2,4 7,14t27,23t41,26q24,19 46.5,20.5T408,628q0-3 11.5-1.5t27,5T474,637q5,6 23.5,9.5T541,653q13-1 25.5-0.5t21,1.5t8.5,1q7,2 16.5-2T630,631q7-18-4.5-27T573,590q-30-4-52-6.5t-46-6T416,566q-25-5-41-11.5t-28-19T320,500q-7-5-18-26t-22-42q-28-39-48.5-67.5T215,331q0,0 11-3t15-3q10,5 24.5,7t23.5,4q62,16 97.5,25t54,13.5T469,380q14,11 27.5,4T518,362q5-11 0.5-19t-25-16T433,308T328,279q-55-16-94-19t-37,17q-7,4-15.5-9.5T165,231t-13.5-49t-7-48.5T147,100q8-23 21-36.5T215,40q20-1 39-3t43,8q59,10 93,21t39,15q8,4 10.5,4.5T447,86q-3-5 2.5-0.5T465,100q11,10 29,19t32.5,14t15.5,0q6-10-2-27.5t-29-38T457,28Q404,0 342-11.5T231-24ZM505,714q-7,7-10.5,21T492,753q1,5 13.5,20T535,806t32.5,32T590,855q11,7 21-2.5T631,827q3-9-7.5-21.5T596,779t-33.5-27.5T538,727q-10-16-15.5-19T505,714Z"/>
      <glyph unicode="&#xca;" glyph-name="gid17" horiz-adv-x="548" d="M231-24q-31,2-54.5,19T127,30q-17,17-27,36.5T84,118q-4,19 0,48t13,58.5T114,272q12,28 30.5,60.5t37,62T211,442q7,7 6.5,7.5T217,450q0,5 10.5,25.5T246,512q15,16 17,26t-3,16q-2,4 7,14t27,23t41,26q24,19 46.5,20.5T408,628q0-3 11.5-1.5t27,5T474,637q5,6 23.5,9.5T541,653q13-1 25.5-0.5t21,1.5t8.5,1q7,2 16.5-2T630,631q7-18-4.5-27T573,590q-30-4-52-6.5t-46-6T416,566q-25-5-41-11.5t-28-19T320,500q-7-5-18-26t-22-42q-28-39-48.5-67.5T215,331q0,0 11-3t15-3q10,5 24.5,7t23.5,4q62,16 97.5,25t54,13.5T469,380q14,11 27.5,4T518,362q5-11 0.5-19t-25-16T433,308T328,279q-55-16-94-19t-37,17q-7,4-15.5-9.5T165,231t-13.5-49t-7-48.5T147,100q8-23 21-36.5T215,40q20-1 39-3t43,8q59,10 93,21t39,15q8,4 10.5,4.5T447,86q-3-5 2.5-0.5T465,100q11,10 29,19t32.5,14t15.5,0q6-10-2-27.5t-29-38T457,28Q404,0 342-11.5T231-24ZM494,730q-17-17-29-14.5t-15,15t8,26.5q3,4 14,14t25.5,23T527,818t25,17q9,8 17,7.5t14-9.5q12-10 29.5-27.5T645,773t17-18q6-8 5.5-18.5t-7-17.5T644,714.5T620,733q-7,9-23,24.5T566,786q-12-7-26.5-18T513,746.5T494,730Z"/>
      <glyph unicode="&#xcb;" glyph-name="gid18" horiz-adv-x="548" d="M231-24q-31,2-54.5,19T127,30q-17,17-27,36.5T84,118q-4,19 0,48t13,58.5T114,272q12,28 30.5,60.5t37,62T211,442q7,7 6.5,7.5T217,450q0,5 10.5,25.5T246,512q15,16 17,26t-3,16q-2,4 7,14t27,23t41,26q24,19 46.5,20.5T408,628q0-3 11.5-1.5t27,5T474,637q5,6 23.5,9.5T541,653q13-1 25.5-0.5t21,1.5t8.5,1q7,2 16.5-2T630,631q7-18-4.5-27T573,590q-30-4-52-6.5t-46-6T416,566q-25-5-41-11.5t-28-19T320,500q-7-5-18-26t-22-42q-28-39-48.5-67.5T215,331q0,0 11-3t15-3q10,5 24.5,7t23.5,4q62,16 97.5,25t54,13.5T469,380q14,11 27.5,4T518,362q5-11 0.5-19t-25-16T433,308T328,279q-55-16-94-19t-37,17q-7,4-15.5-9.5T165,231t-13.5-49t-7-48.5T147,100q8-23 21-36.5T215,40q20-1 39-3t43,8q59,10 93,21t39,15q8,4 10.5,4.5T447,86q-3-5 2.5-0.5T465,100q11,10 29,19t32.5,14t15.5,0q6-10-2-27.5t-29-38T457,28Q404,0 342-11.5T231-24ZM596,750q-7,7-11.5,17.5T581,782q2,5 7.5,19.5T601,822q3,2 7,6.5t8,5.5q12,9 22.5,3T654,815q9-14 6-24.5T644,763q-15-21-27-23t-21,10Zm-129,0q-7,7-11.5,17.5T452,782q2,5 7.5,19.5T472,822q3,2 6.5,6.5T486,834q8,6 15.5,5t14-7t9.5-17q9-14 6-24.5T515,763q-16-21-28-23t-20,10Z"/>
      <glyph unicode="&#xcc;" glyph-name="gid27" horiz-adv-x="400" d="M192-31q-7,11-31.5,14T101-16q-14-2-27,1.5T53.5-3.5T48,12q1,12 20.5,19T131,39l53,1l10,20q4,11 10,31t13,43q4,14 12,38t17,51t16,48.5t9,30.5q4,9 11,30.5t13.5,44T304,409q26,79 34,112.5t4,34.5q-4,0-19.5-1t-34-2.5t-33-3.5T238,545q-5-7-17-3t-15,14q-1,9-0.5,14t5.5,8q7,6 27,13.5T283.5,605t48.5,9q17,2 34,7.5T393,635q9,3 17.5,5t17.5,1q8-5 27.5-5t41.5,1q56,5 75.5,3T599,624q5-19 2-29.5T581,585q-9-2-32.5-3.5T499,579q-71-6-76-14q-4-4-6.5-8t-6.5-9q1-4-4.5-25.5T392,479q-4-13-12-37t-16.5-49.5t-15.5-46T338,319q-4-9-6.5-19.5T328,284q-14-49-24.5-83t-19-59.5T269,92.5T254,41q0,0 15.5,1.5T311,46q47,5 67.5,6T406,49.5T416,37q20-27 5-37T350-9q-52-2-79.5-3.5t-38-4.5T220-27q0-8-8-8t-20,4ZM473,711q-8-6-12.5-6.5T453,710t-7,17q-8,17-24,40t-26,45t-2,33q13,11 22.5,17t19.5-5q7-4 16.5-20.5t19-37.5T487,760.5t6-23.5q1-4-5.5-14T473,711Z"/>
      <glyph unicode="&#xcd;" glyph-name="gid24" horiz-adv-x="400" d="M192-31q-7,11-31.5,14T101-16q-14-2-27,1.5T53.5-3.5T48,12q1,12 20.5,19T131,39l53,1l10,20q4,11 10,31t13,43q4,14 12,38t17,51t16,48.5t9,30.5q4,9 11,30.5t13.5,44T304,409q26,79 34,112.5t4,34.5q-4,0-19.5-1t-34-2.5t-33-3.5T238,545q-5-7-17-3t-15,14q-1,9-0.5,14t5.5,8q7,6 27,13.5T283.5,605t48.5,9q17,2 34,7.5T393,635q9,3 17.5,5t17.5,1q8-5 27.5-5t41.5,1q56,5 75.5,3T599,624q5-19 2-29.5T581,585q-9-2-32.5-3.5T499,579q-71-6-76-14q-4-4-6.5-8t-6.5-9q1-4-4.5-25.5T392,479q-4-13-12-37t-16.5-49.5t-15.5-46T338,319q-4-9-6.5-19.5T328,284q-14-49-24.5-83t-19-59.5T269,92.5T254,41q0,0 15.5,1.5T311,46q47,5 67.5,6T406,49.5T416,37q20-27 5-37T350-9q-52-2-79.5-3.5t-38-4.5T220-27q0-8-8-8t-20,4ZM404,714q-7,7-10.5,21T391,753q1,5 13.5,20T434,806t32.5,32T489,855q11,7 21-2.5T530,827q3-9-7.5-21.5T495,779t-33.5-27.5T437,727q-10-16-15.5-19T404,714Z"/>
      <glyph unicode="&#xce;" glyph-name="gid25" horiz-adv-x="400" d="M192-31q-7,11-31.5,14T101-16q-14-2-27,1.5T53.5-3.5T48,12q1,12 20.5,19T131,39l53,1l10,20q4,11 10,31t13,43q4,14 12,38t17,51t16,48.5t9,30.5q4,9 11,30.5t13.5,44T304,409q26,79 34,112.5t4,34.5q-4,0-19.5-1t-34-2.5t-33-3.5T238,545q-5-7-17-3t-15,14q-1,9-0.5,14t5.5,8q7,6 27,13.5T283.5,605t48.5,9q17,2 34,7.5T393,635q9,3 17.5,5t17.5,1q8-5 27.5-5t41.5,1q56,5 75.5,3T599,624q5-19 2-29.5T581,585q-9-2-32.5-3.5T499,579q-71-6-76-14q-4-4-6.5-8t-6.5-9q1-4-4.5-25.5T392,479q-4-13-12-37t-16.5-49.5t-15.5-46T338,319q-4-9-6.5-19.5T328,284q-14-49-24.5-83t-19-59.5T269,92.5T254,41q0,0 15.5,1.5T311,46q47,5 67.5,6T406,49.5T416,37q20-27 5-37T350-9q-52-2-79.5-3.5t-38-4.5T220-27q0-8-8-8t-20,4ZM393,730q-17-17-29-14.5t-15,15t8,26.5q3,4 14,14t25.5,23T426,818t25,17q9,8 17,7.5t14-9.5q12-10 29.5-27.5T544,773t17-18q6-8 5.5-18.5t-7-17.5T543,714.5T519,733q-7,9-23,24.5T465,786q-12-7-26.5-18T412,746.5T393,730Z"/>
      <glyph unicode="&#xcf;" glyph-name="gid26" horiz-adv-x="400" d="M192-31q-7,11-31.5,14T101-16q-14-2-27,1.5T53.5-3.5T48,12q1,12 20.5,19T131,39l53,1l10,20q4,11 10,31t13,43q4,14 12,38t17,51t16,48.5t9,30.5q4,9 11,30.5t13.5,44T304,409q26,79 34,112.5t4,34.5q-4,0-19.5-1t-34-2.5t-33-3.5T238,545q-5-7-17-3t-15,14q-1,9-0.5,14t5.5,8q7,6 27,13.5T283.5,605t48.5,9q17,2 34,7.5T393,635q9,3 17.5,5t17.5,1q8-5 27.5-5t41.5,1q56,5 75.5,3T599,624q5-19 2-29.5T581,585q-9-2-32.5-3.5T499,579q-71-6-76-14q-4-4-6.5-8t-6.5-9q1-4-4.5-25.5T392,479q-4-13-12-37t-16.5-49.5t-15.5-46T338,319q-4-9-6.5-19.5T328,284q-14-49-24.5-83t-19-59.5T269,92.5T254,41q0,0 15.5,1.5T311,46q47,5 67.5,6T406,49.5T416,37q20-27 5-37T350-9q-52-2-79.5-3.5t-38-4.5T220-27q0-8-8-8t-20,4ZM495,750q-7,7-11.5,17.5T480,782q2,5 7.5,19.5T500,822q3,2 7,6.5t8,5.5q12,9 22.5,3T553,815q9-14 6-24.5T543,763q-15-21-27-23t-21,10Zm-129,0q-7,7-11.5,17.5T351,782q2,5 7.5,19.5T371,822q3,2 6.5,6.5T385,834q8,6 15.5,5t14-7t9.5-17q9-14 6-24.5T414,763q-16-21-28-23t-20,10Z"/>
      <glyph unicode="&#xd0;" glyph-name="gid14" horiz-adv-x="578" d="M225-95q-19-3-35-3.5T143-91q-10,3-16,7T115-72.5T99-53Q83-30 81-11.5T95,2q3-1 9.5-6.5T117-18q14-15 34-20t53-1q14,3 34,8.5T277-17T307-1q53,36 85,57t32,21q2,4 7.5,6.5T445,89q6,6 19.5,19t26,26T506,149q2,9 4,14.5t2,11.5q8,8 21.5,33.5t27.5,57T581,323q14,70 7,118t-28.5,82.5T506,585q-11,9-30.5,19.5T435,623t-36.5,13T380,640t-14.5-28.5t-28-71T303,447t-35-96h18q23,0 32-2t20-10q13-15 9.5-27.5T322,301q-7-1-24.5-2T262,298q-2,0-5,0t-6-1q-7-22-13.5-40T231,234q-11-17-17.5-45T199,96q-9-34-13-51.5T178,28l-4-4q0-6-8-6t-18.5,4.5T131,33q-3,11-3.5,21T135,93q5,19 12.5,46.5t16.5,57T181,251t12,38q1,1 1,2.5t1,2.5H180q-6,0-14.5,0.5T148,298q-15,0-20,2.5t-9,9.5q-9,15-1,20.5t42,9.5q14,2 26.5,4t24.5,3q1,2 1,3.5t1,2.5q8,26 16.5,52T246,451.5T257,478q5,13 15,44t26,69l7,33l-11,5q-12-4-18.5-2.5T267,629q-6-2-17,3t-19.5,13T220,659q-2,4-2.5,10.5T217,676q1,8 25,15t58.5,10.5T369,702q26-2 49-11t50-19q32-12 67.5-41.5t65-69.5T640,477q3-12 6-34t3.5-42.5T645,374q-2-4-2.5-9.5T646,357q-1-3-7-22.5T628,301q-2-26-12-54t-22-52.5T572,153q-4,0-7.5-1.5T565,149q0-4-2.5-7.5T554,130q-4-3-12.5-14.5T528,100q-1-7-6-11.5T513,84q0,0-1.5,0T510,80q-8-12-25-28.5t-38.5-34T402.5-15T360-38q-10-7-21-11.5T318-59q-5-4-22-11.5T259.5-85T225-95Z"/>
      <glyph unicode="&#xd1;" glyph-name="gid34" horiz-adv-x="566" d="M97-62Q87-51 84-43.5t-0.5,18T91,4q8,32 17.5,53.5t19,45T144,163q16,37 28.5,70T192,287t7,21q1,4 9,21t20.5,41.5T252,420q17,48 27.5,82.5T301,565t29,55q12,21 28,27t30.5-0.5T409,620q5-10 8.5-24t6.5-40.5t4-74.5q2-57 1-112.5T429.5,266T440,186q3-18 8.5-43.5t12-50.5t13-42T484,33q5,0 13.5,13t22,47T552,189.5T595,350q5,17 13.5,55T621,482q7,25 14,55t12.5,53t5.5,26q0,7 0.5,12T653,638q5,0 9,13.5t4,23.5q0,17 4.5,27.5T680,718q3,8 15,7.5t24-6.5t15-16q2-11-5.5-49.5T706,550q0-11-6-36t-12.5-53T678,413q-4-26-9-48.5T659,343q-26-113-54.5-192.5T554,21q-24-55-52.5-66.5T441-16q-19,26-30,51.5t-18,60T376,181q-15,41-16.5,83t2.5,86.5t6,92.5q-1,48-4,64t-11.5-1.5T325,435q-7-19-18.5-46T284,335.5t-19-46T255,265q-6-12-14-31.5T228,192Q192,98 174.5,42T149-36q-10-28-21-37.5T97-62ZM546,729q-20,0-32.5,7.5T482,757q-9,5-24,20t-27,15q-10,0-16.5-8T402,767.5T385,757q-1-5-6-12.5t-7-2.5q-10,3-15.5,10T352,764q1,9 15,32t48,40q12,5 33.5,0T486,816q23-21 35-30.5t31-1.5q15,4 32.5,15.5T623,819q7,3 13-0.5t9-10.5t2-13q0-4-6.5-14T625,766q-30-17-46-25t-22.5-10T546,729Z"/>
      <glyph unicode="&#xd2;" glyph-name="gid39" horiz-adv-x="496" d="M175-20Q138,8 128,23.5T116,61q-2,18 0.5,49t6.5,61t7,45q5,5 4.5,13.5T134,238q-1,5 7,26.5T156,320q20,60 38.5,100.5T231,490t36,53q41,42 66,63.5T389,642q20,12 37,19t28,2q56-12 84-45.5T579,514q7-44 8.5-79.5t-5.5-70T556.5,289T505,193q-35-69-78.5-120t-89-80.5T249.5-41T175-20ZM239,9q23,3 44,14t44,32.5T379,110q26,30 42.5,50.5t28,41.5t22,51T496,331q8,30 12,50t5,37.5t0.5,40.5T513,518q-1,17-7,35.5T492,581q-10,11-28,15.5T424,591q-12-5-31-22.5T353,528t-39.5-47t-30-42.5T272,413q0,0-0.5-5T267,398q-13-14-28.5-50T209,266.5t-23.5-90T174,99q-2-27-2-37t4-15.5T189,26q6-10 20.5-15T239,9ZM547,711q-8-6-12.5-6.5T527,710t-7,17q-8,17-24,40t-26,45t-2,33q13,11 22.5,17t19.5-5q7-4 16.5-20.5t19-37.5T561,760.5t6-23.5q1-4-5.5-14T547,711Z"/>
      <glyph unicode="&#xd3;" glyph-name="gid36" horiz-adv-x="496" d="M175-20Q138,8 128,23.5T116,61q-2,18 0.5,49t6.5,61t7,45q5,5 4.5,13.5T134,238q-1,5 7,26.5T156,320q20,60 38.5,100.5T231,490t36,53q41,42 66,63.5T389,642q20,12 37,19t28,2q56-12 84-45.5T579,514q7-44 8.5-79.5t-5.5-70T556.5,289T505,193q-35-69-78.5-120t-89-80.5T249.5-41T175-20ZM239,9q23,3 44,14t44,32.5T379,110q26,30 42.5,50.5t28,41.5t22,51T496,331q8,30 12,50t5,37.5t0.5,40.5T513,518q-1,17-7,35.5T492,581q-10,11-28,15.5T424,591q-12-5-31-22.5T353,528t-39.5-47t-30-42.5T272,413q0,0-0.5-5T267,398q-13-14-28.5-50T209,266.5t-23.5-90T174,99q-2-27-2-37t4-15.5T189,26q6-10 20.5-15T239,9ZM478,714q-7,7-10.5,21T465,753q1,5 13.5,20T508,806t32.5,32T563,855q11,7 21-2.5T604,827q3-9-7.5-21.5T569,779t-33.5-27.5T511,727q-10-16-15.5-19T478,714Z"/>
      <glyph unicode="&#xd4;" glyph-name="gid37" horiz-adv-x="496" d="M175-20Q138,8 128,23.5T116,61q-2,18 0.5,49t6.5,61t7,45q5,5 4.5,13.5T134,238q-1,5 7,26.5T156,320q20,60 38.5,100.5T231,490t36,53q41,42 66,63.5T389,642q20,12 37,19t28,2q56-12 84-45.5T579,514q7-44 8.5-79.5t-5.5-70T556.5,289T505,193q-35-69-78.5-120t-89-80.5T249.5-41T175-20ZM239,9q23,3 44,14t44,32.5T379,110q26,30 42.5,50.5t28,41.5t22,51T496,331q8,30 12,50t5,37.5t0.5,40.5T513,518q-1,17-7,35.5T492,581q-10,11-28,15.5T424,591q-12-5-31-22.5T353,528t-39.5-47t-30-42.5T272,413q0,0-0.5-5T267,398q-13-14-28.5-50T209,266.5t-23.5-90T174,99q-2-27-2-37t4-15.5T189,26q6-10 20.5-15T239,9ZM467,730q-17-17-29-14.5t-15,15t8,26.5q3,4 14,14t25.5,23T500,818t25,17q9,8 17,7.5t14-9.5q12-10 29.5-27.5T618,773t17-18q6-8 5.5-18.5t-7-17.5T617,714.5T593,733q-7,9-23,24.5T539,786q-12-7-26.5-18T486,746.5T467,730Z"/>
      <glyph unicode="&#xd5;" glyph-name="gid41" horiz-adv-x="496" d="M175-20Q138,8 128,23.5T116,61q-2,18 0.5,49t6.5,61t7,45q5,5 4.5,13.5T134,238q-1,5 7,26.5T156,320q20,60 38.5,100.5T231,490t36,53q41,42 66,63.5T389,642q20,12 37,19t28,2q56-12 84-45.5T579,514q7-44 8.5-79.5t-5.5-70T556.5,289T505,193q-35-69-78.5-120t-89-80.5T249.5-41T175-20ZM239,9q23,3 44,14t44,32.5T379,110q26,30 42.5,50.5t28,41.5t22,51T496,331q8,30 12,50t5,37.5t0.5,40.5T513,518q-1,17-7,35.5T492,581q-10,11-28,15.5T424,591q-12-5-31-22.5T353,528t-39.5-47t-30-42.5T272,413q0,0-0.5-5T267,398q-13-14-28.5-50T209,266.5t-23.5-90T174,99q-2-27-2-37t4-15.5T189,26q6-10 20.5-15T239,9ZM566,729q-20,0-32.5,7.5T502,757q-9,5-24,20t-27,15q-10,0-16.5-8T422,767.5T405,757q-1-5-6-12.5t-7-2.5q-10,3-15.5,10T372,764q1,9 15,32t48,40q12,5 33.5,0T506,816q23-21 35-30.5t31-1.5q15,4 32.5,15.5T643,819q7,3 13-0.5t9-10.5t2-13q0-4-6.5-14T645,766q-30-17-46-25t-22.5-10T566,729Z"/>
      <glyph unicode="&#xd6;" glyph-name="gid38" horiz-adv-x="496" d="M175-20Q138,8 128,23.5T116,61q-2,18 0.5,49t6.5,61t7,45q5,5 4.5,13.5T134,238q-1,5 7,26.5T156,320q20,60 38.5,100.5T231,490t36,53q41,42 66,63.5T389,642q20,12 37,19t28,2q56-12 84-45.5T579,514q7-44 8.5-79.5t-5.5-70T556.5,289T505,193q-35-69-78.5-120t-89-80.5T249.5-41T175-20ZM239,9q23,3 44,14t44,32.5T379,110q26,30 42.5,50.5t28,41.5t22,51T496,331q8,30 12,50t5,37.5t0.5,40.5T513,518q-1,17-7,35.5T492,581q-10,11-28,15.5T424,591q-12-5-31-22.5T353,528t-39.5-47t-30-42.5T272,413q0,0-0.5-5T267,398q-13-14-28.5-50T209,266.5t-23.5-90T174,99q-2-27-2-37t4-15.5T189,26q6-10 20.5-15T239,9ZM569,750q-7,7-11.5,17.5T554,782q2,5 7.5,19.5T574,822q3,2 7,6.5t8,5.5q12,9 22.5,3T627,815q9-14 6-24.5T617,763q-15-21-27-23t-21,10Zm-129,0q-7,7-11.5,17.5T425,782q2,5 7.5,19.5T445,822q3,2 6.5,6.5T459,834q8,6 15.5,5t14-7t9.5-17q9-14 6-24.5T488,763q-16-21-28-23t-20,10Z"/>
      <glyph unicode="&#xd7;" glyph-name="gid306" horiz-adv-x="446" d="M440,77q-2-18-12.5-15.5T388,87q-12,8-33.5,26.5t-48,42.5t-53,49.5T205,252t-33,32q-18,18-23,26t-5,23q0,22 12.5,28.5T182,349q5-4 19.5-16.5T230,308q3-3 19.5-19t40-38t48-45.5t44-42.5T409,136q4-4 10-10.5T430,108q11-10 11.5-16.5T440,77ZM160,61q-18,2-15.5,13T170,113q8,12 26.5,33.5t42.5,48t49.5,53T335,296t32,33q18,18 26,23t23,5q22,0 28.5-12T432,319q-4-5-16.5-19.5T391,271q-3-3-19-19.5t-38-40t-45.5-48t-42.5-44T219,92q-4-4-10.5-10T191,71q-10-10-16.5-11T160,61Z"/>
      <glyph unicode="&#xd8;" glyph-name="gid40" horiz-adv-x="496" d="M132-71q-20,1-27,16.5T104.5-13T130,46q8,11 14.5,20.5T153,83q4,6 20,30t39,57.5t48.5,70t48,69t38,54T364,387q4-1 9,4.5t7,12.5q3,8 9,16.5t11,9.5q2,5 6.5,10.5T412,450t4.5,7t4.5,7q10,10 30,33.5T494,550t45,57t36.5,48T592,680q5,15 21,9q3,2 7.5,2t8.5-1q0,0 2-4.5t8-15.5q6-10 5-18.5T638,632q-4-13-10-22t-20.5-24T563,539q-15-17-28-29.5T522,493q-2-4-8-10.5T501,465q-6-6-18-18.5t-24-27t-21-25T429,382q-2-3-3.5-7t-7.5-6q-3,2-5.5-3.5T410,360q0-4-8.5-16.5T379,314q-11-16-30.5-45t-44-65.5T255,129T208,57T171.5-1T154-34q-7-22-10.5-28.5T132-71Zm43,51Q138,8 128,23.5T116,61q-2,18 0.5,49t6.5,61t7,45q5,5 4.5,13.5T134,238q-1,5 7,26.5T156,320q20,60 38.5,100.5T231,490t36,53q41,42 66,63.5T389,642q20,12 37,19t28,2q56-12 84-45.5T579,514q7-44 8.5-79.5t-5.5-70T556.5,289T505,193q-35-69-78.5-120t-89-80.5T249.5-41T175-20ZM239,9q23,3 44,14t44,32.5T379,110q26,30 42.5,50.5t28,41.5t22,51T496,331q8,30 12,50t5,37.5t0.5,40.5T513,518q-1,17-7,35.5T492,581q-10,11-28,15.5T424,591q-12-5-31-22.5T353,528t-39.5-47t-30-42.5T272,413q0,0-0.5-5T267,398q-13-14-28.5-50T209,266.5t-23.5-90T174,99q-2-27-2-37t4-15.5T189,26q6-10 20.5-15T239,9Z"/>
      <glyph unicode="&#xd9;" glyph-name="gid53" horiz-adv-x="482" d="M220-52Q174-35 149.5,1.5t-26,103T144,275q7,35 20,80t30.5,92.5t37,92T270,618q23,41 35.5,51.5T328,678q19-5 27.5-18.5t6-29T342,604q-11-13-28.5-47.5T278,490q-20-58-35-102.5T218,304t-18-82q-9-42-13.5-69t-6-44.5T179,78t0-27q8-13 13-23t13-12q17-8 38.5-4T286,28q5,10 13,14t8,4q2-5 4.5-2.5T315,50q-1,4 2,7.5t7,7.5q8,3 23.5,20.5t32,39.5t28,40T419,187q0,5 4,9t9,10q5,5 20.5,32.5t34,64.5T520,371q3,11 11,35.5T548.5,463T567,527.5t16.5,58T593,623q2,13 6,21.5t5,12.5q5,2 12-1t14.5-7t13.5-7q6-8 5-20t-6.5-36.5T627,515q-21-82-50.5-151T513,218q0,0 0-0.5t0-5.5q-12-7-19-21q-5-9-8.5-15.5T477,166q-3-9-6-16t-3-7q-1-5-7-9t-12-8q-5-2-6-8t-4-10q-22-33-50-65T331.5-12.5T275-46q-18-7-29.5-8T220-52ZM532,711q-8-6-12.5-6.5T512,710t-7,17q-8,17-24,40t-26,45t-2,33q13,11 22.5,17t19.5-5q7-4 16.5-20.5t19-37.5T546,760.5t6-23.5q1-4-5.5-14T532,711Z"/>
      <glyph unicode="&#xda;" glyph-name="gid50" horiz-adv-x="482" d="M220-52Q174-35 149.5,1.5t-26,103T144,275q7,35 20,80t30.5,92.5t37,92T270,618q23,41 35.5,51.5T328,678q19-5 27.5-18.5t6-29T342,604q-11-13-28.5-47.5T278,490q-20-58-35-102.5T218,304t-18-82q-9-42-13.5-69t-6-44.5T179,78t0-27q8-13 13-23t13-12q17-8 38.5-4T286,28q5,10 13,14t8,4q2-5 4.5-2.5T315,50q-1,4 2,7.5t7,7.5q8,3 23.5,20.5t32,39.5t28,40T419,187q0,5 4,9t9,10q5,5 20.5,32.5t34,64.5T520,371q3,11 11,35.5T548.5,463T567,527.5t16.5,58T593,623q2,13 6,21.5t5,12.5q5,2 12-1t14.5-7t13.5-7q6-8 5-20t-6.5-36.5T627,515q-21-82-50.5-151T513,218q0,0 0-0.5t0-5.5q-12-7-19-21q-5-9-8.5-15.5T477,166q-3-9-6-16t-3-7q-1-5-7-9t-12-8q-5-2-6-8t-4-10q-22-33-50-65T331.5-12.5T275-46q-18-7-29.5-8T220-52ZM463,714q-7,7-10.5,21T450,753q1,5 13.5,20T493,806t32.5,32T548,855q11,7 21-2.5T589,827q3-9-7.5-21.5T554,779t-33.5-27.5T496,727q-10-16-15.5-19T463,714Z"/>
      <glyph unicode="&#xdb;" glyph-name="gid51" horiz-adv-x="482" d="M220-52Q174-35 149.5,1.5t-26,103T144,275q7,35 20,80t30.5,92.5t37,92T270,618q23,41 35.5,51.5T328,678q19-5 27.5-18.5t6-29T342,604q-11-13-28.5-47.5T278,490q-20-58-35-102.5T218,304t-18-82q-9-42-13.5-69t-6-44.5T179,78t0-27q8-13 13-23t13-12q17-8 38.5-4T286,28q5,10 13,14t8,4q2-5 4.5-2.5T315,50q-1,4 2,7.5t7,7.5q8,3 23.5,20.5t32,39.5t28,40T419,187q0,5 4,9t9,10q5,5 20.5,32.5t34,64.5T520,371q3,11 11,35.5T548.5,463T567,527.5t16.5,58T593,623q2,13 6,21.5t5,12.5q5,2 12-1t14.5-7t13.5-7q6-8 5-20t-6.5-36.5T627,515q-21-82-50.5-151T513,218q0,0 0-0.5t0-5.5q-12-7-19-21q-5-9-8.5-15.5T477,166q-3-9-6-16t-3-7q-1-5-7-9t-12-8q-5-2-6-8t-4-10q-22-33-50-65T331.5-12.5T275-46q-18-7-29.5-8T220-52ZM452,730q-17-17-29-14.5t-15,15t8,26.5q3,4 14,14t25.5,23T485,818t25,17q9,8 17,7.5t14-9.5q12-10 29.5-27.5T603,773t17-18q6-8 5.5-18.5t-7-17.5T602,714.5T578,733q-7,9-23,24.5T524,786q-12-7-26.5-18T471,746.5T452,730Z"/>
      <glyph unicode="&#xdc;" glyph-name="gid52" horiz-adv-x="482" d="M220-52Q174-35 149.5,1.5t-26,103T144,275q7,35 20,80t30.5,92.5t37,92T270,618q23,41 35.5,51.5T328,678q19-5 27.5-18.5t6-29T342,604q-11-13-28.5-47.5T278,490q-20-58-35-102.5T218,304t-18-82q-9-42-13.5-69t-6-44.5T179,78t0-27q8-13 13-23t13-12q17-8 38.5-4T286,28q5,10 13,14t8,4q2-5 4.5-2.5T315,50q-1,4 2,7.5t7,7.5q8,3 23.5,20.5t32,39.5t28,40T419,187q0,5 4,9t9,10q5,5 20.5,32.5t34,64.5T520,371q3,11 11,35.5T548.5,463T567,527.5t16.5,58T593,623q2,13 6,21.5t5,12.5q5,2 12-1t14.5-7t13.5-7q6-8 5-20t-6.5-36.5T627,515q-21-82-50.5-151T513,218q0,0 0-0.5t0-5.5q-12-7-19-21q-5-9-8.5-15.5T477,166q-3-9-6-16t-3-7q-1-5-7-9t-12-8q-5-2-6-8t-4-10q-22-33-50-65T331.5-12.5T275-46q-18-7-29.5-8T220-52ZM554,750q-7,7-11.5,17.5T539,782q2,5 7.5,19.5T559,822q3,2 7,6.5t8,5.5q12,9 22.5,3T612,815q9-14 6-24.5T602,763q-15-21-27-23t-21,10Zm-129,0q-7,7-11.5,17.5T410,782q2,5 7.5,19.5T430,822q3,2 6.5,6.5T444,834q8,6 15.5,5t14-7t9.5-17q9-14 6-24.5T473,763q-16-21-28-23t-20,10Z"/>
      <glyph unicode="&#xdd;" glyph-name="gid58" horiz-adv-x="504" d="M330,267l-35,44q-20,30-32,56t-17,64q-7,24-9,45t-1.5,48.5T237,593q1,38 8.5,55T257,673q10,12 18.5,3t14-30.5T294,595q3-107 15.5-170T344,348q12-3 21.5,1.5t28,24T449,433q27,29 55.5,62t54,63t46,51.5T637,638q4,6 8.5,9t8.5,3.5t4,0.5q8-2 9-12.5t8-20.5q2-4 3-8.5t0-9.5q0-3-4-7.5t-8.5-9T656,574q-13-11-40.5-38.5t-56.5-59T510,420q-44-51-78.5-88T389,288q-1-2-14-14t-18-20l-27,13ZM259-68q-4,1-12,6.5T229-49q-7,8-8.5,15T223-14t11,40q1,23 9.5,56T264,137q0,11 5,30t12.5,39.5T295,242l18,52l40,34l28-31q-4-6-7-14t-8-27t-15-59q-8-27-17.5-58T316,81T302,37Q290-8 284-32T273.5-63.5T259-68ZM460,715q-7,7-10.5,21T447,754q1,5 13.5,20T490,807t32.5,32T545,856q11,7 21-2.5T586,828q3-9-7.5-21.5T551,780t-33.5-27.5T493,728q-10-16-15.5-19T460,715Z"/>
      <glyph unicode="&#xde;" glyph-name="gid44" horiz-adv-x="472" d="M117-64q-5,3-14.5,5T86-52.5T78-39q-1,3-1.5,6T79-19.5T88,15q1,3 7.5,25T111,92.5T129,152t15.5,48t7.5,16q1,5 6.5,21t9.5,20q1,9 5.5,23.5t11,28T197,327q0,6 5,20t12,29.5T227,403t7,11q0,0 1.5,6T247,439q0,0 1.5,10t9.5,16q4,15 5,20.5t-3,7.5q-9,26 16,27q6,0 14,17q2,4 4,5q13,34 25,67t19.5,56t7.5,28q0,8 7.5,12t15.5,4q3,3 7.5,4t8.5,1l16-16q8-7 9.5-16t1.5-21t-3-22t-11-27.5T373,559q14,2 23.5,4t9.5,2q14,0 36.5-2t35.5-5q36-17 55-43t22-49q2-12-3.5-35.5t-14-49.5t-19-46.5T499,307q5,1-4-11t-22.5-24.5T452,257q0,0-7-12.5T425,225q-12-7-25.5-16.5T378,187q0,8-5,5.5t-11-8T352,177q-45-27-87-35q-5-4-15.5-5T229,136l-34,5L174,84q-7-31-15-56T144-27q-3-18-7.5-27.5T127-66t-10,2ZM218,194q56-1 91,18t66,48q8,8 22,24t29.5,34.5T453,352q16,22 23.5,49.5t8,51T479,486q-13,19-36.5,22.5T394,506t-45-17q-5-2-17.5-23t-28-52.5t-31-67t-28.5-68T223.5,223T218,194Z"/>
      <glyph unicode="&#xdf;" glyph-name="gid159" horiz-adv-x="398" d="M79-213q-16,4-24,16T44-168q2,2 1,13.5T44-139q5,9 8,25t2,38q6,15 7.5,27T63-32q0,0 4,17T77,26T89.5,73T100,109q3,14 7,30.5t8,22.5q5,14 10,30t16,45q-1,8 4,26t14,39t19,36q5,31 15.5,53.5T204,414q4-4 4-4t-4,4q-3,4-2.5,11t1.5,14q12,7 14.5,14.5T220,461q0,2 11,17t26.5,36T289,555t25,31q20,19 45,34t45,20q13,3 22.5,4.5t15,2T448,647q5,1 16-6.5T487,622t17-23q14-36 5-78.5T468,436q-12-19-24-29t-13-10q0,0-8.5-8T409,367q-10-9-16-17.5t-9-8.5t-8.5-8t-9-17.5T366,300q0,0-2.5-3t-2.5-3q-7,0-3.5-12t11-26.5T380,232q7-1 14-14t15-35q2-27 4-39t3-30q-3-29-14.5-48.5T371,36T326,24q-26-4-39-0.5T251,34q-28,11-38.5,22T212,86q2,4 5.5,5t3.5,0q8,0 9.5,0.5T232,92t8.5,0T262,91q15-1 25.5-4t18-3T319,93q11,2 18.5,2.5T345,96q1,0 1,9q-1,1 0,1q0,0 6.5,10.5T356,137q-1,14-3,25t-16,28q-8,23-19.5,42.5t-20.5,32T286,278q-5,6-2,16t5,16t4,8.5t2,2.5q0,1 11,16t26,34.5T359.5,408T375,430q17,11 33,26t16,19q-5,14 14,38q14,23 17.5,42T453,587q-16,10-46.5-4.5T351,539q-7-8-19-22t-14-15q-14-18-33.5-51.5t-38-72.5T216,303q4-7-2-22t-16-23q2-14 1-25.5T198,221q0-7-3-12t-3-5q-5,0-6,0t-1-1q0,0-3-14t-11-34q-10-28-15-42.5T148.5,83T142,38Q129-2 122.5-29T112-79q-1-4-1-13.5t2-15.5q-2-7-4.5-20.5T104-157t-2-27q0-19-3-24.5T79-213Z"/>
      <glyph unicode="&#xe0;" glyph-name="gid116" horiz-adv-x="437" d="M107,36q-4,8-10,12.5T91,57t-0.5,8.5T86,74q-5,6 1,27.5t20,53T140,221q8,8 16,21t12,17q0,4 3,7.5t7,3.5v6q0,5 9.5,17T211,319.5t29,28T265,367q21,14 43.5,17T347,374q3-3 10-10t16.5-15.5T393,331l37-33l-18-50q-13-40-6.5-70T425,126q5-11 20.5-21T475,93q8-1 15-6t7-16q0-10-4-16t-14-8q-33-4-61.5,16T365,129q-4,6-10.5,22.5T347,173q-4-5-15-18.5T315,135Q244,63 192.5,38.5T107,36Zm36,56q0-7 21.5,0.5T211,120q34,29 68.5,64T335,249l22,36q-10,23-21.5,31.5T316,325q-13,0-38.5-24T223,237t-55-88q-10-20-17.5-38.5T143,92ZM391,441q-12-9-16.5-5T364,457q-6,12-17,29t-21.5,34t-15,31.5T312,575q13,11 22.5,17t19.5-5q7-4 16.5-20.5t19-37.5T405,490.5t6-23.5q1-3-2-8.5T401.5,448T391,441Z"/>
      <glyph unicode="&#xe1;" glyph-name="gid113" horiz-adv-x="437" d="M107,36q-4,8-10,12.5T91,57t-0.5,8.5T86,74q-5,6 1,27.5t20,53T140,221q8,8 16,21t12,17q0,4 3,7.5t7,3.5v6q0,5 9.5,17T211,319.5t29,28T265,367q21,14 43.5,17T347,374q3-3 10-10t16.5-15.5T393,331l37-33l-18-50q-13-40-6.5-70T425,126q5-11 20.5-21T475,93q8-1 15-6t7-16q0-10-4-16t-14-8q-33-4-61.5,16T365,129q-4,6-10.5,22.5T347,173q-4-5-15-18.5T315,135Q244,63 192.5,38.5T107,36Zm36,56q0-7 21.5,0.5T211,120q34,29 68.5,64T335,249l22,36q-10,23-21.5,31.5T316,325q-13,0-38.5-24T223,237t-55-88q-10-20-17.5-38.5T143,92ZM389,444q-7,7-10.5,21T376,483q1,5 13.5,20T419,536t32.5,32T474,585q11,7 21-2.5T515,557q3-9-7.5-21.5T480,509t-33.5-27.5T422,457q-10-16-15.5-19T389,444Z"/>
      <glyph unicode="&#xe2;" glyph-name="gid114" horiz-adv-x="437" d="M107,36q-4,8-10,12.5T91,57t-0.5,8.5T86,74q-5,6 1,27.5t20,53T140,221q8,8 16,21t12,17q0,4 3,7.5t7,3.5v6q0,5 9.5,17T211,319.5t29,28T265,367q21,14 43.5,17T347,374q3-3 10-10t16.5-15.5T393,331l37-33l-18-50q-13-40-6.5-70T425,126q5-11 20.5-21T475,93q8-1 15-6t7-16q0-10-4-16t-14-8q-33-4-61.5,16T365,129q-4,6-10.5,22.5T347,173q-4-5-15-18.5T315,135Q244,63 192.5,38.5T107,36Zm36,56q0-7 21.5,0.5T211,120q34,29 68.5,64T335,249l22,36q-10,23-21.5,31.5T316,325q-13,0-38.5-24T223,237t-55-88q-10-20-17.5-38.5T143,92ZM309,456q-17-17-29-14.5t-15,15t8,26.5q3,4 14,14t25.5,23T342,544t25,17q9,8 17,7.5t14-9.5q12-10 29.5-27.5T460,499t17-18q6-8 5.5-18.5t-7-17.5T459,440.5T435,459q-7,9-23,24.5T381,512q-12-7-26.5-18T328,472.5T309,456Z"/>
      <glyph unicode="&#xe3;" glyph-name="gid118" horiz-adv-x="437" d="M107,36q-4,8-10,12.5T91,57t-0.5,8.5T86,74q-5,6 1,27.5t20,53T140,221q8,8 16,21t12,17q0,4 3,7.5t7,3.5v6q0,5 9.5,17T211,319.5t29,28T265,367q21,14 43.5,17T347,374q3-3 10-10t16.5-15.5T393,331l37-33l-18-50q-13-40-6.5-70T425,126q5-11 20.5-21T475,93q8-1 15-6t7-16q0-10-4-16t-14-8q-33-4-61.5,16T365,129q-4,6-10.5,22.5T347,173q-4-5-15-18.5T315,135Q244,63 192.5,38.5T107,36Zm36,56q0-7 21.5,0.5T211,120q34,29 68.5,64T335,249l22,36q-10,23-21.5,31.5T316,325q-13,0-38.5-24T223,237t-55-88q-10-20-17.5-38.5T143,92ZM431,429q-20,0-32.5,7.5T367,457q-9,5-24,20t-27,15q-10,0-16.5-8T287,467.5T270,457q-1-5-6-12.5t-7-2.5q-10,3-15.5,10T237,464q1,9 15,32t48,40q12,5 33.5,0T371,516q23-21 35-30.5t31-1.5q15,4 32.5,15.5T508,519q7,3 13-0.5t9-10.5t2-13q0-4-6.5-14T510,466q-30-17-46-25t-22.5-10T431,429Z"/>
      <glyph unicode="&#xe4;" glyph-name="gid115" horiz-adv-x="437" d="M107,36q-4,8-10,12.5T91,57t-0.5,8.5T86,74q-5,6 1,27.5t20,53T140,221q8,8 16,21t12,17q0,4 3,7.5t7,3.5v6q0,5 9.5,17T211,319.5t29,28T265,367q21,14 43.5,17T347,374q3-3 10-10t16.5-15.5T393,331l37-33l-18-50q-13-40-6.5-70T425,126q5-11 20.5-21T475,93q8-1 15-6t7-16q0-10-4-16t-14-8q-33-4-61.5,16T365,129q-4,6-10.5,22.5T347,173q-4-5-15-18.5T315,135Q244,63 192.5,38.5T107,36Zm36,56q0-7 21.5,0.5T211,120q34,29 68.5,64T335,249l22,36q-10,23-21.5,31.5T316,325q-13,0-38.5-24T223,237t-55-88q-10-20-17.5-38.5T143,92ZM306,450q-7,7-11.5,17.5T291,482q2,5 7.5,19.5T311,522q3,2 6.5,6.5T325,534q12,8 22.5,2.5T363,515q9-14 6-24.5T353,463q-15-20-27-22t-20,9Zm128,0q-7,7-11.5,17.5T419,482q2,5 7.5,19.5T439,522q3,2 6.5,6.5T453,534q12,8 22.5,2.5T491,515q9-14 6-24.5T481,463q-15-20-27-22t-20,9Z"/>
      <glyph unicode="&#xe5;" glyph-name="gid117" horiz-adv-x="437" d="M107,36q-4,8-10,12.5T91,57t-0.5,8.5T86,74q-5,6 1,27.5t20,53T140,221q8,8 16,21t12,17q0,4 3,7.5t7,3.5v6q0,5 9.5,17T211,319.5t29,28T265,367q21,14 43.5,17T347,374q3-3 10-10t16.5-15.5T393,331l37-33l-18-50q-13-40-6.5-70T425,126q5-11 20.5-21T475,93q8-1 15-6t7-16q0-10-4-16t-14-8q-33-4-61.5,16T365,129q-4,6-10.5,22.5T347,173q-4-5-15-18.5T315,135Q244,63 192.5,38.5T107,36Zm36,56q0-7 21.5,0.5T211,120q34,29 68.5,64T335,249l22,36q-10,23-21.5,31.5T316,325q-13,0-38.5-24T223,237t-55-88q-10-20-17.5-38.5T143,92ZM408,412q-34,0-49,20.5T341,482q0,19 8.5,41t24,38T410,577q32,0 54-14.5T486,519q0-24-9.5-49T450,428.5T408,412Zm-4,40q18,0 29,11.5T443,499q-1,13-5,25t-21,12q-38,0-38-50q0-10 8.5-22T404,452Z"/>
      <glyph unicode="&#xe6;" glyph-name="gid119" horiz-adv-x="574" d="M102,36q-4,8-10,12.5T86,57t-0.5,8.5T81,74q-5,6 1,27.5t20,53T135,221q8,8 16,21t12,17q0,4 3,7.5t7,3.5v6q0,5 9.5,17T206,319.5t29,28T260,367q14,10 29,14t29,3t24-10q3-3 10-10t16.5-15.5T388,331l37-33l-18-50q-9-26-17-46t-12-35l-9-55l-9,17q-4,6-10.5,22.5T342,173q-4-5-15-18.5T310,135q-47-48-86-75T155,27.5T102,36Zm36,56q0-7 21.5,0.5T206,120q23,20 46,42t43.5,44.5T330,249l22,36q-10,23-21.5,31.5T311,325q-13,0-38.5-24T218,237t-55-88q-10-20-17.5-38.5T138,92ZM516,35q-21-18-48.5-21T414,22.5T371,58q-17,22-22,50.5T348,183q3,39 25,78.5T426.5,332T489,375q15,10 25.5,9.5T547,382q23-3 34.5-9T600,357q10-10 15.5-20t7.5-19.5t2-18.5q-4-22-29.5-53.5T529,194q-22-7-48-6t-43,13q-19,8-25-2.5T402,148q-4-38 6-55.5T435,72q20-4 31.5-5.5T495,75q16,10 20,11.5t6.5,4T534,103q7,7 11,10.5t9,3.5t9-4.5t8-6.5q10,0 4.5-12T554,65.5T516,35Zm-1,212q11,5 23,14.5t20.5,21T567,302q0,14-13,23.5T515,328q-11-3-25-14.5T463.5,288t-20-25T438,250q3-5 17-7.5t31.5-1.5t28.5,6Z"/>
      <glyph unicode="&#xe7;" glyph-name="gid122" horiz-adv-x="355" d="M209,11q-29-5-53,3.5t-38.5,29T103,96q-3,30 7,69.5T139.5,245T182,314q20,24 40,44t36,27q14,6 26.5,7.5T305,394q16-4 34.5-14.5T358,357q0,0 2.5-2.5T363,352q6,0 10.5-13t5.5-29.5T374,282q-4-19-14-33t-18-14q-4,0-7.5-0.5T331,229t-5.5-4T314,231.5T305,245q0,5 4,17t8,31q6,28-1,36.5T289,330q-25-14-47.5-39T200,226.5T166,128q-6-23-4.5-40T166,70q14-4 38-1.5T239,77q16,8 36,21.5T310,123q5,3 12,10t15,11q8,12 14,14t18,2q8-2 15-6t9.5-8t-3.5-7q-4,0-4.5-2.5T385,134q2-4-8.5-16.5T350,90T319.5,64.5T299,54q-10,0-10-6q0-2-14.5-10t-33-16T209,11ZM193-178q-15-3-36-0.5t-39,7T94-165q-12,4-15.5,12T78-136.5t11,13t18,1.5q16-5 35.5-11t35.5-6t23,14q7,11 2.5,21.5T188-81q-7,9-17,21.5T150-37q-8,12-10.5,23.5t13.5,27T217,53l33-23Q225,18 209.5,7T194-17q14-20 31-38.5T247-94q6-24 0.5-41.5t-20-28T193-178Z"/>
      <glyph unicode="&#xe8;" glyph-name="gid129" horiz-adv-x="325" d="M276,35q-21-18-48.5-21T174,22.5T131,58q-17,22-22,50.5T108,183q3,39 25,78.5T186.5,332T249,375q15,10 25.5,9.5T307,382q23-3 34.5-9T360,357q15-15 20-29.5t5-28.5q-4-22-29.5-53.5T289,194q-22-7-48-6t-43,13q-19,8-25-2.5T162,148q-4-38 6-55.5T195,72q20-4 31.5-5.5T255,75q16,10 20,11.5t6.5,4T294,103q7,7 11,10.5t9,3.5t9-4.5t8-6.5q10,0 4.5-12T314,65.5T276,35Zm-1,212q11,5 23,14.5t20.5,21T327,302q0,14-13,23.5T275,328q-11-3-25-14.5T223.5,288t-20-25T198,250q3-5 17-7.5t31.5-1.5t28.5,6Zm58,194q-12-9-16.5-5T306,457q-6,12-17,29t-21.5,34t-15,31.5T254,575q13,11 22.5,17t19.5-5q7-4 16.5-20.5t19-37.5T347,490.5t6-23.5q1-3-2-8.5T343.5,448T333,441Z"/>
      <glyph unicode="&#xe9;" glyph-name="gid126" horiz-adv-x="325" d="M276,35q-21-18-48.5-21T174,22.5T131,58q-17,22-22,50.5T108,183q3,39 25,78.5T186.5,332T249,375q15,10 25.5,9.5T307,382q23-3 34.5-9T360,357q15-15 20-29.5t5-28.5q-4-22-29.5-53.5T289,194q-22-7-48-6t-43,13q-19,8-25-2.5T162,148q-4-38 6-55.5T195,72q20-4 31.5-5.5T255,75q16,10 20,11.5t6.5,4T294,103q7,7 11,10.5t9,3.5t9-4.5t8-6.5q10,0 4.5-12T314,65.5T276,35Zm-1,212q11,5 23,14.5t20.5,21T327,302q0,14-13,23.5T275,328q-11-3-25-14.5T223.5,288t-20-25T198,250q3-5 17-7.5t31.5-1.5t28.5,6Zm56,197q-7,7-10.5,21T318,483q1,5 13.5,20T361,536t32.5,32T416,585q11,7 21-2.5T457,557q3-9-7.5-21.5T422,509t-33.5-27.5T364,457q-10-16-15.5-19T331,444Z"/>
      <glyph unicode="&#xea;" glyph-name="gid127" horiz-adv-x="325" d="M276,35q-21-18-48.5-21T174,22.5T131,58q-17,22-22,50.5T108,183q3,39 25,78.5T186.5,332T249,375q15,10 25.5,9.5T307,382q23-3 34.5-9T360,357q15-15 20-29.5t5-28.5q-4-22-29.5-53.5T289,194q-22-7-48-6t-43,13q-19,8-25-2.5T162,148q-4-38 6-55.5T195,72q20-4 31.5-5.5T255,75q16,10 20,11.5t6.5,4T294,103q7,7 11,10.5t9,3.5t9-4.5t8-6.5q10,0 4.5-12T314,65.5T276,35Zm-1,212q11,5 23,14.5t20.5,21T327,302q0,14-13,23.5T275,328q-11-3-25-14.5T223.5,288t-20-25T198,250q3-5 17-7.5t31.5-1.5t28.5,6ZM251,456q-17-17-29-14.5t-15,15t8,26.5q3,4 14,14t25.5,23T284,544t25,17q9,8 17,7.5t14-9.5q12-10 29.5-27.5T402,499t17-18q6-8 5.5-18.5t-7-17.5T401,440.5T377,459q-7,9-23,24.5T323,512q-12-7-26.5-18T270,472.5T251,456Z"/>
      <glyph unicode="&#xeb;" glyph-name="gid128" horiz-adv-x="325" d="M276,35q-21-18-48.5-21T174,22.5T131,58q-17,22-22,50.5T108,183q3,39 25,78.5T186.5,332T249,375q15,10 25.5,9.5T307,382q23-3 34.5-9T360,357q15-15 20-29.5t5-28.5q-4-22-29.5-53.5T289,194q-22-7-48-6t-43,13q-19,8-25-2.5T162,148q-4-38 6-55.5T195,72q20-4 31.5-5.5T255,75q16,10 20,11.5t6.5,4T294,103q7,7 11,10.5t9,3.5t9-4.5t8-6.5q10,0 4.5-12T314,65.5T276,35Zm-1,212q11,5 23,14.5t20.5,21T327,302q0,14-13,23.5T275,328q-11-3-25-14.5T223.5,288t-20-25T198,250q3-5 17-7.5t31.5-1.5t28.5,6ZM248,450q-7,7-11.5,17.5T233,482q2,5 7.5,19.5T253,522q3,2 6.5,6.5T267,534q12,8 22.5,2.5T305,515q9-14 6-24.5T295,463q-15-20-27-22t-20,9Zm128,0q-7,7-11.5,17.5T361,482q2,5 7.5,19.5T381,522q3,2 6.5,6.5T395,534q12,8 22.5,2.5T433,515q9-14 6-24.5T423,463q-15-20-27-22t-20,9Z"/>
      <glyph unicode="&#xec;" glyph-name="gid138" horiz-adv-x="187" d="M111,32q-8,8-11.5,20T97,76t5,20q0,8 2.5,12.5T106,117t2,14t6,19q7,16 15,38.5T144,233t12,38t6,20q0,12 16,13q12,4 18,0.5T212,285q8-8 6-24t-13-40q-4-8-9.5-23T188,171q-4-8-9.5-22.5T169,121q-2-5-4-14.5t-5-20T152,68q-9-41-16.5-48T111,32ZM242,441q-12-9-16.5-5T215,457q-6,12-17,29t-21.5,34t-15,31.5T163,575q13,11 22.5,17t19.5-5q7-4 16.5-20.5t19-37.5T256,490.5t6-23.5q1-3-2-8.5T252.5,448T242,441Z"/>
      <glyph unicode="&#xed;" glyph-name="gid135" horiz-adv-x="187" d="M111,32q-8,8-11.5,20T97,76t5,20q0,8 2.5,12.5T106,117t2,14t6,19q7,16 15,38.5T144,233t12,38t6,20q0,12 16,13q12,4 18,0.5T212,285q8-8 6-24t-13-40q-4-8-9.5-23T188,171q-4-8-9.5-22.5T169,121q-2-5-4-14.5t-5-20T152,68q-9-41-16.5-48T111,32ZM240,444q-7,7-10.5,21T227,483q1,5 13.5,20T270,536t32.5,32T325,585q11,7 21-2.5T366,557q3-9-7.5-21.5T331,509t-33.5-27.5T273,457q-10-16-15.5-19T240,444Z"/>
      <glyph unicode="&#xee;" glyph-name="gid136" horiz-adv-x="187" d="M111,32q-8,8-11.5,20T97,76t5,20q0,8 2.5,12.5T106,117t2,14t6,19q7,16 15,38.5T144,233t12,38t6,20q0,12 16,13q12,4 18,0.5T212,285q8-8 6-24t-13-40q-4-8-9.5-23T188,171q-4-8-9.5-22.5T169,121q-2-5-4-14.5t-5-20T152,68q-9-41-16.5-48T111,32Zm49,424q-17-17-29-14.5t-15,15t8,26.5q3,4 14,14t25.5,23T193,544t25,17q9,8 17,7.5t14-9.5q12-10 29.5-27.5T311,499t17-18q6-8 5.5-18.5t-7-17.5T310,440.5T286,459q-7,9-23,24.5T232,512q-12-7-26.5-18T179,472.5T160,456Z"/>
      <glyph unicode="&#xef;" glyph-name="gid137" horiz-adv-x="187" d="M111,32q-8,8-11.5,20T97,76t5,20q0,8 2.5,12.5T106,117t2,14t6,19q7,16 15,38.5T144,233t12,38t6,20q0,12 16,13q12,4 18,0.5T212,285q8-8 6-24t-13-40q-4-8-9.5-23T188,171q-4-8-9.5-22.5T169,121q-2-5-4-14.5t-5-20T152,68q-9-41-16.5-48T111,32Zm46,418q-7,7-11.5,17.5T142,482q2,5 7.5,19.5T162,522q3,2 6.5,6.5T176,534q12,8 22.5,2.5T214,515q9-14 6-24.5T204,463q-15-20-27-22t-20,9Zm128,0q-7,7-11.5,17.5T270,482q2,5 7.5,19.5T290,522q3,2 6.5,6.5T304,534q12,8 22.5,2.5T342,515q9-14 6-24.5T332,463q-15-20-27-22t-20,9Z"/>
      <glyph unicode="&#xf0;" glyph-name="gid124" horiz-adv-x="349" d="M180,12q-13-2-20.5,2.5T141,28q-13,13-21.5,24.5T107.5,76T106,99q3,9 1,16t-2,7q-5,5-3,6.5t4,5.5q6,1 4,12q-1,5 2,19.5T122.5,199T140,234q5,10 15.5,27t24,34.5T205,323q23,23 41.5,34T287,375q22,5 30.5,5.5T341,367q2-2 4-2q1,47-12.5,97.5T278,564q-15,16-25.5,22.5T234,606q0,3 4,8.5t10,11t12,5.5q5,3 12,2t13.5-4t8.5-6q4,4 13.5-8.5T336,577q32-41 48-96.5T401,364T388.5,244.5T348,138q-22-38-42.5-56T258,44q-21-15-38-22.5T180,12Zm93,109q15,20 25,36.5t18,35T333,236q2,11 2,27.5t-2.5,31T324,311q-12,7-28.5,4T261,293q-31-28-52-67.5T168,136q-12-37-2-57.5t38-13T273,121Zm22,336q-6,0-15,0t-21,1q-15-5-21.5-2.5T224,465q-14,15-5.5,22T264,506q23,5 40,11.5t35.5,13T385,542q26,5 36,6t26-10q18-15 14.5-28.5T435,500q-7-1-26-7.5T372,484q-5-9-26.5-14T295,457Z"/>
      <glyph unicode="&#xf1;" glyph-name="gid145" horiz-adv-x="450" d="M454,46q-20,0-33,8.5T399,83q-4,14-6.5,31.5t-2.5,33t3,20.5q4,4 3.5,14.5T396,205q-1,20-9.5,22.5T362,221q-18-11-47-29.5T254.5,151T195,105q-22-24-26.5-36.5T156,56q-8-4-13.5-0.5T127,67q-7,8-14,15.5T104,94q0,5 3,21t7.5,32t6.5,21q5,0 8.5,10T141,200q2,12 10.5,32.5T167,269q14,24 19.5,40t7.5,40q-1,4 2,7.5t7,3.5q8,8 19,4.5T242,349q18-24 14.5-49.5T224,227q-7-16-10.5-24.5T210,189q0,0 10.5,7t24,16.5T266,227q5,5 23,18t38.5,25.5T358,285q8,4 17,7.5t13,3.5q8,0 20.5-8.5t23.5-20T445,248q0-4 0.5-8t1.5-8q4-13 4.5-35T450,157t-7-21q0,0 0.5-2.5T448,131q0-4 0-4.5t0-0.5q-5,0-4-8.5T450.5,99T462,83q12-12 10-22.5T454,46ZM437,429q-20,0-32.5,7.5T373,457q-9,5-24,20t-27,15q-10,0-16.5-8T293,467.5T276,457q-1-5-6-12.5t-7-2.5q-10,3-15.5,10T243,464q1,9 15,32t48,40q12,5 33.5,0T377,516q23-21 35-30.5t31-1.5q15,4 32.5,15.5T514,519q7,3 13-0.5t9-10.5t2-13q0-4-6.5-14T516,466q-30-17-46-25t-22.5-10T437,429Z"/>
      <glyph unicode="&#xf2;" glyph-name="gid150" horiz-adv-x="353" d="M169,15q-13,0-20.5,5T130,34q-19,20-27,38.5T98,108q3,8 2.5,15.5T100,131q-5,5-3,6.5t4,5.5q6,0 4,11q-2,8 8,35t25,51q6,10 18,26.5t26.5,33T209,326q25,21 44,31t41,15t30.5,5T348,361q23-10 33.5-24T395,296q3-30-4.5-68.5T343,132q-25-36-46-53.5T247,44q-21-14-38-20.5T169,15Zm96,106q24,27 38.5,51T331,233q4,11 5,27.5t-0.5,31T328,308q-12,7-29,4.5T262,293q-31-26-54-64.5T163,141q-15-36-6.5-57.5t37-15T265,121Zm83,320q-12-9-16.5-5T321,457q-6,12-17,29t-21.5,34t-15,31.5T269,575q13,11 22.5,17t19.5-5q7-4 16.5-20.5t19-37.5T362,490.5t6-23.5q1-3-2-8.5T358.5,448T348,441Z"/>
      <glyph unicode="&#xf3;" glyph-name="gid147" horiz-adv-x="353" d="M169,15q-13,0-20.5,5T130,34q-19,20-27,38.5T98,108q3,8 2.5,15.5T100,131q-5,5-3,6.5t4,5.5q6,0 4,11q-2,8 8,35t25,51q6,10 18,26.5t26.5,33T209,326q25,21 44,31t41,15t30.5,5T348,361q23-10 33.5-24T395,296q3-30-4.5-68.5T343,132q-25-36-46-53.5T247,44q-21-14-38-20.5T169,15Zm96,106q24,27 38.5,51T331,233q4,11 5,27.5t-0.5,31T328,308q-12,7-29,4.5T262,293q-31-26-54-64.5T163,141q-15-36-6.5-57.5t37-15T265,121Zm81,323q-7,7-10.5,21T333,483q1,5 13.5,20T376,536t32.5,32T431,585q11,7 21-2.5T472,557q3-9-7.5-21.5T437,509t-33.5-27.5T379,457q-10-16-15.5-19T346,444Z"/>
      <glyph unicode="&#xf4;" glyph-name="gid148" horiz-adv-x="353" d="M169,15q-13,0-20.5,5T130,34q-19,20-27,38.5T98,108q3,8 2.5,15.5T100,131q-5,5-3,6.5t4,5.5q6,0 4,11q-2,8 8,35t25,51q6,10 18,26.5t26.5,33T209,326q25,21 44,31t41,15t30.5,5T348,361q23-10 33.5-24T395,296q3-30-4.5-68.5T343,132q-25-36-46-53.5T247,44q-21-14-38-20.5T169,15Zm96,106q24,27 38.5,51T331,233q4,11 5,27.5t-0.5,31T328,308q-12,7-29,4.5T262,293q-31-26-54-64.5T163,141q-15-36-6.5-57.5t37-15T265,121Zm1,335q-17-17-29-14.5t-15,15t8,26.5q3,4 14,14t25.5,23T299,544t25,17q9,8 17,7.5t14-9.5q12-10 29.5-27.5T417,499t17-18q6-8 5.5-18.5t-7-17.5T416,440.5T392,459q-7,9-23,24.5T338,512q-12-7-26.5-18T285,472.5T266,456Z"/>
      <glyph unicode="&#xf5;" glyph-name="gid152" horiz-adv-x="353" d="M169,15q-13,0-20.5,5T130,34q-19,20-27,38.5T98,108q3,8 2.5,15.5T100,131q-5,5-3,6.5t4,5.5q6,0 4,11q-2,8 8,35t25,51q6,10 18,26.5t26.5,33T209,326q25,21 44,31t41,15t30.5,5T348,361q23-10 33.5-24T395,296q3-30-4.5-68.5T343,132q-25-36-46-53.5T247,44q-21-14-38-20.5T169,15Zm96,106q24,27 38.5,51T331,233q4,11 5,27.5t-0.5,31T328,308q-12,7-29,4.5T262,293q-31-26-54-64.5T163,141q-15-36-6.5-57.5t37-15T265,121ZM388,429q-20,0-32.5,7.5T324,457q-9,5-24,20t-27,15q-10,0-16.5-8T244,467.5T227,457q-1-5-6-12.5t-7-2.5q-10,3-15.5,10T194,464q1,9 15,32t48,40q12,5 33.5,0T328,516q23-21 35-30.5t31-1.5q15,4 32.5,15.5T465,519q7,3 13-0.5t9-10.5t2-13q0-4-6.5-14T467,466q-30-17-46-25t-22.5-10T388,429Z"/>
      <glyph unicode="&#xf6;" glyph-name="gid149" horiz-adv-x="353" d="M169,15q-13,0-20.5,5T130,34q-19,20-27,38.5T98,108q3,8 2.5,15.5T100,131q-5,5-3,6.5t4,5.5q6,0 4,11q-2,8 8,35t25,51q6,10 18,26.5t26.5,33T209,326q25,21 44,31t41,15t30.5,5T348,361q23-10 33.5-24T395,296q3-30-4.5-68.5T343,132q-25-36-46-53.5T247,44q-21-14-38-20.5T169,15Zm96,106q24,27 38.5,51T331,233q4,11 5,27.5t-0.5,31T328,308q-12,7-29,4.5T262,293q-31-26-54-64.5T163,141q-15-36-6.5-57.5t37-15T265,121Zm-2,329q-7,7-11.5,17.5T248,482q2,5 7.5,19.5T268,522q3,2 6.5,6.5T282,534q12,8 22.5,2.5T320,515q9-14 6-24.5T310,463q-15-20-27-22t-20,9Zm128,0q-7,7-11.5,17.5T376,482q2,5 7.5,19.5T396,522q3,2 6.5,6.5T410,534q12,8 22.5,2.5T448,515q9-14 6-24.5T438,463q-15-20-27-22t-20,9Z"/>
      <glyph unicode="&#xf7;" glyph-name="gid307" horiz-adv-x="446" d="M178,178q-6,0-15,0.5T143,183q-15,0-20,3.5T114,197q-11,15-2,20.5t46,9.5q17,4 50.5,6.5t72.5,4t74,2.5t55,1q26,0 35-2t20-13q15-15 11-28.5T449,188q-5,0-15.5-1t-23-2T386,183q-6,0-33-1t-62.5-2t-67-1.5T178,178ZM218,8q-5,5-9,14.5t-5,18t2,8.5q8,1 19,17t9,28q0,4 3,7.5t7,4.5q12,8 23.5,2.5T289,87q9-19 5-31.5T272,21Q257,1 244.5-1T218,8Zm90,320q-5,5-9,14.5t-5,18t2,8.5q8,1 19,17t9,28q0,4 3,7.5t7,4.5q12,8 23.5,2.5T379,407q9-19 5-31.5T362,341q-15-20-27.5-22T308,328Z"/>
      <glyph unicode="&#xf8;" glyph-name="gid151" horiz-adv-x="353" d="M69-15Q50-10 54,10.5T83,56q56,54 109.5,111.5T313,272q9,5 29.5,20.5t42.5,34T424,360t19,18q5,13 14.5,6.5T471,367q3-11-8-22q-3-7-7.5-11.5t-15-12T408,298q-37-25-70-52t-70-59q-13-11-34-31t-45.5-43.5t-47-46t-38-39T85,6Q78-7 75.5-11T69-15ZM265,121q24,27 38.5,51T331,233q4,11 5,27.5t-0.5,31T328,308q-12,7-29,4.5T262,293t-37.5-40.5t-32-51T163,141q-12-27-9.5-46.5T170,69t38.5,5.5T265,121ZM169,15q-13,0-20.5,5T130,34q-19,20-27,38.5T98,108q3,8 2.5,15.5T100,131q-5,5-3,6.5t4,5.5q6,0 4,11q-2,8 8,35t25,51q6,10 18,26.5t26.5,33T209,326q25,21 44,31t41,15t30.5,5T348,361q23-10 33.5-24T395,296q3-30-4.5-68.5T343,132q-25-36-46-53.5T247,44q-21-14-38-20.5T169,15Z"/>
      <glyph unicode="&#xf9;" glyph-name="gid165" horiz-adv-x="370" d="M339,2q-10,10-20,27.5T303,70q-2,8-1.5,22T301,112q-3-7-9.5-14.5T279,85q-4-4-18-15.5T233,51q-33-21-54.5-23T138,50q-16,13-22.5,29T115,123q2,35 10,68.5T158,281q21,41 32,60.5T204,365q15,5 25-0.5T241,345q6-10-1.5-34T214,252q-14-34-25.5-68T175,126t12-29q9-5 31.5,3t51,40T325,237q8,20 12,35.5t5,34.5q-2,12 1.5,21.5T359,345q4,5 11,9.5t9-0.5l16,1q4,1 5.5-4.5T407,341q11-9 6-39t-28-84q-19-41-25.5-62T352,115q0-18 7-34t22-29q11-7 12.5-16T394,15q-2-9-11.5-14.5T361-5T339,2ZM327,443q-12-9-16.5-5T300,459q-6,12-17,29t-21.5,34t-15,31.5T248,577q13,11 22.5,17t19.5-5q7-4 16.5-20.5t19-37.5T341,492.5t6-23.5q1-3-2-8.5T337.5,450T327,443Z"/>
      <glyph unicode="&#xfa;" glyph-name="gid162" horiz-adv-x="370" d="M339,2q-10,10-20,27.5T303,70q-2,8-1.5,22T301,112q-3-7-9.5-14.5T279,85q-4-4-18-15.5T233,51q-33-21-54.5-23T138,50q-16,13-22.5,29T115,123q2,35 10,68.5T158,281q21,41 32,60.5T204,365q15,5 25-0.5T241,345q6-10-1.5-34T214,252q-14-34-25.5-68T175,126t12-29q9-5 31.5,3t51,40T325,237q8,20 12,35.5t5,34.5q-2,12 1.5,21.5T359,345q4,5 11,9.5t9-0.5l16,1q4,1 5.5-4.5T407,341q11-9 6-39t-28-84q-19-41-25.5-62T352,115q0-18 7-34t22-29q11-7 12.5-16T394,15q-2-9-11.5-14.5T361-5T339,2ZM311,441q-7,7-10.5,21T298,480q1,5 13.5,20T341,533t32.5,32T396,582q11,7 21-2.5T437,554q3-9-7.5-21.5T402,506t-33.5-27.5T344,454q-10-16-15.5-19T311,441Z"/>
      <glyph unicode="&#xfb;" glyph-name="gid163" horiz-adv-x="370" d="M339,2q-10,10-20,27.5T303,70q-2,8-1.5,22T301,112q-3-7-9.5-14.5T279,85q-4-4-18-15.5T233,51q-33-21-54.5-23T138,50q-16,13-22.5,29T115,123q2,35 10,68.5T158,281q21,41 32,60.5T204,365q15,5 25-0.5T241,345q6-10-1.5-34T214,252q-14-34-25.5-68T175,126t12-29q9-5 31.5,3t51,40T325,237q8,20 12,35.5t5,34.5q-2,12 1.5,21.5T359,345q4,5 11,9.5t9-0.5l16,1q4,1 5.5-4.5T407,341q11-9 6-39t-28-84q-19-41-25.5-62T352,115q0-18 7-34t22-29q11-7 12.5-16T394,15q-2-9-11.5-14.5T361-5T339,2ZM276,456q-17-17-29-14.5t-15,15t8,26.5q3,4 14,14t25.5,23T309,544t25,17q9,8 17,7.5t14-9.5q12-10 29.5-27.5T427,499t17-18q6-8 5.5-18.5t-7-17.5T426,440.5T402,459q-7,9-23,24.5T348,512q-12-7-26.5-18T295,472.5T276,456Z"/>
      <glyph unicode="&#xfc;" glyph-name="gid164" horiz-adv-x="370" d="M339,2q-10,10-20,27.5T303,70q-2,8-1.5,22T301,112q-3-7-9.5-14.5T279,85q-4-4-18-15.5T233,51q-33-21-54.5-23T138,50q-16,13-22.5,29T115,123q2,35 10,68.5T158,281q21,41 32,60.5T204,365q15,5 25-0.5T241,345q6-10-1.5-34T214,252q-14-34-25.5-68T175,126t12-29q9-5 31.5,3t51,40T325,237q8,20 12,35.5t5,34.5q-2,12 1.5,21.5T359,345q4,5 11,9.5t9-0.5l16,1q4,1 5.5-4.5T407,341q11-9 6-39t-28-84q-19-41-25.5-62T352,115q0-18 7-34t22-29q11-7 12.5-16T394,15q-2-9-11.5-14.5T361-5T339,2ZM273,450q-7,7-11.5,17.5T258,482q2,5 7.5,19.5T278,522q3,2 6.5,6.5T292,534q12,8 22.5,2.5T330,515q9-14 6-24.5T320,463q-15-20-27-22t-20,9Zm128,0q-7,7-11.5,17.5T386,482q2,5 7.5,19.5T406,522q3,2 6.5,6.5T420,534q12,8 22.5,2.5T458,515q9-14 6-24.5T448,463q-15-20-27-22t-20,9Z"/>
      <glyph unicode="&#xfd;" glyph-name="gid170" horiz-adv-x="341" d="M79-199q-24-7-52.5-2.5t-50,17.5T-48-155q-1,6 3.5,13t11,9.5T-22-136q8-5 29-12.5T54-151q23,5 45.5,27T136-83q8,12 27,43t39.5,68.5T237,98q3,8 7,19t10,18q6,12 10.5,22.5T270,172q1,5 9,20t15,30q5,15 15,44t20,47q12,23 19.5,37.5T365,368q9,7 12.5,7t14.5-6q12-12 15-23.5t-2.5-28T384,273q-8-24-17.5-43.5T352,204q-5-12-11.5-26.5T329,151q-18-40-31-65T275,40T254-9q-23-37-44.5-70.5T164-142q-10-9-25-21t-30.5-22T79-199ZM214,41q-15,2-29.5,18T162,93t-6,26q0,5 0,8t0,3q-6,0-10.5,15T139,184t-2.5,51t1.5,51q4,17 4,37.5t1,32.5q-1,16 3,21.5t8,8.5q28,12 37.5-14.5T196,273q-2-40 0-80t11.5-70T234,82q7-4 7-11t-4-14.5t-10.5-12T214,41Zm91,403q-7,7-10.5,21T292,483q1,5 13.5,20T335,536t32.5,32T390,585q11,7 21-2.5T431,557q3-9-7.5-21.5T396,509t-33.5-27.5T338,457q-10-16-15.5-19T305,444Z"/>
      <glyph unicode="&#xfe;" glyph-name="gid155" horiz-adv-x="378" d="M61-224q-4,0-10-0.5T40-216q-4,5-4.5,15T40-165q5,17 8,33.5T51-107q0,4 2.5,15.5T56-75q5,8 8,22t3,25q0,5 3.5,11.5T79-6q0,8 3.5,20T86,30q2,11 9.5,36.5T114,126t23.5,69.5T162,264t21,57l4,9l59-19q41,19 72.5,20.5t53-11T404,286t11-51q0-12-5-28.5t-12.5-30T384,157q-4,0-8-6.5T368,136q-8-10-25.5-22.5T308,93.5T283,89q0,0-2.5-0.5T278,83q0-2-16-8.5t-37-12T188,57q-12,0-18,1.5T158,65q-2-2-4.5-6T151,52q0-6-4.5-22.5T136-2T125-17q0,0-2-3t2-8q0,0-0.5-11.5T119-59q0-8-3-24t-7-24q0-12-3.5-23.5T98-142q-4-1-5-12.5T92-171q-1-25-10-39T61-224ZM182,110q8,0 33,7t51.5,17.5T306,156q26,23 40.5,52.5T344,265q-8,14-29,11.5T269,260t-47-35q-12-13-22-32t-16.5-38T176,123t6-13Zm3,217q7,15 19,47t25.5,71t26,75.5t20,62.5t7.5,30q0,8 4,12t12,4q3,3 7.5,4t8.5,1q0,0 4-4t12-12q8-7 9.5-16t1.5-21q-3-6-10.5-29t-22-65T271,379l-26-82l-60,30Z"/>
      <glyph unicode="&#xff;" glyph-name="gid171" horiz-adv-x="341" d="M79-199q-24-7-52.5-2.5t-50,17.5T-48-155q-1,6 3.5,13t11,9.5T-22-136q8-5 29-12.5T54-151q23,5 45.5,27T136-83q8,12 27,43t39.5,68.5T237,98q3,8 7,19t10,18q6,12 10.5,22.5T270,172q1,5 9,20t15,30q5,15 15,44t20,47q12,23 19.5,37.5T365,368q9,7 12.5,7t14.5-6q12-12 15-23.5t-2.5-28T384,273q-8-24-17.5-43.5T352,204q-5-12-11.5-26.5T329,151q-18-40-31-65T275,40T254-9q-23-37-44.5-70.5T164-142q-10-9-25-21t-30.5-22T79-199ZM214,41q-15,2-29.5,18T162,93t-6,26q0,5 0,8t0,3q-6,0-10.5,15T139,184t-2.5,51t1.5,51q4,17 4,37.5t1,32.5q-1,16 3,21.5t8,8.5q28,12 37.5-14.5T196,273q-2-40 0-80t11.5-70T234,82q7-4 7-11t-4-14.5t-10.5-12T214,41Zm8,409q-7,7-11.5,17.5T207,482q2,5 7.5,19.5T227,522q3,2 6.5,6.5T241,534q12,8 22.5,2.5T279,515q9-14 6-24.5T269,463q-15-20-27-22t-20,9Zm128,0q-7,7-11.5,17.5T335,482q2,5 7.5,19.5T355,522q3,2 6.5,6.5T369,534q12,8 22.5,2.5T407,515q9-14 6-24.5T397,463q-15-20-27-22t-20,9Z"/>
      <glyph unicode="&#x2013;" glyph-name="gid281" horiz-adv-x="446" d="M178,178q-6,0-15,0.5T143,183q-15,0-20,3.5T114,197q-11,15-2,20.5t46,9.5q17,4 50.5,6.5t72.5,4t74,2.5t55,1q26,0 35-2t20-13q15-15 11-28.5T449,188q-5,0-15.5-1t-23-2T386,183q-6,0-33-1t-62.5-2t-67-1.5T178,178Z"/>
      <glyph unicode="&#x2014;" glyph-name="gid280" horiz-adv-x="566" d="M178,178q-6,0-15,0.5T143,183q-15,0-20,3.5T114,197q-11,15-2,20.5t46,9.5q14,3 50.5,5.5t84,4t96,2.5t87,1.5T530,241q26,0 35-2t20-13q15-15 11-28.5T569,188q-7-1-26-2t-37-3q-4,0-26.5-0.5t-56.5-1t-72.5-1t-74.5-1t-62-1T178,178Z"/>
      <glyph unicode="&#x2018;" glyph-name="gid292" horiz-adv-x="117" d="M202,454q-16,11-22.5,23T177,502q3,23 10.5,43T201,584q6,23 20,42t31,38q-1,4 6,5t18,5q11,1 13.5,0t9.5-7q2-7-1.5-12.5T289,641q-12-19-27.5-47T241,551q0-4-1-7q17,3 35-12q19-18 12.5-36.5T255,459q-18-11-26.5-11.5T202,454Z"/>
      <glyph unicode="&#x2019;" glyph-name="gid293" horiz-adv-x="117" d="M215,445q-10-1-13,0t-10,7q-1,7 2,13t8,13q12,20 27.5,47.5T250,568q0,4 1,7q-17-3-35,12q-19,18-12.5,36.5T236,660q18,11 26.5,12t26.5-7q17-10 23.5-22.5T314,617q-3-23-10.5-43T290,535q-6-22-20-41t-31-39q1-4-6-5t-18-5Z"/>
      <glyph unicode="&#x201a;" glyph-name="gid294" horiz-adv-x="117" d="M41-102q-10-1-13,0T18-95q-1,7 2,13t8,13Q40-49 55.5-21.5T76,21q0,4 1,7Q60,25 42,40Q23,58 29.5,76.5T62,113q18,11 26.5,12t26.5-7q17-10 23.5-22.5T140,70q-3-23-10.5-43T116-12q-6-22-20-41T65-92q1-4-6-5t-18-5Z"/>
      <glyph unicode="&#x201c;" glyph-name="gid290" horiz-adv-x="267" d="M361,454q-16,11-22.5,23T336,502q3,23 10.5,43T360,584q6,23 20,42t31,38q-1,4 6,5t18,5q11,1 13.5,0t9.5-7q2-7-1.5-12.5T448,641q-12-19-27.5-47T400,551q0-4-1-7q17,3 35-12q19-18 12.5-36.5T414,459q-18-11-26.5-11.5T361,454Zm-150,0q-16,11-22.5,23T186,502q3,23 10.5,43T210,584q6,23 20,42t31,38q-1,4 6,5t18,5q11,1 13.5,0t9.5-7q2-7-1.5-12.5T298,641q-12-19-27.5-47T250,551q0-4-1-7q17,3 35-12q19-18 12.5-36.5T264,459q-18-11-26.5-11.5T211,454Z"/>
      <glyph unicode="&#x201d;" glyph-name="gid291" horiz-adv-x="267" d="M220,448q-10-1-13,0t-10,7q-1,7 2,13t8,13q12,20 27.5,47.5T255,571q0,4 1,7q-17-3-35,12q-19,18-12.5,36.5T241,663q18,11 26.5,12t26.5-7q17-10 23.5-22.5T319,620q-3-23-10.5-43T295,538q-6-22-20-41t-31-39q1-4-6-5t-18-5Zm150,0q-10-1-13,0t-10,7q-1,7 2,13t8,13q12,20 27.5,47.5T405,571q0,4 1,7q-17-3-35,12q-19,18-12.5,36.5T391,663q18,11 26.5,12t26.5-7q17-10 23.5-22.5T469,620q-3-23-10.5-43T445,538q-6-22-20-41t-31-39q1-4-6-5t-18-5Z"/>
      <glyph unicode="&#x201e;" glyph-name="gid289" horiz-adv-x="267" d="M51-102q-10-1-13,0T28-95q-1,7 2,13t8,13Q50-49 65.5-21.5T86,21q0,4 1,7Q70,25 52,40Q33,58 39.5,76.5T72,113q18,11 26.5,12t26.5-7q17-10 23.5-22.5T150,70q-3-23-10.5-43T126-12q-6-22-20-41T75-92q1-4-6-5t-18-5Zm150,0q-10-1-13,0t-10,7q-1,7 2,13t8,13q12,20 27.5,47.5T236,21q0,4 1,7q-17-3-35,12q-19,18-12.5,36.5T222,113q18,11 26.5,12t26.5-7q17-10 23.5-22.5T300,70q-3-23-10.5-43T276-12q-6-22-20-41T225-92q1-4-6-5t-18-5Z"/>
      <glyph unicode="&#x2022;" glyph-name="gid259" horiz-adv-x="187" d="M155,234q-5,5-6.5,17t-1,23.5T149,289q5,17 18,39.5T195,361q14,7 36.5,1.5T264,343q6-28 0.5-52T233,239q-12-15-32-16.5T155,234Z"/>
      <glyph unicode="&#x2039;" glyph-name="gid287" horiz-adv-x="446" d="M406,2q-8-1-27-0.5T328,16q-36,19-53.5,28.5T242,72q-34,20-52.5,41.5T154,165l-24,42l-7,30q8,2 19,11t12,10q9,11 21,23t33,30.5T264,360q37,27 50.5,41T338,425q6,7 14,14.5t12,7.5q6,2 9.5,1t7.5-4q11-7 21.5-8t11.5-9q0,0-2.5-8T402,405q-13-11-28-22.5t-37.5-30T275,299q-24-21-41-37.5t-25.5-30T202,205q6-13 24-35.5T275.5,121T353,69q25-12 42.5-26t22-25.5T406,2Z"/>
      <glyph unicode="&#x203a;" glyph-name="gid288" horiz-adv-x="446" d="M236,0q-6-2-9-1t-8,4q-10,8-20.5,8.5T186,20q0,0 2.5,8T198,42q14,12 28.5,23T264,95t61,53q35,32 55.5,53.5T398,242q-9,20-45,58.5T247,378q-24,12-42,26t-22,25.5T194,445q8,1 27.5,0.5T272,431q36-19 53.5-28.5T358,375q34-19 53-41t35-52l24-42l7-30q-5-1-12-6t-12.5-9.5T446,189q-9-11-21-23t-33-30.5T336,87q-37-27-50.5-41T262,22q-6-7-13.5-14.5T236,0Z"/>
    </font>
</defs>
</svg>
