<?xml version="1.0" standalone="no"?>
<!DOCTYPE svg PUBLIC "-//W3C//DTD SVG 1.1//EN" "http://www.w3.org/Graphics/SVG/1.1/DTD/svg11.dtd">
<svg xmlns="http://www.w3.org/2000/svg">
  <defs>
    <font id="Pacifico" horiz-adv-x="615">
      <font-face font-family="Pacifico" units-per-em="1000" panose-1="0 0 5 0 0 0 0 0 0 0" ascent="1303" descent="-453" alphabetic="0"/>
      <glyph unicode=" " glyph-name="space" horiz-adv-x="265"/>
      <glyph unicode="!" glyph-name="exclam" horiz-adv-x="340" d="M160,234q-20,0-33,9t-13,28l1,8q17,112 46,255t54,247q16,64 87,64q64,0 64-41q0-9-3-20q-26-106-69-256.5T212,266q-11-32-52-32ZM122-5Q78-5 55.5,19T33,82q0,45 25.5,72T130,181q44,0 66.5-21.5T219,96q0-46-26-73.5T122-5Z"/>
      <glyph unicode="&quot;" glyph-name="quotedbl" horiz-adv-x="510" d="M169,502q-25,0-41.5,13.5T114,561l20,191q10,92 87,92q66,0 66-62q0-14-5-37L242,561q-7-32-27-45.5T169,502Zm220,0q-25,0-41.5,13.5T334,561l20,191q10,92 87,92q66,0 66-62q0-14-5-37L462,561q-7-32-27-45.5T389,502Z"/>
      <glyph unicode="#" glyph-name="numbersign" horiz-adv-x="700" d="M549,346L516,230h73q52,0 52-55q0-28-13.5-43.5T589,116H483L464,52q-9-29-29.5-44.5T391-8Q370-8 355,5.5T340,43q0,10 3,22l15,51H241L222,52q-9-29-29.5-44.5T149-8Q128-8 113,5.5T98,43q0,10 3,22l15,51H87q-25,0-39,15.5T34,175q0,27 14,41t39,14h62l34,116H127q-25,0-39,15.5T74,405q0,27 14,41t39,14h89l19,66q8,29 28.5,43.5T307,584t38.5-12.5T361,538q0-9-3-18l-17-60H458l19,66q8,29 28.5,43.5T549,584t38.5-12.5T603,538q0-9-3-18l-17-60h46q52,0 52-55q0-28-13.5-43.5T629,346H549Zm-124,0H307L274,230H391l34,116Z"/>
      <glyph unicode="$" glyph-name="dollar" horiz-adv-x="524" d="M312,325q49-19 81.5-37t55-49T471,163q0-70-54.5-115T271-4l-12-98q-2-15-14.5-23.5T216-134q-15,0-24.5,8.5T184-102L197-2Q124,8 81.5,46T39,136q0,35 18,54t43,19t37-14t17-44q3-23 17.5-38.5T210,91l20,150q-46,18-78.5,37.5t-54,52T76,411q0,74 56,120t142,52l12,100q1,15 13,23t27,8t25.5-8.5T360,683L346,580q64-10 101-44t37-85q0-34-17.5-50.5T423,384q-21,0-34.5,13T374,432q-3,42-40,55L312,325ZM191,419q0-21 14-36.5T245,353l17,138q-34-5-52.5-24T191,419ZM282,88q35,5 54,21.5T355,152q0,20-14.5,35T298,215L282,88Z"/>
      <glyph unicode="%" glyph-name="percent" horiz-adv-x="896" d="M701,691q0-23-13-45L325,28Q306-4 274-4q-21,0-37,16T221,53q0,23 16,51L476,512q-53-20-106-22q-19-61-63.5-97.5T207,356q-50,0-86,24.5T67,445T49,531q0,64 24.5,113.5T140,722t94,28q64,0 103-44.5T382,597q67,4 123.5,33.5T591,706q27,44 60,44q21,0 35.5-17T701,691ZM217,446q21,0 38,18t24,53q-22,20-34,49.5T233,625q0,16 3,34q-2,1-8,1q-30,0-49.5-30.5T159,539q0-46 16.5-69.5T217,446Zm505-56q52,0 88-24.5T864,301t18-86q0-63-24.5-113t-67-78T696-4T608.5,20.5T555,85t-18,86q0,64 24,114t66,77.5T722,390ZM705,86q28,0 47.5,31T772,207q0,46-16.5,69.5T716,300q-30,0-49.5-30.5T647,179q0-48 16.5-70.5T705,86Z"/>
      <glyph unicode="&amp;" glyph-name="ampersand" horiz-adv-x="851" d="M808,304q-64-98-155-173l87-96q23-24 23-50q0-25-20-41.5T690-73q-46,0-70,28L536,54Q418-5 310-5Q230-5 170,20T77.5,89T45,187q0,73 45.5,136.5T239,449q-58,106-58,187q0,72 30,127t83.5,85T417,878q88,0 136.5-50.5T602,689q0-73-42.5-137.5T409,420q64-87 169-205q66,59 131,149q11,16 26,22.5t37,6.5q58,0 58-33q0-21-22-56ZM410,773q-47,0-74-35.5T309,649q0-63 42-138q78,46 106,89t28,94q0,37-19,58t-56,21ZM316,105q78,0 149,34Q359,266 298,356Q185,282 185,202q0-46 35-71.5T316,105Z"/>
      <glyph unicode="&apos;" glyph-name="quotesingle" horiz-adv-x="290" d="M169,502q-25,0-41.5,13.5T114,561l20,191q10,92 87,92q66,0 66-62q0-14-5-37L242,561q-7-32-27-45.5T169,502Z"/>
      <glyph unicode="(" glyph-name="parenleft" horiz-adv-x="613" d="M328-133q-115,0-176,77T91,168q0,110 22,230t64.5,228.5T278,809Q392,954 555,954q47,0 92-15.5T722,895q17-16 17-41t-17.5-47T683,785q-10,0-23,8q-65,45-119,45q-41,0-78-22t-68-61q-53-67-91-166.5t-58-208T226,178q0-74 10.5-116.5T270,1t61-18q72,0 155,83q16,16 33,16q19,0 32.5-17T565,25q0-28-20-51q-43-48-102-77.5T328-133Z"/>
      <glyph unicode=")" glyph-name="parenright" horiz-adv-x="613" d="M102-133q-47,0-92,15.5T-65-74Q-82-58-82-33t17.5,47T-26,36q10,0 23-8Q62-17 116-17q41,0 78,22t68,61q53,67 91,166.5t58,208T431,643q0,74-10.5,116.5T387,820t-61,18q-72,0-155-83q-16-16-33-16q-19,0-32.5,17T92,796q0,28 20,51q43,48 102,77.5T329,954q115,0 176-77t61-224q0-110-22-230T479.5,194.5T379,12Q265-133 102-133Z"/>
      <glyph unicode="*" glyph-name="asterisk" horiz-adv-x="520" d="M526,773q0-21-14.5-35.5T473,720l-92-13l82-44q17-9 26-22t9-28q0-19-13-34q-16-19-39-19q-27,0-47,26l-58,73l3-93q1-28-13.5-45.5T291,503q-21,0-36,15t-15,37q0,13 6,29l34,86l-80-49q-20-11-36-11q-17,0-29.5,9T117,644q-3,9-3,19q0,22 13.5,36T166,716l95,13l-85,44q-16,8-25,21t-9,28q0,20 13,35q14,19 39,19q26,0 47-27l58-72l-3,91q-1,29 13.5,46.5T349,932q22,0 36.5-15T400,880q0-12-6-29l-35-86l81,49q21,12 37,12t28.5-9.5T523,792q3-9 3-19Z"/>
      <glyph unicode="+" glyph-name="plus" horiz-adv-x="700" d="M584,345q23,0 35-14t12-34q0-25-16.5-45.5T570,231H406L384,48q-4-26-22.5-40T319-6Q296-6 281.5,8T270,48l22,183H130q-23,0-35,14.5T83,280q0,25 16.5,45T144,345H307l22,183q3,25 21,39t41,14t39-14t13-39L421,345H584Z"/>
      <glyph unicode="," glyph-name="comma" horiz-adv-x="257" d="M64-158q-22,0-35,10T16-116q0,9 3,21Q30-49 35.5-10T41,77q0,50 23.5,77T125,181q36,0 54.5-19.5T198,109q0-35-21-93T126-97q-20-37-31.5-49T64-158Z"/>
      <glyph unicode="-" glyph-name="hyphen" horiz-adv-x="403" d="M110,246q-24-2-38.5,14T57,305q0,27 13.5,40T110,360l205,20q25,2 38.5-12.5T367,325q0-54-52-59L110,246Z"/>
      <glyph unicode="." glyph-name="period" horiz-adv-x="257" d="M117-5Q73-5 50.5,19T28,82q0,45 25.5,72T125,181q44,0 66.5-21.5T214,96q0-46-26-73.5T117-5Z"/>
      <glyph unicode="/" glyph-name="slash" horiz-adv-x="509" d="M67-5Q44-5 26.5,11.5T9,55q0,22 14,48L442,890q12,23 27.5,34T501,935q23,0 39.5-18.5T557,871q0-22-11-41L118,27Q109,11 95.5,3T67-5Z"/>
      <glyph unicode="0" glyph-name="zero" horiz-adv-x="543" d="M256-5Q158-5 104.5,59T51,242q0,101 31.5,178.5t88,120.5T302,584q98,0 151.5-64T507,337q0-101-31.5-178.5T387.5,38T256-5Zm10,112q54,0 85,60t31,163q0,69-23,105.5T292,472q-54,0-85-60.5T176,248q0-69 22.5-105T266,107Z"/>
      <glyph unicode="1" glyph-name="one" horiz-adv-x="376" d="M196-5q-25,0-44,15T133,57l1,11q11,103 26.5,214.5T187,454l-78-22l-12-2q-19,0-30,15T56,479l1,9q2,19 12,31t38.5,24T193,569l42,10q23,5 38,5q29,0 43.5-15T331,527q0-12-3-26q-16-78-61-444Q259-5 196-5Z"/>
      <glyph unicode="2" glyph-name="two" horiz-adv-x="560" d="M476,112q21,0 32-14t11-35q0-26-16.5-46.5T458-4Q410-4 315,3q-19,1-70,4t-80,3q-13,0-38-9q-5-1-19.5-5T83-8Q67-8 56.5,6.5T46,50q0,32 15,49.5T108,131q68,30 128.5,76.5t97,100.5T370,411q0,39-17.5,57.5T297,487q-44,0-70.5-24T200,396q0-59-59-59q-28,0-43.5,16T82,399q0,50 26,92t78,67.5T313,584q90,0 141-45t51-125q0-76-66.5-159T247,108l229,4Z"/>
      <glyph unicode="3" glyph-name="three" horiz-adv-x="520" d="M355,285q51-7 85.5-42T475,155q0-51-31-87T360.5,13.5T246-5Q137-5 82.5,33T28,128q0,33 16,51.5T87,198q23,0 34.5-11.5T141,147q7-27 29-41t68-14q44,0 72.5,16.5T339,159q0,35-27,51.5T228,229q-21,1-31.5,14.5T186,276q0,24 8.5,34.5T224,325q66,10 95.5,38.5T349,432q0,55-76,55q-84,0-99-66q-7-27-20.5-38.5T116,371q-27,0-41.5,15.5T60,428q0,40 28,76t79.5,58T288,584q96,0 147-37t51-110q0-48-36.5-89.5T355,285Z"/>
      <glyph unicode="4" glyph-name="four" horiz-adv-x="577" d="M499,225q53,0 53-45q0-36-20-50t-63-14H448l-4-53q-3-46-19.5-62T371-15q-53,0-53,65q0,11 1,17l5,49q-145,0-220,1q-22,0-39,20T48,189q0,19 7,40Q99,357 187,520q19,35 38.5,49.5T286,584q22,0 33.5-10T331,548q0-17-10-34Q223,335 183,225H337q12,93 33,177q8,31 26,47.5T446,466q51,0 51-44q0-13-2-20q-18-85-32-177h36Z"/>
      <glyph unicode="5" glyph-name="five" horiz-adv-x="518" d="M284,477q-29,0-42-1q-13-44-29-120q129-7 196-53t67-125q0-52-26.5-93.5T372,19T252-5Q159-5 102.5,31T46,128q0,33 15.5,51.5T105,198q22,0 34-11.5T159,147q17-61 103-61q37,0 61,22.5T347,164q0,88-187,94q-40,1-57.5,13T85,308q0,12 3,25l11,48q6,29 20,89h-2q-20,0-32,9.5T73,506q0,49 48,64q45,14 162,14q84,0 122-2.5t59-7.5q20-5 28-13.5t8-25.5q0-34-13.5-48.5T441,472q-16,0-62,2q-84,3-95,3Z"/>
      <glyph unicode="6" glyph-name="six" horiz-adv-x="541" d="M320,485q-58,0-94.5-45.5T180,304q26,30 59,42.5T312,359q50,0 89.5-21T463,279.5T485,196q0-57-26.5-102.5t-77-72T262-5Q159-5 104.5,59.5T50,238q0,102 34.5,180.5t98,122T331,584q77,0 126.5-35.5T514,455l1-11q0-26-16.5-40.5T452,389q-22,0-35.5,11.5T393,440q-8,21-26.5,33T320,485ZM282,259q-43,0-67-24t-24-64q0-36 20-57t56-21q40,0 64.5,25.5T356,185q0,34-20,54t-54,20Z"/>
      <glyph unicode="7" glyph-name="seven" horiz-adv-x="497" d="M481,582q16,0 26.5-14.5T518,524q0-27-11-40.5T479.5,459T456,443Q350,370 308.5,276T258,75q-4-42-22.5-61T189-5T142,14.5T123,83q0,57 21.5,125.5t69,136.5T334,466L88,462q-21,0-32,14T45,511q0,26 16.5,46.5T106,578q49,0 143-7q19-1 70-4t80-3q13,0 38,9q5,1 19.5,5t24.5,4Z"/>
      <glyph unicode="8" glyph-name="eight" horiz-adv-x="512" d="M378,297q98-50 98-134q0-50-28.5-88T367,16T246-5Q149-5 94.5,33T40,139q0,43 26,79t84,67q-36,24-54.5,57.5T77,413q0,80 60,125.5T300,584q85,0 136.5-37T488,447q0-46-26-82.5T378,297ZM292,487q-42,0-67-17.5T200,419q0-45 76-80q51,25 71.5,47T368,432q0,55-76,55ZM251,92q47,0 74,16t27,44q0,22-23.5,42T242,242q-46-21-64-43t-18-48q0-28 24.5-43.5T251,92Z"/>
      <glyph unicode="9" glyph-name="nine" horiz-adv-x="541" d="M293,584q103,0 157.5-64.5T505,341q0-102-34.5-180.5t-98-122T224-5Q147-5 97.5,30.5T41,124l-1,11q0,26 16.5,40.5T103,190q22,0 35.5-11.5T162,139q8-21 26.5-33T235,94q58,0 94.5,45.5T375,275q-26-30-59-42.5T243,220q-50,0-89.5,21T92,299.5T70,383q0,57 26.5,102.5t77,72T293,584ZM273,320q43,0 67,24t24,64q0,36-20,57t-56,21q-40,0-64.5-25.5T199,394q0-34 20-54t54-20Z"/>
      <glyph unicode=":" glyph-name="colon" horiz-adv-x="257" d="M117-5Q73-5 50.5,19T28,82q0,45 25.5,72T125,181q44,0 66.5-21.5T214,96q0-46-26-73.5T117-5Zm35,285q-44,0-66.5,24T63,367q0,45 25.5,72T160,466q44,0 66.5-21.5T249,381q0-46-26-73.5T152,280Z"/>
      <glyph unicode=";" glyph-name="semicolon" horiz-adv-x="257" d="M64-158q-22,0-35,10T16-116q0,9 3,21Q30-49 35.5-10T41,77q0,50 23.5,77T125,181q36,0 54.5-19.5T198,109q0-35-21-93T126-97q-20-37-31.5-49T64-158Zm88,438q-44,0-66.5,24T63,367q0,45 25.5,72T160,466q44,0 66.5-21.5T249,381q0-46-26-73.5T152,280Z"/>
      <glyph unicode="&lt;" glyph-name="less" horiz-adv-x="700" d="M117,224q-17,6-26,21t-9,34q0,24 14,46.5T133,356L579,511q12,4 24,4q21,0 33-14t12-34q0-19-11.5-35.5T602,407L252,289L572,170q17-6 26-19t9-28q0-23-16.5-41.5T549,63q-11,0-24,5L117,224Z"/>
      <glyph unicode="=" glyph-name="equal" horiz-adv-x="700" d="M144,346q-23,0-35,14.5T97,395q0,25 16.5,45T158,460H598q23,0 35-14t12-34q0-25-16.5-45.5T584,346H144ZM116,116q-23,0-35,14.5T69,165q0,25 16.5,45T130,230H570q23,0 35-14t12-34q0-25-16.5-45.5T556,116H116Z"/>
      <glyph unicode="&gt;" glyph-name="greater" horiz-adv-x="700" d="M136,68q-12-4-24-4Q91,64 79,78T67,112q0,19 11.5,35.5T113,172L463,290L143,409q-17,6-26,19t-9,28q0,23 16.5,41.5T166,516q11,0 24-5L598,355q17-6 26-21t9-34q0-24-14-46.5T582,223L136,68Z"/>
      <glyph unicode="?" glyph-name="question" horiz-adv-x="476" d="M191,234q-18,0-29,10.5T152,279q4,63 30,112t87,110q57,56 82,95t25,81q0,69-77,69q-46,0-70-20.5T205,674l1-41q0-17-12.5-29.5T154,591q-31,0-47.5,18.5T90,662q0,50 24.5,91.5T189,820t123,25q99,0 153.5-42.5T520,680q0-63-32-114T392,460q-54-46-82-75t-40.5-50.5T249,285q-7-26-22.5-38.5T191,234ZM153-5Q109-5 86.5,19T64,82q0,45 25.5,72T161,181q44,0 66.5-21.5T250,96q0-46-26-73.5T153-5Z"/>
      <glyph unicode="@" glyph-name="at" horiz-adv-x="1015" d="M504-288q-149,0-253.5,56.5T92.5-78T39,139q0,156 64.5,293t193,222T606,739q111,0 196-41T935,576.5T983,381T943.5,178T840.5,42.5T708-5Q606-5 576,79q-19-39-51.5-61.5T451-5Q384-5 346.5,39.5T309,158q0,80 37,151.5t98.5,115T575,468q22,0 29.5-8.5T617,429q21,4 44,4q49,0 49-35q0-21-15-100q-23-115-23-160q0-17 11-28t36-11q33,0 68,37.5t58.5,103T869,383q0,120-73.5,183T594,629q-137,0-233-67T217,384.5T169,144Q169-3 253.5-91.5T508-180q78,0 154.5,20.5T821-96q13,7 25,7q20,0 33-15.5T892-142q0-16-8-30.5T859-197q-72-44-166.5-67.5T504-288ZM481,96q22,0 42,26t29,69l37,184q-42-1-77.5-31.5T455,263T434,157q0-31 12.5-46T481,96Z"/>
      <glyph unicode="A" glyph-name="A" horiz-adv-x="786" d="M300-5Q231-5 175.5,29T88,127.5T56,280q0,152 65,281.5t192,208T618,848q46,0 98.5-7T812,820q28-8 28-40q0-26-19.5-49T775,708q-8,0-12,1q-52,12-89,17.5T596,732q-127,0-216-61.5T247,508T203,290q0-85 33.5-131.5T324,112q61,0 107,50t84,162t75,304q6,28 24,38t48,10q71,0 71-46q0-8-3-20q-26-97-47.5-214.5T661,217q0-54 16-78.5T726,114q32,0 61,21.5T860,209q12,14 27,14q13,0 20.5-12t7.5-33q0-39-19-62q-49-59-96-90T685-5Q615-5 572,35.5T518,150Q444-5 300-5Z"/>
      <glyph unicode="B" glyph-name="B" horiz-adv-x="827" d="M868,640q0-85-60-146.5T633,405q62-17 94-55.5T759,261q0-79-49.5-137T565,34.5T336,3q-50,0-80,3q-1-28-24-42T173-50T123.5-34T112,13q9,140 35,293.5T213,603q7,25 28,35t55,10q61,0 61-34q0-14-6-32q-26-78-52-211.5T262,116q48-4 78-4q140,0 205.5,40.5T611,256q0,44-37.5,74T448,363q-20,1-28,10t-8,29q0,29 12,47t44,19q71,2 128.5,21T687,542.5T720,623q0,58-57,91.5T488,748q-107,0-207-27.5T111,651q-32-19-54-19q-18,0-27.5,12.5T20,676q0,25 10.5,43T81,760q84,48 197,75t231,27q181,0 270-61t89-161Z"/>
      <glyph unicode="C" glyph-name="C" horiz-adv-x="686" d="M453-5Q334-5 246,38.5T111,162T64,348q0,147 55.5,261T270,785.5T481,848q108,0 164-55.5T701,646q0-61-21.5-98T618,511q-28,0-44,13t-16,38q0,9 4,33q6,30 6,48q0,91-97,91q-66,0-126-43T248,564.5T211,366q0-120 67-185.5T476,115q65,0 131.5,16.5T755,182q15,6 25,6q16,0 24-12t8-31q0-61-66-90Q675,24 598.5,9.5T453-5Z"/>
      <glyph unicode="D" glyph-name="D" horiz-adv-x="836" d="M308-5Q250-5 177,5q-40,5-55,21T109,78q7,99 33,244.5T205,603q7,25 28,35t55,10q61,0 61-34q0-14-6-32q-26-80-52-214.5T254,111q30-3 68-3q175,0 261.5,106T670,497q0,119-68,184T410,746q-80,0-158.5-25T110,655q-13-9-28-9q-17,0-27,14.5T45,696q0,24 8,39.5T80,764q69,47 162,71.5T421,860q122,0 211-42.5T769,693t48-198q0-151-60-263.5T582,57T308-5Z"/>
      <glyph unicode="E" glyph-name="E" horiz-adv-x="686" d="M755,182q15,6 25,6q16,0 24-12t8-31q0-30-14.5-51T748,56Q689,28 595,11.5T410-5Q284-5 199,23.5T72.5,102T31,215q0,86 55.5,146.5T250,449q-59,17-90.5,60T128,605q0,72 45.5,127.5T296,818t169,30q124,0 186-53.5T713,656q0-59-21.5-95.5T630,524q-28,0-44,12.5T570,574q0,17 5,37q5,33 5,45q0,36-27,58.5T463,737q-85,0-136-36t-51-97q0-47 38.5-77.5T440,493q22-1 31-10t9-30q0-66-60-67q-83-2-137.5-23t-79-53.5T179,240q0-62 58-93.5T421,115q83,0 175.5,19.5T755,182Z"/>
      <glyph unicode="F" glyph-name="F" horiz-adv-x="712" d="M887,829q28-4 38.5-17T936,778q0-69-74-64l-35,3q-59,5-117.5,8T587,728H542q-12-148-25-270l172,3q37,0 49.5-13T751,413q0-34-20-53.5T674,340H503l-6-43Q476,132 407.5,62T219-8Q151-8 94,21.5T10,93Q-1,110-1,134t11.5,42T39,194q12,0 23.5-8T92,155q48-63 119-63q57,0 95.5,46.5T356,285l6,55H314q-23,0-39.5,13T258,390q0,31 16,47.5T321,454q28,0 55,1q12,110 26,267q-108-10-152-35t-44-74q0-34 20-65q6-9 6-18q0-18-20-31.5T167,485q-27,0-46,16q-12,10-23,41T87,611q0,124 127.5,180T587,847q170,0 300-18Z"/>
      <glyph unicode="G" glyph-name="G" horiz-adv-x="811" d="M892,221q13,0 20.5-12.5T920,177q0-23-7-36t-22-23Q832,79 703-10Q664-217 602-336T445-455q-51,0-83,31.5T330-341q0,47 21,95t78.5,111T592,9l3,19Q516-5 440-5Q328-5 243,38.5T111,162T64,348q0,148 56,261.5t154.5,176T495,848q117,0 175.5-54.5T729,649q0-59-21.5-94.5T646,519q-27,0-43.5,13T586,568q0,10 4,34q6,28 6,44q0,42-25.5,65T485,734q-73,0-135.5-42T249,566.5T211,366q0-120 65.5-185.5T466,115q69,0 144,31l14,122H522q-28,0-43,13.5T464,326q0,28 15,44t40,16H706q22,0 36.5-14.5T754,330q-3-32-20-145l-11-76q80,60 146,104q13,8 23,8ZM456-358q26,0 57,59t58,190q-76-65-109.5-117.5T428-319q0-39 28-39Z"/>
      <glyph unicode="H" glyph-name="H" horiz-adv-x="873" d="M974,223q13,0 20.5-12t7.5-33q0-39-19-62Q884-5 772-5Q675-5 617,70T559,285q0,34 3,68q-66-12-144-18q-52-4-71-5Q327,228 291,80Q270-7 211-7q-64,0-64,58q0,13 5,36q34,137 54,232l-48-2q-33,0-48,11.5T95,366q0,33 19,48.5T177,432l53,2q26,141 26,215q0,47-14,64t-37,17q-70,0-158-117q-13-17-29-17Q4,596-6,609t-10,33q0,31 25,66q44,61 111,100.5T256,848q65,0 100.5-44.5T392,665q0-83-24-225l98,5q63,3 108,10q18,110 55,206t92,156t123,60q50,0 79-39.5T952,734q0-248-253-344q-3-40-3-83q0-105 26-149t73-44q41,0 75,21.5T947,209q12,14 27,14ZM839,790q-22,0-46.5-40T746,641T711,490q80,33 118,94t38,157q0,23-8,36t-20,13Z"/>
      <glyph unicode="I" glyph-name="I" horiz-adv-x="495" d="M494,842q26,0 44-12.5T556,799q0-32-20-51.5T479,728q-58,0-88-1q-2-12-18-108q-18-107-22-131L330,357q-22-147-35-246q21,1 57,1q53,0 72-14t19-42q0-26-20.5-44T365-6q-25,0-79,2q-50,2-66,2Q157-2 82-13q-33-5-47-5Q13-18-2-6T-17,29q0,36 32,56t90,21l47,1l3,22q24,160 35,226l22,131q20,116 36,239l-84-1q-36,0-49.5,11.5T101,768q0,68 98,73q46,2 112,2l183-1Z"/>
      <glyph unicode="J" glyph-name="J" horiz-adv-x="743" d="M766,767q0-30-12.5-45T713,707q-2-21-9-73q-10-70-11-78Q604-107 322-107q-83,0-129.5,47T146,58q0,127 108,224.5T538,444q11,71 17,127l18,151q-60,6-112,6q-139,0-205-27t-66-88q0-30 20-65q6-10 6-21q0-21-21.5-37.5T148,473q-32,0-49,27Q71,546 71,607q0,240 420,240q122,0 218-24q57-14 57-56ZM335,0q49,0 98,74t86,259Q275,226 275,71q0-34 16-52.5T335,0Z"/>
      <glyph unicode="K" glyph-name="K" horiz-adv-x="937" d="M1038,223q13,0 20.5-12t7.5-33q0-39-19-62q-48-58-97-89.5T834-5Q760-5 713,38.5T625,174q-30,66-49.5,98.5t-38.5,46T489,335l-11-74Q457,118 396.5,55T230-8Q161-8 107.5,25.5T33,111q-7,18-7,39q0,30 14,52t36,22q13,0 22-6.5T115,195q31-58 54.5-81T228,91q40,0 68.5,36.5T337,240l14,95H335q-23,0-36,13t-13,36q0,26 13.5,41.5T333,441h33q7,49 10,68l31,225q-26,3-49,3q-85,0-129-29.5T185,623q0-25 5.5-40.5T205,548q4-8 4-18q0-22-20.5-38.5T143,475q-32,0-47,28Q66,556 66,617q0,63 34.5,115T205,815.5T378,847q45,0 82.5-5T543,823q49-15 49-56q0-55-47-55L506,443q117,12 190.5,100.5T819,784q9,28 30.5,43T904,842q28,0 43.5-12.5T963,794q0-7-4-23Q909,606 816,509T613,380q38-9 62.5-27T717,308.5T756,235q31-66 58-93.5T877,114q32,0 61,21.5t73,73.5q12,14 27,14Z"/>
      <glyph unicode="L" glyph-name="L" horiz-adv-x="673" d="M774,223q13,0 20.5-12t7.5-33q0-39-19-62Q727,49 674.5,22T548-5Q496-5 452,8T345,47Q288,72 235,88Q184-5 82-5Q26-5-7.5,20.5T-41,86q0,49 47,81.5T131,200h13l18,291q6,100 36,165t83,111q46,40 105,60.5T511,848q108,0 166-56t58-146q0-61-22-98.5T652,510q-28,0-44,13.5T592,562q0,9 4,33q6,28 6,50q0,42-24.5,66.5T503,736q-88,0-136-57.5T306,498L283,271q-5-48-13-83q64-11 160-35q56-14 86-20t53-6q58,0 99.5,19.5T747,209q12,14 27,14Z"/>
      <glyph unicode="M" glyph-name="M" horiz-adv-x="1232" d="M232-5q-37,0-53,16.5T163,74q0,31 6.5,79.5T191,287q26,157 41,272q9,72 9,120q0,45-33,45q-26,0-62.5-26.5T65,613q-14-19-31-19q-14,0-24.5,13.5T-1,638q0,16 6.5,32.5T27,708q48,67 107,103.5T252,848q55,0 84.5-35T366,711q0-27-5-63.5T352,588t-6-32q57,163 128,227.5T630,848q65,0 102.5-46T770,672q0-33-9-82q50,138 117,198t154,60q70,0 107.5-45T1177,677q0-44-13-107l-61-286q-10-50-10-86q0-42 19.5-63t54.5-21q33,0 64.5,22t74.5,73q12,14 27,14q13,0 20.5-12t7.5-33q0-39-19-62q-52-63-103-92T1132-5q-85,0-133,50.5T951,181q0,59 24,171l40,183q2,9 7,32t8,43.5t3,40.5q0,35-13.5,52.5T981,721q-47,0-98.5-60.5T784.5,460T709,96q-7-60-24.5-80.5T628-5q-34,0-49.5,16T563,71q0,41 11,107.5T602,335q46,242 46,312q0,38-14.5,56T590,721q-49,0-101-55.5t-101.5-197T305,86q-7-51-20.5-71T232-5Z"/>
      <glyph unicode="N" glyph-name="N" horiz-adv-x="884" d="M232-5q-37,0-53,16.5T163,74q0,31 6,75t21,133q2,12 16,97.5T231,559q10,80 10,120q0,45-33,45q-25,0-62.5-26.5T65,613q-14-19-31-19q-14,0-24.5,13.5T-1,638t6,32.5T27,708q49,67 109,103.5T262,848q55,0 82.5-34T372,715q0-58-16-168q50,148 127,224.5T664,848q82,0 123.5-46.5T829,677q0-44-13-107L755,284q-10-50-10-86q0-42 19.5-63T819,114q33,0 64.5,22T958,209q12,14 27,14q13,0 20.5-12t7.5-33q0-39-19-62Q942,53 891,24T784-5Q699-5 651,45.5T603,181q0,33 5.5,72T627,352l40,183q2,9 7,32t8,43.5t3,40.5q0,32-18,51t-51,19q-60,0-120-64T385,450.5T305,86q-7-51-20.5-71T232-5Z"/>
      <glyph unicode="O" glyph-name="O" horiz-adv-x="816" d="M380-5Q291-5 219.5,35T106,152.5T64,338q0,152 55.5,268t151,179T482,848q89,0 160.5-40T756,690.5T798,505q0-152-55.5-268T591.5,58T380-5Zm10,118q78,0 137.5,48T619,294.5T651,488q0,119-50,180.5T472,730q-77,0-136-47.5t-92-133T211,355q0-119 50-180.5T390,113Z"/>
      <glyph unicode="P" glyph-name="P" horiz-adv-x="805" d="M823,596q0-85-44-156T651,324T451,271L408,30Q383-109 272-109q-61,0-112.5,36T77,37T46,219q0,203 65.5,344.5t176,212T531,846q94,0 159.5-33t99-89.5T823,596ZM469,374q205,26 205,213q0,66-43.5,107.5T496,736q-103,0-179.5-65t-118-180.5T157,227q0-62 12.5-110t32-74.5T239,16q25,0 38,69l33,189q-39,6-34,5q-30,5-39,18.5T228,332q0,22 12.5,35T275,380q10,0 15-1q24-4 37-5q13,78 37,209q6,34 27.5,48.5T442,646q33,0 47.5-12.5T504,594q0-16-2-26L469,374Z"/>
      <glyph unicode="Q" glyph-name="Q" horiz-adv-x="816" d="M860-96q10,0 15.5-10.5T881-134q0-32-17-63q-34-62-89.5-95.5T661-326q-59,0-99,18.5t-68,55T440-156q-27,62-44.5,92.5T359-19T310,1Q199,23 131.5,111T64,338q0,152 55.5,268t151,179T482,848q89,0 160.5-40T756,690.5T798,505q0-126-38-227T655,110T501,15q25-14 43.5-41T584-104q23-56 49.5-80T699-208q33,0 64,22.5T833-112q12,16 27,16ZM390,113q78,0 137.5,48T619,294.5T651,488q0,119-50,180.5T472,730q-76,0-135.5-48.5T244,548T211,355q0-119 50-180.5T390,113Z"/>
      <glyph unicode="R" glyph-name="R" horiz-adv-x="880" d="M981,223q13,0 20.5-12t7.5-33q0-39-19-62q-48-58-97-89.5T777-5Q712-5 666.5,30T580,150q-33,68-52,100.5T490.5,297T445,314q-4-21-23-132q-8-50-10-61q-10-61-40-93.5T281-5Q214-5 162.5,34.5T83,144.5T55,305q0,168 58.5,290t164,186.5T521,846q96,0 161-29t96.5-80T810,622q0-56-26.5-109.5T704,418T575,357q48-13 74-42t52-85q28-60 55.5-88T820,114q32,0 61,21.5T954,209q12,14 27,14ZM307,315q-34,0-46.5,16T248,367q0,24 15.5,38T299,419h25q16,98 30,169q13,65 84,65q57,0 57-51q0-11-1-17L464,419q54,3 98.5,26t71,64T660,602q0,63-43,99T491,737q-98,0-171.5-48.5T205,544.5T164,312q0-64 13-110t32-69t36-23q13,0 21.5,13T280,165l27,150Z"/>
      <glyph unicode="S" glyph-name="S" horiz-adv-x="693" d="M327-8Q194-8 114,42.5T34,197q0,55 19,84t56,29q27,0 44-14t17-36q0-20-3-35q0-4-1.5-14T164,190q0-45 45.5-67T337,101q85,0 133,30.5T518,217q0,34-22,58.5t-55,41T348,357q-77,30-125.5,57t-83,73.5T105,603q0,72 38.5,128t111,87T425,849q73,0 134-21.5T656.5,762T693,654q0-63-19-95t-56-32q-26,0-43.5,16T557,581q0,19 3,35q3,30 3,38q0,42-41,64T420,740q-86,0-131.5-31.5T243,620q0-38 23.5-65T325,510t98-43q76-31 122-56t78.5-68T656,237q0-118-89.5-181.5T327-8Z"/>
      <glyph unicode="T" glyph-name="T" horiz-adv-x="697" d="M841,830q31-6 46.5-21T903,774q0-33-18.5-48T826,714q-90,7-140.5,9.5T553,727q-37-184-68-370q-11-68-23-157.5T446,55q-2-29-24-44.5T369-5q-33,0-51,16T300,53q0,24 7.5,79.5T325,249q11,61 17,106q11,76 25,151t28,142q3,15 7,34.5t9,43.5q-98-3-154-16t-79.5-36.5T154,613q0-34 20-65q4-7 4-15q0-19-22.5-35.5T109,481q-17,0-28,10q-20,17-33,48.5T35,611q0,85 55.5,136.5t169,75.5T551,847q110,0 175.5-4T841,830Z"/>
      <glyph unicode="U" glyph-name="U" horiz-adv-x="890" d="M332-5Q248-5 205,41.5T162,166q0,44 13,107l62,286q2,8 9.5,44t7.5,78q0,24-9.5,36T219,729q-30,0-70-28.5T65,613q-14-19-31-19q-14,0-24.5,13.5T-1,638q0,31 28,70Q129,848 266,848q61,0 95.5-37T396,702q0-51-7-94T365,491L324,308q-2-9-7-32t-8-43.5T306,192q0-32 18-51t51-19q60,0 121.5,64t114,206.5T692,757q7,51 20.5,71T765,848q35,0 52-21t17-68q0-27-6.5-71T808,565q-27-153-43-281q-8-58-8-86q0-41 18.5-62.5T825,114q33,0 64.5,22T964,209q12,14 27,14q13,0 20.5-12t7.5-33q0-39-19-62Q948,53 897,24T790-5Q707-5 663,37.5T619,148q0,38 16,148Q585,149 508.5,72T332-5Z"/>
      <glyph unicode="V" glyph-name="V" horiz-adv-x="763" d="M864,432q23,0 33.5-10T908,396q0-26-15.5-46T844,329q-80-2-142,12Q631,192 530.5,93.5T329-5Q225-5 174,116T123,443q0,176 25,316q9,52 25.5,70.5T230,848q66,0 66-57q0-6-2-22q-30-180-30-326q0-153 25.5-232.5T366,131q52,0 113,72T591,384q-61,38-92,98.5T468,622t24.5,133.5t67,81.5T654,864q64,0 101.5-46T793,692q0-115-50-251q53-9 121-9ZM569,629q0-98 63-145q39,112 39,185q0,42-11,61.5T630,750q-27,0-44-31.5T569,629Z"/>
      <glyph unicode="W" glyph-name="W" horiz-adv-x="1217" d="M1318,432q23,0 33.5-10t10.5-26q0-26-15.5-46T1298,329q-79-1-142,12Q1086,192 987.5,93.5T793-5Q705-5 661,88.5T611,339Q551,165 475.5,80T315-5Q219-5 170,114.5T121,436q0,147 26,323q7,50 25.5,69.5T231,848q30,0 46.5-13T294,787q0-7-2-27q-30-205-30-349q0-134 23-207t62-73q35,0 84.5,73.5t98.5,218T613,767q8,46 29.5,63.5T701,848q31,0 45.5-13.5T761,794q0-16-2-25q-28-163-28-326q0-111 7.5-177t29-100.5T830,131q48,0 107,72.5T1045,384q-61,38-92,98.5T922,622t24.5,133.5t67,81.5t94.5,27q64,0 101.5-46T1247,692q0-113-49-251q51-9 120-9ZM1023,629q0-98 63-145q39,112 39,185q0,42-11,61.5T1084,750q-27,0-44-31.5T1023,629Z"/>
      <glyph unicode="X" glyph-name="X" horiz-adv-x="712" d="M813,223q13,0 20.5-12t7.5-33q0-39-19-62q-49-58-97-89.5T618-5Q529-5 483.5,48T410,203L376,327L140,35Q120,10 99,2.5T50-5T3.5,5.5T-15,35q0,25 29,57L338,461L306,578q-23,82-51,115t-64,33q-53,0-124-77q-12-13-27-13T14.5,647.5T4,677q0,30 29,65q41,48 89,77t114,29q71,0 117-44.5T426,660l20-70L621,803q20,24 41,34t51,10q27,0 42.5-10T771,809q0-24-27-55L484,454l57-204q15-53 27-81t29.5-41.5T644,114q31,0 64.5,22T786,209q12,14 27,14Z"/>
      <glyph unicode="Y" glyph-name="Y" horiz-adv-x="851" d="M908,224q6,2 18,2q34,0 34-44q0-24-10.5-40.5T917,121q-91-17-179-38l-3-24Q707-138 623.5-232.5T415-327q-83,0-128.5,40.5T241-183Q241-78 335,4T620,149l20,141q4,24 10,64Q603,230 530,169T367,108q-86,0-131,52.5T191,296q0,37 8,81.5T224,498q15,69 22.5,110t7.5,73q0,48-37,48q-29,0-68.5-28.5T65,613q-14-19-31-19q-14,0-24.5,13.5T-1,638q0,31 28,70Q129,848 266,848q61,0 95.5-37T396,702q0-52-9.5-106.5T358,457q-12-50-18-80.5T334,326q0-51 18-73t63-22q54,0 110.5,59.5T627.5,471T693,767q5,44 23,62.5T768,848q70,0 70-70q0-12-1-19q-21-149-39-269q-10-72-21.5-148T754,188q73,20 154,36ZM605,44Q363-40 363-160q0-28 17.5-46.5T430-225q139,0 174,262l1,7Z"/>
      <glyph unicode="Z" glyph-name="Z" horiz-adv-x="721" d="M822,223q13,0 20.5-12t7.5-33q0-39-19-62Q775,49 722.5,22T596-5Q544-5 500,8T393,47q-54,23-96,37q-46-50-83-69.5T136-5Q81-5 48,20.5T15,87q0,31 20.5,57T93,185t86,15q28,0 42-1Q417,443 575,714q-86,15-175,15q-115,0-168.5-26.5T178,619q0-17 4-29t12-28q9-18 9-26q0-20-18.5-33.5T142,489q-25,0-41,15q-19,17-30.5,46.5T59,617q0,117 97,173t256,56q79,0 161.5-9T728,808q30-8 40-22.5T778,748q0-27-14-42t-39-15h-7Q610,515 499,353Q410,224 374,178q58-13 101-24q53-14 85.5-20.5T617,127q58,0 99.5,19.5T795,209q12,14 27,14Z"/>
      <glyph unicode="[" glyph-name="bracketleft" horiz-adv-x="405" d="M155-93Q67-93 67-18q0,6 2,22q43,351 113,837q8,51 31,70t81,19H434q34,0 49-14.5T498,877q0-34-15.5-49T432,813H312q-10-85-26.5-205T262,432Q222,153 209,24H314q39,0 56-12.5T387-29q0-31-18-48T309-94L155-93Z"/>
      <glyph unicode="\" glyph-name="backslash" horiz-adv-x="509" d="M392-5Q373-5 357.5,8.5T334,49L112,827q-4,15-4,30q0,34 20.5,55.5T175,934q18,0 32.5-12T229,885L456,91q3-12 3-23q0-30-20.5-51.5T392-5Z"/>
      <glyph unicode="]" glyph-name="bracketright" horiz-adv-x="405" d="M16-94q-34,0-49,14.5T-48-41Q-48-7-32.5,8T18,23H138q10,85 26.5,205T188,404q40,279 53,408H136q-39,0-56,12.5T63,865q0,31 18,48t60,17l154-1q88,0 88-75q0-6-2-22Q338,481 268-5q-8-51-31-70T156-94H16Z"/>
      <glyph unicode="^" glyph-name="asciicircum" horiz-adv-x="700" d="M196,83q-10-18-25-27t-32-9q-21,0-36,12T88,90q0,14 9,30L327,530q11,20 28.5,30.5T392,571q18,0 32.5-10.5T445,530L574,121q3-10 3-21q0-24-16.5-38.5T523,47q-15,0-27.5,9T477,83L377,415L196,83Z"/>
      <glyph unicode="_" glyph-name="underscore" horiz-adv-x="354" d="M29-114Q4-114-10-98.5T-24-55q0,27 14,41T29,0H276q52,0 52-55q0-28-13.5-43.5T276-114H29Z"/>
      <glyph unicode="`" glyph-name="grave" horiz-adv-x="600" d="M303,532q-18,0-31,17L143,715q-22,28-22,56t19.5,46T185,835q17,0 32-10t24-30l93-208q4-9 4-19q0-15-10.5-25.5T303,532Z"/>
      <glyph unicode="a" glyph-name="a" horiz-adv-x="470" d="M171-5Q109-5 72,40T35,158q0,80 37,151.5t98.5,115T301,468q22,0 29.5-8.5T343,429q21,4 44,4q49,0 49-35q0-21-15-100q-23-115-23-160q0-15 7.5-24t19.5-9q19,0 46,24.5T544,209q12,14 27,14q13,0 20.5-12t7.5-33q0-40-19-62q-41-51-87-86T404-5q-33,0-60.5,22.5T302,79Q250-5 171-5ZM207,96q22,0 42,26t29,69l37,184q-42-1-77.5-31.5T181,263T160,157q0-31 12.5-46T207,96Z"/>
      <glyph unicode="b" glyph-name="b" horiz-adv-x="473" d="M580,307q13,0 20-13t7-33q0-25-7-38.5T578,204q-60-21-132-24Q426,97 370.5,46T248-5Q147-5 101,72T55,295q0,129 32,280.5t93.5,258T327,940q46,0 74-39.5T429,798q0-82-31-163T295,465q67-5 109-55.5T454,285q47,3 112,20q6,2 14,2ZM304,841q-20,0-43.5-59.5T217,620T187,397q66,121 105.5,213.5T332,775q0,32-7.5,49T304,841ZM252,101q31,0 55,26t32,75q-31,21-47.5,55T275,329q0,14 4,38h-3q-41,0-68.5-40.5T180,218q0-57 21.5-87T252,101Z"/>
      <glyph unicode="c" glyph-name="c" horiz-adv-x="368" d="M239-5Q141-5 86.5,50.5T32,197q0,81 32,142t83,94t107,33q55,0 85.5-32.5T370,350q0-42-18.5-71T303,250q-19,0-30.5,9T261,284q0,7 2,16t3,13q5,15 5,28t-6.5,20T246,368q-23,0-43-20.5T171,292t-12-77Q159,99 260,99q41,0 88.5,27.5T442,209q12,14 27,14q13,0 20.5-12t7.5-33q0-38-19-62Q431,58 365.5,26.5T239-5Z"/>
      <glyph unicode="d" glyph-name="d" horiz-adv-x="515" d="M616,223q13,0 20.5-12t7.5-33q0-40-19-62q-41-50-90-85.5T438-5Q362-5 322,84q-42-53-73.5-71T175-5Q114-5 74.5,40.5T35,159q0,80 34,148.5t93.5,112T296,471q19,194 72.5,331.5T509,940q43,0 71.5-39T609,783q0-112-55-262T407,213q4-58 17.5-83T459,105q27,0 55,24t75,80q12,14 27,14ZM498,842q-19,0-38-67.5T427.5,598T408,370Q520,614 520,762q0,38-6.5,59T498,842ZM210,96q19,0 38,15.5T296,169q-10,54-10,121q0,24 2,78q-55-17-91.5-73.5T160,169q0-73 50-73Z"/>
      <glyph unicode="e" glyph-name="e" horiz-adv-x="393" d="M494,223q13,0 20.5-12t7.5-33q0-40-19-62Q466,71 398.5,33T254-5Q149-5 91,52T33,208q0,69 29,128.5T142.5,431T259,466q58,0 93-34.5T387,338q0-69-49.5-118.5T170,141q25-46 95-46q45,0 102.5,31.5T467,209q12,14 27,14ZM242,368q-37,0-62.5-43T154,221v-2q59,14 93,42t34,65q0,19-10.5,30.5T242,368Z"/>
      <glyph unicode="f" glyph-name="f" horiz-adv-x="371" d="M447,280q28,0 28-42q0-79-124-79q-24,0-69,9q13-62 21.5-137.5T312-94q0-108-35-165t-92-57q-72,0-102.5,102T52,94q0,192 41.5,389.5t114,327T367,940q47,0 73.5-42T467,785q0-235-281-512q-10-98-10-172q0-103 7-211.5T206-219q30,0 30,104q0,78-10.5,151T197,190q-1,13 8.5,33T229,258t25,15q20,0 48-2q9-1 21-1q40,0 89,7q8,1 17,2t18,1ZM346,841q-18,0-44.5-61T249,618.5T204,406q80,91 123,189.5T371,780q0,61-25,61Z"/>
      <glyph unicode="g" glyph-name="g" horiz-adv-x="479" d="M560,221q13,0 20.5-12.5T588,177q0-23-7-36t-22-23Q473,60 433,32L369-11q-38-207-99.5-325.5T113-455q-51,0-83,31.5T-2-341q0,71 56,152.5T264,12l6,39Q253,24 225.5,9.5T171-5Q109-5 72,40T35,158q0,80 37,151.5t98.5,115T301,468q22,0 29.5-8.5T343,429q19,4 44,4t35.5-7.5T433,396q0-12-1-19q-4-31-25-157q-4-24-8.5-52.5T389,107q77,60 148,106q13,8 23,8ZM207,96q23,0 44,28t30,80l32,171q-41-1-76-31.5T181,263T160,157q0-31 12.5-46T207,96ZM124-358q25,0 56.5,60T241-107q-77-66-111-119T96-319q0-17 6.5-28T124-358Z"/>
      <glyph unicode="h" glyph-name="h" horiz-adv-x="502" d="M603,223q13,0 20.5-12t7.5-33q0-40-19-62q-46-53-94.5-87T407-5q-51,0-77,29.5T304,110q0,28 14,100q13,63 13,87q0,16-11,16q-13,0-37-33.5T235,191T196,75Q177-5 102-5Q72-5 62.5,16.5T53,94q0,32 1,51l1,80q0,154 31.5,321t93,280.5T327,940q46,0 74.5-39.5T430,798q0-101-59-209.5T179,335q-3-52-3-107q33,85 73.5,138.5t80,76.5T402,466q65,0 65-65q0-39-22-141q-19-87-19-115q0-40 29-40q20,0 47.5,24.5T576,209q12,14 27,14ZM306,841q-18,0-40-51.5t-42.5-139T190,460q62,73 102.5,159T333,775q0,32-7,49t-20,17Z"/>
      <glyph unicode="i" glyph-name="i" horiz-adv-x="246" d="M179,532q-42,0-63,19.5T95,606t27.5,58.5T191,688q37,0 60-18t23-51q0-40-26-63.5T179,532ZM171-5Q106-5 76.5,41T47,163q0,45 11.5,115.5T88,410q9,32 24,44t48,12q51,0 51-34q0-25-19-116q-24-110-24-149q0-30 8-46t27-16q18,0 45,25t72,79q12,14 27,14q13,0 20.5-12t7.5-33q0-40-19-62Q257-5 171-5Z"/>
      <glyph unicode="j" glyph-name="j" horiz-adv-x="254" d="M155,532q-42,0-63,19.5T71,606t27.5,58.5T167,688q37,0 60-18t23-51q0-40-26-63.5T155,532ZM335,221q13,0 20.5-12.5T363,177q0-23-7-36t-22-23Q264,72 147-9Q108-217 46-336T-112-455q-52,0-83.5,31.5T-227-341q0,71 55,151.5T35,9l7,51q14,96 22,189q6,54 19,161q4,29 22,42.5T160,466q30,0 39.5-9t9.5-25q0-46-33-254l-10-69q80,60 146,104q13,8 23,8ZM-101-358q26,0 57,59T14-109Q-62-174-95.5-226.5T-129-319q0-39 28-39Z"/>
      <glyph unicode="k" glyph-name="k" horiz-adv-x="525" d="M626,223q13,0 20.5-12t7.5-33q0-40-19-62q-45-55-91-88T435-5Q358-5 311,39T264,156q0,39 40,56q44,19 63,40.5T386,305q0,18-7.5,27T360,341q-27,0-59.5-39T240,201.5T196,75q-11-47-25.5-63.5T125-5T79.5,17.5T60,87T55,225q0,154 31.5,321t93,280.5T327,940q46,0 74.5-39.5T430,798q0-101-59-209.5T179,335q-3-52-3-107q48,125 110,181.5T402,466q50,0 80.5-34T513,348q0-55-28-101t-96-82q4-27 24.5-43.5T463,105q31,0 60,24t76,80q12,14 27,14ZM306,841q-18,0-40-51.5t-42.5-139T190,460q62,73 102.5,159T333,775q0,32-7,49t-20,17Z"/>
      <glyph unicode="l" glyph-name="l" horiz-adv-x="326" d="M427,223q13,0 20.5-12t7.5-33q0-40-19-62q-43-53-93.5-87T228-5Q140-5 97.5,75T55,282q0,122 31.5,278t93,268T326,940q48,0 75.5-44.5T429,768q0-119-66-276T184,181q7-41 23-58.5T249,105q41,0 72,23.5T400,209q12,14 27,14ZM304,841q-23,0-52-83T201,552T177,316q71,117 113,234.5T332,765q0,76-28,76Z"/>
      <glyph unicode="m" glyph-name="m" horiz-adv-x="744" d="M119-5Q81-5 65.5,35T50,163q0,130 37,247q9,29 29.5,42.5T174,466q20,0 28-5t8-19q0-16-15-72q-10-40-16-69.5T169,227q27,78 64.5,132t77,80.5T385,466t49.5-16T449,401q0-32-19-116q-8-36-11-54q50,123 111,179t114,56q65,0 65-65q0-39-22-141q-19-87-19-115q0-40 29-40q20,0 47.5,24.5T818,209q12,14 27,14q13,0 20.5-12t7.5-33q0-40-19-62q-43-53-92.5-87T649-5q-51,0-77,29.5T546,110q0,28 14,100q13,63 13,87q0,16-11,16q-13,0-37-33.5T477,191T438,75q-11-48-25.5-64T366-5q-33,0-49.5,31.5T300,103q0,38 10,110q8,64 8,84q0,16-11,16q-15,0-38-36t-44.5-92T190,75q-11-47-25.5-63.5T119-5Z"/>
      <glyph unicode="n" glyph-name="n" horiz-adv-x="496" d="M119-5Q81-5 65.5,35T50,163q0,130 37,247q9,29 29.5,42.5T174,466q20,0 28-5t8-19q0-16-15-72q-10-40-16-70t-10-74q33,86 74,140t80.5,77T396,466q65,0 65-65q0-39-22-141q-19-87-19-115q0-40 29-40q20,0 47.5,24.5T570,209q12,14 27,14q13,0 20.5-12t7.5-33q0-40-19-62q-43-53-92.5-87T401-5q-51,0-77,29.5T298,110q0,28 14,100q13,63 13,87q0,16-11,16q-13,0-36.5-33.5t-48-88.5T190,75q-11-47-25.5-63.5T119-5Z"/>
      <glyph unicode="o" glyph-name="o" horiz-adv-x="451" d="M558,307q13,0 20-13t7-33q0-48-29-57q-60-21-132-24Q405,96 349,45.5T222-5Q162-5 119.5,24T55,101T33,205q0,76 29,135.5t80,93T255,467q76,0 122.5-52.5T432,285q47,3 112,20q8,2 14,2ZM230,101q32,0 55.5,26T317,202q-31,21-47.5,55T253,329q0,16 3,32h-5q-40,0-66.5-38.5T158,214q0-55 21.5-84T230,101Z"/>
      <glyph unicode="p" glyph-name="p" horiz-adv-x="481" d="M582,223q13,0 20.5-12t7.5-33q0-40-19-62q-43-53-92.5-87T386-5q-53,0-86,38Q243-4 181-5q-13-193-59-322.5T-13-457q-54,0-80,39t-26,108q0,98 45,228.5T65,206q0,146-2,203q-1,29 23,46t60,17q21,0 30.5-8.5T187,430q0-25 1-37q32,40 63,57.5T317,468q56,0 91.5-45T444,305q0-53-17-103t-47-91q21-6 35-6q33,0 63,24t77,80q12,14 27,14ZM186,91q36,8 66.5,39.5t48.5,78T319,306q0,30-12,45.5T275,367q-36,0-87-76q-1-44-1-129q0-46-1-71ZM-5-359q27,0 45,117.5T63,51Q20-49-5-140T-30-293q0-32 7.5-49T-5-359Z"/>
      <glyph unicode="q" glyph-name="q" horiz-adv-x="500" d="M609,192q23,0 23-31q0-39-17.5-61T567,78l-37,1q-10,1-29,1q4-57 4-114q0-151-39.5-263T342-409q-57,0-86.5,65.5T226-184q0,117 26,231Q218-5 163-5T71.5,41T35,160q0,79 37.5,150t100,114.5T306,468q24,0 37-16q9,32 27,43t50,11q34,0 45.5-10T476,467q0-12-12.5-55.5T447,354q-16-56-34.5-124T383,106Q351-54 351-177q0-46 7.5-78.5T378-288q10,0 21.5,34T419-163t8,121q0,76-7,135q-1,5-1,16q0,33 16.5,55T482,186q4,0 76,3q30,3 51,3ZM203,96q23,0 44,28.5T277,193l43,182q-44-1-80.5-31t-58-79.5T160,160q0-31 11.5-47.5T203,96Z"/>
      <glyph unicode="r" glyph-name="r" horiz-adv-x="455" d="M119-5Q81-5 65.5,35T50,163q0,130 37,247q9,29 29.5,42.5T174,466q20,0 28-5t8-19q0-16-15-72q-10-40-16-70t-10-74q33,86 74,140t80.5,77T396,466q65,0 65-65q0-13-9-63q-8-40-8-50q0-35 25-35q28,0 72,44q13,13 27,13q13,0 20.5-11.5T596,268q0-37-20-58q-28-29-65.5-49.5T431,140q-53,0-80.5,27T323,240q0,15 3,30q2,20 2,27q0,16-11,16q-15,0-39.5-33.5T229,191T190,75q-11-47-25.5-63.5T119-5Z"/>
      <glyph unicode="s" glyph-name="s" horiz-adv-x="427" d="M234-27q-52,0-79.5,24T127,51q0,26 19,45t56,19q13,0 30.5-2.5T259,109q-1,26-11.5,49T221,202.5T191,240q-31-59-61.5-98T63,68Q45,50 25,50Q9,50-1,61.5T-11,90q0,20 14,37l13,16q55,68 83,112q17,29 40,77.5T184,433q19,44 79,44q28,0 39-5t11-16q0-6-4-19t-11-26q-18-36-18-61q0-15 10.5-33T323,272q32-42 48.5-71.5T388,136q0-10-2-28q49,19 115,101q12,14 27,14q13,0 20.5-12t7.5-33q0-38-19-62q-50-62-95.5-84.5T329,7q-40-34-95-34Z"/>
      <glyph unicode="t" glyph-name="t" horiz-adv-x="393" d="M494,223q13,0 20.5-12t7.5-33q0-40-19-62q-43-53-94-87T292-5Q88-5 88,282q0,44 3,89H52q-30,0-40.5,11T1,417q0,56 45,56h57q17,110 52,201t84.5,145T346,873q42,0 66-37t24-93q0-155-130-270H418q16,0 23-7t7-26q0-69-113-69H213q-2-50-2-78q0-104 24.5-146T313,105q43,0 76,26t78,78q12,14 27,14ZM319,777q-15,0-33.5-37.5t-35-104T223,488q59,51 88.5,114.5T341,718q0,59-22,59Z"/>
      <glyph unicode="u" glyph-name="u" horiz-adv-x="462" d="M150-5Q105-5 76.5,36.5T48,140q0,75 10,137.5T91,410q10,30 28,43t57,13q22,0 30.5-7t8.5-21q0-8-11-54q-10-37-16-67q-20-105-20-140q0-21 5-29.5t16-8.5q15,0 37.5,30t48,91T324,410q8,30 24.5,43T398,466q23,0 32-5.5t9-20.5q0-25-25-137q-28-128-28-158q0-19 8-29.5T415,105q20,0 47.5,24.5T536,209q12,14 27,14q13,0 20.5-12t7.5-33q0-40-19-62q-43-53-92.5-87T367-5q-48,0-70.5,37T274,136Q257,68 223,31.5T150-5Z"/>
      <glyph unicode="v" glyph-name="v" horiz-adv-x="449" d="M543,304q3,1 10,1q15,0 23-10t8-27q0-31-12-48.5T536,194q-46-15-98-15q-44,0-83,12q-29-47-64-97q-40-57-69-78T156-5Q115-5 91.5,27T62,128Q50,268 50,373v35q1,33 18,46t51,13q26,0 38.5-11.5T170,417q0-115 14-299q60,89 90,142q-15,29-15,69q0,34 15,66t41,52t59,20q29,0 47-20.5T439,387q0-45-24-103q38,2 101,15l27,5Z"/>
      <glyph unicode="w" glyph-name="w" horiz-adv-x="700" d="M794,304q3,1 10,1q15,0 23-10t8-27q0-31-12-48.5T787,194q-46-15-98-15q-44,0-83,12q-29-47-64-97q-40-57-68.5-78T409-5q-40,0-60.5,31T323,128l-5,73q-31-84-55.5-128t-49-61T156-5Q115-5 91.5,27T62,128Q50,268 50,373v35q1,33 18,46t51,13q26,0 38.5-11.5T170,417q0-115 14-299q68,143 125,298q11,30 26.5,40.5T373,467q27,0 37.5-11T421,417q0-115 14-299q60,89 90,142q-15,29-15,69q0,34 15,66t41,52t59,20q29,0 47-20.5T690,387q0-45-24-103q38,2 101,15l27,5Z"/>
      <glyph unicode="x" glyph-name="x" horiz-adv-x="529" d="M630,223q13,0 20.5-12t7.5-33q0-40-19-62q-44-52-96.5-86.5T424-5q-51,0-90.5,19T271,68Q214-4 136-4Q81-4 49,28T17,113q0,50 23,81t65,31q36,0 36-27q0-7-2-25q-3-36-3-41q0-30 26-30q19,0 36.5,22.5t29,61.5T239,272q0,36-9,60.5T208,357q-11,0-16-5.5T182,333q-6-16-16-25.5T131,298q-22,0-35,15.5T83,361q0,51 31,80t80,29q42,0 76-20.5T322,390q30,40 67.5,60T463,470q39,0 59.5-18T543,394q0-45-17-70.5T485,298q-22,0-30,9t-12,26q-2,12-6,18t-14,6q-12,0-25.5-22.5t-23-59.5T365,198q0-47 22.5-72.5T449,100t73.5,26.5T603,209q12,14 27,14Z"/>
      <glyph unicode="y" glyph-name="y" horiz-adv-x="479" d="M560,221q13,0 20.5-12.5T588,177q0-23-7-36t-22-23L367-11q-38-207-99.5-325.5T111-455q-51,0-83,31.5T-4-341q0,47 21.5,96t80,112.5T263,13l3,23q7,37 16,106Q262,70 226,32.5T150-5Q105-5 76.5,36.5T48,140q0,75 10,137.5T91,410q10,30 28,43t57,13q22,0 30.5-7t8.5-21q0-8-11-54q-10-37-16-67q-8-41-14-78.5T168,177q0-38 21-38q15,0 37.5,30t48,91T324,410q8,30 24.5,43T398,466q23,0 32-6t9-20q0-25-26-172L387,107q77,58 150,106q13,8 23,8ZM122-358q25,0 56,58t62,193q-77-65-111.5-118.5T94-319q0-17 6.5-28T122-358Z"/>
      <glyph unicode="z" glyph-name="z" horiz-adv-x="445" d="M547,223q13,0 20.5-12t7.5-33q0-37-19-62Q509,55 439.5,20T283-15Q215-15 165,5.5t-76.5,56T62,141q0,66 53,117t152,98l-164-4q-22-1-33.5,15.5T58,407q0,24 11.5,42.5T101,468q46,0 123-7q16-1 58.5-4t71.5-3q10,0 38,8q5,1 19.5,5t24.5,4q16,0 26.5-14T473,414q0-32-15-50t-47-32q-91-39-151-83.5T200,160q0-28 26-46t77-18q56,0 113.5,28T520,209q12,14 27,14Z"/>
      <glyph unicode="{" glyph-name="braceleft" horiz-adv-x="490" d="M478,930q55,0 78-13t23-50q0-20-16.5-34T517,819q-49,0-77-9.5T399.5,780T384,726q-3-41-16-137l-3-27q-12-93-100-130q64-30 64-115q0-10-2-34l-9-62q-12-88-14-110q-1-7-1-19q0-41 24-57t86-16q28,0 45-15t17-37q0-31-25-46.5T365-95Q265-95 217.5-48T170,85q0,27 2,41q3,27 6.5,50.5T184,220l9,72q1,6 1,17q0,34-21.5,49.5T105,374q-27,0-41,19.5T53,440q7,53 61,53q55,0 83,19.5T232,581q1,5 15,119l6,53q12,89 70.5,133T478,930Z"/>
      <glyph unicode="|" glyph-name="bar" horiz-adv-x="326" d="M86-307q-27,0-42.5,12.5T31-252Q53-63 111,315q4,28 23,149.5t33,226T191,882q3,29 23,41t47,12q61,0 55-53q-13-113-29-226.5t-31.5-213T236,315Q178-63 156-252q-3-30-23-42.5T86-307Z"/>
      <glyph unicode="}" glyph-name="braceright" horiz-adv-x="490" d="M435,492q27,0 41-19.5T487,426q-7-53-61-53q-55,0-83-19.5T308,285q-6-46-19-155l-6-48Q271-7 212.5-51T58-95Q3-95-20-82T-43-32q0,20 16.5,34T19,16q49,0 77,9.5T136.5,55T152,109q4,57 19,161l4,34q12,93 100,130q-64,30-64,115q0,10 2,34q7,52 8,55q8,54 11,86q1,7 1,19q0,41-24,57t-86,16q-28,0-45,15T61,868q0,31 25,46.5T171,930q100,0 147.5-47T366,750q0-27-2-41q-2-21-9-74q-1-9-8-61q-1-6-1-17q0-34 21.5-49.5T435,492Z"/>
      <glyph unicode="~" glyph-name="asciitilde" horiz-adv-x="700" d="M478,165q-19,0-34,6.5T395,198L237,291l-55-79q-11-15-27.5-24T121,179q-19,0-32,11.5T76,223q0,33 42,97q27,42 54.5,61.5T233,401q19,0 36-7t49-26l158-93l55,79q11,15 27.5,24t33.5,9q19,0 32-11.5T637,343q0-33-42-97q-28-42-56-61.5T478,165Z"/>
      <glyph unicode="&#xa0;" glyph-name="uni00A0" horiz-adv-x="265"/>
      <glyph unicode="&#xa1;" glyph-name="exclamdown" horiz-adv-x="340" d="M210,278q-44,0-66.5,21.5T121,363q0,46 26,73.5T218,464q44,0 66.5-24T307,377q0-45-25.5-72T210,278ZM38-386q-35,0-49.5,10T-26-346q0,9 3,21Q3-219 46-68.5T128,193q11,32 52,32q20,0 33-9t13-28l-1-8Q208,69 179-74.5T125-322q-8-33-29.5-48.5T38-386Z"/>
      <glyph unicode="&#xa2;" glyph-name="cent" horiz-adv-x="466" d="M407,189q13,0 20.5-11.5T435,148q0-36-17-62Q365,4 254-4l-11-98q-2-15-14-23.5T203-134t-23,8.5T173-102L187,0Q123,16 83.5,70.5T44,197q0,66 25.5,119.5T140,403t102,41l12,101q1,15 12.5,23t25.5,8q15,0 24.5-8.5T324,545L310,444q60-7 89-37.5T428,330q0-42-18.5-71T361,230q-19,0-30.5,9T319,264q0,7 2,16t3,13q5,15 5,28t-6.5,20T298,351L280,222L265,93q34,3 59.5,22T380,174q12,15 27,15ZM160,202q0-69 41-96l15,116l15,124q-36-13-53.5-50.5T160,202Z"/>
      <glyph unicode="&#xa3;" glyph-name="sterling" horiz-adv-x="525" d="M339,488q-44,0-77.5-41T222,324l-1-16l151,4q13,0 20-10t7-24q0-18-10-32.5T362,231l-147,1L205,115l259,7q21,1 32-14t11-37q0-27-16.5-48.5T446,1q-27,0-79.5,3T292,8q-98,7-142,7q-15,0-32-5T98,4Q73-5 58-5Q42-5 31.5,10.5T21,55q0,32 15.5,48.5T83,126l9,106l-35-1q-14,0-21.5,10.5T28,267q0,17 9.5,30.5T64,310l34-1l3,31q10,114 75.5,179T346,584q53,0 93.5-18.5T502,515t22-71q0-29-15-45t-43-16q-46,0-63,57q-14,48-64,48Z"/>
      <glyph unicode="&#xa4;" glyph-name="currency" horiz-adv-x="700" d="M193,64q-11-11-26-11q-17,0-31,13.5T122,97q0,15 12,27l51,51q-34,53-34,114q0,62 33,112l-51,51q-11,11-11,26q0,17 13.5,31T166,523q14,0 26-12l51-51q51,35 114,35q61,0 114-34l51,50q11,11 26,11q17,0 30.5-14T592,477q0-14-11-25l-51-51q33-50 33-112q0-61-34-114l51-51q12-12 12-27q0-17-14-30.5T547,53q-15,0-26,11l-52,52Q419,83 357,83T245,116L193,64ZM357,171q53,0 84,34.5T472,289t-31,83.5T357,407t-84-34.5T242,289t31-83.5T357,171Z"/>
      <glyph unicode="&#xa5;" glyph-name="yen" horiz-adv-x="497" d="M484,581q22,0 37.5-8T537,548q0-19-20-46L344,270l86,1q13,0 20.5-8.5T458,242q0-15-9.5-26T422,205l-109,1l-4-41l112,1q13,0 20.5-8.5T449,137q0-15-10-27T412,99l-110,2l-6-55Q290-5 226-5Q196-5 179.5,7T163,43l1,10l6,47L66,98q-13,0-20,7.5T39,125q0,15 10,27.5T75,165l103-1l5,43L76,206q-13,0-20,8t-7,20q0,15 9.5,27T84,272l87-2L51,484q-16,27-16,51t17.5,36T97,583q43,0 63-38L266,337L411,546q14,20 30.5,27.5T484,581Z"/>
      <glyph unicode="&#xa6;" glyph-name="brokenbar" horiz-adv-x="326" d="M185,394q-24,0-40,10.5T129,438q0,7 1,11l61,433q4,29 23.5,41T261,935q56,0 56-43q0-6-1-10L255,449q-4-30-23.5-42.5T185,394ZM86-307q-24,0-40,10T30-263q0,7 1,11L92,181q4,29 23.5,41T162,234q56,0 56-43q0-6-1-10L156-252q-4-30-23.5-42.5T86-307Z"/>
      <glyph unicode="&#xa7;" glyph-name="section" horiz-adv-x="607" d="M489,604q-20,0-33,12t-13,29q0,9 2,25t2,29q0,55-77,55q-46,0-72-21.5T272,673q0-27 16-46t40.5-32.5T406,558q72-32 101.5-67T537,399q0-42-19.5-75.5T465,266q34-39 34-97q0-83-60.5-128.5T277-5Q183-5 126.5,32T70,147q0,41 18,62.5T141,231q20,0 33-10.5T187,194l-1-26q-2-16-2-27q0-28 29-42t71-14q47,0 72,17.5T381,152q0,24-12,39.5T337,217t-60,25q-75,28-119,67.5T114,421q0,88 72,142q-32,40-32,98q0,54 27,95.5T258,821t116,23q91,0 138.5-37.5T560,699q0-49-16.5-72T489,604ZM424,381q0,29-25,47.5T319,473q-51,25-69,35q-24-24-24-63q0-34 24.5-55T322,348l20-9q24-9 48-21q34,23 34,63Z"/>
      <glyph unicode="&#xa8;" glyph-name="dieresis" horiz-adv-x="600" d="M203,532q-32,0-50,17.5T135,604q0,40 21.5,62.5T214,689q32,0 50-17.5T282,617q0-40-21.5-62.5T203,532Zm208,0q-32,0-50,17.5T343,604q0,40 21.5,62.5T422,689q32,0 50-17.5T490,617q0-40-21.5-62.5T411,532Z"/>
      <glyph unicode="&#xa9;" glyph-name="copyright" horiz-adv-x="647" d="M374,353q-84,0-150,39T120.5,497.5T83,644t37.5,146.5T224,896t150,39t150-39T627.5,790.5T665,644T627.5,497.5T524,392T374,353Zm0,66q66,0 115,30.5t75,82T590,644T564,756.5t-75,82T374,869T259,838.5t-75-82T158,644t26-112.5t75-82T374,419Zm-7,57q-63,0-103,41.5T224,630q0,54 23.5,98t63,69T398,822q47,0 71-22.5T493,740q0-55-44-55q-12,0-18.5,5.5T424,706q0,4 2.5,16t2.5,17q0,12-8,19.5T398,766q-44,0-74-37t-30-92q0-46 21.5-74T376,535q26,0 48,10t45,31q8,6 12,6q7,0 10.5-7t3.5-17q0-17-11-31q-45-51-117-51Z"/>
      <glyph unicode="&#xaa;" glyph-name="ordfeminine" horiz-adv-x="393" d="M192,450q-52,0-83,37.5T78,586q0,67 31.5,126.5t84,96T307,845q19,0 25-7t10-26q12,3 35,3q49,0 49-38q0-17-9-67q-9-53-14-98t-5-102q0-33-14-46.5T336,450q-31,0-44.5,17T281,522q-26-72-89-72Zm33,85q23,0 41.5,32.5T301,683l16,84q-34-1-63-26.5t-46.5-67T190,585q0-25 9.5-37.5T225,535Z"/>
      <glyph unicode="&#xab;" glyph-name="guillemotleft" horiz-adv-x="615" d="M64,171q-37,31-37,66q0,21 7,39t21,27L214,411q18,12 36,12q23,0 39.5-16.5T306,369q0-24-23-40L154,240L284,129q15-12 15-30q0-21-20.5-39T234,42q-18,0-29,10L64,171Zm266,0q-38,32-38,66q0,21 7,39t21,27L480,411q18,12 36,12q23,0 39.5-16T572,370q0-25-24-41L419,240L549,129q15-12 15-30q0-21-20.5-39T499,42q-18,0-29,10L330,171Z"/>
      <glyph unicode="&#xac;" glyph-name="logicalnot" horiz-adv-x="700" d="M603,78q-3-23-21-35T541,31q-26,0-44.5,15T482,86l20,145H130q-23,0-35,14.5T83,280q0,25 16.5,45T144,345H565q31,0 47.5-17T629,284q0-9-1-14L603,78Z"/>
      <glyph unicode="&#xad;" glyph-name="uni00AD" horiz-adv-x="403" d="M110,246q-24-2-38.5,14T57,305q0,27 13.5,40T110,360l205,20q25,2 38.5-12.5T367,325q0-54-52-59L110,246Z"/>
      <glyph unicode="&#xae;" glyph-name="registered" horiz-adv-x="647" d="M374,353q-84,0-150,39T120.5,497.5T83,644t37.5,146.5T224,896t150,39t150-39T627.5,790.5T665,644T627.5,497.5T524,392T374,353Zm0,66q66,0 115,30.5t75,82T590,644T564,756.5t-75,82T374,869T259,838.5t-75-82T158,644t26-112.5t75-82T374,419Zm75,59q-17,0-26.5,6t-17,18.5T381,552q-16,33-25.5,45T331,610q-10-53-15-102q-2-16-8.5-22.5T285,479q-14,0-23.5,7T252,504q0,16 11,78l7,44l9,53q3,12 4.5,24t3.5,23q-1-11 7,47l-15-6q-8-4-14.5,1.5T258,783q0,13 14,23q14,9 39,14.5t51,5.5q63,0 98.5-26.5T496,731q0-36-26.5-66T388,625q20-5 31-16t24-33l11-20q13-23 21-34q7-10 7-20t-11-17t-22-7ZM340,656q43,1 65.5,21T428,730q0,24-16.5,35.5T359,777q-13-75-16-97l-3-24Z"/>
      <glyph unicode="&#xaf;" glyph-name="macron" horiz-adv-x="600" d="M189,532q-22,0-33.5,11T144,574q0,24 14,38t39,14H420q22,0 33.5-10.5T465,587q0-26-14-40.5T412,532H189Z"/>
      <glyph unicode="&#xb0;" glyph-name="degree" horiz-adv-x="385" d="M242,536q-38,0-71,17t-53.5,50T97,682q0,49 22.5,86.5t58.5,57T255,845q38,0 71.5-17t54-50.5T401,699q0-50-22.5-87t-59-56.5T242,536Zm4,85q27,0 45.5,20.5T310,695q0,29-17.5,47T251,760q-26,0-45-20t-19-53q0-30 18-48t41-18Z"/>
      <glyph unicode="&#xb1;" glyph-name="plusminus" horiz-adv-x="700" d="M554,425q23,0 35-14t12-34q0-25-16.5-45.5T540,311H417L404,208q-4-26-22.5-40T339,154q-23,0-37.5,14T290,208l13,103H180q-23,0-35,14.5T133,360q0,25 16.5,45T194,425H316l13,103q3,25 21.5,39T392,581q24,0 39.5-14T443,528L430,425H554ZM515,114q23,0 35-14t12-34q0-25-16.5-45.5T501,0H141q-23,0-35,14.5T94,49q0,25 16.5,45T155,114H515Z"/>
      <glyph unicode="&#xb2;" glyph-name="uni00B2" horiz-adv-x="450" d="M417,457q17,0 26.5-12.5T453,414q0-23-14-41t-37-18q-20,0-59,2t-60,3q-94,6-125,6q-7,0-18-3t-15-4q-24-8-36-8q-13,0-22,12.5T58,400q0,26 13,40.5T110,467q57,25 105,64t77,84t29,86q0,28-13.5,43T268,759q-37,0-59-19t-22-52q0-49-49-49q-24,0-37,13T88,691q0,41 22,76.5T175.5,824T281,845q75,0 117.5-38T441,703q0-62-52.5-129.5T237,454l180,3Z"/>
      <glyph unicode="&#xb3;" glyph-name="uni00B3" horiz-adv-x="450" d="M342,596q42-6 71.5-35T443,487q0-63-55-98T252,354q-91,0-136.5,31.5T70,465q0,27 13,42.5T119,523q19,0 27.5-9T164,481q7-19 25-30t56-11q31,0 54,13t23,38q0,28-21,41t-64,17q-17,1-26,12.5T202,588q0,20 7,29t25,12q51,9 74,32.5T331,718q0,19-14.5,30T274,759q-68,0-82-50q-7-23-18-32.5T144,667q-23,0-35,13T97,715q0,33 23,63t66.5,48.5T287,845q80,0 122.5-31T452,722q0-40-30.5-74.5T342,596Z"/>
      <glyph unicode="&#xb4;" glyph-name="acute" horiz-adv-x="600" d="M303,532q-14,0-24.5,10.5T268,568q0,7 5,19l93,208q9,20 23.5,29.5T422,834q25,0 44.5-18T486,771q0-28-22-56L335,549q-13-17-32-17Z"/>
      <glyph unicode="&#xb5;" glyph-name="uni00B5" horiz-adv-x="462" d="M86-265q-28,0-43,11T28-216Q28,6 45,166Q60,316 91,410q10,30 28,43t57,13q22,0 30.5-7t8.5-21q0-8-11-54q-10-37-16-67q-20-105-20-140q0-21 5-29.5t16-8.5q15,0 37.5,30t48,91T324,410q8,30 24.5,43T398,466q23,0 32-5.5t9-20.5q0-25-25-137q-28-128-28-158q0-19 8-29.5T415,105q20,0 47.5,24.5T536,209q12,14 27,14q13,0 20.5-12t7.5-33q0-40-19-62q-43-53-92.5-87T367-5q-48,0-70.5,37T274,136Q258,69 225,33T151-5q-2-53-2-126l1-76q0-32-19-45T86-265Z"/>
      <glyph unicode="&#xb6;" glyph-name="paragraph" horiz-adv-x="739" d="M304-5q-36,0-51.5,15.5T237,55q0,32 9.5,97.5T275,329l4,26q3,25 11,61q1,11 5,31q-38,0-84,21t-78.5,63T100,632q0,106 89,162t241,56q91,0 148.5-9t90-35.5T701,729q0-19-24-159l-14-82L641,357q-11-67-22.5-155.5T603,65q-3-37-21-53.5T530-5q-67,0-67,60q0,32 9.5,97.5T501,329l4,26l23,131q9,54 26,181q1,4 1,12q0,37-33,37H479q-16-69-42-228L415,357q-11-67-22.5-155.5T377,65q-3-37-21-53.5T304-5Z"/>
      <glyph unicode="&#xb7;" glyph-name="periodcentered" horiz-adv-x="257" d="M136,147q-44,0-66.5,24T47,234q0,45 25.5,72T144,333q44,0 66.5-21.5T233,248q0-46-26-73.5T136,147Z"/>
      <glyph unicode="&#xb8;" glyph-name="cedilla" horiz-adv-x="600" d="M159-250q-38,0-62,5q-39,7-39,44q0,45 40,45q8,0 13-1q27-4 53-4q40,0 62.5,16.5T249-94q0,25-21.5,39.5T169-40q-26,0-40,7T115-9q0,6 1,9q4,20 16,29.5T169,39h26q69,0 110-33t41-92q0-47-22.5-84.5t-65-58.5T159-250Z"/>
      <glyph unicode="&#xb9;" glyph-name="uni00B9" horiz-adv-x="450" d="M261,353q-23,0-39,14.5T209,414q9,86 22,179t22,143L148,705q-8-2-11-2q-16,0-25,15.5T105,752q2,15 12,25.5t42,23T258,831l35,9q17,5 37,5q50,0 50-49q0-5-2-21q-13-64-51-370q-6-52-66-52Z"/>
      <glyph unicode="&#xba;" glyph-name="ordmasculine" horiz-adv-x="408" d="M242,451q-52,0-87.5,24.5T101,540T83,626q0,64 24,114t66,77.5T268,845q52,0 88-24.5T410,756t18-86q0-63-24.5-113t-67-78T242,451Zm9,90q28,0 47.5,31T318,662q0,46-16.5,69.5T262,755q-30,0-49.5-30.5T193,634q0-48 16.5-70.5T251,541Z"/>
      <glyph unicode="&#xbb;" glyph-name="guillemotright" horiz-adv-x="615" d="M136,54q-18-12-36-12Q77,42 60.5,58T44,95q0,25 24,41l129,89L67,336q-15,12-15,30q0,21 20.5,39T117,423q18,0 29-10L286,294q38-32 38-66q0-21-7-39t-21-27L136,54Zm266,0q-18-12-36-12q-23,0-39.5,16.5T310,96q0,24 23,40l129,89L332,336q-15,12-15,30q0,21 20.5,39T382,423q18,0 29-10L552,294q37-31 37-66q0-21-7-39t-21-27L402,54Z"/>
      <glyph unicode="&#xbc;" glyph-name="onequarter" horiz-adv-x="955" d="M261,353q-23,0-39,14.5T209,414q9,86 22,179t22,143L148,705q-8-2-11-2q-16,0-25,15.5T105,752q2,15 12,25.5t42,23T258,831l35,9q17,5 37,5q50,0 50-49q0-5-2-21q-13-64-51-370q-6-52-66-52Zm77-253q-22,0-39,16t-17,40q0,17 12,38L595,691q22,37 54,37q21,0 37-17t16-40q0-16-9-31L381,126q-16-26-43-26Zm548,86q23,0 33-10t10-30q0-31-16.5-43.5T860,90H848q-2-14-4-44Q842,8 827-5.5T778-19q-44,0-44,54l1,14l4,41q-44,1-143,1q-19,0-34.5,17.5T546,153q0,17 5,31q34,100 110,243q15,29 32,41t54,12q18,0 27.5-8t9.5-22q0-12-8-28l-18-33q-36-69-57.5-113T662,186h88q12,86 27,142q7,27 22,40.5T841,382q47,0 47-37q0-5-2-17q-15-69-26-142h26Z"/>
      <glyph unicode="&#xbd;" glyph-name="onehalf" horiz-adv-x="1024" d="M261,353q-23,0-39,14.5T209,414q9,86 22,179t22,143L148,705q-8-2-11-2q-16,0-25,15.5T105,752q2,15 12,25.5t42,23T258,831l35,9q17,5 37,5q50,0 50-49q0-5-2-21q-13-64-51-370q-6-52-66-52Zm77-253q-22,0-39,16t-17,40q0,17 12,38L595,691q22,37 54,37q21,0 37-17t16-40q0-16-9-31L381,126q-16-26-43-26Zm609-8q17,0 26.5-12.5T983,49q0-23-14-41T932-10q-20,0-59,2T813-5Q719,1 688,1q-7,0-18-3T655-6q-24-8-36-8q-13,0-22,12.5T588,35q0,26 13,40.5T640,102q57,25 105,64t77,84t29,86q0,28-13.5,43T798,394q-37,0-59-19t-22-52q0-49-49-49q-24,0-37,13t-13,39q0,41 22,76.5T705.5,459T811,480q75,0 117.5-38T971,338q0-62-52.5-129.5T767,89l180,3Z"/>
      <glyph unicode="&#xbe;" glyph-name="threequarters" horiz-adv-x="1035" d="M342,596q42-6 71.5-35T443,487q0-63-55-98T252,354q-91,0-136.5,31.5T70,465q0,27 13,42.5T119,523q19,0 27.5-9T164,481q7-19 25-30t56-11q31,0 54,13t23,38q0,28-21,41t-64,17q-17,1-26,12.5T202,588q0,20 7,29t25,12q51,9 74,32.5T331,718q0,19-14.5,30T274,759q-68,0-82-50q-7-23-18-32.5T144,667q-23,0-35,13T97,715q0,33 23,63t66.5,48.5T287,845q80,0 122.5-31T452,722q0-40-30.5-74.5T342,596Zm76-496q-22,0-39,16t-17,40q0,17 12,38L675,691q22,37 54,37q21,0 37-17t16-40q0-16-9-31L461,126q-16-26-43-26Zm548,86q23,0 33-10t10-30q0-31-16.5-43.5T940,90H928q-2-14-4-44Q922,8 907-5.5T858-19q-44,0-44,54l1,14l4,41q-44,1-143,1q-19,0-34.5,17.5T626,153q0,17 5,31q34,100 110,243q15,29 32,41t54,12q18,0 27.5-8t9.5-22q0-12-8-28l-18-33q-36-69-57.5-113T742,186h88q12,86 27,142q7,27 22,40.5T921,382q47,0 47-37q0-5-2-17q-15-69-26-142h26Z"/>
      <glyph unicode="&#xbf;" glyph-name="questiondown" horiz-adv-x="476" d="M315,279q-44,0-66.5,21.5T226,364q0,46 26,73.5T323,465q44,0 66.5-24T412,378q0-45-25.5-72T315,279ZM164-385q-99,0-153.5,42.5T-44-220q0,63 32,114T84,0q54,46 82,75t40.5,50.5T227,175q7,26 22.5,38.5T285,226q18,0 29-10.5T324,181q-4-63-30-112T207-41q-57-56-82-95t-25-81q0-69 77-69q46,0 70,20.5T271-214l-1,41q0,17 12.5,29.5T322-131q31,0 47.5-18.5T386-202q0-50-24.5-91.5T287-360T164-385Z"/>
      <glyph unicode="&#xc0;" glyph-name="Agrave" horiz-adv-x="786" d="M300-5Q231-5 175.5,29T88,127.5T56,280q0,152 65,281.5t192,208T618,848q46,0 98.5-7T812,820q28-8 28-40q0-26-19.5-49T775,708q-8,0-12,1q-52,12-89,17.5T596,732q-127,0-216-61.5T247,508T203,290q0-85 33.5-131.5T324,112q61,0 107,50t84,162t75,304q6,28 24,38t48,10q71,0 71-46q0-8-3-20q-26-97-47.5-214.5T661,217q0-54 16-78.5T726,114q32,0 61,21.5T860,209q12,14 27,14q13,0 20.5-12t7.5-33q0-39-19-62q-49-59-96-90T685-5Q615-5 572,35.5T518,150Q444-5 300-5ZM587,912q-12,0-21,5l-187,97q-53,28-53,71q0,26 19,44.5t45,18.5q24,0 44-17L606,984q19-16 19-36q0-15-11-25.5T587,912Z"/>
      <glyph unicode="&#xc1;" glyph-name="Aacute" horiz-adv-x="786" d="M300-5Q231-5 175.5,29T88,127.5T56,280q0,152 65,281.5t192,208T618,848q46,0 98.5-7T812,820q28-8 28-40q0-26-19.5-49T775,708q-8,0-12,1q-52,12-89,17.5T596,732q-127,0-216-61.5T247,508T203,290q0-85 33.5-131.5T324,112q61,0 107,50t84,162t75,304q6,28 24,38t48,10q71,0 71-46q0-8-3-20q-26-97-47.5-214.5T661,217q0-54 16-78.5T726,114q32,0 61,21.5T860,209q12,14 27,14q13,0 20.5-12t7.5-33q0-39-19-62q-49-59-96-90T685-5Q615-5 572,35.5T518,150Q444-5 300-5ZM600,912q-16,0-27,10.5T562,948q0,20 19,36l172,147q20,17 44,17q26,0 45-18.5t19-44.5q0-43-53-71L621,917q-9-5-21-5Z"/>
      <glyph unicode="&#xc2;" glyph-name="Acircumflex" horiz-adv-x="786" d="M300-5Q231-5 175.5,29T88,127.5T56,280q0,152 65,281.5t192,208T618,848q46,0 98.5-7T812,820q28-8 28-40q0-26-19.5-49T775,708q-8,0-12,1q-52,12-89,17.5T596,732q-127,0-216-61.5T247,508T203,290q0-85 33.5-131.5T324,112q61,0 107,50t84,162t75,304q6,28 24,38t48,10q71,0 71-46q0-8-3-20q-26-97-47.5-214.5T661,217q0-54 16-78.5T726,114q32,0 61,21.5T860,209q12,14 27,14q13,0 20.5-12t7.5-33q0-39-19-62q-49-59-96-90T685-5Q615-5 572,35.5T518,150Q444-5 300-5ZM624,1093L544,951q-11-20-29-30t-37-10q-21,0-36,11.5T427,953q0,17 13,37l92,137q37,56 105,56q31,0 49.5-16t33.5-53l47-121q6-15 6-28q0-24-17-38.5T716,912q-17,0-31.5,9.5T665,948l-41,145Z"/>
      <glyph unicode="&#xc3;" glyph-name="Atilde" horiz-adv-x="786" d="M300-5Q231-5 175.5,29T88,127.5T56,280q0,152 65,281.5t192,208T618,848q46,0 98.5-7T812,820q28-8 28-40q0-26-19.5-49T775,708q-8,0-12,1q-52,12-89,17.5T596,732q-127,0-216-61.5T247,508T203,290q0-85 33.5-131.5T324,112q61,0 107,50t84,162t75,304q6,28 24,38t48,10q71,0 71-46q0-8-3-20q-26-97-47.5-214.5T661,217q0-54 16-78.5T726,114q32,0 61,21.5T860,209q12,14 27,14q13,0 20.5-12t7.5-33q0-39-19-62q-49-59-96-90T685-5Q615-5 572,35.5T518,150Q444-5 300-5ZM701,912q-16,0-30,5.5T635,938l-107,74l-44-63q-8-11-20.5-16.5T438,927q-19,0-32.5,10T392,966q0,27 37,81q44,64 97,64q17,0 30.5-5t35.5-21l107-74l44,63q8,11 20.5,16.5T789,1096q19,0 32.5-10t13.5-29q0-13-8-29.5T798,976q-20-33-45-48.5T701,912Z"/>
      <glyph unicode="&#xc4;" glyph-name="Adieresis" horiz-adv-x="786" d="M300-5Q231-5 175.5,29T88,127.5T56,280q0,152 65,281.5t192,208T618,848q46,0 98.5-7T812,820q28-8 28-40q0-26-19.5-49T775,708q-8,0-12,1q-52,12-89,17.5T596,732q-127,0-216-61.5T247,508T203,290q0-85 33.5-131.5T324,112q61,0 107,50t84,162t75,304q6,28 24,38t48,10q71,0 71-46q0-8-3-20q-26-97-47.5-214.5T661,217q0-54 16-78.5T726,114q32,0 61,21.5T860,209q12,14 27,14q13,0 20.5-12t7.5-33q0-39-19-62q-49-59-96-90T685-5Q615-5 572,35.5T518,150Q444-5 300-5ZM501,912q-32,0-51,18.5T431,986q0,41 22,64t59,23q32,0 51-18.5T582,999q0-41-22-64t-59-23Zm208,0q-32,0-51,18.5T639,986q0,41 22,64t59,23q32,0 51-18.5T790,999q0-41-22-64t-59-23Z"/>
      <glyph unicode="&#xc5;" glyph-name="Aring" horiz-adv-x="786" d="M300-5Q231-5 175.5,29T88,127.5T56,280q0,152 65,281.5t192,208T618,848q46,0 98.5-7T812,820q28-8 28-40q0-26-19.5-49T775,708q-8,0-12,1q-52,12-89,17.5T596,732q-127,0-216-61.5T247,508T203,290q0-85 33.5-131.5T324,112q61,0 107,50t84,162t75,304q6,28 24,38t48,10q71,0 71-46q0-8-3-20q-26-97-47.5-214.5T661,217q0-54 16-78.5T726,114q32,0 61,21.5T860,209q12,14 27,14q13,0 20.5-12t7.5-33q0-39-19-62q-49-59-96-90T685-5Q615-5 572,35.5T518,150Q444-5 300-5ZM611,912q-53,0-91,35.5T482,1044q0,45 19.5,78.5t52,51.5t69.5,18q53,0 91-35.5t38-96.5q0-45-19.5-78.5t-52-51.5T611,912Zm4,88q20,0 34,15t14,40q0,22-13,35.5T619,1104q-20,0-34-15t-14-40q0-22 13-35.5t31-13.5Z"/>
      <glyph unicode="&#xc6;" glyph-name="AE" horiz-adv-x="1015" d="M1091,182q9,5 20,5q14,0 22-11.5t8-29.5q0-23-9.5-41.5T1099,69q-45-32-118.5-53T839-5Q716-5 644,43.5T550,173Q471-5 312-5Q237-5 179,29T88.5,127.5T56,280q0,146 58.5,268.5T277,748.5T511,842q8,1 21,1q65,0 65-63q0-21-9.5-34.5T559,730q-114-13-194.5-74t-121-156.5T203,290q0-85 33.5-131.5T324,112q83,0 133.5,82.5T550,431l81,296q15,55 49.5,83T766,840l52,3q126,6 198,6q36,0 50-12.5t14-41.5q0-31-18-53t-54-22q-67,0-137.5-3T768,710q-24-72-58-227q46,2 66,2q107,5 181,5q30,0 41.5-12.5T1010,441q0-31-17.5-51.5T944,368l-113-3q-52-2-145-4q-11-49-11-87q0-159 187-159q52,0 106,16.5T1091,182Z"/>
      <glyph unicode="&#xc7;" glyph-name="Ccedilla" horiz-adv-x="686" d="M755,182q15,6 25,6q16,0 24-12t8-31q0-61-66-90Q617-1 466-5q30-32 30-81q0-75-51.5-121.5T305-254q-38,0-62,5q-20,4-29.5,15T204-202q0,24 10,35t30,11q8,0 13-1q27-4 53-4q40,0 62.5,16.5T395-94q0,25-21.5,39.5T315-40q-26,0-40,7T261-9q0,22 13,35Q174,65 119,149T64,348q0,147 55.5,261T270,785.5T481,848q108,0 164-55.5T701,646q0-61-21.5-98T618,511q-28,0-44,13t-16,38q0,9 4,33q6,30 6,48q0,91-97,91q-66,0-126-43T248,564.5T211,366q0-120 67-185.5T476,115q65,0 131.5,16.5T755,182Z"/>
      <glyph unicode="&#xc8;" glyph-name="Egrave" horiz-adv-x="686" d="M755,182q15,6 25,6q16,0 24-12t8-31q0-30-14.5-51T748,56Q689,28 595,11.5T410-5Q284-5 199,23.5T72.5,102T31,215q0,86 55.5,146.5T250,449q-59,17-90.5,60T128,605q0,72 45.5,127.5T296,818t169,30q124,0 186-53.5T713,656q0-59-21.5-95.5T630,524q-28,0-44,12.5T570,574q0,17 5,37q5,33 5,45q0,36-27,58.5T463,737q-85,0-136-36t-51-97q0-47 38.5-77.5T440,493q22-1 31-10t9-30q0-66-60-67q-83-2-137.5-23t-79-53.5T179,240q0-62 58-93.5T421,115q83,0 175.5,19.5T755,182ZM461,912q-12,0-21,5l-187,97q-53,28-53,71q0,26 19,44.5t45,18.5q24,0 44-17L480,984q19-16 19-36q0-15-11-25.5T461,912Z"/>
      <glyph unicode="&#xc9;" glyph-name="Eacute" horiz-adv-x="686" d="M755,182q15,6 25,6q16,0 24-12t8-31q0-30-14.5-51T748,56Q689,28 595,11.5T410-5Q284-5 199,23.5T72.5,102T31,215q0,86 55.5,146.5T250,449q-59,17-90.5,60T128,605q0,72 45.5,127.5T296,818t169,30q124,0 186-53.5T713,656q0-59-21.5-95.5T630,524q-28,0-44,12.5T570,574q0,17 5,37q5,33 5,45q0,36-27,58.5T463,737q-85,0-136-36t-51-97q0-47 38.5-77.5T440,493q22-1 31-10t9-30q0-66-60-67q-83-2-137.5-23t-79-53.5T179,240q0-62 58-93.5T421,115q83,0 175.5,19.5T755,182ZM474,912q-16,0-27,10.5T436,948q0,20 19,36l172,147q20,17 44,17q26,0 45-18.5t19-44.5q0-43-53-71L495,917q-9-5-21-5Z"/>
      <glyph unicode="&#xca;" glyph-name="Ecircumflex" horiz-adv-x="686" d="M755,182q15,6 25,6q16,0 24-12t8-31q0-30-14.5-51T748,56Q689,28 595,11.5T410-5Q284-5 199,23.5T72.5,102T31,215q0,86 55.5,146.5T250,449q-59,17-90.5,60T128,605q0,72 45.5,127.5T296,818t169,30q124,0 186-53.5T713,656q0-59-21.5-95.5T630,524q-28,0-44,12.5T570,574q0,17 5,37q5,33 5,45q0,36-27,58.5T463,737q-85,0-136-36t-51-97q0-47 38.5-77.5T440,493q22-1 31-10t9-30q0-66-60-67q-83-2-137.5-23t-79-53.5T179,240q0-62 58-93.5T421,115q83,0 175.5,19.5T755,182ZM498,1093L418,951q-11-20-29-30t-37-10q-21,0-36,11.5T301,953q0,17 13,37l92,137q37,56 105,56q31,0 49.5-16t33.5-53l47-121q6-15 6-28q0-24-17-38.5T590,912q-17,0-31.5,9.5T539,948l-41,145Z"/>
      <glyph unicode="&#xcb;" glyph-name="Edieresis" horiz-adv-x="686" d="M755,182q15,6 25,6q16,0 24-12t8-31q0-30-14.5-51T748,56Q689,28 595,11.5T410-5Q284-5 199,23.5T72.5,102T31,215q0,86 55.5,146.5T250,449q-59,17-90.5,60T128,605q0,72 45.5,127.5T296,818t169,30q124,0 186-53.5T713,656q0-59-21.5-95.5T630,524q-28,0-44,12.5T570,574q0,17 5,37q5,33 5,45q0,36-27,58.5T463,737q-85,0-136-36t-51-97q0-47 38.5-77.5T440,493q22-1 31-10t9-30q0-66-60-67q-83-2-137.5-23t-79-53.5T179,240q0-62 58-93.5T421,115q83,0 175.5,19.5T755,182ZM375,912q-32,0-51,18.5T305,986q0,41 22,64t59,23q32,0 51-18.5T456,999q0-41-22-64t-59-23Zm208,0q-32,0-51,18.5T513,986q0,41 22,64t59,23q32,0 51-18.5T664,999q0-41-22-64t-59-23Z"/>
      <glyph unicode="&#xcc;" glyph-name="Igrave" horiz-adv-x="495" d="M494,842q26,0 44-12.5T556,799q0-32-20-51.5T479,728q-58,0-88-1q-2-12-18-108q-18-107-22-131L330,357q-22-147-35-246q21,1 57,1q53,0 72-14t19-42q0-26-20.5-44T365-6q-25,0-79,2q-50,2-66,2Q157-2 82-13q-33-5-47-5Q13-18-2-6T-17,29q0,36 32,56t90,21l47,1l3,22q24,160 35,226l22,131q20,116 36,239l-84-1q-36,0-49.5,11.5T101,768q0,68 98,73q46,2 112,2l183-1ZM333,912q-12,0-21,5l-187,97q-53,28-53,71q0,26 19,44.5t45,18.5q24,0 44-17L352,984q19-16 19-36q0-15-11-25.5T333,912Z"/>
      <glyph unicode="&#xcd;" glyph-name="Iacute" horiz-adv-x="495" d="M494,842q26,0 44-12.5T556,799q0-32-20-51.5T479,728q-58,0-88-1q-2-12-18-108q-18-107-22-131L330,357q-22-147-35-246q21,1 57,1q53,0 72-14t19-42q0-26-20.5-44T365-6q-25,0-79,2q-50,2-66,2Q157-2 82-13q-33-5-47-5Q13-18-2-6T-17,29q0,36 32,56t90,21l47,1l3,22q24,160 35,226l22,131q20,116 36,239l-84-1q-36,0-49.5,11.5T101,768q0,68 98,73q46,2 112,2l183-1ZM346,912q-16,0-27,10.5T308,948q0,20 19,36l172,147q20,17 44,17q26,0 45-18.5t19-44.5q0-43-53-71L367,917q-9-5-21-5Z"/>
      <glyph unicode="&#xce;" glyph-name="Icircumflex" horiz-adv-x="495" d="M494,842q26,0 44-12.5T556,799q0-32-20-51.5T479,728q-58,0-88-1q-2-12-18-108q-18-107-22-131L330,357q-22-147-35-246q21,1 57,1q53,0 72-14t19-42q0-26-20.5-44T365-6q-25,0-79,2q-50,2-66,2Q157-2 82-13q-33-5-47-5Q13-18-2-6T-17,29q0,36 32,56t90,21l47,1l3,22q24,160 35,226l22,131q20,116 36,239l-84-1q-36,0-49.5,11.5T101,768q0,68 98,73q46,2 112,2l183-1ZM370,1093L290,951q-11-20-29-30t-37-10q-21,0-36,11.5T173,953q0,17 13,37l92,137q37,56 105,56q31,0 49.5-16t33.5-53l47-121q6-15 6-28q0-24-17-38.5T462,912q-17,0-31.5,9.5T411,948l-41,145Z"/>
      <glyph unicode="&#xcf;" glyph-name="Idieresis" horiz-adv-x="495" d="M494,842q26,0 44-12.5T556,799q0-32-20-51.5T479,728q-58,0-88-1q-2-12-18-108q-18-107-22-131L330,357q-22-147-35-246q21,1 57,1q53,0 72-14t19-42q0-26-20.5-44T365-6q-25,0-79,2q-50,2-66,2Q157-2 82-13q-33-5-47-5Q13-18-2-6T-17,29q0,36 32,56t90,21l47,1l3,22q24,160 35,226l22,131q20,116 36,239l-84-1q-36,0-49.5,11.5T101,768q0,68 98,73q46,2 112,2l183-1ZM247,912q-32,0-51,18.5T177,986q0,41 22,64t59,23q32,0 51-18.5T328,999q0-41-22-64t-59-23Zm208,0q-32,0-51,18.5T385,986q0,41 22,64t59,23q32,0 51-18.5T536,999q0-41-22-64t-59-23Z"/>
      <glyph unicode="&#xd0;" glyph-name="Eth" horiz-adv-x="821" d="M424,860q119,0 204.5-45.5t130-128T803,494q0-143-60.5-256.5T567,59.5T294-5Q228-5 155,5q-39,5-54,21T89,78q13,138 45,305H65q-50,0-50,46q0,41 29.5,58.5T138,505h23q36,155 82,293q7,20 17.5,32.5T291,848q49,12 133,12ZM307,108q117,0 195.5,51.5T618.5,297T656,489q0,129-67,194T411,748q-33,0-44-1q-33-100-67-243q29-1 91-1q64,0 86.5-13T500,448q0-31-13-49t-50-18q-32,0-110,2l-52,1q-30-150-41-273q31-3 73-3Z"/>
      <glyph unicode="&#xd1;" glyph-name="Ntilde" horiz-adv-x="884" d="M232-5q-37,0-53,16.5T163,74q0,31 6,75t21,133q2,12 16,97.5T231,559q10,80 10,120q0,45-33,45q-25,0-62.5-26.5T65,613q-14-19-31-19q-14,0-24.5,13.5T-1,638t6,32.5T27,708q49,67 109,103.5T262,848q55,0 82.5-34T372,715q0-58-16-168q50,148 127,224.5T664,848q82,0 123.5-46.5T829,677q0-44-13-107L755,284q-10-50-10-86q0-42 19.5-63T819,114q33,0 64.5,22T958,209q12,14 27,14q13,0 20.5-12t7.5-33q0-39-19-62Q942,53 891,24T784-5Q699-5 651,45.5T603,181q0,33 5.5,72T627,352l40,183q2,9 7,32t8,43.5t3,40.5q0,32-18,51t-51,19q-60,0-120-64T385,450.5T305,86q-7-51-20.5-71T232-5ZM660,912q-16,0-30,5.5T594,938l-107,74l-44-63q-8-11-20.5-16.5T397,927q-19,0-32.5,10T351,966q0,27 37,81q44,64 97,64q17,0 30.5-5t35.5-21l107-74l44,63q8,11 20.5,16.5T748,1096q19,0 32.5-10t13.5-29q0-13-8-29.5T757,976q-20-33-45-48.5T660,912Z"/>
      <glyph unicode="&#xd2;" glyph-name="Ograve" horiz-adv-x="816" d="M380-5Q291-5 219.5,35T106,152.5T64,338q0,152 55.5,268t151,179T482,848q89,0 160.5-40T756,690.5T798,505q0-152-55.5-268T591.5,58T380-5Zm10,118q78,0 137.5,48T619,294.5T651,488q0,119-50,180.5T472,730q-77,0-136-47.5t-92-133T211,355q0-119 50-180.5T390,113Zm87,794q-12,0-21,5l-187,97q-53,28-53,71q0,26 19,44.5t45,18.5q24,0 44-17L496,979q19-16 19-36q0-15-11-25.5T477,907Z"/>
      <glyph unicode="&#xd3;" glyph-name="Oacute" horiz-adv-x="816" d="M380-5Q291-5 219.5,35T106,152.5T64,338q0,152 55.5,268t151,179T482,848q89,0 160.5-40T756,690.5T798,505q0-152-55.5-268T591.5,58T380-5Zm10,118q78,0 137.5,48T619,294.5T651,488q0,119-50,180.5T472,730q-77,0-136-47.5t-92-133T211,355q0-119 50-180.5T390,113ZM490,907q-16,0-27,10.5T452,943q0,20 19,36l172,147q20,17 44,17q26,0 45-18.5t19-44.5q0-43-53-71L511,912q-9-5-21-5Z"/>
      <glyph unicode="&#xd4;" glyph-name="Ocircumflex" horiz-adv-x="816" d="M380-5Q291-5 219.5,35T106,152.5T64,338q0,152 55.5,268t151,179T482,848q89,0 160.5-40T756,690.5T798,505q0-152-55.5-268T591.5,58T380-5Zm10,118q78,0 137.5,48T619,294.5T651,488q0,119-50,180.5T472,730q-77,0-136-47.5t-92-133T211,355q0-119 50-180.5T390,113Zm124,975L434,946q-11-20-29-30t-37-10q-21,0-36,11.5T317,948q0,17 13,37l92,137q37,56 105,56q31,0 49.5-16t33.5-53l47-121q6-15 6-28q0-24-17-38.5T606,907q-17,0-31.5,9.5T555,943l-41,145Z"/>
      <glyph unicode="&#xd5;" glyph-name="Otilde" horiz-adv-x="816" d="M380-5Q291-5 219.5,35T106,152.5T64,338q0,152 55.5,268t151,179T482,848q89,0 160.5-40T756,690.5T798,505q0-152-55.5-268T591.5,58T380-5Zm10,118q78,0 137.5,48T619,294.5T651,488q0,119-50,180.5T472,730q-77,0-136-47.5t-92-133T211,355q0-119 50-180.5T390,113ZM591,907q-16,0-30,5.5T525,933l-107,74l-44-63q-8-11-20.5-16.5T328,922q-19,0-32.5,10T282,961q0,27 37,81q44,64 97,64q17,0 30.5-5t35.5-21l107-74l44,63q8,11 20.5,16.5T679,1091q19,0 32.5-10t13.5-29q0-13-8-29.5T688,971q-20-33-45-48.5T591,907Z"/>
      <glyph unicode="&#xd6;" glyph-name="Odieresis" horiz-adv-x="816" d="M380-5Q291-5 219.5,35T106,152.5T64,338q0,152 55.5,268t151,179T482,848q89,0 160.5-40T756,690.5T798,505q0-152-55.5-268T591.5,58T380-5Zm10,118q78,0 137.5,48T619,294.5T651,488q0,119-50,180.5T472,730q-77,0-136-47.5t-92-133T211,355q0-119 50-180.5T390,113Zm1,794q-32,0-51,18.5T321,981q0,41 22,64t59,23q32,0 51-18.5T472,994q0-41-22-64t-59-23Zm208,0q-32,0-51,18.5T529,981q0,41 22,64t59,23q32,0 51-18.5T680,994q0-41-22-64t-59-23Z"/>
      <glyph unicode="&#xd7;" glyph-name="multiply" horiz-adv-x="700" d="M513,498q19,16 38,16q22,0 37.5-16T604,460q0-25-21-43L437,287L551,157q12-15 12-31q0-25-21.5-45T495,61q-20,0-35,16L346,207L202,78q-19-16-39-16q-21,0-37,16t-16,37q0,24 22,43L276,287L163,416q-12,15-12,31q0,25 21,46t46,21q21,0 35-17L367,367L513,498Z"/>
      <glyph unicode="&#xd8;" glyph-name="Oslash" horiz-adv-x="816" d="M595,830q92-33 147.5-116.5T798,505q0-152-55.5-268T591.5,58T380-5h-7L352-84q-4-14-17.5-21T303-112q-22,0-39,11.5T247-70q0,5 2,13l19,70Q175,45 119.5,129T64,338q0,152 55.5,268t151,179T482,848h7l19,73q4,14 17.5,21t31.5,7q22,0 39.5-11.5T614,906q0-5-2-13l-17-63ZM211,355q0-81 24-136t66-82l86,318l71,275q-73-4-129-53.5t-87-133T211,355ZM403,113q75,4 131,53.5t86.5,133T651,488q0,81-24,136t-66,82L491,451L403,113Z"/>
      <glyph unicode="&#xd9;" glyph-name="Ugrave" horiz-adv-x="890" d="M332-5Q248-5 205,41.5T162,166q0,44 13,107l62,286q2,8 9.5,44t7.5,78q0,24-9.5,36T219,729q-30,0-70-28.5T65,613q-14-19-31-19q-14,0-24.5,13.5T-1,638q0,31 28,70Q129,848 266,848q61,0 95.5-37T396,702q0-51-7-94T365,491L324,308q-2-9-7-32t-8-43.5T306,192q0-32 18-51t51-19q60,0 121.5,64t114,206.5T692,757q7,51 20.5,71T765,848q35,0 52-21t17-68q0-27-6.5-71T808,565q-27-153-43-281q-8-58-8-86q0-41 18.5-62.5T825,114q33,0 64.5,22T964,209q12,14 27,14q13,0 20.5-12t7.5-33q0-39-19-62Q948,53 897,24T790-5Q707-5 663,37.5T619,148q0,38 16,148Q585,149 508.5,72T332-5ZM528,912q-12,0-21,5l-187,97q-53,28-53,71q0,26 19,44.5t45,18.5q24,0 44-17L547,984q19-16 19-36q0-15-11-25.5T528,912Z"/>
      <glyph unicode="&#xda;" glyph-name="Uacute" horiz-adv-x="890" d="M332-5Q248-5 205,41.5T162,166q0,44 13,107l62,286q2,8 9.5,44t7.5,78q0,24-9.5,36T219,729q-30,0-70-28.5T65,613q-14-19-31-19q-14,0-24.5,13.5T-1,638q0,31 28,70Q129,848 266,848q61,0 95.5-37T396,702q0-51-7-94T365,491L324,308q-2-9-7-32t-8-43.5T306,192q0-32 18-51t51-19q60,0 121.5,64t114,206.5T692,757q7,51 20.5,71T765,848q35,0 52-21t17-68q0-27-6.5-71T808,565q-27-153-43-281q-8-58-8-86q0-41 18.5-62.5T825,114q33,0 64.5,22T964,209q12,14 27,14q13,0 20.5-12t7.5-33q0-39-19-62Q948,53 897,24T790-5Q707-5 663,37.5T619,148q0,38 16,148Q585,149 508.5,72T332-5ZM541,912q-16,0-27,10.5T503,948q0,20 19,36l172,147q20,17 44,17q26,0 45-18.5t19-44.5q0-43-53-71L562,917q-9-5-21-5Z"/>
      <glyph unicode="&#xdb;" glyph-name="Ucircumflex" horiz-adv-x="890" d="M332-5Q248-5 205,41.5T162,166q0,44 13,107l62,286q2,8 9.5,44t7.5,78q0,24-9.5,36T219,729q-30,0-70-28.5T65,613q-14-19-31-19q-14,0-24.5,13.5T-1,638q0,31 28,70Q129,848 266,848q61,0 95.5-37T396,702q0-51-7-94T365,491L324,308q-2-9-7-32t-8-43.5T306,192q0-32 18-51t51-19q60,0 121.5,64t114,206.5T692,757q7,51 20.5,71T765,848q35,0 52-21t17-68q0-27-6.5-71T808,565q-27-153-43-281q-8-58-8-86q0-41 18.5-62.5T825,114q33,0 64.5,22T964,209q12,14 27,14q13,0 20.5-12t7.5-33q0-39-19-62Q948,53 897,24T790-5Q707-5 663,37.5T619,148q0,38 16,148Q585,149 508.5,72T332-5ZM565,1093L485,951q-11-20-29-30t-37-10q-21,0-36,11.5T368,953q0,17 13,37l92,137q37,56 105,56q31,0 49.5-16t33.5-53l47-121q6-15 6-28q0-24-17-38.5T657,912q-17,0-31.5,9.5T606,948l-41,145Z"/>
      <glyph unicode="&#xdc;" glyph-name="Udieresis" horiz-adv-x="890" d="M332-5Q248-5 205,41.5T162,166q0,44 13,107l62,286q2,8 9.5,44t7.5,78q0,24-9.5,36T219,729q-30,0-70-28.5T65,613q-14-19-31-19q-14,0-24.5,13.5T-1,638q0,31 28,70Q129,848 266,848q61,0 95.5-37T396,702q0-51-7-94T365,491L324,308q-2-9-7-32t-8-43.5T306,192q0-32 18-51t51-19q60,0 121.5,64t114,206.5T692,757q7,51 20.5,71T765,848q35,0 52-21t17-68q0-27-6.5-71T808,565q-27-153-43-281q-8-58-8-86q0-41 18.5-62.5T825,114q33,0 64.5,22T964,209q12,14 27,14q13,0 20.5-12t7.5-33q0-39-19-62Q948,53 897,24T790-5Q707-5 663,37.5T619,148q0,38 16,148Q585,149 508.5,72T332-5ZM442,912q-32,0-51,18.5T372,986q0,41 22,64t59,23q32,0 51-18.5T523,999q0-41-22-64t-59-23Zm208,0q-32,0-51,18.5T580,986q0,41 22,64t59,23q32,0 51-18.5T731,999q0-41-22-64t-59-23Z"/>
      <glyph unicode="&#xdd;" glyph-name="Yacute" horiz-adv-x="851" d="M908,224q6,2 18,2q34,0 34-44q0-24-10.5-40.5T917,121q-91-17-179-38l-3-24Q707-138 623.5-232.5T415-327q-83,0-128.5,40.5T241-183Q241-78 335,4T620,149l20,141q4,24 10,64Q603,230 530,169T367,108q-86,0-131,52.5T191,296q0,37 8,81.5T224,498q15,69 22.5,110t7.5,73q0,48-37,48q-29,0-68.5-28.5T65,613q-14-19-31-19q-14,0-24.5,13.5T-1,638q0,31 28,70Q129,848 266,848q61,0 95.5-37T396,702q0-52-9.5-106.5T358,457q-12-50-18-80.5T334,326q0-51 18-73t63-22q54,0 110.5,59.5T627.5,471T693,767q5,44 23,62.5T768,848q70,0 70-70q0-12-1-19q-21-149-39-269q-10-72-21.5-148T754,188q73,20 154,36ZM605,44Q363-40 363-160q0-28 17.5-46.5T430-225q139,0 174,262l1,7ZM554,912q-16,0-27,10.5T516,948q0,20 19,36l172,147q20,17 44,17q26,0 45-18.5t19-44.5q0-43-53-71L575,917q-9-5-21-5Z"/>
      <glyph unicode="&#xde;" glyph-name="Thorn" horiz-adv-x="776" d="M781,506q0-79-43-146T611,251T407,205q-14-79-33-175Q360-41 328-75t-88-34q-55,0-100.5,39T68,39.5T42,202q0,133 36.5,239T184,617t163,98l24,170q3,27 26,40t51,13q34,0 48.5-11.5T511,891q0-11-1-17L491,733q94-2 159-32t98-80.5T781,506ZM425,308q112,10 159,60.5T631,487q0,61-37.5,97.5T475,625q-24-167-50-317ZM207,16q25,0 38,69q16,86 23,128q-6,0-14,2q-30,5-38,17.5T208,266q0,24 11.5,37T253,316q10,0 15-1l17-3q26,157 45,287q-87-40-132-140.5T153,207q0-69 15-130t39-61Z"/>
      <glyph unicode="&#xdf;" glyph-name="germandbls" horiz-adv-x="596" d="M690,244q32-14 32-45q0-46-30-46q-12,0-22,5q-54,23-102,33q9-22 9-52q0-69-54-109.5T381-11T249,25.5T205,115q0,44 29,80.5T314,254q-50,45-50,105q0,43 25.5,76T374,508q41,27 60.5,50.5T454,612q0,34-21.5,54T373,686q-86,0-137.5-105.5T177,258q-5-184-5-347v-90q0-19-20.5-30T103-220q-24,0-42,9.5T43-183Q43-10 53,247Q64,526 154.5,653.5T388,781q58,0 99.5-21.5T551,701t22-82q0-59-27.5-97.5T466,448q-39-28-53.5-43.5T398,371q0-21 16-36.5T464,297q16-10 24-16q62-2 114-12t88-25ZM385,72q28,0 48,13.5T453,123q0,21-14.5,37.5T396,196q-38-10-57.5-30.5T319,121q0-20 17.5-34.5T385,72Z"/>
      <glyph unicode="&#xe0;" glyph-name="agrave" horiz-adv-x="470" d="M171-5Q109-5 72,40T35,158q0,80 37,151.5t98.5,115T301,468q22,0 29.5-8.5T343,429q21,4 44,4q49,0 49-35q0-21-15-100q-23-115-23-160q0-15 7.5-24t19.5-9q19,0 46,24.5T544,209q12,14 27,14q13,0 20.5-12t7.5-33q0-40-19-62q-41-51-87-86T404-5q-33,0-60.5,22.5T302,79Q250-5 171-5ZM207,96q22,0 42,26t29,69l37,184q-42-1-77.5-31.5T181,263T160,157q0-31 12.5-46T207,96ZM310,532q-18,0-31,17L150,715q-22,28-22,56t19.5,46T192,835q17,0 32-10t24-30l93-208q4-9 4-19q0-15-10.5-25.5T310,532Z"/>
      <glyph unicode="&#xe1;" glyph-name="aacute" horiz-adv-x="470" d="M171-5Q109-5 72,40T35,158q0,80 37,151.5t98.5,115T301,468q22,0 29.5-8.5T343,429q21,4 44,4q49,0 49-35q0-21-15-100q-23-115-23-160q0-15 7.5-24t19.5-9q19,0 46,24.5T544,209q12,14 27,14q13,0 20.5-12t7.5-33q0-40-19-62q-41-51-87-86T404-5q-33,0-60.5,22.5T302,79Q250-5 171-5ZM207,96q22,0 42,26t29,69l37,184q-42-1-77.5-31.5T181,263T160,157q0-31 12.5-46T207,96ZM310,532q-14,0-24.5,10.5T275,568q0,7 5,19l93,208q9,20 23.5,29.5T429,834q25,0 44.5-18T493,771q0-28-22-56L342,549q-13-17-32-17Z"/>
      <glyph unicode="&#xe2;" glyph-name="acircumflex" horiz-adv-x="470" d="M171-5Q109-5 72,40T35,158q0,80 37,151.5t98.5,115T301,468q22,0 29.5-8.5T343,429q21,4 44,4q49,0 49-35q0-21-15-100q-23-115-23-160q0-15 7.5-24t19.5-9q19,0 46,24.5T544,209q12,14 27,14q13,0 20.5-12t7.5-33q0-40-19-62q-41-51-87-86T404-5q-33,0-60.5,22.5T302,79Q250-5 171-5ZM207,96q22,0 42,26t29,69l37,184q-42-1-77.5-31.5T181,263T160,157q0-31 12.5-46T207,96ZM420,531q-23,0-37,11.5T365,585L342,762L255,585q-15-31-32-42t-38-11t-33.5,9.5T139,569q0,17 11,36L262,798q18,31 40.5,46.5T356,860q30,0 47-18t26-57l44-180q3-12 3-22q0-25-16.5-38.5T420,531Z"/>
      <glyph unicode="&#xe3;" glyph-name="atilde" horiz-adv-x="470" d="M171-5Q109-5 72,40T35,158q0,80 37,151.5t98.5,115T301,468q22,0 29.5-8.5T343,429q21,4 44,4q49,0 49-35q0-21-15-100q-23-115-23-160q0-15 7.5-24t19.5-9q19,0 46,24.5T544,209q12,14 27,14q13,0 20.5-12t7.5-33q0-40-19-62q-41-51-87-86T404-5q-33,0-60.5,22.5T302,79Q250-5 171-5ZM207,96q22,0 42,26t29,69l37,184q-42-1-77.5-31.5T181,263T160,157q0-31 12.5-46T207,96ZM410,532q-16,0-30,5.5T344,558L237,632l-44-63q-16-22-45-22q-18,0-30.5,10.5T105,586q0,23 37,77q23,33 45,48.5T235,727q17,0 30.5-5T301,701l107-74l44,63q16,22 45,22q18,0 30.5-10.5T540,673q0-14-9.5-31.5T503,596q-23-33-45-48.5T410,532Z"/>
      <glyph unicode="&#xe4;" glyph-name="adieresis" horiz-adv-x="470" d="M171-5Q109-5 72,40T35,158q0,80 37,151.5t98.5,115T301,468q22,0 29.5-8.5T343,429q21,4 44,4q49,0 49-35q0-21-15-100q-23-115-23-160q0-15 7.5-24t19.5-9q19,0 46,24.5T544,209q12,14 27,14q13,0 20.5-12t7.5-33q0-40-19-62q-41-51-87-86T404-5q-33,0-60.5,22.5T302,79Q250-5 171-5ZM207,96q22,0 42,26t29,69l37,184q-42-1-77.5-31.5T181,263T160,157q0-31 12.5-46T207,96Zm3,436q-32,0-50,17.5T142,604q0,40 21.5,62.5T221,689q32,0 50-17.5T289,617q0-40-21.5-62.5T210,532Zm208,0q-32,0-50,17.5T350,604q0,40 21.5,62.5T429,689q32,0 50-17.5T497,617q0-40-21.5-62.5T418,532Z"/>
      <glyph unicode="&#xe5;" glyph-name="aring" horiz-adv-x="470" d="M171-5Q109-5 72,40T35,158q0,80 37,151.5t98.5,115T301,468q22,0 29.5-8.5T343,429q21,4 44,4q49,0 49-35q0-21-15-100q-23-115-23-160q0-15 7.5-24t19.5-9q19,0 46,24.5T544,209q12,14 27,14q13,0 20.5-12t7.5-33q0-40-19-62q-41-51-87-86T404-5q-33,0-60.5,22.5T302,79Q250-5 171-5ZM207,96q22,0 42,26t29,69l37,184q-42-1-77.5-31.5T181,263T160,157q0-31 12.5-46T207,96ZM320,532q-53,0-91,35.5T191,664q0,45 19.5,78.5t52,51.5T332,812q53,0 91-35.5T461,680q0-45-19.5-78.5t-52-51.5T320,532Zm4,88q20,0 34,15t14,40q0,22-13,35.5T328,724q-20,0-34-15t-14-40q0-22 13-35.5T324,620Z"/>
      <glyph unicode="&#xe6;" glyph-name="ae" horiz-adv-x="653" d="M754,223q13,0 20.5-12t7.5-33q0-40-19-62Q726,71 658.5,33T514-5Q447-5 399.5,18.5T325,85q-20-42-58.5-66T182-5Q114-5 75,42.5T36,170q0,82 37,150T178,428t158,40q22,0 31-10t15-40q25,23 61,35.5T519,466q58,0 93-34.5T647,338q0-69-49.5-118.5T430,141q25-46 95-46q45,0 102.5,31.5T727,209q12,14 27,14ZM294,251q14,70 44,119q-82-1-130-52.5T160,175q0-37 13-58t36-21q25,0 45,27t30,78l10,50ZM502,368q-37,0-62.5-43T414,221v-2q59,14 93,42t34,65q0,19-10.5,30.5T502,368Z"/>
      <glyph unicode="&#xe7;" glyph-name="ccedilla" horiz-adv-x="368" d="M469,223q13,0 20.5-12t7.5-33q0-38-19-62q-34-42-78.5-70.5T307,4q39-33 39-90q0-47-22.5-84.5t-65-58.5T159-250q-38,0-62,5q-39,7-39,44q0,45 40,45q8,0 13-1q27-4 53-4q40,0 62.5,16.5T249-94q0,25-21.5,39.5T169-40q-26,0-40,7T115-9q0,6 1,9q3,15 9,22Q80,46 56,92T32,197q0,81 32,142t83,94t107,33q55,0 85.5-32.5T370,350q0-42-18.5-71T303,250q-19,0-30.5,9T261,284q0,7 2,16t3,13q5,15 5,28t-6.5,20T246,368q-23,0-43-20.5T171,292t-12-77Q159,99 260,99q41,0 88.5,27.5T442,209q12,14 27,14Z"/>
      <glyph unicode="&#xe8;" glyph-name="egrave" horiz-adv-x="393" d="M494,223q13,0 20.5-12t7.5-33q0-40-19-62Q466,71 398.5,33T254-5Q149-5 91,52T33,208q0,69 29,128.5T142.5,431T259,466q58,0 93-34.5T387,338q0-69-49.5-118.5T170,141q25-46 95-46q45,0 102.5,31.5T467,209q12,14 27,14ZM242,368q-37,0-62.5-43T154,221v-2q59,14 93,42t34,65q0,19-10.5,30.5T242,368Zm26,164q-18,0-31,17L108,715q-22,28-22,56t19.5,46T150,835q17,0 32-10t24-30l93-208q4-9 4-19q0-15-10.5-25.5T268,532Z"/>
      <glyph unicode="&#xe9;" glyph-name="eacute" horiz-adv-x="393" d="M494,223q13,0 20.5-12t7.5-33q0-40-19-62Q466,71 398.5,33T254-5Q149-5 91,52T33,208q0,69 29,128.5T142.5,431T259,466q58,0 93-34.5T387,338q0-69-49.5-118.5T170,141q25-46 95-46q45,0 102.5,31.5T467,209q12,14 27,14ZM242,368q-37,0-62.5-43T154,221v-2q59,14 93,42t34,65q0,19-10.5,30.5T242,368Zm26,164q-14,0-24.5,10.5T233,568q0,7 5,19l93,208q9,20 23.5,29.5T387,834q25,0 44.5-18T451,771q0-28-22-56L300,549q-13-17-32-17Z"/>
      <glyph unicode="&#xea;" glyph-name="ecircumflex" horiz-adv-x="393" d="M494,223q13,0 20.5-12t7.5-33q0-40-19-62Q466,71 398.5,33T254-5Q149-5 91,52T33,208q0,69 29,128.5T142.5,431T259,466q58,0 93-34.5T387,338q0-69-49.5-118.5T170,141q25-46 95-46q45,0 102.5,31.5T467,209q12,14 27,14ZM242,368q-37,0-62.5-43T154,221v-2q59,14 93,42t34,65q0,19-10.5,30.5T242,368ZM378,531q-23,0-37,11.5T323,585L300,762L213,585q-15-31-32-42t-38-11t-33.5,9.5T97,569q0,17 11,36L220,798q18,31 40.5,46.5T314,860q30,0 47-18t26-57l44-180q3-12 3-22q0-25-16.5-38.5T378,531Z"/>
      <glyph unicode="&#xeb;" glyph-name="edieresis" horiz-adv-x="393" d="M494,223q13,0 20.5-12t7.5-33q0-40-19-62Q466,71 398.5,33T254-5Q149-5 91,52T33,208q0,69 29,128.5T142.5,431T259,466q58,0 93-34.5T387,338q0-69-49.5-118.5T170,141q25-46 95-46q45,0 102.5,31.5T467,209q12,14 27,14ZM242,368q-37,0-62.5-43T154,221v-2q59,14 93,42t34,65q0,19-10.5,30.5T242,368ZM168,532q-32,0-50,17.5T100,604q0,40 21.5,62.5T179,689q32,0 50-17.5T247,617q0-40-21.5-62.5T168,532Zm208,0q-32,0-50,17.5T308,604q0,40 21.5,62.5T387,689q32,0 50-17.5T455,617q0-40-21.5-62.5T376,532Z"/>
      <glyph unicode="&#xec;" glyph-name="igrave" horiz-adv-x="246" d="M171-5Q106-5 76.5,41T47,163q0,45 11.5,115.5T88,410q9,32 24,44t48,12q51,0 51-34q0-25-19-116q-24-110-24-149q0-30 8-46t27-16q18,0 45,25t72,79q12,14 27,14q13,0 20.5-12t7.5-33q0-40-19-62Q257-5 171-5Zm-2,537q-18,0-31,17L9,715q-22,28-22,56T6.5,817T51,835q17,0 32-10t24-30l93-208q4-9 4-19q0-15-10.5-25.5T169,532Z"/>
      <glyph unicode="&#xed;" glyph-name="iacute" horiz-adv-x="246" d="M171-5Q106-5 76.5,41T47,163q0,45 11.5,115.5T88,410q9,32 24,44t48,12q51,0 51-34q0-25-19-116q-24-110-24-149q0-30 8-46t27-16q18,0 45,25t72,79q12,14 27,14q13,0 20.5-12t7.5-33q0-40-19-62Q257-5 171-5Zm-2,537q-14,0-24.5,10.5T134,568q0,7 5,19l93,208q9,20 23.5,29.5T288,834q25,0 44.5-18T352,771q0-28-22-56L201,549q-13-17-32-17Z"/>
      <glyph unicode="&#xee;" glyph-name="icircumflex" horiz-adv-x="246" d="M171-5Q106-5 76.5,41T47,163q0,45 11.5,115.5T88,410q9,32 24,44t48,12q51,0 51-34q0-25-19-116q-24-110-24-149q0-30 8-46t27-16q18,0 45,25t72,79q12,14 27,14q13,0 20.5-12t7.5-33q0-40-19-62Q257-5 171-5ZM279,531q-23,0-37,11.5T224,585L201,762L114,585q-15-31-32-42T44,532t-33.5,9.5T-2,569q0,17 11,36L121,798q18,31 40.5,46.5T215,860q30,0 47-18t26-57l44-180q3-12 3-22q0-25-16.5-38.5T279,531Z"/>
      <glyph unicode="&#xef;" glyph-name="idieresis" horiz-adv-x="246" d="M171-5Q106-5 76.5,41T47,163q0,45 11.5,115.5T88,410q9,32 24,44t48,12q51,0 51-34q0-25-19-116q-24-110-24-149q0-30 8-46t27-16q18,0 45,25t72,79q12,14 27,14q13,0 20.5-12t7.5-33q0-40-19-62Q257-5 171-5ZM69,532q-32,0-50,17.5T1,604q0,40 21.5,62.5T80,689q32,0 50-17.5T148,617q0-40-21.5-62.5T69,532Zm208,0q-32,0-50,17.5T209,604q0,40 21.5,62.5T288,689q32,0 50-17.5T356,617q0-40-21.5-62.5T277,532Z"/>
      <glyph unicode="&#xf0;" glyph-name="eth" horiz-adv-x="451" d="M510,854q8-14 8-28q0-24-29-52t-96-68q29-65 45-142.5T454,403q0-120-26.5-212T348,47T219-5Q159-5 117,24.5T54,102T33,205q0,76 29,135.5t78.5,93T249,467q47,0 79-20q-6,117-37,202l-90-47q-9-5-20-5q-21,0-36.5,19.5T129,656q0,16 12,23q41,23 108,58q-38,67-100,132q-6,8-6,15q0,16 20,28.5T208,925q16,0 29-7q20-10 49.5-44.5T346,792q26,16 50,35q40,29 61,41q11,7 22,7q19,0 31-21ZM227,101q36,0 65,57t35,170q-16,16-34,24.5T259,361q-48,0-74.5-37.5T158,214q0-54 21-83.5T227,101Z"/>
      <glyph unicode="&#xf1;" glyph-name="ntilde" horiz-adv-x="496" d="M119-5Q81-5 65.5,35T50,163q0,130 37,247q9,29 29.5,42.5T174,466q20,0 28-5t8-19q0-16-15-72q-10-40-16-70t-10-74q33,86 74,140t80.5,77T396,466q65,0 65-65q0-39-22-141q-19-87-19-115q0-40 29-40q20,0 47.5,24.5T570,209q12,14 27,14q13,0 20.5-12t7.5-33q0-40-19-62q-43-53-92.5-87T401-5q-51,0-77,29.5T298,110q0,28 14,100q13,63 13,87q0,16-11,16q-13,0-36.5-33.5t-48-88.5T190,75q-11-47-25.5-63.5T119-5ZM416,532q-16,0-30,5.5T350,558L243,632l-44-63q-16-22-45-22q-18,0-30.5,10.5T111,586q0,23 37,77q23,33 45,48.5T241,727q17,0 30.5-5T307,701l107-74l44,63q16,22 45,22q18,0 30.5-10.5T546,673q0-14-9.5-31.5T509,596q-23-33-45-48.5T416,532Z"/>
      <glyph unicode="&#xf2;" glyph-name="ograve" horiz-adv-x="451" d="M558,307q13,0 20-13t7-33q0-48-29-57q-60-21-132-24Q405,96 349,45.5T222-5Q162-5 119.5,24T55,101T33,205q0,76 29,135.5t80,93T255,467q76,0 122.5-52.5T432,285q47,3 112,20q8,2 14,2ZM230,101q32,0 55.5,26T317,202q-31,21-47.5,55T253,329q0,16 3,32h-5q-40,0-66.5-38.5T158,214q0-55 21.5-84T230,101Zm34,431q-18,0-31,17L104,715q-22,28-22,56t19.5,46T146,835q17,0 32-10t24-30l93-208q4-9 4-19q0-15-10.5-25.5T264,532Z"/>
      <glyph unicode="&#xf3;" glyph-name="oacute" horiz-adv-x="451" d="M558,307q13,0 20-13t7-33q0-48-29-57q-60-21-132-24Q405,96 349,45.5T222-5Q162-5 119.5,24T55,101T33,205q0,76 29,135.5t80,93T255,467q76,0 122.5-52.5T432,285q47,3 112,20q8,2 14,2ZM230,101q32,0 55.5,26T317,202q-31,21-47.5,55T253,329q0,16 3,32h-5q-40,0-66.5-38.5T158,214q0-55 21.5-84T230,101Zm34,431q-14,0-24.5,10.5T229,568q0,7 5,19l93,208q9,20 23.5,29.5T383,834q25,0 44.5-18T447,771q0-28-22-56L296,549q-13-17-32-17Z"/>
      <glyph unicode="&#xf4;" glyph-name="ocircumflex" horiz-adv-x="451" d="M558,307q13,0 20-13t7-33q0-48-29-57q-60-21-132-24Q405,96 349,45.5T222-5Q162-5 119.5,24T55,101T33,205q0,76 29,135.5t80,93T255,467q76,0 122.5-52.5T432,285q47,3 112,20q8,2 14,2ZM230,101q32,0 55.5,26T317,202q-31,21-47.5,55T253,329q0,16 3,32h-5q-40,0-66.5-38.5T158,214q0-55 21.5-84T230,101ZM374,531q-23,0-37,11.5T319,585L296,762L209,585q-15-31-32-42t-38-11t-33.5,9.5T93,569q0,17 11,36L216,798q18,31 40.5,46.5T310,860q30,0 47-18t26-57l44-180q3-12 3-22q0-25-16.5-38.5T374,531Z"/>
      <glyph unicode="&#xf5;" glyph-name="otilde" horiz-adv-x="451" d="M558,307q13,0 20-13t7-33q0-48-29-57q-60-21-132-24Q405,96 349,45.5T222-5Q162-5 119.5,24T55,101T33,205q0,76 29,135.5t80,93T255,467q76,0 122.5-52.5T432,285q47,3 112,20q8,2 14,2ZM230,101q32,0 55.5,26T317,202q-31,21-47.5,55T253,329q0,16 3,32h-5q-40,0-66.5-38.5T158,214q0-55 21.5-84T230,101ZM364,532q-16,0-30,5.5T298,558L191,632l-44-63q-16-22-45-22q-18,0-30.5,10.5T59,586q0,23 37,77q23,33 45,48.5T189,727q17,0 30.5-5T255,701l107-74l44,63q16,22 45,22q18,0 30.5-10.5T494,673q0-14-9.5-31.5T457,596q-23-33-45-48.5T364,532Z"/>
      <glyph unicode="&#xf6;" glyph-name="odieresis" horiz-adv-x="451" d="M558,307q13,0 20-13t7-33q0-48-29-57q-60-21-132-24Q405,96 349,45.5T222-5Q162-5 119.5,24T55,101T33,205q0,76 29,135.5t80,93T255,467q76,0 122.5-52.5T432,285q47,3 112,20q8,2 14,2ZM230,101q32,0 55.5,26T317,202q-31,21-47.5,55T253,329q0,16 3,32h-5q-40,0-66.5-38.5T158,214q0-55 21.5-84T230,101ZM164,532q-32,0-50,17.5T96,604q0,40 21.5,62.5T175,689q32,0 50-17.5T243,617q0-40-21.5-62.5T164,532Zm208,0q-32,0-50,17.5T304,604q0,40 21.5,62.5T383,689q32,0 50-17.5T451,617q0-40-21.5-62.5T372,532Z"/>
      <glyph unicode="&#xf7;" glyph-name="divide" horiz-adv-x="700" d="M372,400q-37,0-55.5,20T298,473q0,37 21,59.5T378,555q75,0 75-71q0-39-21.5-61.5T372,400ZM130,216q-23,0-35,14.5T83,265q0,25 16.5,45T144,330H584q23,0 35-14t12-34q0-25-16.5-45.5T570,216H130ZM322-5q-37,0-55.5,20T248,68q0,37 21,59.5T328,150q75,0 75-71q0-39-21.5-61.5T322-5Z"/>
      <glyph unicode="&#xf8;" glyph-name="oslash" horiz-adv-x="459" d="M566,307q13,0 20-13t7-33q0-48-29-57q-60-21-129-24q-19-80-74-130T234-5L217-105q-2-12-14-18.5T176-130t-24.5,6.5T144-105L164,3Q100,22 66.5,78.5T33,205q0,74 28,133t76,93t108,36l17,99q2,12 14,18.5t27,6.5t24.5-6.5T335,566L315,458q56-17 89-64.5T443,285q46,4 109,20q6,2 14,2ZM155,214q0-69 29-98l25,136l18,109q-31-9-51.5-45.5T155,214Zm97-113q36,9 55.5,46.5T327,248q0,70-32,99l-17-92L252,101Z"/>
      <glyph unicode="&#xf9;" glyph-name="ugrave" horiz-adv-x="462" d="M150-5Q105-5 76.5,36.5T48,140q0,75 10,137.5T91,410q10,30 28,43t57,13q22,0 30.5-7t8.5-21q0-8-11-54q-10-37-16-67q-20-105-20-140q0-21 5-29.5t16-8.5q15,0 37.5,30t48,91T324,410q8,30 24.5,43T398,466q23,0 32-5.5t9-20.5q0-25-25-137q-28-128-28-158q0-19 8-29.5T415,105q20,0 47.5,24.5T536,209q12,14 27,14q13,0 20.5-12t7.5-33q0-40-19-62q-43-53-92.5-87T367-5q-48,0-70.5,37T274,136Q257,68 223,31.5T150-5ZM296,532q-18,0-31,17L136,715q-22,28-22,56t19.5,46T178,835q17,0 32-10t24-30l93-208q4-9 4-19q0-15-10.5-25.5T296,532Z"/>
      <glyph unicode="&#xfa;" glyph-name="uacute" horiz-adv-x="462" d="M150-5Q105-5 76.5,36.5T48,140q0,75 10,137.5T91,410q10,30 28,43t57,13q22,0 30.5-7t8.5-21q0-8-11-54q-10-37-16-67q-20-105-20-140q0-21 5-29.5t16-8.5q15,0 37.5,30t48,91T324,410q8,30 24.5,43T398,466q23,0 32-5.5t9-20.5q0-25-25-137q-28-128-28-158q0-19 8-29.5T415,105q20,0 47.5,24.5T536,209q12,14 27,14q13,0 20.5-12t7.5-33q0-40-19-62q-43-53-92.5-87T367-5q-48,0-70.5,37T274,136Q257,68 223,31.5T150-5ZM296,532q-14,0-24.5,10.5T261,568q0,7 5,19l93,208q9,20 23.5,29.5T415,834q25,0 44.5-18T479,771q0-28-22-56L328,549q-13-17-32-17Z"/>
      <glyph unicode="&#xfb;" glyph-name="ucircumflex" horiz-adv-x="462" d="M150-5Q105-5 76.5,36.5T48,140q0,75 10,137.5T91,410q10,30 28,43t57,13q22,0 30.5-7t8.5-21q0-8-11-54q-10-37-16-67q-20-105-20-140q0-21 5-29.5t16-8.5q15,0 37.5,30t48,91T324,410q8,30 24.5,43T398,466q23,0 32-5.5t9-20.5q0-25-25-137q-28-128-28-158q0-19 8-29.5T415,105q20,0 47.5,24.5T536,209q12,14 27,14q13,0 20.5-12t7.5-33q0-40-19-62q-43-53-92.5-87T367-5q-48,0-70.5,37T274,136Q257,68 223,31.5T150-5ZM406,531q-23,0-37,11.5T351,585L328,762L241,585q-15-31-32-42t-38-11t-33.5,9.5T125,569q0,17 11,36L248,798q18,31 40.5,46.5T342,860q30,0 47-18t26-57l44-180q3-12 3-22q0-25-16.5-38.5T406,531Z"/>
      <glyph unicode="&#xfc;" glyph-name="udieresis" horiz-adv-x="462" d="M150-5Q105-5 76.5,36.5T48,140q0,75 10,137.5T91,410q10,30 28,43t57,13q22,0 30.5-7t8.5-21q0-8-11-54q-10-37-16-67q-20-105-20-140q0-21 5-29.5t16-8.5q15,0 37.5,30t48,91T324,410q8,30 24.5,43T398,466q23,0 32-5.5t9-20.5q0-25-25-137q-28-128-28-158q0-19 8-29.5T415,105q20,0 47.5,24.5T536,209q12,14 27,14q13,0 20.5-12t7.5-33q0-40-19-62q-43-53-92.5-87T367-5q-48,0-70.5,37T274,136Q257,68 223,31.5T150-5Zm46,537q-32,0-50,17.5T128,604q0,40 21.5,62.5T207,689q32,0 50-17.5T275,617q0-40-21.5-62.5T196,532Zm208,0q-32,0-50,17.5T336,604q0,40 21.5,62.5T415,689q32,0 50-17.5T483,617q0-40-21.5-62.5T404,532Z"/>
      <glyph unicode="&#xfd;" glyph-name="yacute" horiz-adv-x="479" d="M560,221q13,0 20.5-12.5T588,177q0-23-7-36t-22-23L367-11q-38-207-99.5-325.5T111-455q-51,0-83,31.5T-4-341q0,47 21.5,96t80,112.5T263,13l3,23q7,37 16,106Q262,70 226,32.5T150-5Q105-5 76.5,36.5T48,140q0,75 10,137.5T91,410q10,30 28,43t57,13q22,0 30.5-7t8.5-21q0-8-11-54q-10-37-16-67q-8-41-14-78.5T168,177q0-38 21-38q15,0 37.5,30t48,91T324,410q8,30 24.5,43T398,466q23,0 32-6t9-20q0-25-26-172L387,107q77,58 150,106q13,8 23,8ZM122-358q25,0 56,58t62,193q-77-65-111.5-118.5T94-319q0-17 6.5-28T122-358ZM296,532q-14,0-24.5,10.5T261,568q0,7 5,19l93,208q9,20 23.5,29.5T415,834q25,0 44.5-18T479,771q0-28-22-56L328,549q-13-17-32-17Z"/>
      <glyph unicode="&#xfe;" glyph-name="thorn" horiz-adv-x="508" d="M609,223q13,0 20.5-12t7.5-33q0-40-19-62q-43-53-92.5-87T413-5q-58,0-92,45Q250-1 150-11q-2-94-2-138l1-128q0-32-19.5-45T82-335T39-324T24-286q0,104 5.5,247.5T48,228q23,219 79,484q8,40 26.5,56T199,784q33,0 48-10t15-32q0-6-4-26q-49-200-85-433q38,88 88,135.5T365,466q45,0 75.5-37.5T471,321q0-125-67-209q21-7 38-7q33,0 63,24t77,80q12,14 27,14ZM165,90q87,11 133.5,62T345,276q0,60-30,60q-23,0-51.5-34.5t-55-91T165,90Z"/>
      <glyph unicode="&#xff;" glyph-name="ydieresis" horiz-adv-x="479" d="M560,221q13,0 20.5-12.5T588,177q0-23-7-36t-22-23L367-11q-38-207-99.5-325.5T111-455q-51,0-83,31.5T-4-341q0,47 21.5,96t80,112.5T263,13l3,23q7,37 16,106Q262,70 226,32.5T150-5Q105-5 76.5,36.5T48,140q0,75 10,137.5T91,410q10,30 28,43t57,13q22,0 30.5-7t8.5-21q0-8-11-54q-10-37-16-67q-8-41-14-78.5T168,177q0-38 21-38q15,0 37.5,30t48,91T324,410q8,30 24.5,43T398,466q23,0 32-6t9-20q0-25-26-172L387,107q77,58 150,106q13,8 23,8ZM122-358q25,0 56,58t62,193q-77-65-111.5-118.5T94-319q0-17 6.5-28T122-358Zm74,890q-32,0-50,17.5T128,604q0,40 21.5,62.5T207,689q32,0 50-17.5T275,617q0-40-21.5-62.5T196,532Zm208,0q-32,0-50,17.5T336,604q0,40 21.5,62.5T415,689q32,0 50-17.5T483,617q0-40-21.5-62.5T404,532Z"/>
      <glyph unicode="&#x2013;" glyph-name="endash" horiz-adv-x="484" d="M108,246q-25,0-39,15.5T55,305q0,27 14,41t39,14H395q52,0 52-55q0-28-13.5-43.5T395,246H108Z"/>
      <glyph unicode="&#x2014;" glyph-name="emdash" horiz-adv-x="620" d="M108,246q-25,0-39,15.5T55,305q0,27 14,41t39,14H531q52,0 52-55q0-28-13.5-43.5T531,246H108Z"/>
      <glyph unicode="&#x2018;" glyph-name="quoteleft" horiz-adv-x="237" d="M176,595q-36,0-54.5,19.5T103,667q0,35 21,93t51,113q20,37 31.5,49T237,934q22,0 35-10t13-32q0-9-3-21q-11-46-16.5-85T260,699q0-50-23.5-77T176,595Z"/>
      <glyph unicode="&#x2019;" glyph-name="quoteright" horiz-adv-x="236" d="M161,595q-22,0-35,10t-13,32q0,9 3,21q11,46 16.5,85t5.5,87q0,50 23.5,77T222,934q36,0 54.5-19.5T295,862q0-35-21-93T223,656q-20-37-31.5-49T161,595Z"/>
      <glyph unicode="&#x201a;" glyph-name="quotesinglbase" horiz-adv-x="257" d="M64-158q-22,0-35,10T16-116q0,9 3,21Q30-49 35.5-10T41,77q0,50 23.5,77T125,181q36,0 54.5-19.5T198,109q0-35-21-93T126-97q-20-37-31.5-49T64-158Z"/>
      <glyph unicode="&#x201c;" glyph-name="quotedblleft" horiz-adv-x="457" d="M176,595q-36,0-54.5,19.5T103,667q0,35 21,93t51,113q20,37 31.5,49T237,934q22,0 35-10t13-32q0-9-3-21q-11-46-16.5-85T260,699q0-50-23.5-77T176,595Zm220,0q-36,0-54.5,19.5T323,667q0,35 21,93t51,113q20,37 31.5,49T457,934q22,0 35-10t13-32q0-9-3-21q-11-46-16.5-85T480,699q0-50-23.5-77T396,595Z"/>
      <glyph unicode="&#x201d;" glyph-name="quotedblright" horiz-adv-x="456" d="M161,595q-22,0-35,10t-13,32q0,9 3,21q11,46 16.5,85t5.5,87q0,50 23.5,77T222,934q36,0 54.5-19.5T295,862q0-35-21-93T223,656q-20-37-31.5-49T161,595Zm220,0q-22,0-35,10t-13,32q0,9 3,21q11,46 16.5,85t5.5,87q0,50 23.5,77T442,934q36,0 54.5-19.5T515,862q0-35-21-93T443,656q-20-37-31.5-49T381,595Z"/>
      <glyph unicode="&#x201e;" glyph-name="quotedblbase" horiz-adv-x="477" d="M64-158q-22,0-35,10T16-116q0,9 3,21Q30-49 35.5-10T41,77q0,50 23.5,77T125,181q36,0 54.5-19.5T198,109q0-35-21-93T126-97q-20-37-31.5-49T64-158Zm220,0q-22,0-35,10t-13,32q0,9 3,21q11,46 16.5,85T261,77q0,50 23.5,77T345,181q36,0 54.5-19.5T418,109q0-35-21-93T346-97q-20-37-31.5-49T284-158Z"/>
      <glyph unicode="&#x2022;" glyph-name="bullet" horiz-adv-x="512" d="M251,84q-73,0-111,40T102,229q0,76 42.5,120.5T264,394q74,0 111.5-36.5T413,252q0-77-43-122.5T251,84Z"/>
      <glyph unicode="&#x2039;" glyph-name="guilsinglleft" horiz-adv-x="350" d="M64,171q-37,31-37,66q0,21 7,39t21,27L214,411q18,12 36,12q23,0 39.5-16.5T306,369q0-24-23-40L154,240L284,129q15-12 15-30q0-21-20.5-39T234,42q-18,0-29,10L64,171Z"/>
      <glyph unicode="&#x203a;" glyph-name="guilsinglright" horiz-adv-x="350" d="M137,54q-18-12-36-12Q78,42 61.5,58.5T45,96q0,24 23,40l129,89L67,336q-15,12-15,30q0,21 20.5,39T117,423q18,0 29-10L287,294q37-31 37-66q0-21-7-39t-21-27L137,54Z"/>
    </font>
</defs>
</svg>
